<svg xmlns="http://www.w3.org/2000/svg" viewBox="0 0 322.04 360.31"><defs><style>.cls-1{fill:#f48167;}</style></defs><title>Asset 5</title><g id="Layer_2" data-name="Layer 2"><g id="Layer_1-2" data-name="Layer 1"><polygon class="cls-1" points="150.83 0.11 152.25 0.17 152.22 0.36 150.83 0.11"/><polygon class="cls-1" points="155.08 0.47 157.87 0.98 157.65 1.85 154.95 1.01 155.08 0.47"/><polygon class="cls-1" points="160.67 1.71 163.36 2.59 162.82 3.98 160.24 2.83 160.67 1.71"/><polygon class="cls-1" points="166.07 3.66 168.64 4.85 167.71 6.65 165.25 5.24 166.07 3.66"/><polygon class="cls-1" points="171.23 6.22 173.67 7.65 172.29 9.77 169.99 8.13 171.23 6.22"/><polygon class="cls-1" points="176.13 9.26 178.42 10.93 176.58 13.27 174.42 11.44 176.13 9.26"/><polygon class="cls-1" points="180.72 12.78 182.85 14.63 180.56 17.09 178.56 15.09 180.72 12.78"/><polygon class="cls-1" points="185.01 16.68 186.98 18.71 184.2 21.23 182.38 19.07 185.01 16.68"/><polygon class="cls-1" points="188.96 20.95 190.73 23.15 187.5 25.61 185.84 23.33 188.96 20.95"/><polygon class="cls-1" points="192.51 25.56 194.09 27.91 190.43 30.24 188.97 27.82 192.51 25.56"/><polygon class="cls-1" points="195.66 30.48 197.03 32.96 192.94 35.09 191.69 32.55 195.66 30.48"/><polygon class="cls-1" points="198.38 35.68 199.49 38.28 195 40.12 193.98 37.49 198.38 35.68"/><polygon class="cls-1" points="200.55 41.15 201.41 43.84 196.6 45.29 195.83 42.57 200.55 41.15"/><polygon class="cls-1" points="202.19 46.83 202.76 49.59 197.67 50.57 197.18 47.79 202.19 46.83"/><polygon class="cls-1" points="203.22 52.66 203.5 55.47 198.16 55.91 197.97 53.09 203.22 52.66"/><polygon class="cls-1" points="203.62 58.59 203.55 61.42 198.1 61.26 198.19 58.44 203.62 58.59"/><polygon class="cls-1" points="203.3 64.54 202.91 67.34 197.45 66.56 197.87 63.76 203.3 64.54"/><polygon class="cls-1" points="202.31 70.41 201.61 73.15 196.22 71.75 196.94 69.02 202.31 70.41"/><polygon class="cls-1" points="200.67 76.14 199.68 78.78 194.42 76.78 195.44 74.15 200.67 76.14"/><polygon class="cls-1" points="198.43 81.64 197.17 84.16 192.11 81.62 193.38 79.1 198.43 81.64"/><polygon class="cls-1" points="195.63 86.85 194.11 89.23 189.37 86.25 190.86 83.85 195.63 86.85"/><polygon class="cls-1" points="192.35 91.75 190.63 93.99 186.21 90.63 187.91 88.38 192.35 91.75"/><polygon class="cls-1" points="188.77 96.23 186.99 98.42 182.71 94.98 184.47 92.77 188.77 96.23"/><polygon class="cls-1" points="185.33 100.56 183.65 102.83 179.27 99.62 180.92 97.33 185.33 100.56"/><polygon class="cls-1" points="182.08 105.02 180.48 107.36 176.08 104.44 177.6 102.06 182.08 105.02"/><polygon class="cls-1" points="179.01 109.62 177.53 112.03 173.13 109.41 174.54 106.96 179.01 109.62"/><polygon class="cls-1" points="176.17 114.36 174.81 116.84 170.44 114.52 171.72 112.01 176.17 114.36"/><polygon class="cls-1" points="173.56 119.24 172.32 121.78 168 119.76 169.16 117.18 173.56 119.24"/><polygon class="cls-1" points="171.17 124.24 170.03 126.83 165.87 125.12 166.88 122.48 171.17 124.24"/><polygon class="cls-1" points="169 129.34 167.99 131.98 164.02 130.58 164.89 127.89 169 129.34"/><polygon class="cls-1" points="167.09 134.55 166.21 137.24 162.44 136.12 163.18 133.39 167.09 134.55"/><polygon class="cls-1" points="165.42 139.86 164.65 142.58 161.19 141.73 161.76 138.97 165.42 139.86"/><polygon class="cls-1" points="163.98 145.24 163.35 148 160.22 147.4 160.66 144.6 163.98 145.24"/><polygon class="cls-1" points="162.81 150.69 162.31 153.48 159.56 153.09 159.85 150.28 162.81 150.69"/><polygon class="cls-1" points="161.88 156.21 161.5 159.01 159.22 158.81 159.35 155.98 161.88 156.21"/><polygon class="cls-1" points="161.21 161.77 160.98 164.59 159.18 164.53 159.16 161.69 161.21 161.77"/><polygon class="cls-1" points="160.8 167.37 160.7 170.21 159.5 170.23 159.3 167.4 160.8 167.37"/><polygon class="cls-1" points="160.68 173.01 160.73 175.84 160.18 175.88 159.78 173.08 160.68 173.01"/><polygon class="cls-1" points="160.89 178.74 161.02 180.16 160.7 178.78 160.89 178.74"/><polygon class="cls-1" points="150.83 0.11 152.25 0 152.24 0.3 150.83 0.11"/><polygon class="cls-1" points="155.1 0.06 157.87 0.43 157.6 1.69 154.93 0.87 155.1 0.06"/><polygon class="cls-1" points="160.72 1.1 163.38 1.98 162.57 3.94 160.06 2.71 160.72 1.1"/><polygon class="cls-1" points="166.1 3.13 168.59 4.39 167.14 6.85 164.83 5.28 166.1 3.13"/><polygon class="cls-1" points="171.14 5.95 173.42 7.55 171.3 10.26 169.2 8.43 171.14 5.95"/><polygon class="cls-1" points="175.77 9.45 177.83 11.34 174.99 14.15 173.12 12.08 175.77 9.45"/><polygon class="cls-1" points="179.92 13.56 181.7 15.71 178.17 18.41 176.56 16.13 179.92 13.56"/><polygon class="cls-1" points="183.49 18.24 184.94 20.62 180.75 23 179.46 20.53 183.49 18.24"/><polygon class="cls-1" points="186.36 23.43 187.44 26 182.67 27.85 181.73 25.22 186.36 23.43"/><polygon class="cls-1" points="188.41 29.05 189.05 31.76 183.83 32.88 183.3 30.14 188.41 29.05"/><polygon class="cls-1" points="189.51 34.97 189.66 37.75 184.16 37.98 184.08 35.2 189.51 34.97"/><polygon class="cls-1" points="189.55 41.01 189.22 43.78 183.65 43.05 184.03 40.29 189.55 41.01"/><polygon class="cls-1" points="188.54 46.96 187.74 49.63 182.33 47.99 183.15 45.32 188.54 46.96"/><polygon class="cls-1" points="186.57 52.63 185.36 55.13 180.27 52.7 181.46 50.19 186.57 52.63"/><path class="cls-1" d="M183.8,57.87,183,59c-.2.29-.39.58-.53.8s-.29.42-.29.42l-4.6-3.15.2-.31c.14-.22.33-.51.51-.81l.76-1.17Z"/><polygon class="cls-1" points="180.74 62.45 179.26 64.81 174.61 61.98 176.03 59.58 180.74 62.45"/><polygon class="cls-1" points="177.95 67.05 176.62 69.51 171.96 67.11 173.19 64.6 177.95 67.05"/><polygon class="cls-1" points="175.47 71.84 174.31 74.38 169.72 72.43 170.75 69.83 175.47 71.84"/><polygon class="cls-1" points="173.31 76.78 172.33 79.4 167.92 77.9 168.73 75.23 173.31 76.78"/><polygon class="cls-1" points="171.49 81.88 170.7 84.55 166.58 83.5 167.17 80.77 171.49 81.88"/><polygon class="cls-1" points="170.03 87.1 169.41 89.83 165.72 89.17 166.07 86.4 170.03 87.1"/><polygon class="cls-1" points="168.9 92.44 168.48 95.2 165.33 94.89 165.46 92.09 168.9 92.44"/><polygon class="cls-1" points="168.17 97.86 167.92 100.64 165.42 100.59 165.3 97.79 168.17 97.86"/><polygon class="cls-1" points="167.78 103.35 167.74 106.15 166 106.24 165.65 103.47 167.78 103.35"/><polygon class="cls-1" points="167.78 108.89 167.93 111.68 167.11 111.8 166.5 109.07 167.78 108.89"/><polygon class="cls-1" points="168.21 114.5 168.41 115.9 167.92 114.57 168.21 114.5"/><polygon class="cls-1" points="0 98.96 0.61 97.67 0.87 97.83 0 98.96"/><polygon class="cls-1" points="2.1 95.24 3.8 93.02 4.75 93.89 2.7 95.79 2.1 95.24"/><polygon class="cls-1" points="5.8 90.89 7.89 89.03 9.19 90.7 6.87 92.26 5.8 90.89"/><polygon class="cls-1" points="10.25 87.24 12.59 85.71 13.99 88.2 11.48 89.41 10.25 87.24"/><polygon class="cls-1" points="15.21 84.29 17.74 83.11 19.03 86.31 16.39 87.21 15.21 84.29"/><polygon class="cls-1" points="20.56 82.03 23.22 81.19 24.24 85.06 21.51 85.64 20.56 82.03"/><polygon class="cls-1" points="26.2 80.49 28.95 80.03 29.52 84.43 26.74 84.69 26.2 80.49"/><polygon class="cls-1" points="32.03 79.74 34.82 79.67 34.78 84.49 32 84.38 32.03 79.74"/><polygon class="cls-1" points="37.96 79.84 40.73 80.2 39.94 85.25 37.2 84.75 37.96 79.84"/><polygon class="cls-1" points="43.85 80.88 46.52 81.68 44.88 86.76 42.24 85.85 43.85 80.88"/><polygon class="cls-1" points="49.53 82.89 52.01 84.15 49.47 89.03 47.01 87.71 49.53 82.89"/><polygon class="cls-1" points="54.78 85.87 57.01 87.55 53.6 92.01 51.4 90.3 54.78 85.87"/><polygon class="cls-1" points="59.43 89.72 61.34 91.75 57.21 95.62 55.31 93.58 59.43 89.72"/><polygon class="cls-1" points="63.35 94.26 64.92 96.57 60.27 99.76 58.69 97.47 63.35 94.26"/><path class="cls-1" d="M66.51,99.29l.63,1.24.43.86.22.46-5,2.41-.17-.33-.44-.85-.64-1.24Z"/><polygon class="cls-1" points="68.94 104.23 70.25 106.69 65.47 109.3 64.1 106.87 68.94 104.23"/><polygon class="cls-1" points="71.53 108.95 73 111.32 68.59 114.16 67.03 111.84 71.53 108.95"/><polygon class="cls-1" points="74.44 113.48 76.06 115.76 72.08 118.76 70.34 116.57 74.44 113.48"/><polygon class="cls-1" points="77.64 117.83 79.42 119.98 75.92 123.05 74.01 121.02 77.64 117.83"/><polygon class="cls-1" points="81.14 121.95 83.06 123.98 80.09 127.01 78.03 125.14 81.14 121.95"/><polygon class="cls-1" points="84.94 125.83 86.99 127.72 84.58 130.6 82.36 128.9 84.94 125.83"/><polygon class="cls-1" points="89 129.47 91.17 131.22 89.33 133.79 86.98 132.28 89 129.47"/><polygon class="cls-1" points="93.33 132.82 95.61 134.42 94.31 136.56 91.83 135.27 93.33 132.82"/><polygon class="cls-1" points="97.88 135.9 100.29 137.33 99.5 138.89 96.92 137.8 97.88 135.9"/><polygon class="cls-1" points="102.68 138.67 105.18 139.93 104.87 140.7 102.19 139.87 102.68 138.67"/><polygon class="cls-1" points="107.75 141.1 109.07 141.63 107.67 141.39 107.75 141.1"/><polygon class="cls-1" points="10.19 279 9.39 277.83 9.65 277.69 10.19 279"/><polygon class="cls-1" points="8.02 275.33 6.95 272.74 8.18 272.35 8.8 275.08 8.02 275.33"/><polygon class="cls-1" points="6.1 269.94 5.54 267.21 7.63 266.92 7.82 269.71 6.1 269.94"/><polygon class="cls-1" points="5.17 264.27 5.01 261.48 7.87 261.51 7.66 264.29 5.17 264.27"/><polygon class="cls-1" points="5.09 258.5 5.34 255.72 8.75 256.2 8.21 258.94 5.09 258.5"/><polygon class="cls-1" points="5.81 252.73 6.42 250.01 10.27 251.06 9.41 253.72 5.81 252.73"/><polygon class="cls-1" points="7.29 247.09 8.27 244.47 12.37 246.18 11.2 248.71 7.29 247.09"/><polygon class="cls-1" points="9.56 241.66 10.9 239.21 15.05 241.65 13.56 244 9.56 241.66"/><polygon class="cls-1" points="12.62 236.57 14.31 234.35 18.29 237.56 16.49 239.69 12.62 236.57"/><polygon class="cls-1" points="16.46 231.99 18.49 230.08 22.07 234.04 19.96 235.87 16.46 231.99"/><polygon class="cls-1" points="21.04 228.08 23.37 226.56 26.32 231.2 23.95 232.67 21.04 228.08"/><polygon class="cls-1" points="26.25 225.02 28.82 223.93 30.97 229.11 28.39 230.16 26.25 225.02"/><polygon class="cls-1" points="31.91 222.92 34.62 222.28 35.91 227.79 33.19 228.41 31.91 222.92"/><polygon class="cls-1" points="37.8 221.79 40.58 221.59 41.02 227.21 38.24 227.44 37.8 221.79"/><path class="cls-1" d="M43.73,221.57l1.4.08.95.06.51,0-.43,5.56-.37,0-.95,0-1.4-.07Z"/><polygon class="cls-1" points="49.22 221.94 52.01 222.03 51.88 227.48 49.09 227.44 49.22 221.94"/><polygon class="cls-1" points="54.61 222.05 57.4 221.97 57.65 227.21 54.87 227.39 54.61 222.05"/><polygon class="cls-1" points="59.99 221.81 62.77 221.54 63.38 226.48 60.62 226.9 59.99 221.81"/><polygon class="cls-1" points="65.35 221.2 68.11 220.74 69.02 225.3 66.3 225.94 65.35 221.2"/><polygon class="cls-1" points="70.67 220.23 73.39 219.58 74.53 223.67 71.88 224.52 70.67 220.23"/><polygon class="cls-1" points="75.93 218.88 78.6 218.05 79.88 221.58 77.3 222.66 75.93 218.88"/><polygon class="cls-1" points="81.11 217.19 83.72 216.17 85.02 219.06 82.54 220.34 81.11 217.19"/><polygon class="cls-1" points="86.17 215.11 88.71 213.93 89.91 216.13 87.55 217.63 86.17 215.11"/><polygon class="cls-1" points="91.13 212.71 93.57 211.34 94.52 212.8 92.29 214.49 91.13 212.71"/><polygon class="cls-1" points="95.92 209.94 98.26 208.41 98.77 209.06 96.72 210.96 95.92 209.94"/><polygon class="cls-1" points="100.56 206.76 101.68 205.89 100.77 206.97 100.56 206.76"/><polygon class="cls-1" points="171.21 360.2 169.79 360.31 169.8 360.02 171.21 360.2"/><polygon class="cls-1" points="166.94 360.25 164.17 359.88 164.44 358.62 167.12 359.45 166.94 360.25"/><polygon class="cls-1" points="161.32 359.21 158.67 358.33 159.47 356.37 161.98 357.61 161.32 359.21"/><polygon class="cls-1" points="155.94 357.18 153.45 355.93 154.9 353.46 157.21 355.04 155.94 357.18"/><polygon class="cls-1" points="150.9 354.36 148.62 352.76 150.74 350.05 152.84 351.88 150.9 354.36"/><polygon class="cls-1" points="146.27 350.87 144.21 348.98 147.05 346.16 148.92 348.24 146.27 350.87"/><polygon class="cls-1" points="142.12 346.75 140.34 344.6 143.88 341.9 145.48 344.18 142.12 346.75"/><polygon class="cls-1" points="138.55 342.07 137.1 339.69 141.29 337.31 142.58 339.78 138.55 342.07"/><polygon class="cls-1" points="135.68 336.88 134.6 334.31 139.37 332.46 140.31 335.09 135.68 336.88"/><polygon class="cls-1" points="133.63 331.27 132.99 328.55 138.21 327.44 138.74 330.17 133.63 331.27"/><polygon class="cls-1" points="132.53 325.35 132.38 322.56 137.88 322.33 137.96 325.12 132.53 325.35"/><polygon class="cls-1" points="132.49 319.3 132.83 316.54 138.39 317.26 138.01 320.02 132.49 319.3"/><polygon class="cls-1" points="133.5 313.36 134.3 310.68 139.72 312.32 138.9 314.99 133.5 313.36"/><polygon class="cls-1" points="135.47 307.69 136.68 305.18 141.77 307.61 140.58 310.13 135.47 307.69"/><path class="cls-1" d="M138.24,302.44s.38-.59.77-1.17l.53-.8.28-.42,4.6,3.16-.2.3c-.14.22-.32.52-.51.81l-.75,1.17Z"/><polygon class="cls-1" points="141.3 297.87 142.78 295.5 147.43 298.33 146.01 300.73 141.3 297.87"/><polygon class="cls-1" points="144.1 293.26 145.42 290.8 150.08 293.2 148.85 295.71 144.1 293.26"/><polygon class="cls-1" points="146.57 288.48 147.74 285.94 152.32 287.88 151.3 290.48 146.57 288.48"/><polygon class="cls-1" points="148.73 283.53 149.71 280.92 154.12 282.41 153.31 285.08 148.73 283.53"/><polygon class="cls-1" points="150.55 278.43 151.34 275.76 155.46 276.81 154.87 279.54 150.55 278.43"/><polygon class="cls-1" points="152.02 273.21 152.63 270.48 156.33 271.14 155.97 273.91 152.02 273.21"/><polygon class="cls-1" points="153.14 267.88 153.56 265.11 156.71 265.43 156.58 268.22 153.14 267.88"/><polygon class="cls-1" points="153.87 262.45 154.12 259.67 156.62 259.72 156.74 262.52 153.87 262.45"/><polygon class="cls-1" points="154.26 256.96 154.3 254.16 156.04 254.07 156.39 256.85 154.26 256.96"/><polygon class="cls-1" points="154.27 251.43 154.11 248.63 154.93 248.51 155.54 251.25 154.27 251.43"/><polygon class="cls-1" points="153.83 245.82 153.64 244.41 154.12 245.74 153.83 245.82"/><polygon class="cls-1" points="322.04 261.35 321.43 262.64 321.18 262.48 322.04 261.35"/><polygon class="cls-1" points="319.95 265.07 318.24 267.29 317.29 266.43 319.34 264.52 319.95 265.07"/><polygon class="cls-1" points="316.24 269.43 314.15 271.28 312.85 269.61 315.18 268.05 316.24 269.43"/><polygon class="cls-1" points="311.79 273.07 309.46 274.6 308.05 272.11 310.56 270.9 311.79 273.07"/><polygon class="cls-1" points="306.83 276.02 304.3 277.2 303.01 274.01 305.65 273.1 306.83 276.02"/><polygon class="cls-1" points="301.48 278.29 298.82 279.12 297.8 275.26 300.53 274.67 301.48 278.29"/><polygon class="cls-1" points="295.85 279.82 293.09 280.29 292.52 275.88 295.3 275.63 295.85 279.82"/><polygon class="cls-1" points="290.01 280.57 287.22 280.64 287.26 275.83 290.04 275.94 290.01 280.57"/><polygon class="cls-1" points="284.08 280.47 281.31 280.11 282.1 275.06 284.84 275.56 284.08 280.47"/><polygon class="cls-1" points="278.19 279.44 275.52 278.63 277.16 273.55 279.8 274.46 278.19 279.44"/><polygon class="cls-1" points="272.51 277.42 270.03 276.16 272.57 271.29 275.03 272.6 272.51 277.42"/><polygon class="cls-1" points="267.26 274.44 265.03 272.76 268.44 268.3 270.64 270.02 267.26 274.44"/><polygon class="cls-1" points="262.62 270.59 260.7 268.56 264.83 264.69 266.73 266.73 262.62 270.59"/><polygon class="cls-1" points="258.69 266.05 257.12 263.75 261.77 260.55 263.36 262.85 258.69 266.05"/><path class="cls-1" d="M255.53,261l-.63-1.24-.42-.86c-.14-.28-.22-.46-.22-.46l5-2.4.16.32.44.85.64,1.24Z"/><polygon class="cls-1" points="253.1 256.09 251.79 253.62 256.57 251.01 257.94 253.44 253.1 256.09"/><polygon class="cls-1" points="250.51 251.37 249.04 248.99 253.45 246.15 255.01 248.47 250.51 251.37"/><polygon class="cls-1" points="247.6 246.83 245.99 244.55 249.97 241.56 251.7 243.74 247.6 246.83"/><polygon class="cls-1" points="244.4 242.48 242.63 240.33 246.12 237.26 248.03 239.3 244.4 242.48"/><polygon class="cls-1" points="240.9 238.36 238.98 236.34 241.95 233.3 244.01 235.18 240.9 238.36"/><polygon class="cls-1" points="237.1 234.48 235.05 232.59 237.47 229.71 239.69 231.41 237.1 234.48"/><polygon class="cls-1" points="233.05 230.84 230.87 229.09 232.71 226.53 235.06 228.03 233.05 230.84"/><polygon class="cls-1" points="228.72 227.5 226.43 225.89 227.73 223.75 230.21 225.04 228.72 227.5"/><polygon class="cls-1" points="224.16 224.41 221.75 222.98 222.54 221.42 225.12 222.51 224.16 224.41"/><polygon class="cls-1" points="219.37 221.64 216.87 220.38 217.18 219.61 219.85 220.44 219.37 221.64"/><polygon class="cls-1" points="214.29 219.21 212.97 218.68 214.37 218.92 214.29 219.21"/><polygon class="cls-1" points="311.85 81.31 312.65 82.48 312.39 82.62 311.85 81.31"/><polygon class="cls-1" points="314.03 84.98 315.09 87.57 313.87 87.96 313.24 85.23 314.03 84.98"/><polygon class="cls-1" points="315.94 90.37 316.5 93.11 314.41 93.39 314.22 90.6 315.94 90.37"/><polygon class="cls-1" points="316.87 96.04 317.03 98.83 314.17 98.8 314.38 96.02 316.87 96.04"/><polygon class="cls-1" points="316.95 101.81 316.7 104.6 313.29 104.11 313.83 101.38 316.95 101.81"/><polygon class="cls-1" points="316.24 107.58 315.63 110.3 311.77 109.25 312.63 106.59 316.24 107.58"/><polygon class="cls-1" points="314.75 113.23 313.77 115.84 309.67 114.13 310.84 111.6 314.75 113.23"/><polygon class="cls-1" points="312.48 118.66 311.14 121.11 306.99 118.67 308.48 116.31 312.48 118.66"/><polygon class="cls-1" points="309.42 123.74 307.73 125.96 303.75 122.75 305.55 120.63 309.42 123.74"/><polygon class="cls-1" points="305.58 128.32 303.55 130.23 299.97 126.27 302.08 124.44 305.58 128.32"/><polygon class="cls-1" points="301 132.24 298.67 133.76 295.72 129.11 298.09 127.64 301 132.24"/><polygon class="cls-1" points="295.79 135.29 293.23 136.38 291.07 131.2 293.65 130.15 295.79 135.29"/><polygon class="cls-1" points="290.13 137.39 287.42 138.03 286.13 132.52 288.85 131.9 290.13 137.39"/><polygon class="cls-1" points="284.24 138.52 281.46 138.72 281.02 133.1 283.8 132.88 284.24 138.52"/><path class="cls-1" d="M278.31,138.74l-1.39-.08-1-.06-.51,0,.43-5.55.37,0,1,0,1.39.06Z"/><polygon class="cls-1" points="272.82 138.38 270.03 138.28 270.16 132.83 272.95 132.87 272.82 138.38"/><polygon class="cls-1" points="267.44 138.26 264.65 138.34 264.39 133.1 267.18 132.92 267.44 138.26"/><polygon class="cls-1" points="262.05 138.51 259.27 138.77 258.67 133.83 261.43 133.41 262.05 138.51"/><polygon class="cls-1" points="256.69 139.11 253.94 139.57 253.03 135.01 255.74 134.37 256.69 139.11"/><polygon class="cls-1" points="251.37 140.09 248.65 140.73 247.51 136.64 250.17 135.79 251.37 140.09"/><polygon class="cls-1" points="246.11 141.43 243.44 142.26 242.16 138.73 244.74 137.66 246.11 141.43"/><polygon class="cls-1" points="240.93 143.12 238.33 144.14 237.02 141.25 239.5 139.97 240.93 143.12"/><polygon class="cls-1" points="235.87 145.2 233.33 146.38 232.13 144.18 234.49 142.68 235.87 145.2"/><polygon class="cls-1" points="230.92 147.6 228.47 148.97 227.52 147.51 229.75 145.82 230.92 147.6"/><polygon class="cls-1" points="226.12 150.37 223.78 151.91 223.27 151.25 225.32 149.35 226.12 150.37"/><polygon class="cls-1" points="221.48 153.55 220.36 154.43 221.27 153.34 221.48 153.55"/><polygon class="cls-1" points="311.85 81.31 312.51 82.56 312.33 82.64 311.85 81.31"/><polygon class="cls-1" points="313.66 85.17 314.61 87.84 313.75 88.09 313.13 85.33 313.66 85.17"/><polygon class="cls-1" points="315.38 90.63 315.96 93.4 314.49 93.63 314.2 90.81 315.38 90.63"/><polygon class="cls-1" points="316.4 96.28 316.65 99.1 314.62 99.19 314.62 96.36 316.4 96.28"/><polygon class="cls-1" points="316.76 102.03 316.74 104.86 314.22 104.72 314.49 101.91 316.76 102.03"/><polygon class="cls-1" points="316.57 107.8 316.28 110.61 313.33 110.19 313.83 107.41 316.57 107.8"/><polygon class="cls-1" points="315.83 113.53 315.29 116.3 312.01 115.55 312.74 112.82 315.83 113.53"/><polygon class="cls-1" points="314.59 119.19 313.82 121.91 310.25 120.77 311.2 118.11 314.59 119.19"/><polygon class="cls-1" points="312.87 124.74 311.85 127.38 308.1 125.82 309.25 123.24 312.87 124.74"/><polygon class="cls-1" points="310.64 130.13 309.41 132.67 305.56 130.67 306.92 128.19 310.64 130.13"/><polygon class="cls-1" points="307.96 135.32 306.5 137.74 302.61 135.26 304.18 132.92 307.96 135.32"/><polygon class="cls-1" points="304.81 140.27 303.13 142.53 299.29 139.57 301.05 137.36 304.81 140.27"/><polygon class="cls-1" points="301.17 144.89 299.26 146.98 295.61 143.54 297.58 141.51 301.17 144.89"/><polygon class="cls-1" points="297.07 149.14 294.96 151.02 291.57 147.1 293.73 145.28 297.07 149.14"/><polygon class="cls-1" points="292.53 152.96 290.24 154.6 287.19 150.2 289.53 148.63 292.53 152.96"/><polygon class="cls-1" points="287.6 156.27 285.12 157.62 282.52 152.82 285.02 151.49 287.6 156.27"/><polygon class="cls-1" points="282.29 158.96 279.67 160.03 277.62 154.91 280.24 153.87 282.29 158.96"/><polygon class="cls-1" points="276.7 161.04 273.98 161.81 272.5 156.44 275.23 155.7 276.7 161.04"/><polygon class="cls-1" points="270.93 162.48 268.14 162.95 267.24 157.4 270.04 156.96 270.93 162.48"/><polygon class="cls-1" points="265.05 163.3 262.22 163.46 261.9 157.81 264.72 157.66 265.05 163.3"/><polygon class="cls-1" points="259.13 163.47 256.31 163.35 256.52 157.75 259.34 157.85 259.13 163.47"/><polygon class="cls-1" points="253.25 163.08 250.45 162.71 251.14 157.21 253.95 157.55 253.25 163.08"/><polygon class="cls-1" points="247.58 162.23 244.79 161.78 245.63 156.35 248.43 156.77 247.58 162.23"/><polygon class="cls-1" points="242.11 161.41 239.3 161.09 239.89 155.69 242.7 155.98 242.11 161.41"/><polygon class="cls-1" points="236.62 160.83 233.8 160.61 234.12 155.34 236.95 155.47 236.62 160.83"/><polygon class="cls-1" points="231.1 160.47 228.28 160.39 228.34 155.28 231.17 155.27 231.1 160.47"/><polygon class="cls-1" points="225.57 160.38 222.75 160.44 222.57 155.49 225.39 155.35 225.57 160.38"/><polygon class="cls-1" points="220.04 160.56 217.22 160.75 216.82 156 219.63 155.71 220.04 160.56"/><polygon class="cls-1" points="214.52 160.98 211.71 161.29 211.11 156.84 213.9 156.39 214.52 160.98"/><polygon class="cls-1" points="209.02 161.66 206.23 162.11 205.45 157.96 208.22 157.38 209.02 161.66"/><polygon class="cls-1" points="203.55 162.61 200.78 163.19 199.87 159.37 202.6 158.64 203.55 162.61"/><polygon class="cls-1" points="198.12 163.81 195.38 164.51 194.38 161.09 197.06 160.2 198.12 163.81"/><polygon class="cls-1" points="192.74 165.26 190.04 166.09 188.99 163.09 191.63 162.07 192.74 165.26"/><polygon class="cls-1" points="187.43 166.97 184.77 167.94 183.73 165.35 186.31 164.2 187.43 166.97"/><polygon class="cls-1" points="182.19 168.92 179.57 170 178.61 167.92 181.12 166.62 182.19 168.92"/><polygon class="cls-1" points="177.04 171.12 174.48 172.34 173.64 170.75 176.08 169.32 177.04 171.12"/><polygon class="cls-1" points="171.98 173.57 169.48 174.9 168.86 173.88 171.21 172.29 171.98 173.57"/><polygon class="cls-1" points="167.04 176.29 164.61 177.75 164.3 177.29 166.53 175.55 167.04 176.29"/><polygon class="cls-1" points="162.18 179.34 161.02 180.16 162.05 179.19 162.18 179.34"/><polygon class="cls-1" points="322.04 261.35 321.28 262.55 321.12 262.44 322.04 261.35"/><polygon class="cls-1" points="319.6 264.86 317.77 267.01 317.12 266.39 319.2 264.48 319.6 264.86"/><polygon class="cls-1" points="315.73 269.07 313.63 270.96 312.69 269.8 314.99 268.14 315.73 269.07"/><polygon class="cls-1" points="311.35 272.78 309.03 274.41 307.94 272.7 310.38 271.28 311.35 272.78"/><polygon class="cls-1" points="306.55 275.97 304.09 277.36 302.94 275.11 305.51 273.94 306.55 275.97"/><polygon class="cls-1" points="301.46 278.69 298.88 279.84 297.77 277.07 300.43 276.12 301.46 278.69"/><polygon class="cls-1" points="296.12 280.91 293.45 281.83 292.47 278.61 295.2 277.88 296.12 280.91"/><polygon class="cls-1" points="290.6 282.67 287.86 283.36 287.07 279.7 289.85 279.19 290.6 282.67"/><polygon class="cls-1" points="284.93 283.95 282.14 284.39 281.62 280.36 284.43 280.06 284.93 283.95"/><polygon class="cls-1" points="279.16 284.72 276.34 284.92 276.14 280.58 278.97 280.52 279.16 284.72"/><polygon class="cls-1" points="273.32 284.99 270.5 284.94 270.69 280.33 273.51 280.52 273.32 284.99"/><polygon class="cls-1" points="267.46 284.74 264.65 284.41 265.31 279.6 268.1 280.03 267.46 284.74"/><polygon class="cls-1" points="261.64 283.89 258.88 283.29 260.03 278.4 262.77 279.09 261.64 283.89"/><polygon class="cls-1" points="255.9 282.47 253.22 281.58 254.92 276.69 257.58 277.65 255.9 282.47"/><polygon class="cls-1" points="250.33 280.45 247.76 279.28 250.05 274.44 252.58 275.69 250.33 280.45"/><polygon class="cls-1" points="245 277.83 242.59 276.36 245.45 271.71 247.85 273.21 245 277.83"/><polygon class="cls-1" points="240.01 274.58 237.78 272.84 241.18 268.51 243.4 270.26 240.01 274.58"/><polygon class="cls-1" points="235.42 270.78 233.4 268.81 237.3 264.84 239.31 266.83 235.42 270.78"/><polygon class="cls-1" points="231.28 266.5 229.48 264.32 233.84 260.77 235.62 262.97 231.28 266.5"/><polygon class="cls-1" points="227.63 261.81 226.08 259.45 230.81 256.35 232.36 258.71 227.63 261.81"/><polygon class="cls-1" points="224.52 256.78 223.22 254.27 228.17 251.66 229.5 254.15 224.52 256.78"/><polygon class="cls-1" points="221.92 251.49 220.84 248.88 225.96 246.73 227.06 249.33 221.92 251.49"/><polygon class="cls-1" points="219.83 246.15 218.82 243.51 223.94 241.53 224.97 244.16 219.83 246.15"/><polygon class="cls-1" points="217.8 241.01 216.68 238.42 221.65 236.23 222.8 238.81 217.8 241.01"/><polygon class="cls-1" points="215.56 235.96 214.34 233.41 219.06 231.05 220.36 233.56 215.56 235.96"/><polygon class="cls-1" points="213.11 231 211.77 228.52 216.23 226.02 217.65 228.46 213.11 231"/><polygon class="cls-1" points="210.42 226.17 208.96 223.75 213.15 221.13 214.69 223.5 210.42 226.17"/><polygon class="cls-1" points="207.5 221.47 205.92 219.13 209.84 216.4 211.49 218.69 207.5 221.47"/><polygon class="cls-1" points="204.38 216.9 202.7 214.62 206.25 211.87 208.04 214.07 204.38 216.9"/><polygon class="cls-1" points="201.04 212.47 199.25 210.28 202.46 207.54 204.35 209.64 201.04 212.47"/><polygon class="cls-1" points="197.48 208.21 195.59 206.11 198.45 203.4 200.44 205.41 197.48 208.21"/><polygon class="cls-1" points="193.72 204.11 191.75 202.09 194.21 199.51 196.32 201.39 193.72 204.11"/><polygon class="cls-1" points="189.78 200.18 187.71 198.25 189.79 195.85 191.99 197.62 189.78 200.18"/><polygon class="cls-1" points="185.65 196.43 183.48 194.61 185.19 192.42 187.48 194.08 185.65 196.43"/><polygon class="cls-1" points="181.33 192.87 179.09 191.15 180.41 189.27 182.79 190.79 181.33 192.87"/><polygon class="cls-1" points="176.85 189.51 174.52 187.9 175.48 186.38 177.94 187.78 176.85 189.51"/><polygon class="cls-1" points="172.2 186.35 169.8 184.85 170.38 183.8 172.93 185.04 172.2 186.35"/><polygon class="cls-1" points="167.38 183.44 164.9 182.06 165.14 181.56 167.77 182.62 167.38 183.44"/><polygon class="cls-1" points="162.31 180.75 161.02 180.16 162.38 180.57 162.31 180.75"/><polygon class="cls-1" points="171.21 360.2 169.79 360.14 169.82 359.95 171.21 360.2"/><polygon class="cls-1" points="166.96 359.84 164.18 359.33 164.39 358.46 167.09 359.31 166.96 359.84"/><polygon class="cls-1" points="161.38 358.6 158.69 357.72 159.22 356.33 161.8 357.49 161.38 358.6"/><polygon class="cls-1" points="155.97 356.65 153.4 355.47 154.34 353.66 156.79 355.07 155.97 356.65"/><polygon class="cls-1" points="150.81 354.1 148.37 352.66 149.75 350.54 152.05 352.18 150.81 354.1"/><polygon class="cls-1" points="145.91 351.05 143.62 349.39 145.46 347.05 147.62 348.87 145.91 351.05"/><polygon class="cls-1" points="141.32 347.54 139.19 345.68 141.48 343.22 143.48 345.22 141.32 347.54"/><polygon class="cls-1" points="137.03 343.63 135.06 341.6 137.84 339.09 139.67 341.24 137.03 343.63"/><polygon class="cls-1" points="133.09 339.37 131.31 337.17 134.54 334.7 136.2 336.98 133.09 339.37"/><polygon class="cls-1" points="129.53 334.75 127.95 332.4 131.61 330.07 133.07 332.49 129.53 334.75"/><polygon class="cls-1" points="126.38 329.83 125.01 327.36 129.1 325.22 130.35 327.76 126.38 329.83"/><polygon class="cls-1" points="123.67 324.63 122.55 322.03 127.04 320.19 128.07 322.82 123.67 324.63"/><polygon class="cls-1" points="121.49 319.16 120.63 316.47 125.44 315.02 126.21 317.74 121.49 319.16"/><polygon class="cls-1" points="119.86 313.48 119.28 310.72 124.38 309.74 124.87 312.52 119.86 313.48"/><polygon class="cls-1" points="118.82 307.65 118.55 304.84 123.88 304.4 124.07 307.22 118.82 307.65"/><polygon class="cls-1" points="118.42 301.72 118.49 298.89 123.95 299.05 123.85 301.87 118.42 301.72"/><polygon class="cls-1" points="118.75 295.77 119.13 292.97 124.59 293.75 124.17 296.55 118.75 295.77"/><polygon class="cls-1" points="119.73 289.9 120.43 287.16 125.82 288.56 125.1 291.29 119.73 289.9"/><polygon class="cls-1" points="121.37 284.18 122.36 281.53 127.62 283.53 126.6 286.16 121.37 284.18"/><polygon class="cls-1" points="123.61 278.67 124.88 276.15 129.93 278.69 128.66 281.21 123.61 278.67"/><polygon class="cls-1" points="126.42 273.46 127.93 271.08 132.67 274.06 131.18 276.46 126.42 273.46"/><polygon class="cls-1" points="129.69 268.56 131.42 266.32 135.83 269.68 134.13 271.94 129.69 268.56"/><polygon class="cls-1" points="133.27 264.08 135.05 261.89 139.33 265.33 137.57 267.54 133.27 264.08"/><polygon class="cls-1" points="136.71 259.76 138.39 257.49 142.78 260.69 141.12 262.98 136.71 259.76"/><polygon class="cls-1" points="139.96 255.29 141.56 252.96 145.96 255.87 144.44 258.25 139.96 255.29"/><polygon class="cls-1" points="143.03 250.69 144.51 248.28 148.91 250.9 147.5 253.35 143.03 250.69"/><polygon class="cls-1" points="145.87 245.95 147.24 243.47 151.6 245.79 150.32 248.31 145.87 245.95"/><polygon class="cls-1" points="148.48 241.07 149.72 238.53 154.04 240.55 152.88 243.13 148.48 241.07"/><polygon class="cls-1" points="150.88 236.07 152.01 233.49 156.17 235.19 155.16 237.83 150.88 236.07"/><polygon class="cls-1" points="153.04 230.97 154.05 228.33 158.02 229.73 157.15 232.42 153.04 230.97"/><polygon class="cls-1" points="154.96 225.76 155.83 223.07 159.6 224.19 158.86 226.92 154.96 225.76"/><polygon class="cls-1" points="156.62 220.46 157.39 217.73 160.86 218.58 160.28 221.35 156.62 220.46"/><polygon class="cls-1" points="158.06 215.07 158.69 212.32 161.82 212.91 161.38 215.71 158.06 215.07"/><polygon class="cls-1" points="159.24 209.62 159.73 206.83 162.49 207.22 162.2 210.03 159.24 209.62"/><polygon class="cls-1" points="160.17 204.11 160.54 201.3 162.82 201.5 162.69 204.33 160.17 204.11"/><polygon class="cls-1" points="160.84 198.54 161.06 195.72 162.86 195.79 162.88 198.62 160.84 198.54"/><polygon class="cls-1" points="161.24 192.94 161.34 190.11 162.54 190.09 162.74 192.91 161.24 192.94"/><polygon class="cls-1" points="161.36 187.3 161.31 184.47 161.86 184.43 162.26 187.23 161.36 187.3"/><polygon class="cls-1" points="161.15 181.57 161.02 180.16 161.34 181.53 161.15 181.57"/><polygon class="cls-1" points="10.19 279 9.53 277.75 9.71 277.67 10.19 279"/><polygon class="cls-1" points="8.38 275.14 7.43 272.48 8.29 272.23 8.91 274.99 8.38 275.14"/><polygon class="cls-1" points="6.66 269.68 6.08 266.92 7.55 266.69 7.84 269.5 6.66 269.68"/><polygon class="cls-1" points="5.64 264.03 5.39 261.21 7.42 261.12 7.42 263.95 5.64 264.03"/><polygon class="cls-1" points="5.28 258.28 5.3 255.46 7.82 255.59 7.55 258.4 5.28 258.28"/><polygon class="cls-1" points="5.47 252.51 5.76 249.71 8.71 250.13 8.21 252.91 5.47 252.51"/><polygon class="cls-1" points="6.21 246.78 6.76 244.01 10.03 244.76 9.3 247.5 6.21 246.78"/><polygon class="cls-1" points="7.45 241.12 8.23 238.4 11.79 239.55 10.84 242.21 7.45 241.12"/><polygon class="cls-1" points="9.17 235.57 10.19 232.93 13.94 234.49 12.79 237.07 9.17 235.57"/><polygon class="cls-1" points="11.4 230.18 12.64 227.64 16.49 229.64 15.12 232.12 11.4 230.18"/><polygon class="cls-1" points="14.08 224.99 15.54 222.57 19.43 225.05 17.86 227.4 14.08 224.99"/><polygon class="cls-1" points="17.23 220.04 18.92 217.78 22.75 220.75 20.99 222.95 17.23 220.04"/><polygon class="cls-1" points="20.87 215.42 22.78 213.34 26.43 216.78 24.46 218.8 20.87 215.42"/><polygon class="cls-1" points="24.97 211.17 27.08 209.29 30.47 213.21 28.31 215.03 24.97 211.17"/><polygon class="cls-1" points="29.51 207.35 31.81 205.71 34.85 210.11 32.51 211.69 29.51 207.35"/><polygon class="cls-1" points="34.45 204.05 36.93 202.69 39.52 207.5 37.02 208.82 34.45 204.05"/><polygon class="cls-1" points="39.76 201.35 42.37 200.29 44.43 205.4 41.8 206.44 39.76 201.35"/><polygon class="cls-1" points="45.34 199.27 48.06 198.51 49.54 203.88 46.81 204.61 45.34 199.27"/><polygon class="cls-1" points="51.11 197.83 53.9 197.36 54.8 202.91 52.01 203.35 51.11 197.83"/><polygon class="cls-1" points="57 197.01 59.82 196.85 60.14 202.5 57.32 202.66 57 197.01"/><polygon class="cls-1" points="62.91 196.84 65.73 196.96 65.52 202.56 62.7 202.46 62.91 196.84"/><polygon class="cls-1" points="68.79 197.23 71.6 197.6 70.9 203.1 68.09 202.76 68.79 197.23"/><polygon class="cls-1" points="74.46 198.09 77.25 198.53 76.41 203.96 73.61 203.54 74.46 198.09"/><polygon class="cls-1" points="79.93 198.9 82.74 199.22 82.15 204.63 79.34 204.33 79.93 198.9"/><polygon class="cls-1" points="85.42 199.49 88.24 199.7 87.92 204.97 85.1 204.84 85.42 199.49"/><polygon class="cls-1" points="90.94 199.84 93.77 199.92 93.7 205.04 90.87 205.04 90.94 199.84"/><polygon class="cls-1" points="96.47 199.93 99.3 199.87 99.47 204.82 96.65 204.96 96.47 199.93"/><polygon class="cls-1" points="102 199.75 104.82 199.56 105.23 204.31 102.41 204.6 102 199.75"/><polygon class="cls-1" points="107.52 199.33 110.33 199.02 110.94 203.47 108.14 203.92 107.52 199.33"/><polygon class="cls-1" points="113.03 198.66 115.82 198.2 116.59 202.35 113.83 202.94 113.03 198.66"/><polygon class="cls-1" points="118.5 197.71 121.26 197.12 122.17 200.94 119.44 201.67 118.5 197.71"/><polygon class="cls-1" points="123.92 196.5 126.66 195.8 127.67 199.22 124.98 200.11 123.92 196.5"/><polygon class="cls-1" points="129.3 195.06 132 194.22 133.05 197.22 130.41 198.25 129.3 195.06"/><polygon class="cls-1" points="134.61 193.34 137.27 192.38 138.32 194.96 135.73 196.11 134.61 193.34"/><polygon class="cls-1" points="139.85 191.39 142.47 190.31 143.43 192.39 140.92 193.69 139.85 191.39"/><polygon class="cls-1" points="145.01 189.19 147.56 187.98 148.4 189.56 145.96 191 145.01 189.19"/><polygon class="cls-1" points="150.06 186.74 152.56 185.41 153.18 186.44 150.83 188.02 150.06 186.74"/><polygon class="cls-1" points="155 184.02 157.43 182.56 157.74 183.02 155.51 184.76 155 184.02"/><polygon class="cls-1" points="159.86 180.97 161.02 180.16 159.99 181.12 159.86 180.97"/><polygon class="cls-1" points="0 98.96 0.76 97.76 0.92 97.88 0 98.96"/><polygon class="cls-1" points="2.44 95.46 4.27 93.3 4.92 93.92 2.84 95.84 2.44 95.46"/><polygon class="cls-1" points="6.31 91.24 8.41 89.35 9.35 90.51 7.06 92.17 6.31 91.24"/><polygon class="cls-1" points="10.69 87.53 13.01 85.9 14.1 87.61 11.66 89.03 10.69 87.53"/><polygon class="cls-1" points="15.49 84.34 17.95 82.95 19.1 85.2 16.53 86.37 15.49 84.34"/><polygon class="cls-1" points="20.58 81.62 23.16 80.47 24.27 83.24 21.61 84.19 20.58 81.62"/><polygon class="cls-1" points="25.92 79.4 28.59 78.49 29.57 81.7 26.84 82.43 25.92 79.4"/><polygon class="cls-1" points="31.44 77.64 34.18 76.95 34.97 80.61 32.19 81.12 31.44 77.64"/><polygon class="cls-1" points="37.11 76.36 39.9 75.92 40.43 79.95 37.62 80.25 37.11 76.36"/><polygon class="cls-1" points="42.88 75.59 45.7 75.39 45.9 79.73 43.07 79.79 42.88 75.59"/><polygon class="cls-1" points="48.72 75.32 51.55 75.37 51.35 79.98 48.53 79.79 48.72 75.32"/><polygon class="cls-1" points="54.58 75.57 57.39 75.9 56.74 80.71 53.94 80.28 54.58 75.57"/><polygon class="cls-1" points="60.41 76.42 63.16 77.02 62.01 81.91 59.27 81.22 60.41 76.42"/><polygon class="cls-1" points="66.14 77.84 68.82 78.73 67.12 83.63 64.47 82.66 66.14 77.84"/><polygon class="cls-1" points="71.71 79.86 74.28 81.03 71.99 85.87 69.46 84.63 71.71 79.86"/><polygon class="cls-1" points="77.05 82.48 79.46 83.95 76.59 88.6 74.19 87.11 77.05 82.48"/><polygon class="cls-1" points="82.03 85.74 84.26 87.47 80.86 91.81 78.65 90.05 82.03 85.74"/><polygon class="cls-1" points="86.63 89.53 88.65 91.5 84.74 95.47 82.74 93.48 86.63 89.53"/><polygon class="cls-1" points="90.76 93.81 92.56 95.99 88.2 99.54 86.42 97.34 90.76 93.81"/><polygon class="cls-1" points="94.41 98.5 95.96 100.86 91.23 103.96 89.68 101.6 94.41 98.5"/><polygon class="cls-1" points="97.52 103.53 98.82 106.04 93.87 108.65 92.54 106.16 97.52 103.53"/><polygon class="cls-1" points="100.12 108.82 101.2 111.43 96.09 113.58 94.98 110.98 100.12 108.82"/><polygon class="cls-1" points="102.21 114.16 103.22 116.8 98.1 118.78 97.07 116.15 102.21 114.16"/><polygon class="cls-1" points="104.24 119.3 105.37 121.89 100.39 124.09 99.24 121.5 104.24 119.3"/><polygon class="cls-1" points="106.48 124.35 107.71 126.9 102.98 129.26 101.68 126.75 106.48 124.35"/><polygon class="cls-1" points="108.93 129.31 110.28 131.79 105.81 134.29 104.4 131.85 108.93 129.31"/><polygon class="cls-1" points="111.62 134.14 113.08 136.56 108.89 139.19 107.35 136.81 111.62 134.14"/><polygon class="cls-1" points="114.54 138.84 116.12 141.19 112.2 143.91 110.55 141.62 114.54 138.84"/><polygon class="cls-1" points="117.67 143.41 119.34 145.69 115.79 148.44 114 146.25 117.67 143.41"/><polygon class="cls-1" points="121 147.84 122.79 150.03 119.59 152.77 117.69 150.67 121 147.84"/><polygon class="cls-1" points="124.56 152.1 126.45 154.2 123.59 156.91 121.6 154.9 124.56 152.1"/><polygon class="cls-1" points="128.32 156.2 130.29 158.22 127.83 160.8 125.72 158.92 128.32 156.2"/><polygon class="cls-1" points="132.26 160.14 134.33 162.06 132.25 164.47 130.05 162.69 132.26 160.14"/><polygon class="cls-1" points="136.4 163.88 138.56 165.7 136.85 167.89 134.56 166.24 136.4 163.88"/><polygon class="cls-1" points="140.71 167.44 142.95 169.17 141.63 171.04 139.25 169.52 140.71 167.44"/><polygon class="cls-1" points="145.19 170.8 147.52 172.41 146.56 173.93 144.1 172.53 145.19 170.8"/><polygon class="cls-1" points="149.84 173.96 152.24 175.46 151.66 176.51 149.12 175.27 149.84 173.96"/><polygon class="cls-1" points="154.66 176.88 157.14 178.25 156.9 178.75 154.27 177.69 154.66 176.88"/><polygon class="cls-1" points="159.74 179.56 161.02 180.16 159.67 179.75 159.74 179.56"/><polygon class="cls-1" points="94.02 72.74 95.31 72.16 95.35 72.28 94.02 72.74"/><polygon class="cls-1" points="97.95 71.2 100.67 70.53 100.78 71.1 98.03 71.57 97.95 71.2"/><polygon class="cls-1" points="103.48 70.1 106.26 69.89 106.3 70.85 103.51 70.87 103.48 70.1"/><polygon class="cls-1" points="109.12 69.88 111.91 70.05 111.78 71.38 109.02 71.02 109.12 69.88"/><polygon class="cls-1" points="114.76 70.42 117.5 70.96 117.15 72.55 114.44 71.88 114.76 70.42"/><polygon class="cls-1" points="120.3 71.69 122.96 72.55 122.33 74.34 119.72 73.36 120.3 71.69"/><polygon class="cls-1" points="125.66 73.61 128.19 74.79 127.27 76.69 124.78 75.42 125.66 73.61"/><polygon class="cls-1" points="130.76 76.19 133.12 77.67 131.87 79.6 129.56 78.03 130.76 76.19"/><polygon class="cls-1" points="135.51 79.38 137.66 81.17 136.06 83.04 133.96 81.21 135.51 79.38"/><polygon class="cls-1" points="139.8 83.22 141.67 85.29 139.74 87 137.91 84.89 139.8 83.22"/><polygon class="cls-1" points="143.5 87.65 145.04 89.97 142.78 91.43 141.29 89.08 143.5 87.65"/><polygon class="cls-1" points="146.49 92.6 147.63 95.15 145.12 96.26 144 93.71 146.49 92.6"/><polygon class="cls-1" points="148.64 97.98 149.36 100.67 146.67 101.39 145.97 98.69 148.64 97.98"/><polygon class="cls-1" points="149.91 103.63 150.22 106.4 147.41 106.7 147.13 103.93 149.91 103.63"/><polygon class="cls-1" points="150.33 109.39 150.22 112.17 147.42 112.08 147.5 109.3 150.33 109.39"/><polygon class="cls-1" points="149.92 115.12 149.48 117.88 146.74 117.45 147.17 114.69 149.92 115.12"/><polygon class="cls-1" points="148.96 120.62 148.52 123.38 145.82 122.96 146.24 120.2 148.96 120.62"/><polygon class="cls-1" points="148.18 126.06 147.91 128.84 145.28 128.61 145.49 125.82 148.18 126.06"/><polygon class="cls-1" points="147.73 131.53 147.65 134.33 145.13 134.28 145.15 131.49 147.73 131.53"/><polygon class="cls-1" points="147.66 137.03 147.77 139.82 145.37 139.94 145.2 137.16 147.66 137.03"/><polygon class="cls-1" points="147.96 142.53 148.24 145.31 146.04 145.57 145.66 142.8 147.96 142.53"/><polygon class="cls-1" points="148.61 148 149.09 150.75 147.11 151.13 146.53 148.4 148.61 148"/><polygon class="cls-1" points="149.65 153.41 150.3 156.13 148.58 156.59 147.8 153.91 149.65 153.41"/><polygon class="cls-1" points="151.03 158.77 151.87 161.43 150.45 161.92 149.48 159.3 151.03 158.77"/><polygon class="cls-1" points="152.78 164.02 153.78 166.63 152.72 167.08 151.54 164.54 152.78 164.02"/><polygon class="cls-1" points="154.86 169.16 156.05 171.69 155.36 172.05 154 169.6 154.86 169.16"/><polygon class="cls-1" points="157.33 174.15 158.71 176.58 158.38 176.78 156.83 174.46 157.33 174.15"/><polygon class="cls-1" points="160.21 178.99 161.02 180.16 160.11 179.07 160.21 178.99"/><polygon class="cls-1" points="94.02 72.74 95.24 72.03 95.33 72.2 94.02 72.74"/><polygon class="cls-1" points="97.94 70.87 100.73 70.13 100.91 71.02 98.06 71.43 97.94 70.87"/><polygon class="cls-1" points="103.7 69.75 106.58 69.68 106.55 71.12 103.68 70.92 103.7 69.75"/><polygon class="cls-1" points="109.6 69.94 112.44 70.44 112.04 72.28 109.25 71.56 109.6 69.94"/><polygon class="cls-1" points="115.39 71.29 118.07 72.34 117.21 74.37 114.59 73.17 115.39 71.29"/><polygon class="cls-1" points="120.84 73.77 123.24 75.36 121.84 77.39 119.5 75.71 120.84 73.77"/><polygon class="cls-1" points="125.66 77.39 127.64 79.48 125.68 81.27 123.77 79.12 125.66 77.39"/><polygon class="cls-1" points="129.53 82.08 130.91 84.61 128.48 85.91 127.13 83.37 129.53 82.08"/><polygon class="cls-1" points="132.08 87.61 132.79 90.4 130.06 91.08 129.37 88.29 132.08 87.61"/><polygon class="cls-1" points="133.2 93.57 133.25 96.45 130.46 96.51 130.38 93.63 133.2 93.57"/><polygon class="cls-1" points="133.03 99.45 132.82 102.32 130.1 102.14 130.27 99.27 133.03 99.45"/><polygon class="cls-1" points="132.75 105.06 132.81 107.94 130.25 108.05 130.09 105.17 132.75 105.06"/><polygon class="cls-1" points="133.02 110.68 133.4 113.54 131.06 113.89 130.58 111.05 133.02 110.68"/><polygon class="cls-1" points="133.88 116.25 134.54 119.06 132.56 119.59 131.74 116.82 133.88 116.25"/><polygon class="cls-1" points="135.32 121.72 136.27 124.45 134.72 125.05 133.57 122.41 135.32 121.72"/><polygon class="cls-1" points="137.33 127.04 138.55 129.65 137.5 130.2 136.05 127.71 137.33 127.04"/><polygon class="cls-1" points="139.89 132.14 141.38 134.62 140.91 134.94 139.14 132.66 139.89 132.14"/><polygon class="cls-1" points="143.02 136.99 143.9 138.11 142.87 137.13 143.02 136.99"/><polygon class="cls-1" points="34.5 184.48 34.49 183.06 34.68 183.07 34.5 184.48"/><polygon class="cls-1" points="34.84 180.15 35.59 177.36 36.45 177.64 35.38 180.32 34.84 180.15"/><polygon class="cls-1" points="36.75 174.59 38.13 172.06 39.36 172.81 37.75 175.2 36.75 174.59"/><polygon class="cls-1" points="39.86 169.57 41.72 167.37 43.1 168.63 41.09 170.69 39.86 169.57"/><polygon class="cls-1" points="43.92 165.24 46.18 163.45 47.5 165.21 45.15 166.88 43.92 165.24"/><polygon class="cls-1" points="48.79 161.76 51.37 160.48 52.43 162.7 49.8 163.89 48.79 161.76"/><polygon class="cls-1" points="54.34 159.4 57.15 158.73 57.72 161.32 54.9 161.9 54.34 159.4"/><polygon class="cls-1" points="60.34 158.39 63.22 158.46 63.13 161.22 60.26 161.11 60.34 158.39"/><polygon class="cls-1" points="66.4 158.95 69.18 159.73 68.4 162.44 65.64 161.63 66.4 158.95"/><polygon class="cls-1" points="72.13 160.96 74.64 162.35 73.3 164.8 70.77 163.43 72.13 160.96"/><polygon class="cls-1" points="77.13 164.05 79.51 165.66 78 167.93 75.59 166.34 77.13 164.05"/><polygon class="cls-1" points="81.85 167.1 84.38 168.48 83.18 170.75 80.61 169.45 81.85 167.1"/><polygon class="cls-1" points="86.85 169.67 89.52 170.77 88.65 172.97 85.95 171.97 86.85 169.67"/><polygon class="cls-1" points="92.11 171.71 94.87 172.54 94.33 174.52 91.53 173.84 92.11 171.71"/><polygon class="cls-1" points="97.57 173.19 100.4 173.74 100.15 175.38 97.28 175.06 97.57 173.19"/><polygon class="cls-1" points="103.17 174.11 106.05 174.36 106 175.54 103.11 175.56 103.17 174.11"/><polygon class="cls-1" points="108.88 174.45 111.76 174.39 111.81 174.97 108.95 175.35 108.88 174.45"/><polygon class="cls-1" points="114.64 174.16 116.04 173.96 114.68 174.36 114.64 174.16"/><polygon class="cls-1" points="101.5 291.89 100.27 291.19 100.38 291.02 101.5 291.89"/><polygon class="cls-1" points="97.92 289.43 95.89 287.38 96.56 286.78 98.35 289.05 97.92 289.43"/><polygon class="cls-1" points="94.06 285 92.56 282.54 93.83 281.84 95.1 284.43 94.06 285"/><polygon class="cls-1" points="91.28 279.79 90.3 277.08 92.08 276.51 92.86 279.29 91.28 279.79"/><polygon class="cls-1" points="89.56 274.11 89.13 271.26 91.31 270.99 91.59 273.86 89.56 274.11"/><polygon class="cls-1" points="88.98 268.15 89.15 265.28 91.61 265.47 91.33 268.34 88.98 268.15"/><polygon class="cls-1" points="89.7 262.16 90.53 259.4 93.06 260.2 92.14 262.93 89.7 262.16"/><polygon class="cls-1" points="91.83 256.47 93.33 254.01 95.67 255.46 94.15 257.9 91.83 256.47"/><polygon class="cls-1" points="95.35 251.5 97.41 249.48 99.37 251.51 97.28 253.5 95.35 251.5"/><polygon class="cls-1" points="99.94 247.54 102.42 246.06 103.86 248.44 101.41 249.95 99.94 247.54"/><polygon class="cls-1" points="105.12 244.75 107.72 243.5 108.92 245.94 106.34 247.23 105.12 244.75"/><polygon class="cls-1" points="110.13 242.19 112.59 240.69 113.96 242.86 111.55 244.44 110.13 242.19"/><polygon class="cls-1" points="114.85 239.14 117.14 237.39 118.62 239.24 116.39 241.08 114.85 239.14"/><polygon class="cls-1" points="119.25 235.61 121.35 233.63 122.8 235.09 120.81 237.18 119.25 235.61"/><polygon class="cls-1" points="123.26 231.63 125.15 229.45 126.45 230.49 124.73 232.81 123.26 231.63"/><polygon class="cls-1" points="126.86 227.23 128.52 224.87 129.52 225.5 128.09 228.01 126.86 227.23"/><polygon class="cls-1" points="130.01 222.46 131.4 219.94 131.92 220.18 130.83 222.85 130.01 222.46"/><polygon class="cls-1" points="132.64 217.33 133.17 216.01 132.83 217.39 132.64 217.33"/><polygon class="cls-1" points="228.03 287.57 226.8 288.29 226.71 288.11 228.03 287.57"/><polygon class="cls-1" points="224.1 289.44 221.31 290.18 221.13 289.29 223.99 288.88 224.1 289.44"/><polygon class="cls-1" points="218.34 290.56 215.46 290.63 215.49 289.19 218.36 289.39 218.34 290.56"/><polygon class="cls-1" points="212.44 290.38 209.6 289.87 210 288.04 212.79 288.75 212.44 290.38"/><polygon class="cls-1" points="206.65 289.02 203.97 287.97 204.83 285.94 207.46 287.14 206.65 289.02"/><polygon class="cls-1" points="201.21 286.55 198.8 284.95 200.2 282.93 202.54 284.6 201.21 286.55"/><polygon class="cls-1" points="196.38 282.92 194.4 280.83 196.36 279.04 198.27 281.19 196.38 282.92"/><polygon class="cls-1" points="192.51 278.23 191.14 275.7 193.56 274.4 194.91 276.94 192.51 278.23"/><polygon class="cls-1" points="189.97 272.7 189.25 269.91 191.99 269.23 192.67 272.02 189.97 272.7"/><polygon class="cls-1" points="188.84 266.74 188.79 263.86 191.58 263.8 191.66 266.68 188.84 266.74"/><polygon class="cls-1" points="189.02 260.86 189.22 257.99 191.94 258.17 191.77 261.05 189.02 260.86"/><polygon class="cls-1" points="189.3 255.25 189.23 252.37 191.79 252.27 191.95 255.15 189.3 255.25"/><polygon class="cls-1" points="189.02 249.63 188.65 246.77 190.99 246.42 191.47 249.26 189.02 249.63"/><polygon class="cls-1" points="188.16 244.06 187.5 241.25 189.48 240.72 190.3 243.49 188.16 244.06"/><polygon class="cls-1" points="186.72 238.59 185.77 235.87 187.33 235.26 188.47 237.91 186.72 238.59"/><polygon class="cls-1" points="184.71 233.28 183.49 230.66 184.54 230.11 186 232.6 184.71 233.28"/><polygon class="cls-1" points="182.15 228.17 180.66 225.7 181.13 225.37 182.9 227.66 182.15 228.17"/><polygon class="cls-1" points="179.02 223.32 178.15 222.21 179.17 223.19 179.02 223.32"/><polygon class="cls-1" points="287.55 175.84 287.56 177.25 287.36 177.24 287.55 175.84"/><polygon class="cls-1" points="287.2 180.17 286.45 182.95 285.59 182.67 286.66 179.99 287.2 180.17"/><polygon class="cls-1" points="285.3 185.72 283.91 188.25 282.68 187.5 284.29 185.11 285.3 185.72"/><polygon class="cls-1" points="282.18 190.74 280.32 192.94 278.94 191.68 280.95 189.62 282.18 190.74"/><polygon class="cls-1" points="278.12 195.07 275.87 196.87 274.54 195.11 276.89 193.44 278.12 195.07"/><polygon class="cls-1" points="273.25 198.55 270.67 199.84 269.61 197.61 272.24 196.42 273.25 198.55"/><polygon class="cls-1" points="267.7 200.91 264.9 201.58 264.33 198.99 267.15 198.42 267.7 200.91"/><polygon class="cls-1" points="261.7 201.92 258.82 201.85 258.91 199.09 261.79 199.2 261.7 201.92"/><polygon class="cls-1" points="255.64 201.36 252.87 200.58 253.64 197.87 256.41 198.68 255.64 201.36"/><polygon class="cls-1" points="249.92 199.36 247.4 197.96 248.74 195.51 251.27 196.88 249.92 199.36"/><polygon class="cls-1" points="244.91 196.26 242.53 194.65 244.04 192.38 246.45 193.97 244.91 196.26"/><polygon class="cls-1" points="240.19 193.22 237.66 191.83 238.86 189.56 241.43 190.86 240.19 193.22"/><polygon class="cls-1" points="235.19 190.65 232.53 189.54 233.39 187.34 236.09 188.34 235.19 190.65"/><polygon class="cls-1" points="229.93 188.6 227.17 187.78 227.71 185.79 230.51 186.47 229.93 188.6"/><polygon class="cls-1" points="224.48 187.12 221.64 186.57 221.9 184.93 224.76 185.26 224.48 187.12"/><polygon class="cls-1" points="218.87 186.2 215.99 185.95 216.04 184.77 218.93 184.75 218.87 186.2"/><polygon class="cls-1" points="213.17 185.86 210.28 185.92 210.24 185.34 213.1 184.96 213.17 185.86"/><polygon class="cls-1" points="207.4 186.15 206 186.35 207.36 185.95 207.4 186.15"/><polygon class="cls-1" points="220.54 68.42 221.77 69.12 221.67 69.29 220.54 68.42"/><polygon class="cls-1" points="224.12 70.88 226.16 72.93 225.48 73.53 223.69 71.26 224.12 70.88"/><polygon class="cls-1" points="227.98 75.31 229.48 77.78 228.21 78.47 226.94 75.88 227.98 75.31"/><polygon class="cls-1" points="230.76 80.52 231.75 83.23 229.96 83.8 229.18 81.02 230.76 80.52"/><polygon class="cls-1" points="232.49 86.2 232.91 89.05 230.73 89.32 230.45 86.45 232.49 86.2"/><polygon class="cls-1" points="233.06 92.16 232.89 95.03 230.43 94.84 230.71 91.97 233.06 92.16"/><polygon class="cls-1" points="232.34 98.15 231.51 100.91 228.99 100.11 229.9 97.38 232.34 98.15"/><polygon class="cls-1" points="230.21 103.84 228.71 106.3 226.37 104.85 227.9 102.41 230.21 103.84"/><polygon class="cls-1" points="226.69 108.82 224.63 110.83 222.68 108.8 224.76 106.81 226.69 108.82"/><polygon class="cls-1" points="222.1 112.77 219.63 114.25 218.18 111.87 220.63 110.36 222.1 112.77"/><polygon class="cls-1" points="216.92 115.56 214.32 116.81 213.12 114.37 215.7 113.08 216.92 115.56"/><polygon class="cls-1" points="211.92 118.12 209.45 119.62 208.08 117.45 210.5 115.87 211.92 118.12"/><polygon class="cls-1" points="207.19 121.17 204.9 122.92 203.43 121.07 205.65 119.24 207.19 121.17"/><polygon class="cls-1" points="202.79 124.7 200.69 126.68 199.24 125.22 201.23 123.13 202.79 124.7"/><polygon class="cls-1" points="198.78 128.68 196.89 130.87 195.59 129.82 197.31 127.51 198.78 128.68"/><polygon class="cls-1" points="195.18 133.08 193.53 135.45 192.53 134.81 193.95 132.3 195.18 133.08"/><polygon class="cls-1" points="192.03 137.85 190.64 140.38 190.12 140.13 191.22 137.46 192.03 137.85"/><polygon class="cls-1" points="189.4 142.98 188.87 144.3 189.21 142.93 189.4 142.98"/><polygon class="cls-1" points="220.54 68.42 221.69 69.25 221.62 69.35 220.54 68.42"/><polygon class="cls-1" points="223.84 71.06 225.78 73.07 225.34 73.46 223.56 71.31 223.84 71.06"/><polygon class="cls-1" points="227.56 75.29 229.14 77.6 228.33 78.11 226.91 75.71 227.56 75.29"/><polygon class="cls-1" points="230.58 80.07 231.82 82.57 230.61 83.12 229.53 80.55 230.58 80.07"/><polygon class="cls-1" points="232.92 85.23 233.83 87.87 232.27 88.36 231.5 85.68 232.92 85.23"/><polygon class="cls-1" points="234.59 90.66 235.18 93.39 233.31 93.74 232.86 90.98 234.59 90.66"/><polygon class="cls-1" points="235.61 96.26 235.85 99.04 233.75 99.19 233.6 96.4 235.61 96.26"/><polygon class="cls-1" points="235.93 101.96 235.83 104.75 233.53 104.63 233.73 101.85 235.93 101.96"/><polygon class="cls-1" points="235.54 107.68 235.06 110.43 232.65 109.98 233.18 107.25 235.54 107.68"/><polygon class="cls-1" points="234.36 113.31 233.5 115.96 231.06 115.15 231.97 112.51 234.36 113.31"/><polygon class="cls-1" points="232.38 118.73 231.13 121.23 228.74 120 230.03 117.53 232.38 118.73"/><polygon class="cls-1" points="229.58 123.79 227.95 126.06 225.73 124.44 227.38 122.19 229.58 123.79"/><polygon class="cls-1" points="226 128.34 224.02 130.32 222.06 128.34 224.04 126.38 226 128.34"/><polygon class="cls-1" points="221.74 132.27 219.49 133.93 217.83 131.65 220.09 130.01 221.74 132.27"/><polygon class="cls-1" points="216.96 135.51 214.5 136.81 213.17 134.34 215.63 133.02 216.96 135.51"/><polygon class="cls-1" points="211.79 138.03 209.18 139.02 208.19 136.44 210.79 135.43 211.79 138.03"/><polygon class="cls-1" points="206.55 139.94 203.94 140.94 202.96 138.4 205.56 137.38 206.55 139.94"/><polygon class="cls-1" points="201.45 141.99 198.91 143.14 197.79 140.75 200.31 139.54 201.45 141.99"/><polygon class="cls-1" points="196.48 144.34 194.03 145.66 192.81 143.46 195.24 142.08 196.48 144.34"/><polygon class="cls-1" points="191.69 147.03 189.32 148.51 188.02 146.5 190.35 144.96 191.69 147.03"/><polygon class="cls-1" points="187.07 150.03 184.81 151.66 183.48 149.89 185.69 148.18 187.07 150.03"/><polygon class="cls-1" points="182.67 153.33 180.52 155.12 179.2 153.59 181.28 151.73 182.67 153.33"/><polygon class="cls-1" points="178.49 156.93 176.47 158.86 175.21 157.6 177.14 155.58 178.49 156.93"/><polygon class="cls-1" points="174.55 160.81 172.66 162.87 171.53 161.88 173.31 159.73 174.55 160.81"/><polygon class="cls-1" points="170.87 164.95 169.12 167.12 168.19 166.43 169.8 164.14 170.87 164.95"/><polygon class="cls-1" points="167.46 169.32 165.87 171.62 165.21 171.2 166.65 168.8 167.46 169.32"/><polygon class="cls-1" points="164.37 173.96 162.96 176.37 162.62 176.19 163.86 173.68 164.37 173.96"/><polygon class="cls-1" points="161.62 178.88 161.02 180.16 161.5 178.83 161.62 178.88"/><polygon class="cls-1" points="287.55 175.84 287.41 177.25 287.28 177.23 287.55 175.84"/><polygon class="cls-1" points="286.91 180.02 286.14 182.7 285.58 182.51 286.55 179.9 286.91 180.02"/><polygon class="cls-1" points="285.1 185.35 283.9 187.87 283.05 187.43 284.42 184.99 285.1 185.35"/><polygon class="cls-1" points="282.48 190.35 280.93 192.68 279.85 191.9 281.54 189.69 282.48 190.35"/><polygon class="cls-1" points="279.18 194.96 277.35 197.06 276.15 195.96 278.08 193.95 279.18 194.96"/><polygon class="cls-1" points="275.32 199.12 273.25 201 272.01 199.56 274.17 197.79 275.32 199.12"/><polygon class="cls-1" points="270.97 202.8 268.68 204.4 267.51 202.66 269.85 201.14 270.97 202.8"/><polygon class="cls-1" points="266.19 205.93 263.73 207.24 262.68 205.19 265.19 203.97 266.19 205.93"/><polygon class="cls-1" points="261.05 208.45 258.43 209.41 257.6 207.1 260.24 206.19 261.05 208.45"/><polygon class="cls-1" points="255.58 210.24 252.85 210.83 252.34 208.31 255.08 207.78 255.58 210.24"/><polygon class="cls-1" points="249.9 211.24 247.11 211.41 246.97 208.72 249.76 208.61 249.9 211.24"/><polygon class="cls-1" points="244.11 211.35 241.34 211.06 241.63 208.33 244.4 208.64 244.11 211.35"/><polygon class="cls-1" points="238.38 210.52 235.68 209.8 236.41 207.11 239.1 207.85 238.38 210.52"/><polygon class="cls-1" points="232.85 208.8 230.29 207.68 231.44 205.1 233.99 206.24 232.85 208.8"/><polygon class="cls-1" points="227.65 206.28 225.29 204.79 226.78 202.41 229.15 203.88 227.65 206.28"/><polygon class="cls-1" points="222.89 203.06 220.73 201.29 222.47 199.15 224.64 200.9 222.89 203.06"/><polygon class="cls-1" points="218.61 199.48 216.44 197.72 218.15 195.59 220.34 197.33 218.61 199.48"/><polygon class="cls-1" points="214.29 196.09 212.02 194.46 213.53 192.3 215.84 193.87 214.29 196.09"/><polygon class="cls-1" points="209.77 192.96 207.4 191.49 208.7 189.33 211.1 190.75 209.77 192.96"/><polygon class="cls-1" points="205.05 190.15 202.57 188.85 203.67 186.71 206.17 187.96 205.05 190.15"/><polygon class="cls-1" points="200.14 187.66 197.59 186.51 198.46 184.48 201.05 185.53 200.14 187.66"/><polygon class="cls-1" points="195.08 185.49 192.45 184.53 193.11 182.62 195.77 183.49 195.08 185.49"/><polygon class="cls-1" points="189.87 183.67 187.19 182.88 187.65 181.17 190.36 181.83 189.87 183.67"/><polygon class="cls-1" points="184.54 182.2 181.81 181.59 182.1 180.12 184.86 180.59 184.54 182.2"/><polygon class="cls-1" points="179.12 181.09 176.36 180.65 176.5 179.5 179.28 179.75 179.12 181.09"/><polygon class="cls-1" points="173.62 180.32 170.83 180.09 170.87 179.31 173.67 179.35 173.62 180.32"/><polygon class="cls-1" points="168.07 179.96 165.27 179.94 165.26 179.56 168.05 179.37 168.07 179.96"/><polygon class="cls-1" points="162.43 180.04 161.02 180.16 162.41 179.91 162.43 180.04"/><polygon class="cls-1" points="228.03 287.57 226.74 288.15 226.69 288.04 228.03 287.57"/><polygon class="cls-1" points="224.09 289.11 221.38 289.78 221.26 289.21 224.01 288.74 224.09 289.11"/><polygon class="cls-1" points="218.56 290.21 215.78 290.43 215.74 289.47 218.53 289.44 218.56 290.21"/><polygon class="cls-1" points="212.92 290.44 210.13 290.26 210.26 288.94 213.03 289.29 212.92 290.44"/><polygon class="cls-1" points="207.28 289.89 204.54 289.35 204.9 287.76 207.6 288.43 207.28 289.89"/><polygon class="cls-1" points="201.74 288.62 199.09 287.77 199.71 285.97 202.32 286.96 201.74 288.62"/><polygon class="cls-1" points="196.38 286.7 193.85 285.52 194.78 283.63 197.26 284.89 196.38 286.7"/><polygon class="cls-1" points="191.28 284.13 188.92 282.65 190.17 280.72 192.49 282.28 191.28 284.13"/><polygon class="cls-1" points="186.53 280.93 184.38 279.14 185.98 277.27 188.08 279.1 186.53 280.93"/><polygon class="cls-1" points="182.25 277.09 180.37 275.02 182.3 273.31 184.13 275.42 182.25 277.09"/><polygon class="cls-1" points="178.54 272.67 177 270.34 179.26 268.88 180.75 271.24 178.54 272.67"/><polygon class="cls-1" points="175.55 267.71 174.41 265.17 176.92 264.05 178.04 266.61 175.55 267.71"/><polygon class="cls-1" points="173.41 262.33 172.68 259.64 175.37 258.92 176.08 261.62 173.41 262.33"/><polygon class="cls-1" points="172.13 256.68 171.82 253.91 174.63 253.61 174.92 256.38 172.13 256.68"/><polygon class="cls-1" points="171.72 250.92 171.82 248.14 174.63 248.23 174.54 251.02 171.72 250.92"/><polygon class="cls-1" points="172.12 245.19 172.57 242.43 175.3 242.87 174.87 245.62 172.12 245.19"/><polygon class="cls-1" points="173.09 239.69 173.52 236.94 176.22 237.35 175.8 240.11 173.09 239.69"/><polygon class="cls-1" points="173.86 234.25 174.13 231.47 176.76 231.7 176.55 234.49 173.86 234.25"/><polygon class="cls-1" points="174.31 228.78 174.39 225.99 176.91 226.03 176.89 228.83 174.31 228.78"/><polygon class="cls-1" points="174.38 223.28 174.27 220.49 176.67 220.37 176.84 223.16 174.38 223.28"/><polygon class="cls-1" points="174.09 217.78 173.8 215.01 176 214.74 176.38 217.51 174.09 217.78"/><polygon class="cls-1" points="173.43 212.31 172.95 209.56 174.93 209.18 175.51 211.91 173.43 212.31"/><polygon class="cls-1" points="172.4 206.9 171.74 204.18 173.46 203.72 174.24 206.41 172.4 206.9"/><polygon class="cls-1" points="171.01 201.55 170.17 198.88 171.59 198.4 172.56 201.01 171.01 201.55"/><polygon class="cls-1" points="169.26 196.29 168.26 193.68 169.32 193.23 170.5 195.77 169.26 196.29"/><polygon class="cls-1" points="167.18 191.15 165.99 188.62 166.68 188.26 168.04 190.71 167.18 191.15"/><polygon class="cls-1" points="164.71 186.16 163.33 183.73 163.66 183.53 165.21 185.85 164.71 186.16"/><polygon class="cls-1" points="161.83 181.32 161.02 180.16 161.93 181.24 161.83 181.32"/><polygon class="cls-1" points="101.5 291.89 100.35 291.07 100.43 290.96 101.5 291.89"/><polygon class="cls-1" points="98.2 289.25 96.26 287.24 96.7 286.85 98.48 289 98.2 289.25"/><polygon class="cls-1" points="94.48 285.02 92.9 282.71 93.71 282.2 95.13 284.6 94.48 285.02"/><polygon class="cls-1" points="91.46 280.24 90.22 277.74 91.43 277.19 92.51 279.76 91.46 280.24"/><polygon class="cls-1" points="89.12 275.08 88.22 272.44 89.77 271.95 90.54 274.63 89.12 275.08"/><polygon class="cls-1" points="87.45 269.66 86.86 266.93 88.73 266.57 89.18 269.33 87.45 269.66"/><polygon class="cls-1" points="86.43 264.05 86.19 261.27 88.29 261.13 88.44 263.91 86.43 264.05"/><polygon class="cls-1" points="86.11 258.35 86.21 255.56 88.51 255.68 88.31 258.46 86.11 258.35"/><polygon class="cls-1" points="86.5 252.63 86.98 249.88 89.39 250.33 88.86 253.07 86.5 252.63"/><polygon class="cls-1" points="87.69 247 88.54 244.35 90.98 245.16 90.07 247.8 87.69 247"/><polygon class="cls-1" points="89.66 241.58 90.91 239.09 93.3 240.31 92.01 242.78 89.66 241.58"/><polygon class="cls-1" points="92.46 236.52 94.1 234.26 96.31 235.87 94.67 238.12 92.46 236.52"/><polygon class="cls-1" points="96.05 231.97 98.02 229.99 99.98 231.97 98 233.93 96.05 231.97"/><polygon class="cls-1" points="100.3 228.04 102.55 226.39 104.21 228.67 101.95 230.3 100.3 228.04"/><polygon class="cls-1" points="105.08 224.8 107.55 223.5 108.87 225.97 106.41 227.29 105.08 224.8"/><polygon class="cls-1" points="110.25 222.28 112.86 221.29 113.85 223.88 111.25 224.88 110.25 222.28"/><polygon class="cls-1" points="115.49 220.37 118.1 219.37 119.09 221.91 116.49 222.94 115.49 220.37"/><polygon class="cls-1" points="120.59 218.32 123.13 217.17 124.25 219.56 121.73 220.77 120.59 218.32"/><polygon class="cls-1" points="125.56 215.97 128.02 214.65 129.24 216.86 126.81 218.23 125.56 215.97"/><polygon class="cls-1" points="130.35 213.29 132.72 211.8 134.02 213.81 131.69 215.35 130.35 213.29"/><polygon class="cls-1" points="134.97 210.29 137.23 208.65 138.56 210.42 136.35 212.13 134.97 210.29"/><polygon class="cls-1" points="139.38 206.98 141.52 205.19 142.84 206.72 140.76 208.58 139.38 206.98"/><polygon class="cls-1" points="143.55 203.38 145.58 201.46 146.83 202.71 144.9 204.73 143.55 203.38"/><polygon class="cls-1" points="147.49 199.5 149.38 197.44 150.51 198.43 148.73 200.58 147.49 199.5"/><polygon class="cls-1" points="151.17 195.36 152.93 193.19 153.85 193.88 152.24 196.17 151.17 195.36"/><polygon class="cls-1" points="154.58 190.99 156.18 188.69 156.83 189.11 155.39 191.51 154.58 190.99"/><polygon class="cls-1" points="157.67 186.35 159.08 183.94 159.42 184.13 158.19 186.63 157.67 186.35"/><polygon class="cls-1" points="160.42 181.44 161.02 180.16 160.54 181.49 160.42 181.44"/><polygon class="cls-1" points="34.5 184.48 34.63 183.07 34.76 183.09 34.5 184.48"/><polygon class="cls-1" points="35.13 180.3 35.91 177.61 36.46 177.8 35.49 180.41 35.13 180.3"/><polygon class="cls-1" points="36.94 174.96 38.15 172.44 39 172.89 37.62 175.32 36.94 174.96"/><polygon class="cls-1" points="39.57 169.96 41.11 167.63 42.2 168.41 40.5 170.63 39.57 169.96"/><polygon class="cls-1" points="42.86 165.35 44.7 163.25 45.9 164.35 43.96 166.36 42.86 165.35"/><polygon class="cls-1" points="46.73 161.19 48.8 159.32 50.03 160.76 47.88 162.53 46.73 161.19"/><polygon class="cls-1" points="51.07 157.51 53.36 155.91 54.53 157.66 52.19 159.18 51.07 157.51"/><polygon class="cls-1" points="55.85 154.38 58.31 153.07 59.36 155.12 56.85 156.34 55.85 154.38"/><polygon class="cls-1" points="61 151.86 63.62 150.9 64.44 153.21 61.8 154.12 61 151.86"/><polygon class="cls-1" points="66.46 150.07 69.19 149.48 69.7 152 66.96 152.53 66.46 150.07"/><polygon class="cls-1" points="72.14 149.07 74.93 148.9 75.07 151.59 72.28 151.7 72.14 149.07"/><polygon class="cls-1" points="77.93 148.96 80.71 149.25 80.42 151.98 77.64 151.67 77.93 148.96"/><polygon class="cls-1" points="83.66 149.79 86.36 150.51 85.63 153.2 82.94 152.46 83.66 149.79"/><polygon class="cls-1" points="89.19 151.51 91.75 152.63 90.61 155.21 88.06 154.07 89.19 151.51"/><polygon class="cls-1" points="94.39 154.03 96.75 155.52 95.27 157.9 92.89 156.43 94.39 154.03"/><polygon class="cls-1" points="99.15 157.25 101.32 159.02 99.57 161.17 97.4 159.42 99.15 157.25"/><polygon class="cls-1" points="103.43 160.84 105.6 162.59 103.89 164.72 101.71 162.98 103.43 160.84"/><polygon class="cls-1" points="107.75 164.23 110.02 165.85 108.51 168.01 106.2 166.44 107.75 164.23"/><polygon class="cls-1" points="112.27 167.35 114.65 168.82 113.34 170.98 110.94 169.56 112.27 167.35"/><polygon class="cls-1" points="117 170.16 119.47 171.46 118.37 173.6 115.87 172.35 117 170.16"/><polygon class="cls-1" points="121.9 172.66 124.45 173.8 123.58 175.83 120.99 174.78 121.9 172.66"/><polygon class="cls-1" points="126.97 174.82 129.59 175.79 128.93 177.69 126.27 176.82 126.97 174.82"/><polygon class="cls-1" points="132.18 176.64 134.85 177.43 134.39 179.14 131.68 178.48 132.18 176.64"/><polygon class="cls-1" points="137.5 178.12 140.23 178.72 139.94 180.19 137.19 179.72 137.5 178.12"/><polygon class="cls-1" points="142.92 179.23 145.69 179.66 145.54 180.81 142.76 180.56 142.92 179.23"/><polygon class="cls-1" points="148.42 179.99 151.21 180.23 151.17 181 148.37 180.96 148.42 179.99"/><polygon class="cls-1" points="153.98 180.35 156.77 180.37 156.78 180.75 153.99 180.94 153.98 180.35"/><polygon class="cls-1" points="159.61 180.28 161.02 180.16 159.63 180.4 159.61 180.28"/></g></g></svg>