<svg xmlns="http://www.w3.org/2000/svg" viewBox="0 0 459.14 314.17"><defs><style>.cls-1{fill:#f9af77;}.cls-2,.cls-3{fill:none;stroke-miterlimit:10;}.cls-2{stroke:#fff;stroke-width:14.17px;}.cls-3{stroke:#f9af77;stroke-width:5.67px;}</style></defs><title>Asset 2</title><g id="Layer_2" data-name="Layer 2"><g id="Layer_1-2" data-name="Layer 1"><polygon class="cls-1" points="22.44 89.97 25.28 89.88 25.28 90.06 22.44 89.97"/><polygon class="cls-1" points="28.11 89.79 30.95 89.7 30.95 90.23 28.11 90.14 28.11 89.79"/><polygon class="cls-1" points="33.78 89.61 36.61 89.53 36.61 90.41 33.78 90.32 33.78 89.61"/><polygon class="cls-1" points="39.45 89.45 42.28 89.38 42.28 90.56 39.45 90.48 39.45 89.45"/><polygon class="cls-1" points="45.12 89.31 47.95 89.23 47.95 90.7 45.12 90.63 45.12 89.31"/><polygon class="cls-1" points="50.79 89.16 53.62 89.09 53.62 90.85 50.79 90.78 50.79 89.16"/><polygon class="cls-1" points="56.46 89.02 59.29 88.96 59.29 90.97 56.46 90.91 56.46 89.02"/><polygon class="cls-1" points="62.13 88.9 64.96 88.84 64.96 91.09 62.13 91.03 62.13 88.9"/><polygon class="cls-1" points="67.8 88.78 70.63 88.72 70.63 91.22 67.8 91.16 67.8 88.78"/><polygon class="cls-1" points="73.47 88.66 76.3 88.6 76.3 91.34 73.47 91.28 73.47 88.66"/><polygon class="cls-1" points="79.13 88.54 81.97 88.49 81.97 91.44 79.13 91.39 79.13 88.54"/><polygon class="cls-1" points="84.8 88.45 87.64 88.4 87.64 91.54 84.8 91.49 84.8 88.45"/><polygon class="cls-1" points="90.47 88.35 93.31 88.3 93.31 91.63 90.47 91.58 90.47 88.35"/><polygon class="cls-1" points="96.14 88.26 98.98 88.21 98.98 91.73 96.14 91.68 96.14 88.26"/><polygon class="cls-1" points="101.81 88.16 104.65 88.11 104.65 91.82 101.81 91.78 101.81 88.16"/><polygon class="cls-1" points="107.48 88.07 110.31 88.02 110.31 91.92 107.48 91.87 107.48 88.07"/><polygon class="cls-1" points="113.15 87.99 115.98 87.95 115.98 91.98 113.15 91.95 113.15 87.99"/><polygon class="cls-1" points="118.82 87.92 121.65 87.89 121.65 92.05 118.82 92.02 118.82 87.92"/><polygon class="cls-1" points="124.49 87.85 127.32 87.82 127.32 92.12 124.49 92.09 124.49 87.85"/><polygon class="cls-1" points="130.16 87.78 132.99 87.75 132.99 92.19 130.16 92.15 130.16 87.78"/><polygon class="cls-1" points="135.83 87.71 138.66 87.68 138.66 92.26 135.83 92.22 135.83 87.71"/><polygon class="cls-1" points="141.5 87.64 144.33 87.61 144.33 92.33 141.5 92.29 141.5 87.64"/><polygon class="cls-1" points="147.16 87.58 150 87.56 150 92.38 147.16 92.36 147.16 87.58"/><polygon class="cls-1" points="152.84 87.53 155.67 87.52 155.67 92.42 152.84 92.4 152.84 87.53"/><polygon class="cls-1" points="158.5 87.49 161.34 87.47 161.34 92.46 158.5 92.44 158.5 87.49"/><polygon class="cls-1" points="164.17 87.45 167.01 87.43 167.01 92.5 164.17 92.48 164.17 87.45"/><polygon class="cls-1" points="169.84 87.41 172.68 87.39 172.68 92.55 169.84 92.53 169.84 87.41"/><polygon class="cls-1" points="175.51 87.37 178.35 87.35 178.35 92.59 175.51 92.57 175.51 87.37"/><polygon class="cls-1" points="181.18 87.33 184.02 87.31 184.02 92.63 181.18 92.61 181.18 87.33"/><polygon class="cls-1" points="186.85 87.29 189.69 87.27 189.69 92.67 186.85 92.65 186.85 87.29"/><polygon class="cls-1" points="192.52 87.25 195.35 87.25 195.35 92.69 192.52 92.68 192.52 87.25"/><polygon class="cls-1" points="198.19 87.24 201.02 87.23 201.02 92.7 198.19 92.7 198.19 87.24"/><polygon class="cls-1" points="203.86 87.22 206.69 87.22 206.69 92.72 203.86 92.71 203.86 87.22"/><polygon class="cls-1" points="209.53 87.21 212.36 87.2 212.36 92.73 209.53 92.73 209.53 87.21"/><polygon class="cls-1" points="215.2 87.2 218.03 87.19 218.03 92.75 215.2 92.74 215.2 87.2"/><polygon class="cls-1" points="220.87 87.18 223.7 87.18 223.7 92.76 220.87 92.75 220.87 87.18"/><polygon class="cls-1" points="226.53 87.17 229.37 87.16 229.37 92.77 226.53 92.77 226.53 87.17"/><polygon class="cls-1" points="232.21 87.16 235.04 87.15 235.04 92.79 232.21 92.78 232.21 87.16"/><polygon class="cls-1" points="237.87 87.14 240.71 87.14 240.71 92.8 237.87 92.79 237.87 87.14"/><polygon class="cls-1" points="243.54 87.14 246.38 87.15 246.38 92.79 243.54 92.8 243.54 87.14"/><polygon class="cls-1" points="249.21 87.15 252.05 87.16 252.05 92.78 249.21 92.78 249.21 87.15"/><polygon class="cls-1" points="254.88 87.17 257.72 87.17 257.72 92.76 254.88 92.77 254.88 87.17"/><polygon class="cls-1" points="260.55 87.18 263.39 87.19 263.39 92.75 260.55 92.76 260.55 87.18"/><polygon class="cls-1" points="266.22 87.19 269.06 87.2 269.06 92.74 266.22 92.74 266.22 87.19"/><polygon class="cls-1" points="271.89 87.21 274.72 87.22 274.72 92.72 271.89 92.73 271.89 87.21"/><polygon class="cls-1" points="277.56 87.22 280.39 87.23 280.39 92.71 277.56 92.72 277.56 87.22"/><polygon class="cls-1" points="283.23 87.23 286.06 87.24 286.06 92.69 283.23 92.7 283.23 87.23"/><polygon class="cls-1" points="288.9 87.25 291.73 87.26 291.73 92.68 288.9 92.69 288.9 87.25"/><polygon class="cls-1" points="294.57 87.28 297.4 87.3 297.4 92.64 294.57 92.66 294.57 87.28"/><polygon class="cls-1" points="300.24 87.32 303.07 87.34 303.07 92.6 300.24 92.62 300.24 87.32"/><polygon class="cls-1" points="305.91 87.36 308.74 87.38 308.74 92.55 305.91 92.58 305.91 87.36"/><polygon class="cls-1" points="311.57 87.4 314.41 87.42 314.41 92.51 311.57 92.53 311.57 87.4"/><polygon class="cls-1" points="317.24 87.44 320.08 87.47 320.08 92.47 317.24 92.49 317.24 87.44"/><polygon class="cls-1" points="322.91 87.49 325.75 87.51 325.75 92.43 322.91 92.45 322.91 87.49"/><polygon class="cls-1" points="328.58 87.53 331.42 87.55 331.42 92.39 328.58 92.41 328.58 87.53"/><polygon class="cls-1" points="334.25 87.57 337.09 87.6 337.09 92.34 334.25 92.37 334.25 87.57"/><polygon class="cls-1" points="339.92 87.63 342.76 87.67 342.76 92.27 339.92 92.3 339.92 87.63"/><polygon class="cls-1" points="345.59 87.7 348.43 87.74 348.43 92.2 345.59 92.23 345.59 87.7"/><polygon class="cls-1" points="351.26 87.77 354.1 87.81 354.1 92.13 351.26 92.17 351.26 87.77"/><polygon class="cls-1" points="356.93 87.84 359.76 87.88 359.76 92.06 356.93 92.1 356.93 87.84"/><polygon class="cls-1" points="362.6 87.91 365.43 87.94 365.43 91.99 362.6 92.03 362.6 87.91"/><polygon class="cls-1" points="368.27 87.98 371.1 88.01 371.1 91.92 368.27 91.96 368.27 87.98"/><polygon class="cls-1" points="373.94 88.05 376.77 88.1 376.77 91.83 373.94 91.88 373.94 88.05"/><polygon class="cls-1" points="379.61 88.15 382.44 88.2 382.44 91.74 379.61 91.79 379.61 88.15"/><polygon class="cls-1" points="385.28 88.25 388.11 88.29 388.11 91.64 385.28 91.69 385.28 88.25"/><polygon class="cls-1" points="390.94 88.34 393.78 88.39 393.78 91.55 390.94 91.59 390.94 88.34"/><polygon class="cls-1" points="396.61 88.44 399.45 88.48 399.45 91.45 396.61 91.5 396.61 88.44"/><polygon class="cls-1" points="402.28 88.53 405.12 88.59 405.12 91.35 402.28 91.4 402.28 88.53"/><polygon class="cls-1" points="407.95 88.65 410.79 88.71 410.79 91.23 407.95 91.29 407.95 88.65"/><polygon class="cls-1" points="413.62 88.77 416.46 88.83 416.46 91.1 413.62 91.17 413.62 88.77"/><polygon class="cls-1" points="419.29 88.89 422.13 88.95 422.13 90.98 419.29 91.04 419.29 88.89"/><polygon class="cls-1" points="424.96 89.02 427.8 89.08 427.8 90.86 424.96 90.92 424.96 89.02"/><polygon class="cls-1" points="430.63 89.15 433.46 89.22 433.46 90.71 430.63 90.79 430.63 89.15"/><polygon class="cls-1" points="436.3 89.3 439.13 89.37 439.13 90.56 436.3 90.64 436.3 89.3"/><polygon class="cls-1" points="441.97 89.45 444.8 89.52 444.8 90.42 441.97 90.49 441.97 89.45"/><polygon class="cls-1" points="447.64 89.61 450.47 89.7 450.47 90.24 447.64 90.33 447.64 89.61"/><polygon class="cls-1" points="453.31 89.78 456.14 89.87 456.14 90.06 453.31 90.15 453.31 89.78"/><polygon class="cls-1" points="458.98 89.96 459.14 89.97 458.98 89.97 458.98 89.96"/><polygon class="cls-1" points="22.44 136.94 25.28 136.86 25.28 137.03 22.44 136.94"/><polygon class="cls-1" points="28.11 136.77 30.95 136.68 30.95 137.21 28.11 137.12 28.11 136.77"/><polygon class="cls-1" points="33.78 136.59 36.61 136.5 36.61 137.39 33.78 137.3 33.78 136.59"/><polygon class="cls-1" points="39.45 136.43 42.28 136.35 42.28 137.53 39.45 137.46 39.45 136.43"/><polygon class="cls-1" points="45.12 136.28 47.95 136.21 47.95 137.68 45.12 137.61 45.12 136.28"/><polygon class="cls-1" points="50.79 136.14 53.62 136.06 53.62 137.83 50.79 137.75 50.79 136.14"/><polygon class="cls-1" points="56.46 136 59.29 135.94 59.29 137.95 56.46 137.89 56.46 136"/><polygon class="cls-1" points="62.13 135.88 64.96 135.82 64.96 138.07 62.13 138.01 62.13 135.88"/><polygon class="cls-1" points="67.8 135.76 70.63 135.7 70.63 138.19 67.8 138.13 67.8 135.76"/><polygon class="cls-1" points="73.47 135.64 76.3 135.57 76.3 138.31 73.47 138.25 73.47 135.64"/><polygon class="cls-1" points="79.13 135.52 81.97 135.47 81.97 138.42 79.13 138.37 79.13 135.52"/><polygon class="cls-1" points="84.8 135.42 87.64 135.38 87.64 138.51 84.8 138.47 84.8 135.42"/><polygon class="cls-1" points="90.47 135.33 93.31 135.28 93.31 138.61 90.47 138.56 90.47 135.33"/><polygon class="cls-1" points="96.14 135.23 98.98 135.19 98.98 138.7 96.14 138.66 96.14 135.23"/><polygon class="cls-1" points="101.81 135.14 104.65 135.09 104.65 138.8 101.81 138.75 101.81 135.14"/><polygon class="cls-1" points="107.48 135.04 110.31 135 110.31 138.89 107.48 138.85 107.48 135.04"/><polygon class="cls-1" points="113.15 134.96 115.98 134.93 115.98 138.96 113.15 138.93 113.15 134.96"/><polygon class="cls-1" points="118.82 134.9 121.65 134.86 121.65 139.03 118.82 138.99 118.82 134.9"/><polygon class="cls-1" points="124.49 134.83 127.32 134.79 127.32 139.1 124.49 139.06 124.49 134.83"/><polygon class="cls-1" points="130.16 134.76 132.99 134.72 132.99 139.16 130.16 139.13 130.16 134.76"/><polygon class="cls-1" points="135.83 134.69 138.66 134.66 138.66 139.23 135.83 139.2 135.83 134.69"/><polygon class="cls-1" points="141.5 134.62 144.33 134.59 144.33 139.3 141.5 139.27 141.5 134.62"/><polygon class="cls-1" points="147.16 134.55 150 134.53 150 139.36 147.16 139.34 147.16 134.55"/><polygon class="cls-1" points="152.84 134.51 155.67 134.49 155.67 139.4 152.84 139.38 152.84 134.51"/><polygon class="cls-1" points="158.5 134.47 161.34 134.45 161.34 139.44 158.5 139.42 158.5 134.47"/><polygon class="cls-1" points="164.17 134.43 167.01 134.41 167.01 139.48 164.17 139.46 164.17 134.43"/><polygon class="cls-1" points="169.84 134.39 172.68 134.37 172.68 139.52 169.84 139.5 169.84 134.39"/><polygon class="cls-1" points="175.51 134.35 178.35 134.32 178.35 139.56 175.51 139.54 175.51 134.35"/><polygon class="cls-1" points="181.18 134.3 184.02 134.28 184.02 139.6 181.18 139.58 181.18 134.3"/><polygon class="cls-1" points="186.85 134.26 189.69 134.24 189.69 139.65 186.85 139.63 186.85 134.26"/><polygon class="cls-1" points="192.52 134.23 195.35 134.22 195.35 139.67 192.52 139.66 192.52 134.23"/><polygon class="cls-1" points="198.19 134.21 201.02 134.21 201.02 139.68 198.19 139.67 198.19 134.21"/><polygon class="cls-1" points="203.86 134.2 206.69 134.19 206.69 139.69 203.86 139.69 203.86 134.2"/><polygon class="cls-1" points="209.53 134.19 212.36 134.18 212.36 139.71 209.53 139.7 209.53 134.19"/><polygon class="cls-1" points="215.2 134.17 218.03 134.17 218.03 139.72 215.2 139.72 215.2 134.17"/><polygon class="cls-1" points="220.87 134.16 223.7 134.15 223.7 139.74 220.87 139.73 220.87 134.16"/><polygon class="cls-1" points="226.53 134.15 229.37 134.14 229.37 139.75 226.53 139.74 226.53 134.15"/><polygon class="cls-1" points="232.21 134.13 235.04 134.13 235.04 139.76 232.21 139.76 232.21 134.13"/><polygon class="cls-1" points="237.87 134.12 240.71 134.11 240.71 139.78 237.87 139.77 237.87 134.12"/><polygon class="cls-1" points="243.54 134.11 246.38 134.12 246.38 139.77 243.54 139.77 243.54 134.11"/><polygon class="cls-1" points="249.21 134.13 252.05 134.13 252.05 139.75 249.21 139.76 249.21 134.13"/><polygon class="cls-1" points="254.88 134.14 257.72 134.15 257.72 139.74 254.88 139.75 254.88 134.14"/><polygon class="cls-1" points="260.55 134.16 263.39 134.16 263.39 139.72 260.55 139.73 260.55 134.16"/><polygon class="cls-1" points="266.22 134.17 269.06 134.18 269.06 139.71 266.22 139.72 266.22 134.17"/><polygon class="cls-1" points="271.89 134.18 274.72 134.19 274.72 139.7 271.89 139.71 271.89 134.18"/><polygon class="cls-1" points="277.56 134.2 280.39 134.2 280.39 139.68 277.56 139.69 277.56 134.2"/><polygon class="cls-1" points="283.23 134.21 286.06 134.22 286.06 139.67 283.23 139.68 283.23 134.21"/><polygon class="cls-1" points="288.9 134.22 291.73 134.23 291.73 139.66 288.9 139.66 288.9 134.22"/><polygon class="cls-1" points="294.57 134.25 297.4 134.28 297.4 139.61 294.57 139.63 294.57 134.25"/><polygon class="cls-1" points="300.24 134.3 303.07 134.32 303.07 139.57 300.24 139.59 300.24 134.3"/><polygon class="cls-1" points="305.91 134.34 308.74 134.36 308.74 139.53 305.91 139.55 305.91 134.34"/><polygon class="cls-1" points="311.57 134.38 314.41 134.4 314.41 139.49 311.57 139.51 311.57 134.38"/><polygon class="cls-1" points="317.24 134.42 320.08 134.44 320.08 139.45 317.24 139.47 317.24 134.42"/><polygon class="cls-1" points="322.91 134.46 325.75 134.48 325.75 139.41 322.91 139.43 322.91 134.46"/><polygon class="cls-1" points="328.58 134.5 331.42 134.53 331.42 139.36 328.58 139.38 328.58 134.5"/><polygon class="cls-1" points="334.25 134.55 337.09 134.58 337.09 139.31 334.25 139.34 334.25 134.55"/><polygon class="cls-1" points="339.92 134.61 342.76 134.64 342.76 139.24 339.92 139.28 339.92 134.61"/><polygon class="cls-1" points="345.59 134.68 348.43 134.71 348.43 139.18 345.59 139.21 345.59 134.68"/><polygon class="cls-1" points="351.26 134.75 354.1 134.78 354.1 139.11 351.26 139.14 351.26 134.75"/><polygon class="cls-1" points="356.93 134.82 359.76 134.85 359.76 139.04 356.93 139.07 356.93 134.82"/><polygon class="cls-1" points="362.6 134.89 365.43 134.92 365.43 138.97 362.6 139 362.6 134.89"/><polygon class="cls-1" points="368.27 134.96 371.1 134.99 371.1 138.9 368.27 138.93 368.27 134.96"/><polygon class="cls-1" points="373.94 135.03 376.77 135.08 376.77 138.81 373.94 138.86 373.94 135.03"/><polygon class="cls-1" points="379.61 135.13 382.44 135.17 382.44 138.71 379.61 138.76 379.61 135.13"/><polygon class="cls-1" points="385.28 135.22 388.11 135.27 388.11 138.62 385.28 138.67 385.28 135.22"/><polygon class="cls-1" points="390.94 135.32 393.78 135.37 393.78 138.52 390.94 138.57 390.94 135.32"/><polygon class="cls-1" points="396.61 135.41 399.45 135.46 399.45 138.43 396.61 138.47 396.61 135.41"/><polygon class="cls-1" points="402.28 135.51 405.12 135.56 405.12 138.32 402.28 138.38 402.28 135.51"/><polygon class="cls-1" points="407.95 135.63 410.79 135.69 410.79 138.2 407.95 138.26 407.95 135.63"/><polygon class="cls-1" points="413.62 135.75 416.46 135.81 416.46 138.08 413.62 138.14 413.62 135.75"/><polygon class="cls-1" points="419.29 135.87 422.13 135.93 422.13 137.96 419.29 138.02 419.29 135.87"/><polygon class="cls-1" points="424.96 135.99 427.8 136.05 427.8 137.84 424.96 137.9 424.96 135.99"/><polygon class="cls-1" points="430.63 136.13 433.46 136.2 433.46 137.69 430.63 137.76 430.63 136.13"/><polygon class="cls-1" points="436.3 136.27 439.13 136.35 439.13 137.54 436.3 137.61 436.3 136.27"/><polygon class="cls-1" points="441.97 136.42 444.8 136.5 444.8 137.39 441.97 137.47 441.97 136.42"/><polygon class="cls-1" points="447.64 136.58 450.47 136.67 450.47 137.22 447.64 137.31 447.64 136.58"/><polygon class="cls-1" points="453.31 136.76 456.14 136.85 456.14 137.04 453.31 137.13 453.31 136.76"/><polygon class="cls-1" points="458.98 136.94 459.14 136.94 458.98 136.95 458.98 136.94"/><polygon class="cls-1" points="22.44 183.92 25.28 183.83 25.28 184.01 22.44 183.92"/><polygon class="cls-1" points="28.11 183.74 30.95 183.66 30.95 184.19 28.11 184.1 28.11 183.74"/><polygon class="cls-1" points="33.78 183.57 36.61 183.48 36.61 184.36 33.78 184.27 33.78 183.57"/><polygon class="cls-1" points="39.45 183.4 42.28 183.33 42.28 184.51 39.45 184.44 39.45 183.4"/><polygon class="cls-1" points="45.12 183.26 47.95 183.19 47.95 184.66 45.12 184.58 45.12 183.26"/><polygon class="cls-1" points="50.79 183.11 53.62 183.04 53.62 184.8 50.79 184.73 50.79 183.11"/><polygon class="cls-1" points="56.46 182.97 59.29 182.91 59.29 184.93 56.46 184.87 56.46 182.97"/><polygon class="cls-1" points="62.13 182.85 64.96 182.79 64.96 185.05 62.13 184.99 62.13 182.85"/><polygon class="cls-1" points="67.8 182.73 70.63 182.67 70.63 185.17 67.8 185.11 67.8 182.73"/><polygon class="cls-1" points="73.47 182.61 76.3 182.55 76.3 185.29 73.47 185.23 73.47 182.61"/><polygon class="cls-1" points="79.13 182.49 81.97 182.45 81.97 185.39 79.13 185.35 79.13 182.49"/><polygon class="cls-1" points="84.8 182.4 87.64 182.35 87.64 185.49 84.8 185.44 84.8 182.4"/><polygon class="cls-1" points="90.47 182.3 93.31 182.25 93.31 185.58 90.47 185.54 90.47 182.3"/><polygon class="cls-1" points="96.14 182.21 98.98 182.16 98.98 185.68 96.14 185.63 96.14 182.21"/><polygon class="cls-1" points="101.81 182.11 104.65 182.06 104.65 185.77 101.81 185.73 101.81 182.11"/><polygon class="cls-1" points="107.48 182.02 110.31 181.97 110.31 185.87 107.48 185.82 107.48 182.02"/><polygon class="cls-1" points="113.15 181.94 115.98 181.91 115.98 185.93 113.15 185.9 113.15 181.94"/><polygon class="cls-1" points="118.82 181.87 121.65 181.84 121.65 186 118.82 185.97 118.82 181.87"/><polygon class="cls-1" points="124.49 181.8 127.32 181.77 127.32 186.07 124.49 186.04 124.49 181.8"/><polygon class="cls-1" points="130.16 181.73 132.99 181.7 132.99 186.14 130.16 186.11 130.16 181.73"/><polygon class="cls-1" points="135.83 181.66 138.66 181.63 138.66 186.21 135.83 186.17 135.83 181.66"/><polygon class="cls-1" points="141.5 181.6 144.33 181.56 144.33 186.28 141.5 186.24 141.5 181.6"/><polygon class="cls-1" points="147.16 181.53 150 181.51 150 186.33 147.16 186.31 147.16 181.53"/><polygon class="cls-1" points="152.84 181.49 155.67 181.47 155.67 186.37 152.84 186.35 152.84 181.49"/><polygon class="cls-1" points="158.5 181.45 161.34 181.43 161.34 186.41 158.5 186.39 158.5 181.45"/><polygon class="cls-1" points="164.17 181.4 167.01 181.38 167.01 186.46 164.17 186.44 164.17 181.4"/><polygon class="cls-1" points="169.84 181.36 172.68 181.34 172.68 186.5 169.84 186.48 169.84 181.36"/><polygon class="cls-1" points="175.51 181.32 178.35 181.3 178.35 186.54 175.51 186.52 175.51 181.32"/><polygon class="cls-1" points="181.18 181.28 184.02 181.26 184.02 186.58 181.18 186.56 181.18 181.28"/><polygon class="cls-1" points="186.85 181.24 189.69 181.22 189.69 186.62 186.85 186.6 186.85 181.24"/><polygon class="cls-1" points="192.52 181.2 195.35 181.2 195.35 186.64 192.52 186.64 192.52 181.2"/><polygon class="cls-1" points="198.19 181.19 201.02 181.18 201.02 186.66 198.19 186.65 198.19 181.19"/><polygon class="cls-1" points="203.86 181.18 206.69 181.17 206.69 186.67 203.86 186.66 203.86 181.18"/><polygon class="cls-1" points="209.53 181.16 212.36 181.16 212.36 186.68 209.53 186.68 209.53 181.16"/><polygon class="cls-1" points="215.2 181.15 218.03 181.14 218.03 186.7 215.2 186.69 215.2 181.15"/><polygon class="cls-1" points="220.87 181.13 223.7 181.13 223.7 186.71 220.87 186.71 220.87 181.13"/><polygon class="cls-1" points="226.53 181.12 229.37 181.11 229.37 186.72 226.53 186.72 226.53 181.12"/><polygon class="cls-1" points="232.21 181.11 235.04 181.1 235.04 186.74 232.21 186.73 232.21 181.11"/><polygon class="cls-1" points="237.87 181.09 240.71 181.09 240.71 186.75 237.87 186.75 237.87 181.09"/><polygon class="cls-1" points="243.54 181.09 246.38 181.1 246.38 186.74 243.54 186.75 243.54 181.09"/><polygon class="cls-1" points="249.21 181.1 252.05 181.11 252.05 186.73 249.21 186.74 249.21 181.1"/><polygon class="cls-1" points="254.88 181.12 257.72 181.13 257.72 186.72 254.88 186.72 254.88 181.12"/><polygon class="cls-1" points="260.55 181.13 263.39 181.14 263.39 186.7 260.55 186.71 260.55 181.13"/><polygon class="cls-1" points="266.22 181.15 269.06 181.15 269.06 186.69 266.22 186.69 266.22 181.15"/><polygon class="cls-1" points="271.89 181.16 274.72 181.17 274.72 186.67 271.89 186.68 271.89 181.16"/><polygon class="cls-1" points="277.56 181.17 280.39 181.18 280.39 186.66 277.56 186.67 277.56 181.17"/><polygon class="cls-1" points="283.23 181.19 286.06 181.19 286.06 186.65 283.23 186.65 283.23 181.19"/><polygon class="cls-1" points="288.9 181.2 291.73 181.21 291.73 186.63 288.9 186.64 288.9 181.2"/><polygon class="cls-1" points="294.57 181.23 297.4 181.25 297.4 186.59 294.57 186.61 294.57 181.23"/><polygon class="cls-1" points="300.24 181.27 303.07 181.29 303.07 186.55 300.24 186.57 300.24 181.27"/><polygon class="cls-1" points="305.91 181.31 308.74 181.33 308.74 186.51 305.91 186.53 305.91 181.31"/><polygon class="cls-1" points="311.57 181.35 314.41 181.38 314.41 186.46 311.57 186.49 311.57 181.35"/><polygon class="cls-1" points="317.24 181.4 320.08 181.42 320.08 186.42 317.24 186.44 317.24 181.4"/><polygon class="cls-1" points="322.91 181.44 325.75 181.46 325.75 186.38 322.91 186.4 322.91 181.44"/><polygon class="cls-1" points="328.58 181.48 331.42 181.5 331.42 186.34 328.58 186.36 328.58 181.48"/><polygon class="cls-1" points="334.25 181.52 337.09 181.55 337.09 186.29 334.25 186.32 334.25 181.52"/><polygon class="cls-1" points="339.92 181.59 342.76 181.62 342.76 186.22 339.92 186.25 339.92 181.59"/><polygon class="cls-1" points="345.59 181.66 348.43 181.69 348.43 186.15 345.59 186.19 345.59 181.66"/><polygon class="cls-1" points="351.26 181.72 354.1 181.76 354.1 186.08 351.26 186.12 351.26 181.72"/><polygon class="cls-1" points="356.93 181.79 359.76 181.83 359.76 186.01 356.93 186.05 356.93 181.79"/><polygon class="cls-1" points="362.6 181.86 365.43 181.9 365.43 185.94 362.6 185.98 362.6 181.86"/><polygon class="cls-1" points="368.27 181.93 371.1 181.97 371.1 185.88 368.27 185.91 368.27 181.93"/><polygon class="cls-1" points="373.94 182.01 376.77 182.05 376.77 185.79 373.94 185.83 373.94 182.01"/><polygon class="cls-1" points="379.61 182.1 382.44 182.15 382.44 185.69 379.61 185.74 379.61 182.1"/><polygon class="cls-1" points="385.28 182.2 388.11 182.25 388.11 185.59 385.28 185.64 385.28 182.2"/><polygon class="cls-1" points="390.94 182.29 393.78 182.34 393.78 185.5 390.94 185.55 390.94 182.29"/><polygon class="cls-1" points="396.61 182.39 399.45 182.44 399.45 185.4 396.61 185.45 396.61 182.39"/><polygon class="cls-1" points="402.28 182.48 405.12 182.54 405.12 185.3 402.28 185.35 402.28 182.48"/><polygon class="cls-1" points="407.95 182.6 410.79 182.66 410.79 185.18 407.95 185.24 407.95 182.6"/><polygon class="cls-1" points="413.62 182.72 416.46 182.78 416.46 185.06 413.62 185.12 413.62 182.72"/><polygon class="cls-1" points="419.29 182.84 422.13 182.91 422.13 184.93 419.29 185 419.29 182.84"/><polygon class="cls-1" points="424.96 182.97 427.8 183.03 427.8 184.81 424.96 184.87 424.96 182.97"/><polygon class="cls-1" points="430.63 183.1 433.46 183.18 433.46 184.66 430.63 184.74 430.63 183.1"/><polygon class="cls-1" points="436.3 183.25 439.13 183.32 439.13 184.52 436.3 184.59 436.3 183.25"/><polygon class="cls-1" points="441.97 183.4 444.8 183.47 444.8 184.37 441.97 184.44 441.97 183.4"/><polygon class="cls-1" points="447.64 183.56 450.47 183.65 450.47 184.19 447.64 184.28 447.64 183.56"/><polygon class="cls-1" points="453.31 183.74 456.14 183.83 456.14 184.01 453.31 184.1 453.31 183.74"/><polygon class="cls-1" points="458.98 183.91 459.14 183.92 458.98 183.93 458.98 183.91"/><polygon class="cls-1" points="22.44 230.9 25.28 230.81 25.28 230.98 22.44 230.9"/><polygon class="cls-1" points="28.11 230.72 30.95 230.63 30.95 231.16 28.11 231.07 28.11 230.72"/><polygon class="cls-1" points="33.78 230.54 36.61 230.45 36.61 231.34 33.78 231.25 33.78 230.54"/><polygon class="cls-1" points="39.45 230.38 42.28 230.31 42.28 231.48 39.45 231.41 39.45 230.38"/><polygon class="cls-1" points="45.12 230.23 47.95 230.16 47.95 231.63 45.12 231.56 45.12 230.23"/><polygon class="cls-1" points="50.79 230.09 53.62 230.01 53.62 231.78 50.79 231.7 50.79 230.09"/><polygon class="cls-1" points="56.46 229.95 59.29 229.89 59.29 231.9 56.46 231.84 56.46 229.95"/><polygon class="cls-1" points="62.13 229.83 64.96 229.77 64.96 232.02 62.13 231.96 62.13 229.83"/><polygon class="cls-1" points="67.8 229.71 70.63 229.65 70.63 232.14 67.8 232.08 67.8 229.71"/><polygon class="cls-1" points="73.47 229.59 76.3 229.53 76.3 232.26 73.47 232.2 73.47 229.59"/><polygon class="cls-1" points="79.13 229.47 81.97 229.42 81.97 232.37 79.13 232.32 79.13 229.47"/><polygon class="cls-1" points="84.8 229.37 87.64 229.33 87.64 232.47 84.8 232.42 84.8 229.37"/><polygon class="cls-1" points="90.47 229.28 93.31 229.23 93.31 232.56 90.47 232.51 90.47 229.28"/><polygon class="cls-1" points="96.14 229.18 98.98 229.14 98.98 232.66 96.14 232.61 96.14 229.18"/><polygon class="cls-1" points="101.81 229.09 104.65 229.04 104.65 232.75 101.81 232.7 101.81 229.09"/><polygon class="cls-1" points="107.48 228.99 110.31 228.95 110.31 232.84 107.48 232.8 107.48 228.99"/><polygon class="cls-1" points="113.15 228.91 115.98 228.88 115.98 232.91 113.15 232.88 113.15 228.91"/><polygon class="cls-1" points="118.82 228.85 121.65 228.81 121.65 232.98 118.82 232.94 118.82 228.85"/><polygon class="cls-1" points="124.49 228.78 127.32 228.74 127.32 233.05 124.49 233.01 124.49 228.78"/><polygon class="cls-1" points="130.16 228.71 132.99 228.68 132.99 233.12 130.16 233.08 130.16 228.71"/><polygon class="cls-1" points="135.83 228.64 138.66 228.61 138.66 233.18 135.83 233.15 135.83 228.64"/><polygon class="cls-1" points="141.5 228.57 144.33 228.54 144.33 233.25 141.5 233.22 141.5 228.57"/><polygon class="cls-1" points="147.16 228.5 150 228.48 150 233.31 147.16 233.29 147.16 228.5"/><polygon class="cls-1" points="152.84 228.46 155.67 228.44 155.67 233.35 152.84 233.33 152.84 228.46"/><polygon class="cls-1" points="158.5 228.42 161.34 228.4 161.34 233.39 158.5 233.37 158.5 228.42"/><polygon class="cls-1" points="164.17 228.38 167.01 228.36 167.01 233.43 164.17 233.41 164.17 228.38"/><polygon class="cls-1" points="169.84 228.34 172.68 228.32 172.68 233.47 169.84 233.45 169.84 228.34"/><polygon class="cls-1" points="175.51 228.3 178.35 228.28 178.35 233.51 175.51 233.49 175.51 228.3"/><polygon class="cls-1" points="181.18 228.26 184.02 228.24 184.02 233.56 181.18 233.53 181.18 228.26"/><polygon class="cls-1" points="186.85 228.21 189.69 228.19 189.69 233.6 186.85 233.58 186.85 228.21"/><polygon class="cls-1" points="192.52 228.18 195.35 228.17 195.35 233.62 192.52 233.61 192.52 228.18"/><polygon class="cls-1" points="198.19 228.17 201.02 228.16 201.02 233.63 198.19 233.63 198.19 228.17"/><polygon class="cls-1" points="203.86 228.15 206.69 228.15 206.69 233.65 203.86 233.64 203.86 228.15"/><polygon class="cls-1" points="209.53 228.14 212.36 228.13 212.36 233.66 209.53 233.65 209.53 228.14"/><polygon class="cls-1" points="215.2 228.13 218.03 228.12 218.03 233.67 215.2 233.67 215.2 228.13"/><polygon class="cls-1" points="220.87 228.11 223.7 228.1 223.7 233.69 220.87 233.68 220.87 228.11"/><polygon class="cls-1" points="226.53 228.1 229.37 228.09 229.37 233.7 226.53 233.69 226.53 228.1"/><polygon class="cls-1" points="232.21 228.08 235.04 228.08 235.04 233.72 232.21 233.71 232.21 228.08"/><polygon class="cls-1" points="237.87 228.07 240.71 228.06 240.71 233.73 237.87 233.72 237.87 228.07"/><polygon class="cls-1" points="243.54 228.07 246.38 228.07 246.38 233.72 243.54 233.72 243.54 228.07"/><polygon class="cls-1" points="249.21 228.08 252.05 228.09 252.05 233.7 249.21 233.71 249.21 228.08"/><polygon class="cls-1" points="254.88 228.09 257.72 228.1 257.72 233.69 254.88 233.7 254.88 228.09"/><polygon class="cls-1" points="260.55 228.11 263.39 228.11 263.39 233.68 260.55 233.68 260.55 228.11"/><polygon class="cls-1" points="266.22 228.12 269.06 228.13 269.06 233.66 266.22 233.67 266.22 228.12"/><polygon class="cls-1" points="271.89 228.13 274.72 228.14 274.72 233.65 271.89 233.66 271.89 228.13"/><polygon class="cls-1" points="277.56 228.15 280.39 228.16 280.39 233.63 277.56 233.64 277.56 228.15"/><polygon class="cls-1" points="283.23 228.16 286.06 228.17 286.06 233.62 283.23 233.63 283.23 228.16"/><polygon class="cls-1" points="288.9 228.18 291.73 228.19 291.73 233.61 288.9 233.62 288.9 228.18"/><polygon class="cls-1" points="294.57 228.21 297.4 228.23 297.4 233.56 294.57 233.59 294.57 228.21"/><polygon class="cls-1" points="300.24 228.25 303.07 228.27 303.07 233.52 300.24 233.54 300.24 228.25"/><polygon class="cls-1" points="305.91 228.29 308.74 228.31 308.74 233.48 305.91 233.5 305.91 228.29"/><polygon class="cls-1" points="311.57 228.33 314.41 228.35 314.41 233.44 311.57 233.46 311.57 228.33"/><polygon class="cls-1" points="317.24 228.37 320.08 228.39 320.08 233.4 317.24 233.42 317.24 228.37"/><polygon class="cls-1" points="322.91 228.41 325.75 228.43 325.75 233.36 322.91 233.38 322.91 228.41"/><polygon class="cls-1" points="328.58 228.46 331.42 228.48 331.42 233.31 328.58 233.34 328.58 228.46"/><polygon class="cls-1" points="334.25 228.5 337.09 228.53 337.09 233.26 334.25 233.29 334.25 228.5"/><polygon class="cls-1" points="339.92 228.56 342.76 228.6 342.76 233.19 339.92 233.23 339.92 228.56"/><polygon class="cls-1" points="345.59 228.63 348.43 228.66 348.43 233.13 345.59 233.16 345.59 228.63"/><polygon class="cls-1" points="351.26 228.7 354.1 228.73 354.1 233.06 351.26 233.09 351.26 228.7"/><polygon class="cls-1" points="356.93 228.77 359.76 228.8 359.76 232.99 356.93 233.02 356.93 228.77"/><polygon class="cls-1" points="362.6 228.84 365.43 228.87 365.43 232.92 362.6 232.95 362.6 228.84"/><polygon class="cls-1" points="368.27 228.91 371.1 228.94 371.1 232.85 368.27 232.88 368.27 228.91"/><polygon class="cls-1" points="373.94 228.98 376.77 229.03 376.77 232.76 373.94 232.81 373.94 228.98"/><polygon class="cls-1" points="379.61 229.08 382.44 229.13 382.44 232.67 379.61 232.71 379.61 229.08"/><polygon class="cls-1" points="385.28 229.17 388.11 229.22 388.11 232.57 385.28 232.62 385.28 229.17"/><polygon class="cls-1" points="390.94 229.27 393.78 229.32 393.78 232.47 390.94 232.52 390.94 229.27"/><polygon class="cls-1" points="396.61 229.36 399.45 229.41 399.45 232.38 396.61 232.43 396.61 229.36"/><polygon class="cls-1" points="402.28 229.46 405.12 229.52 405.12 232.28 402.28 232.33 402.28 229.46"/><polygon class="cls-1" points="407.95 229.58 410.79 229.64 410.79 232.15 407.95 232.21 407.95 229.58"/><polygon class="cls-1" points="413.62 229.7 416.46 229.76 416.46 232.03 413.62 232.09 413.62 229.7"/><polygon class="cls-1" points="419.29 229.82 422.13 229.88 422.13 231.91 419.29 231.97 419.29 229.82"/><polygon class="cls-1" points="424.96 229.94 427.8 230 427.8 231.79 424.96 231.85 424.96 229.94"/><polygon class="cls-1" points="430.63 230.08 433.46 230.15 433.46 231.64 430.63 231.71 430.63 230.08"/><polygon class="cls-1" points="436.3 230.23 439.13 230.3 439.13 231.49 436.3 231.56 436.3 230.23"/><polygon class="cls-1" points="441.97 230.37 444.8 230.45 444.8 231.34 441.97 231.42 441.97 230.37"/><polygon class="cls-1" points="447.64 230.53 450.47 230.62 450.47 231.17 447.64 231.26 447.64 230.53"/><polygon class="cls-1" points="453.31 230.71 456.14 230.8 456.14 230.99 453.31 231.08 453.31 230.71"/><polygon class="cls-1" points="458.98 230.89 459.14 230.9 458.98 230.9 458.98 230.89"/><ellipse class="cls-2" cx="114.04" cy="282.12" rx="20.07" ry="19.6"/><polyline class="cls-2" points="193.03 179.67 134.1 194.97 134.1 282.12"/><line class="cls-2" x1="134.1" y1="221.74" x2="193.03" y2="206.44"/><ellipse class="cls-3" cx="114.04" cy="282.12" rx="20.07" ry="19.6"/><polyline class="cls-3" points="193.03 179.67 134.1 194.97 134.1 282.12"/><line class="cls-3" x1="134.1" y1="221.74" x2="193.03" y2="206.44"/><ellipse class="cls-2" cx="345.03" cy="287.49" rx="20.07" ry="19.6"/><polyline class="cls-2" points="424.03 185.03 365.1 200.33 365.1 287.49"/><line class="cls-2" x1="365.1" y1="227.1" x2="424.03" y2="211.8"/><ellipse class="cls-3" cx="345.03" cy="287.49" rx="20.07" ry="19.6"/><polyline class="cls-3" points="424.03 185.03 365.1 200.33 365.1 287.49"/><line class="cls-3" x1="365.1" y1="227.1" x2="424.03" y2="211.8"/><circle class="cls-2" cx="330.53" cy="149.76" r="17.74"/><circle class="cls-2" cx="400.37" cy="126.96" r="17.74"/><polyline class="cls-2" points="418.11 126.96 418.11 48.09 418.11 48.02 348.27 66.05 348.27 144.93"/><circle class="cls-3" cx="330.53" cy="149.76" r="17.74"/><circle class="cls-3" cx="400.37" cy="126.96" r="17.74"/><polyline class="cls-3" points="418.11 126.96 418.11 48.09 418.11 48.02 348.27 66.05 348.27 144.93"/><circle class="cls-2" cx="31.29" cy="179.2" r="24.21"/><circle class="cls-2" cx="126.59" cy="148.08" r="24.21"/><polyline class="cls-2" points="150.8 148.08 150.8 40.44 150.8 40.35 55.5 64.96 55.5 172.59"/><circle class="cls-3" cx="31.29" cy="179.2" r="24.21"/><circle class="cls-3" cx="126.59" cy="148.08" r="24.21"/><polyline class="cls-3" points="150.8 148.08 150.8 40.44 150.8 40.35 55.5 64.96 55.5 172.59"/><circle class="cls-3" cx="271.65" cy="78.62" r="14.67"/><polyline class="cls-3" points="286.31 78.62 286.31 13.42 329.38 2.75"/><line class="cls-3" x1="286.31" y1="37.42" x2="329.38" y2="26.75"/></g></g></svg>