<svg xmlns="http://www.w3.org/2000/svg" viewBox="0 0 377.85 377.85"><defs><style>.cls-1{fill:#ffe65e;}.cls-2{fill:none;stroke:#ffe65e;stroke-miterlimit:10;stroke-width:5.67px;stroke-dasharray:2.83;}.cls-3{fill:#fff;}</style></defs><title>Asset 3</title><g id="Layer_2" data-name="Layer 2"><g id="Layer_1-2" data-name="Layer 1"><polygon class="cls-1" points="186.09 188.92 186.13 186.09 191.72 186.09 191.76 188.93 186.09 188.92"/><polygon class="cls-1" points="186.18 183.25 186.23 180.41 191.64 180.42 191.68 183.26 186.18 183.25"/><polygon class="cls-1" points="186.28 177.58 186.32 174.75 191.57 174.75 191.6 177.59 186.28 177.58"/><polygon class="cls-1" points="186.37 171.91 186.42 169.08 191.49 169.09 191.53 171.92 186.37 171.91"/><polygon class="cls-1" points="186.46 166.24 186.51 163.41 191.41 163.41 191.45 166.25 186.46 166.24"/><polygon class="cls-1" points="186.56 160.57 186.6 157.74 191.34 157.75 191.38 160.58 186.56 160.57"/><polygon class="cls-1" points="186.65 154.9 186.7 152.07 191.26 152.08 191.3 154.91 186.65 154.9"/><polygon class="cls-1" points="186.74 149.24 186.79 146.4 191.18 146.41 191.22 149.24 186.74 149.24"/><polygon class="cls-1" points="186.84 143.57 186.88 140.73 191.11 140.74 191.15 143.57 186.84 143.57"/><polygon class="cls-1" points="186.93 137.9 186.98 135.06 191.03 135.07 191.07 137.9 186.93 137.9"/><polygon class="cls-1" points="187.02 132.23 187.07 129.39 190.95 129.4 190.99 132.23 187.02 132.23"/><polygon class="cls-1" points="187.12 126.56 187.16 123.72 190.88 123.73 190.91 126.56 187.12 126.56"/><polygon class="cls-1" points="187.21 120.89 187.26 118.06 190.8 118.06 190.84 120.89 187.21 120.89"/><polygon class="cls-1" points="187.3 115.22 187.35 112.39 190.72 112.39 190.76 115.22 187.3 115.22"/><polygon class="cls-1" points="187.4 109.55 187.44 106.72 190.65 106.72 190.68 109.56 187.4 109.55"/><polygon class="cls-1" points="187.49 103.88 187.54 101.05 190.57 101.05 190.61 103.89 187.49 103.88"/><polygon class="cls-1" points="187.58 98.21 187.63 95.38 190.49 95.38 190.53 98.22 187.58 98.21"/><polygon class="cls-1" points="187.68 92.54 187.72 89.71 190.42 89.71 190.45 92.55 187.68 92.54"/><polygon class="cls-1" points="187.77 86.87 187.82 84.04 190.34 84.04 190.38 86.88 187.77 86.87"/><polygon class="cls-1" points="187.86 81.2 187.91 78.37 190.26 78.37 190.3 81.21 187.86 81.2"/><polygon class="cls-1" points="187.96 75.54 188 72.7 190.19 72.7 190.22 75.54 187.96 75.54"/><polygon class="cls-1" points="188.05 69.87 188.1 67.03 190.11 67.03 190.15 69.87 188.05 69.87"/><polygon class="cls-1" points="188.14 64.2 188.19 61.36 190.03 61.37 190.07 64.2 188.14 64.2"/><polygon class="cls-1" points="188.24 58.53 188.28 55.69 189.96 55.7 189.99 58.53 188.24 58.53"/><polygon class="cls-1" points="188.33 52.86 188.38 50.02 189.88 50.03 189.92 52.86 188.33 52.86"/><polygon class="cls-1" points="188.42 47.19 188.47 44.36 189.8 44.36 189.84 47.19 188.42 47.19"/><polygon class="cls-1" points="188.52 41.52 188.56 38.69 189.72 38.69 189.76 41.52 188.52 41.52"/><polygon class="cls-1" points="188.61 35.85 188.66 33.02 189.65 33.02 189.69 35.85 188.61 35.85"/><polygon class="cls-1" points="188.71 30.18 188.75 27.35 189.57 27.35 189.61 30.18 188.71 30.18"/><polygon class="cls-1" points="188.8 24.51 188.84 21.68 189.5 21.68 189.53 24.52 188.8 24.51"/><polygon class="cls-1" points="188.89 18.84 188.94 16.01 189.42 16.01 189.46 18.84 188.89 18.84"/><polygon class="cls-1" points="188.99 13.18 189.03 10.34 189.34 10.34 189.38 13.18 188.99 13.18"/><polygon class="cls-1" points="189.08 7.51 189.13 4.67 189.26 4.67 189.3 7.51 189.08 7.51"/><polygon class="cls-1" points="189.17 1.84 189.2 0 189.23 1.84 189.17 1.84"/><polygon class="cls-1" points="186.09 188.92 186.13 186.09 191.72 186.09 191.76 188.93 186.09 188.92"/><polygon class="cls-1" points="186.18 183.25 186.23 180.41 191.64 180.42 191.68 183.26 186.18 183.25"/><polygon class="cls-1" points="186.28 177.58 186.32 174.75 191.57 174.75 191.6 177.59 186.28 177.58"/><polygon class="cls-1" points="186.37 171.91 186.42 169.08 191.49 169.09 191.53 171.92 186.37 171.91"/><polygon class="cls-1" points="186.46 166.24 186.51 163.41 191.41 163.41 191.45 166.25 186.46 166.24"/><polygon class="cls-1" points="186.56 160.57 186.6 157.74 191.34 157.75 191.38 160.58 186.56 160.57"/><polygon class="cls-1" points="186.65 154.9 186.7 152.07 191.26 152.08 191.3 154.91 186.65 154.9"/><polygon class="cls-1" points="186.74 149.24 186.79 146.4 191.18 146.41 191.22 149.24 186.74 149.24"/><polygon class="cls-1" points="186.84 143.57 186.88 140.73 191.11 140.74 191.15 143.57 186.84 143.57"/><polygon class="cls-1" points="186.93 137.9 186.98 135.06 191.03 135.07 191.07 137.9 186.93 137.9"/><polygon class="cls-1" points="187.02 132.23 187.07 129.39 190.95 129.4 190.99 132.23 187.02 132.23"/><polygon class="cls-1" points="187.12 126.56 187.16 123.72 190.88 123.73 190.91 126.56 187.12 126.56"/><polygon class="cls-1" points="187.21 120.89 187.26 118.06 190.8 118.06 190.84 120.89 187.21 120.89"/><polygon class="cls-1" points="187.3 115.22 187.35 112.39 190.72 112.39 190.76 115.22 187.3 115.22"/><polygon class="cls-1" points="187.4 109.55 187.44 106.72 190.65 106.72 190.68 109.56 187.4 109.55"/><polygon class="cls-1" points="187.49 103.88 187.54 101.05 190.57 101.05 190.61 103.89 187.49 103.88"/><polygon class="cls-1" points="187.58 98.21 187.63 95.38 190.49 95.38 190.53 98.22 187.58 98.21"/><polygon class="cls-1" points="187.68 92.54 187.72 89.71 190.42 89.71 190.45 92.55 187.68 92.54"/><polygon class="cls-1" points="187.77 86.87 187.82 84.04 190.34 84.04 190.38 86.88 187.77 86.87"/><polygon class="cls-1" points="187.86 81.2 187.91 78.37 190.26 78.37 190.3 81.21 187.86 81.2"/><polygon class="cls-1" points="187.96 75.54 188 72.7 190.19 72.7 190.22 75.54 187.96 75.54"/><polygon class="cls-1" points="188.05 69.87 188.1 67.03 190.11 67.03 190.15 69.87 188.05 69.87"/><polygon class="cls-1" points="188.14 64.2 188.19 61.36 190.03 61.37 190.07 64.2 188.14 64.2"/><polygon class="cls-1" points="188.24 58.53 188.28 55.69 189.96 55.7 189.99 58.53 188.24 58.53"/><polygon class="cls-1" points="188.33 52.86 188.38 50.02 189.88 50.03 189.92 52.86 188.33 52.86"/><polygon class="cls-1" points="188.42 47.19 188.47 44.36 189.8 44.36 189.84 47.19 188.42 47.19"/><polygon class="cls-1" points="188.52 41.52 188.56 38.69 189.72 38.69 189.76 41.52 188.52 41.52"/><polygon class="cls-1" points="188.61 35.85 188.66 33.02 189.65 33.02 189.69 35.85 188.61 35.85"/><polygon class="cls-1" points="188.71 30.18 188.75 27.35 189.57 27.35 189.61 30.18 188.71 30.18"/><polygon class="cls-1" points="188.8 24.51 188.84 21.68 189.5 21.68 189.53 24.52 188.8 24.51"/><polygon class="cls-1" points="188.89 18.84 188.94 16.01 189.42 16.01 189.46 18.84 188.89 18.84"/><polygon class="cls-1" points="188.99 13.18 189.03 10.34 189.34 10.34 189.38 13.18 188.99 13.18"/><polygon class="cls-1" points="189.08 7.51 189.13 4.67 189.26 4.67 189.3 7.51 189.08 7.51"/><polygon class="cls-1" points="189.17 1.84 189.2 0 189.23 1.84 189.17 1.84"/><polygon class="cls-1" points="191.76 188.93 191.71 191.76 186.13 191.75 186.09 188.92 191.76 188.93"/><polygon class="cls-1" points="191.66 194.6 191.62 197.43 186.2 197.42 186.17 194.59 191.66 194.6"/><polygon class="cls-1" points="191.57 200.27 191.52 203.1 186.28 203.09 186.24 200.26 191.57 200.27"/><polygon class="cls-1" points="191.48 205.94 191.43 208.77 186.36 208.76 186.32 205.93 191.48 205.94"/><polygon class="cls-1" points="191.38 211.6 191.34 214.44 186.43 214.43 186.4 211.6 191.38 211.6"/><polygon class="cls-1" points="191.29 217.27 191.24 220.11 186.51 220.1 186.47 217.27 191.29 217.27"/><polygon class="cls-1" points="191.2 222.94 191.15 225.78 186.59 225.77 186.55 222.94 191.2 222.94"/><polygon class="cls-1" points="191.1 228.61 191.06 231.45 186.66 231.44 186.63 228.6 191.1 228.61"/><polygon class="cls-1" points="191.01 234.28 190.96 237.12 186.74 237.11 186.7 234.27 191.01 234.28"/><polygon class="cls-1" points="190.92 239.95 190.87 242.78 186.82 242.78 186.78 239.94 190.92 239.95"/><polygon class="cls-1" points="190.82 245.62 190.78 248.45 186.89 248.45 186.86 245.61 190.82 245.62"/><polygon class="cls-1" points="190.73 251.29 190.68 254.12 186.97 254.12 186.93 251.28 190.73 251.29"/><polygon class="cls-1" points="190.64 256.96 190.59 259.79 187.05 259.79 187.01 256.95 190.64 256.96"/><polygon class="cls-1" points="190.54 262.63 190.5 265.46 187.12 265.46 187.09 262.62 190.54 262.63"/><polygon class="cls-1" points="190.45 268.3 190.4 271.13 187.2 271.13 187.16 268.29 190.45 268.3"/><polygon class="cls-1" points="190.36 273.96 190.31 276.8 187.28 276.8 187.24 273.96 190.36 273.96"/><polygon class="cls-1" points="190.26 279.63 190.22 282.47 187.35 282.46 187.32 279.63 190.26 279.63"/><polygon class="cls-1" points="190.17 285.3 190.12 288.14 187.43 288.13 187.39 285.3 190.17 285.3"/><polygon class="cls-1" points="190.08 290.97 190.03 293.81 187.51 293.8 187.47 290.97 190.08 290.97"/><polygon class="cls-1" points="189.98 296.64 189.94 299.48 187.58 299.47 187.55 296.64 189.98 296.64"/><polygon class="cls-1" points="189.89 302.31 189.84 305.14 187.66 305.14 187.62 302.31 189.89 302.31"/><polygon class="cls-1" points="189.8 307.98 189.75 310.81 187.74 310.81 187.7 307.98 189.8 307.98"/><polygon class="cls-1" points="189.7 313.65 189.66 316.48 187.81 316.48 187.78 313.65 189.7 313.65"/><polygon class="cls-1" points="189.61 319.32 189.56 322.15 187.89 322.15 187.85 319.32 189.61 319.32"/><polygon class="cls-1" points="189.52 324.99 189.47 327.82 187.97 327.82 187.93 324.99 189.52 324.99"/><polygon class="cls-1" points="189.42 330.66 189.38 333.49 188.04 333.49 188.01 330.65 189.42 330.66"/><polygon class="cls-1" points="189.33 336.33 189.28 339.16 188.12 339.16 188.08 336.32 189.33 336.33"/><polygon class="cls-1" points="189.24 342 189.19 344.83 188.2 344.83 188.16 341.99 189.24 342"/><polygon class="cls-1" points="189.14 347.66 189.09 350.5 188.28 350.5 188.24 347.66 189.14 347.66"/><polygon class="cls-1" points="189.05 353.33 189 356.17 188.35 356.17 188.31 353.33 189.05 353.33"/><polygon class="cls-1" points="188.96 359 188.91 361.84 188.43 361.84 188.39 359 188.96 359"/><polygon class="cls-1" points="188.86 364.67 188.81 367.51 188.5 367.51 188.47 364.67 188.86 364.67"/><polygon class="cls-1" points="188.77 370.34 188.72 373.18 188.58 373.18 188.54 370.34 188.77 370.34"/><polygon class="cls-1" points="188.68 376.01 188.65 377.85 188.62 376.01 188.68 376.01"/><polygon class="cls-1" points="186.47 190.34 185.09 187.86 189.93 185.07 191.38 187.51 186.47 190.34"/><polygon class="cls-1" points="183.71 185.38 182.34 182.9 187.03 180.2 188.48 182.64 183.71 185.38"/><polygon class="cls-1" points="180.96 180.42 179.58 177.95 184.13 175.33 185.58 177.77 180.96 180.42"/><polygon class="cls-1" points="178.21 175.47 176.83 172.99 181.23 170.46 182.68 172.9 178.21 175.47"/><polygon class="cls-1" points="175.45 170.51 174.07 168.03 178.32 165.59 179.78 168.02 175.45 170.51"/><polygon class="cls-1" points="172.7 165.56 171.32 163.08 175.42 160.72 176.88 163.15 172.7 165.56"/><polygon class="cls-1" points="169.94 160.6 168.57 158.12 172.52 155.84 173.97 158.28 169.94 160.6"/><polygon class="cls-1" points="167.19 155.64 165.81 153.16 169.62 150.97 171.07 153.41 167.19 155.64"/><polygon class="cls-1" points="164.44 150.69 163.06 148.21 166.72 146.1 168.17 148.54 164.44 150.69"/><polygon class="cls-1" points="161.68 145.73 160.31 143.25 163.82 141.23 165.27 143.67 161.68 145.73"/><polygon class="cls-1" points="158.93 140.77 157.55 138.29 160.92 136.36 162.37 138.79 158.93 140.77"/><polygon class="cls-1" points="156.18 135.82 154.8 133.34 158.02 131.49 159.47 133.92 156.18 135.82"/><polygon class="cls-1" points="153.42 130.86 152.04 128.38 155.12 126.62 156.57 129.05 153.42 130.86"/><polygon class="cls-1" points="150.67 125.91 149.29 123.43 152.22 121.74 153.67 124.18 150.67 125.91"/><polygon class="cls-1" points="147.91 120.95 146.54 118.47 149.31 116.87 150.76 119.31 147.91 120.95"/><polygon class="cls-1" points="145.16 115.99 143.78 113.51 146.41 112 147.86 114.44 145.16 115.99"/><polygon class="cls-1" points="142.41 111.04 141.03 108.56 143.51 107.13 144.96 109.57 142.41 111.04"/><polygon class="cls-1" points="139.65 106.08 138.28 103.6 140.61 102.26 142.06 104.69 139.65 106.08"/><polygon class="cls-1" points="136.9 101.12 135.52 98.64 137.71 97.39 139.16 99.82 136.9 101.12"/><polygon class="cls-1" points="134.15 96.17 132.77 93.69 134.81 92.52 136.26 94.95 134.15 96.17"/><polygon class="cls-1" points="131.39 91.21 130.02 88.73 131.91 87.64 133.36 90.08 131.39 91.21"/><polygon class="cls-1" points="128.64 86.25 127.26 83.78 129.01 82.77 130.46 85.21 128.64 86.25"/><polygon class="cls-1" points="125.89 81.3 124.51 78.82 126.11 77.9 127.56 80.34 125.89 81.3"/><polygon class="cls-1" points="123.13 76.34 121.75 73.86 123.2 73.03 124.65 75.47 123.13 76.34"/><polygon class="cls-1" points="120.38 71.39 119 68.91 120.3 68.16 121.75 70.59 120.38 71.39"/><polygon class="cls-1" points="117.63 66.43 116.25 63.95 117.4 63.29 118.85 65.72 117.63 66.43"/><polygon class="cls-1" points="114.87 61.47 113.49 58.99 114.5 58.41 115.95 60.85 114.87 61.47"/><polygon class="cls-1" points="112.12 56.52 110.74 54.04 111.6 53.54 113.05 55.98 112.12 56.52"/><polygon class="cls-1" points="109.36 51.56 107.99 49.08 108.7 48.67 110.15 51.11 109.36 51.56"/><polygon class="cls-1" points="106.61 46.6 105.23 44.13 105.8 43.8 107.25 46.24 106.61 46.6"/><polygon class="cls-1" points="103.86 41.65 102.48 39.17 102.9 38.93 104.35 41.37 103.86 41.65"/><polygon class="cls-1" points="101.1 36.69 99.73 34.21 100 34.06 101.44 36.49 101.1 36.69"/><polygon class="cls-1" points="98.35 31.73 96.97 29.26 97.09 29.19 98.54 31.62 98.35 31.73"/><polygon class="cls-1" points="95.59 26.78 94.7 25.17 95.64 26.75 95.59 26.78"/><polygon class="cls-1" points="191.38 187.51 192.76 189.99 187.92 192.77 186.47 190.34 191.38 187.51"/><polygon class="cls-1" points="194.13 192.47 195.51 194.94 190.82 197.64 189.37 195.21 194.13 192.47"/><polygon class="cls-1" points="196.89 197.42 198.26 199.9 193.72 202.52 192.27 200.08 196.89 197.42"/><polygon class="cls-1" points="199.64 202.38 201.02 204.86 196.62 207.39 195.17 204.95 199.64 202.38"/><polygon class="cls-1" points="202.4 207.34 203.77 209.81 199.52 212.26 198.07 209.82 202.4 207.34"/><polygon class="cls-1" points="205.15 212.29 206.53 214.77 202.42 217.13 200.97 214.69 205.15 212.29"/><polygon class="cls-1" points="207.9 217.25 209.28 219.73 205.32 222 203.87 219.57 207.9 217.25"/><polygon class="cls-1" points="210.66 222.2 212.03 224.68 208.22 226.87 206.77 224.44 210.66 222.2"/><polygon class="cls-1" points="213.41 227.16 214.79 229.64 211.13 231.75 209.68 229.31 213.41 227.16"/><polygon class="cls-1" points="216.16 232.12 217.54 234.59 214.03 236.62 212.58 234.18 216.16 232.12"/><polygon class="cls-1" points="218.92 237.07 220.29 239.55 216.93 241.49 215.48 239.05 218.92 237.07"/><polygon class="cls-1" points="221.67 242.03 223.05 244.51 219.83 246.36 218.38 243.92 221.67 242.03"/><polygon class="cls-1" points="224.42 246.99 225.8 249.46 222.73 251.23 221.28 248.79 224.42 246.99"/><polygon class="cls-1" points="227.18 251.94 228.56 254.42 225.63 256.1 224.18 253.67 227.18 251.94"/><polygon class="cls-1" points="229.93 256.9 231.31 259.38 228.53 260.97 227.08 258.54 229.93 256.9"/><polygon class="cls-1" points="232.69 261.86 234.06 264.33 231.43 265.85 229.98 263.41 232.69 261.86"/><polygon class="cls-1" points="235.44 266.81 236.82 269.29 234.34 270.72 232.88 268.28 235.44 266.81"/><polygon class="cls-1" points="238.19 271.77 239.57 274.25 237.24 275.59 235.79 273.15 238.19 271.77"/><polygon class="cls-1" points="240.95 276.72 242.32 279.2 240.14 280.46 238.69 278.02 240.95 276.72"/><polygon class="cls-1" points="243.7 281.68 245.08 284.16 243.04 285.33 241.59 282.9 243.7 281.68"/><polygon class="cls-1" points="246.45 286.64 247.83 289.12 245.94 290.2 244.49 287.77 246.45 286.64"/><polygon class="cls-1" points="249.21 291.59 250.58 294.07 248.84 295.07 247.39 292.64 249.21 291.59"/><polygon class="cls-1" points="251.96 296.55 253.34 299.03 251.74 299.95 250.29 297.51 251.96 296.55"/><polygon class="cls-1" points="254.72 301.51 256.09 303.98 254.64 304.82 253.19 302.38 254.72 301.51"/><polygon class="cls-1" points="257.47 306.46 258.85 308.94 257.54 309.69 256.09 307.25 257.47 306.46"/><polygon class="cls-1" points="260.22 311.42 261.6 313.9 260.44 314.56 259 312.13 260.22 311.42"/><polygon class="cls-1" points="262.98 316.38 264.35 318.85 263.35 319.43 261.9 317 262.98 316.38"/><polygon class="cls-1" points="265.73 321.33 267.11 323.81 266.25 324.3 264.8 321.87 265.73 321.33"/><polygon class="cls-1" points="268.48 326.29 269.86 328.77 269.15 329.18 267.7 326.74 268.48 326.29"/><polygon class="cls-1" points="271.24 331.24 272.61 333.72 272.05 334.05 270.6 331.61 271.24 331.24"/><polygon class="cls-1" points="273.99 336.2 275.37 338.68 274.95 338.92 273.5 336.48 273.99 336.2"/><polygon class="cls-1" points="276.74 341.16 278.12 343.63 277.85 343.79 276.4 341.35 276.74 341.16"/><polygon class="cls-1" points="279.5 346.11 280.88 348.59 280.75 348.66 279.3 346.23 279.5 346.11"/><polygon class="cls-1" points="282.25 351.07 283.14 352.68 282.2 351.1 282.25 351.07"/><polygon class="cls-1" points="187.5 191.38 185.07 189.92 187.87 185.09 190.34 186.47 187.5 191.38"/><polygon class="cls-1" points="182.64 188.46 180.21 187 182.92 182.32 185.4 183.7 182.64 188.46"/><polygon class="cls-1" points="177.78 185.54 175.34 184.09 177.97 179.55 180.45 180.93 177.78 185.54"/><polygon class="cls-1" points="172.91 182.63 170.48 181.17 173.03 176.78 175.5 178.17 172.91 182.63"/><polygon class="cls-1" points="168.05 179.71 165.62 178.26 168.08 174.01 170.55 175.4 168.05 179.71"/><polygon class="cls-1" points="163.19 176.8 160.76 175.34 163.13 171.25 165.6 172.63 163.19 176.8"/><polygon class="cls-1" points="158.32 173.88 155.89 172.43 158.18 168.48 160.66 169.86 158.32 173.88"/><polygon class="cls-1" points="153.46 170.97 151.03 169.51 153.23 165.71 155.71 167.09 153.46 170.97"/><polygon class="cls-1" points="148.6 168.05 146.17 166.59 148.28 162.94 150.76 164.32 148.6 168.05"/><polygon class="cls-1" points="143.74 165.14 141.31 163.68 143.34 160.17 145.81 161.56 143.74 165.14"/><polygon class="cls-1" points="138.87 162.22 136.44 160.76 138.39 157.4 140.86 158.79 138.87 162.22"/><polygon class="cls-1" points="134.01 159.31 131.58 157.85 133.44 154.63 135.91 156.02 134.01 159.31"/><polygon class="cls-1" points="129.15 156.39 126.72 154.93 128.49 151.87 130.97 153.25 129.15 156.39"/><polygon class="cls-1" points="124.28 153.47 121.85 152.02 123.54 149.1 126.02 150.48 124.28 153.47"/><polygon class="cls-1" points="119.42 150.56 116.99 149.1 118.59 146.33 121.07 147.72 119.42 150.56"/><polygon class="cls-1" points="114.56 147.64 112.13 146.19 113.65 143.56 116.12 144.95 114.56 147.64"/><polygon class="cls-1" points="109.7 144.73 107.26 143.27 108.7 140.79 111.17 142.18 109.7 144.73"/><polygon class="cls-1" points="104.83 141.81 102.4 140.35 103.75 138.03 106.22 139.41 104.83 141.81"/><polygon class="cls-1" points="99.97 138.9 97.54 137.44 98.8 135.26 101.28 136.64 99.97 138.9"/><polygon class="cls-1" points="95.11 135.98 92.67 134.52 93.85 132.49 96.33 133.87 95.11 135.98"/><polygon class="cls-1" points="90.24 133.07 87.81 131.61 88.91 129.72 91.38 131.1 90.24 133.07"/><polygon class="cls-1" points="85.38 130.15 82.95 128.69 83.96 126.95 86.43 128.34 85.38 130.15"/><polygon class="cls-1" points="80.52 127.23 78.09 125.78 79.01 124.18 81.48 125.57 80.52 127.23"/><polygon class="cls-1" points="75.66 124.32 73.22 122.86 74.06 121.42 76.54 122.8 75.66 124.32"/><polygon class="cls-1" points="70.79 121.4 68.36 119.95 69.11 118.65 71.59 120.03 70.79 121.4"/><polygon class="cls-1" points="65.93 118.49 63.5 117.03 64.17 115.88 66.64 117.26 65.93 118.49"/><polygon class="cls-1" points="61.07 115.57 58.63 114.12 59.22 113.11 61.69 114.5 61.07 115.57"/><polygon class="cls-1" points="56.2 112.66 53.77 111.2 54.27 110.34 56.74 111.73 56.2 112.66"/><polygon class="cls-1" points="51.34 109.74 48.91 108.28 49.32 107.58 51.79 108.96 51.34 109.74"/><polygon class="cls-1" points="46.48 106.83 44.05 105.37 44.37 104.81 46.85 106.19 46.48 106.83"/><polygon class="cls-1" points="41.62 103.91 39.18 102.45 39.42 102.04 41.9 103.42 41.62 103.91"/><polygon class="cls-1" points="36.75 101 34.32 99.54 34.48 99.27 36.95 100.65 36.75 101"/><polygon class="cls-1" points="31.89 98.08 29.46 96.62 29.53 96.5 32 97.89 31.89 98.08"/><polygon class="cls-1" points="27.03 95.17 25.45 94.22 27.05 95.12 27.03 95.17"/><polygon class="cls-1" points="190.34 186.47 192.78 187.93 189.98 192.76 187.5 191.38 190.34 186.47"/><polygon class="cls-1" points="195.21 189.39 197.64 190.84 194.93 195.53 192.45 194.14 195.21 189.39"/><polygon class="cls-1" points="200.07 192.3 202.5 193.76 199.87 198.3 197.4 196.91 200.07 192.3"/><polygon class="cls-1" points="204.93 195.22 207.37 196.68 204.82 201.06 202.35 199.68 204.93 195.22"/><polygon class="cls-1" points="209.8 198.13 212.23 199.59 209.77 203.83 207.29 202.45 209.8 198.13"/><polygon class="cls-1" points="214.66 201.05 217.09 202.51 214.72 206.6 212.24 205.22 214.66 201.05"/><polygon class="cls-1" points="219.52 203.96 221.95 205.42 219.67 209.37 217.19 207.99 219.52 203.96"/><polygon class="cls-1" points="224.38 206.88 226.82 208.34 224.61 212.14 222.14 210.75 224.38 206.88"/><polygon class="cls-1" points="229.25 209.79 231.68 211.25 229.56 214.91 227.09 213.52 229.25 209.79"/><polygon class="cls-1" points="234.11 212.71 236.54 214.17 234.51 217.68 232.04 216.29 234.11 212.71"/><polygon class="cls-1" points="238.97 215.63 241.41 217.08 239.46 220.44 236.98 219.06 238.97 215.63"/><polygon class="cls-1" points="243.84 218.54 246.27 220 244.41 223.21 241.93 221.83 243.84 218.54"/><polygon class="cls-1" points="248.7 221.46 251.13 222.91 249.35 225.98 246.88 224.59 248.7 221.46"/><polygon class="cls-1" points="253.56 224.37 255.99 225.83 254.3 228.75 251.83 227.36 253.56 224.37"/><polygon class="cls-1" points="258.43 227.29 260.86 228.75 259.25 231.52 256.78 230.13 258.43 227.29"/><polygon class="cls-1" points="263.29 230.2 265.72 231.66 264.2 234.28 261.73 232.9 263.29 230.2"/><polygon class="cls-1" points="268.15 233.12 270.58 234.58 269.15 237.05 266.67 235.67 268.15 233.12"/><polygon class="cls-1" points="273.01 236.03 275.44 237.49 274.1 239.82 271.62 238.44 273.01 236.03"/><polygon class="cls-1" points="277.88 238.95 280.31 240.41 279.04 242.59 276.57 241.21 277.88 238.95"/><polygon class="cls-1" points="282.74 241.87 285.17 243.32 283.99 245.36 281.52 243.97 282.74 241.87"/><polygon class="cls-1" points="287.6 244.78 290.03 246.24 288.94 248.13 286.47 246.74 287.6 244.78"/><polygon class="cls-1" points="292.47 247.7 294.9 249.15 293.89 250.89 291.42 249.51 292.47 247.7"/><polygon class="cls-1" points="297.33 250.61 299.76 252.07 298.84 253.66 296.36 252.28 297.33 250.61"/><polygon class="cls-1" points="302.19 253.53 304.62 254.98 303.79 256.43 301.31 255.05 302.19 253.53"/><polygon class="cls-1" points="307.06 256.44 309.49 257.9 308.73 259.2 306.26 257.81 307.06 256.44"/><polygon class="cls-1" points="311.92 259.36 314.35 260.82 313.68 261.97 311.21 260.58 311.92 259.36"/><polygon class="cls-1" points="316.78 262.27 319.21 263.73 318.63 264.74 316.16 263.35 316.78 262.27"/><polygon class="cls-1" points="321.64 265.19 324.07 266.65 323.58 267.5 321.1 266.12 321.64 265.19"/><polygon class="cls-1" points="326.51 268.1 328.94 269.56 328.53 270.27 326.05 268.89 326.51 268.1"/><polygon class="cls-1" points="331.37 271.02 333.8 272.48 333.48 273.04 331 271.66 331.37 271.02"/><polygon class="cls-1" points="336.23 273.94 338.66 275.39 338.42 275.81 335.95 274.43 336.23 273.94"/><polygon class="cls-1" points="341.1 276.85 343.53 278.31 343.37 278.58 340.9 277.19 341.1 276.85"/><polygon class="cls-1" points="345.96 279.77 348.39 281.22 348.32 281.35 345.85 279.96 345.96 279.77"/><polygon class="cls-1" points="350.82 282.68 352.4 283.63 350.79 282.73 350.82 282.68"/><polygon class="cls-1" points="188.92 191.76 186.08 191.71 186.09 186.13 188.93 186.09 188.92 191.76"/><polygon class="cls-1" points="183.25 191.66 180.42 191.62 180.42 186.2 183.26 186.16 183.25 191.66"/><polygon class="cls-1" points="177.58 191.57 174.75 191.52 174.75 186.28 177.59 186.24 177.58 191.57"/><polygon class="cls-1" points="171.91 191.48 169.08 191.43 169.08 186.36 171.92 186.32 171.91 191.48"/><polygon class="cls-1" points="166.24 191.38 163.41 191.34 163.41 186.43 166.25 186.4 166.24 191.38"/><polygon class="cls-1" points="160.57 191.29 157.74 191.24 157.75 186.51 160.58 186.47 160.57 191.29"/><polygon class="cls-1" points="154.9 191.2 152.07 191.15 152.08 186.59 154.91 186.55 154.9 191.2"/><polygon class="cls-1" points="149.24 191.1 146.4 191.06 146.41 186.66 149.24 186.63 149.24 191.1"/><polygon class="cls-1" points="143.57 191.01 140.73 190.96 140.74 186.74 143.57 186.7 143.57 191.01"/><polygon class="cls-1" points="137.9 190.92 135.06 190.87 135.07 186.82 137.9 186.78 137.9 190.92"/><polygon class="cls-1" points="132.23 190.82 129.39 190.78 129.4 186.89 132.23 186.86 132.23 190.82"/><polygon class="cls-1" points="126.56 190.73 123.72 190.68 123.73 186.97 126.56 186.93 126.56 190.73"/><polygon class="cls-1" points="120.89 190.64 118.06 190.59 118.06 187.05 120.89 187.01 120.89 190.64"/><polygon class="cls-1" points="115.22 190.54 112.39 190.5 112.39 187.12 115.22 187.09 115.22 190.54"/><polygon class="cls-1" points="109.55 190.45 106.72 190.4 106.72 187.2 109.56 187.16 109.55 190.45"/><polygon class="cls-1" points="103.88 190.36 101.05 190.31 101.05 187.28 103.89 187.24 103.88 190.36"/><polygon class="cls-1" points="98.21 190.26 95.38 190.22 95.38 187.35 98.22 187.32 98.21 190.26"/><polygon class="cls-1" points="92.54 190.17 89.71 190.12 89.71 187.43 92.55 187.39 92.54 190.17"/><polygon class="cls-1" points="86.88 190.08 84.04 190.03 84.04 187.51 86.88 187.47 86.88 190.08"/><polygon class="cls-1" points="81.2 189.98 78.37 189.94 78.37 187.58 81.21 187.55 81.2 189.98"/><polygon class="cls-1" points="75.54 189.89 72.7 189.84 72.7 187.66 75.54 187.62 75.54 189.89"/><polygon class="cls-1" points="69.87 189.8 67.03 189.75 67.03 187.74 69.87 187.7 69.87 189.8"/><polygon class="cls-1" points="64.2 189.7 61.36 189.66 61.37 187.81 64.2 187.78 64.2 189.7"/><polygon class="cls-1" points="58.53 189.61 55.69 189.56 55.7 187.89 58.53 187.85 58.53 189.61"/><polygon class="cls-1" points="52.86 189.52 50.02 189.47 50.03 187.97 52.86 187.93 52.86 189.52"/><polygon class="cls-1" points="47.19 189.42 44.35 189.38 44.36 188.04 47.19 188.01 47.19 189.42"/><polygon class="cls-1" points="41.52 189.33 38.69 189.28 38.69 188.12 41.52 188.08 41.52 189.33"/><polygon class="cls-1" points="35.85 189.24 33.02 189.19 33.02 188.2 35.85 188.16 35.85 189.24"/><polygon class="cls-1" points="30.18 189.14 27.35 189.09 27.35 188.28 30.18 188.24 30.18 189.14"/><polygon class="cls-1" points="24.51 189.05 21.68 189 21.68 188.35 24.52 188.31 24.51 189.05"/><polygon class="cls-1" points="18.84 188.96 16.01 188.91 16.01 188.43 18.84 188.39 18.84 188.96"/><polygon class="cls-1" points="13.18 188.86 10.34 188.81 10.34 188.5 13.18 188.47 13.18 188.86"/><polygon class="cls-1" points="7.51 188.77 4.67 188.72 4.67 188.58 7.51 188.54 7.51 188.77"/><polygon class="cls-1" points="1.84 188.68 0 188.65 1.84 188.62 1.84 188.68"/><polygon class="cls-1" points="188.93 186.09 191.76 186.13 191.75 191.72 188.92 191.76 188.93 186.09"/><polygon class="cls-1" points="194.6 186.18 197.43 186.23 197.42 191.64 194.59 191.68 194.6 186.18"/><polygon class="cls-1" points="200.27 186.28 203.1 186.32 203.09 191.57 200.26 191.6 200.27 186.28"/><polygon class="cls-1" points="205.94 186.37 208.77 186.42 208.76 191.49 205.93 191.53 205.94 186.37"/><polygon class="cls-1" points="211.6 186.46 214.44 186.51 214.43 191.41 211.6 191.45 211.6 186.46"/><polygon class="cls-1" points="217.27 186.56 220.11 186.6 220.1 191.34 217.27 191.38 217.27 186.56"/><polygon class="cls-1" points="222.94 186.65 225.78 186.7 225.77 191.26 222.94 191.3 222.94 186.65"/><polygon class="cls-1" points="228.61 186.74 231.45 186.79 231.44 191.18 228.6 191.22 228.61 186.74"/><polygon class="cls-1" points="234.28 186.84 237.12 186.88 237.11 191.11 234.27 191.14 234.28 186.84"/><polygon class="cls-1" points="239.95 186.93 242.78 186.98 242.78 191.03 239.94 191.07 239.95 186.93"/><polygon class="cls-1" points="245.62 187.02 248.45 187.07 248.45 190.95 245.61 190.99 245.62 187.02"/><polygon class="cls-1" points="251.29 187.12 254.12 187.16 254.12 190.88 251.28 190.91 251.29 187.12"/><polygon class="cls-1" points="256.96 187.21 259.79 187.26 259.79 190.8 256.95 190.84 256.96 187.21"/><polygon class="cls-1" points="262.63 187.3 265.46 187.35 265.46 190.72 262.62 190.76 262.63 187.3"/><polygon class="cls-1" points="268.3 187.4 271.13 187.44 271.13 190.65 268.29 190.68 268.3 187.4"/><polygon class="cls-1" points="273.96 187.49 276.8 187.54 276.8 190.57 273.96 190.61 273.96 187.49"/><polygon class="cls-1" points="279.63 187.58 282.47 187.63 282.46 190.49 279.63 190.53 279.63 187.58"/><polygon class="cls-1" points="285.3 187.68 288.14 187.72 288.13 190.42 285.3 190.45 285.3 187.68"/><polygon class="cls-1" points="290.97 187.77 293.81 187.82 293.8 190.34 290.97 190.38 290.97 187.77"/><polygon class="cls-1" points="296.64 187.86 299.48 187.91 299.47 190.26 296.64 190.3 296.64 187.86"/><polygon class="cls-1" points="302.31 187.96 305.15 188 305.14 190.19 302.31 190.22 302.31 187.96"/><polygon class="cls-1" points="307.98 188.05 310.81 188.1 310.81 190.11 307.98 190.15 307.98 188.05"/><polygon class="cls-1" points="313.65 188.14 316.48 188.19 316.48 190.03 313.65 190.07 313.65 188.14"/><polygon class="cls-1" points="319.32 188.24 322.15 188.28 322.15 189.96 319.31 189.99 319.32 188.24"/><polygon class="cls-1" points="324.99 188.33 327.82 188.38 327.82 189.88 324.99 189.92 324.99 188.33"/><polygon class="cls-1" points="330.66 188.42 333.49 188.47 333.49 189.8 330.65 189.84 330.66 188.42"/><polygon class="cls-1" points="336.33 188.52 339.16 188.56 339.16 189.72 336.32 189.76 336.33 188.52"/><polygon class="cls-1" points="342 188.61 344.83 188.66 344.83 189.65 341.99 189.69 342 188.61"/><polygon class="cls-1" points="347.66 188.71 350.5 188.75 350.5 189.57 347.66 189.61 347.66 188.71"/><polygon class="cls-1" points="353.33 188.8 356.17 188.84 356.17 189.5 353.33 189.53 353.33 188.8"/><polygon class="cls-1" points="359 188.89 361.84 188.94 361.84 189.42 359 189.46 359 188.89"/><polygon class="cls-1" points="364.67 188.99 367.51 189.03 367.5 189.34 364.67 189.38 364.67 188.99"/><polygon class="cls-1" points="370.34 189.08 373.18 189.13 373.18 189.26 370.34 189.3 370.34 189.08"/><polygon class="cls-1" points="376.01 189.17 377.85 189.2 376.01 189.23 376.01 189.17"/><polygon class="cls-1" points="190.34 191.38 187.86 192.76 185.07 187.92 187.51 186.47 190.34 191.38"/><polygon class="cls-1" points="185.38 194.13 182.9 195.51 180.2 190.82 182.64 189.37 185.38 194.13"/><polygon class="cls-1" points="180.42 196.89 177.95 198.26 175.33 193.72 177.77 192.27 180.42 196.89"/><polygon class="cls-1" points="175.47 199.64 172.99 201.02 170.46 196.62 172.9 195.17 175.47 199.64"/><polygon class="cls-1" points="170.51 202.4 168.03 203.77 165.59 199.52 168.02 198.07 170.51 202.4"/><polygon class="cls-1" points="165.56 205.15 163.08 206.53 160.72 202.42 163.15 200.97 165.56 205.15"/><polygon class="cls-1" points="160.6 207.9 158.12 209.28 155.84 205.32 158.28 203.87 160.6 207.9"/><polygon class="cls-1" points="155.64 210.66 153.16 212.03 150.97 208.22 153.41 206.77 155.64 210.66"/><polygon class="cls-1" points="150.69 213.41 148.21 214.79 146.1 211.13 148.54 209.68 150.69 213.41"/><polygon class="cls-1" points="145.73 216.16 143.25 217.54 141.23 214.03 143.67 212.58 145.73 216.16"/><polygon class="cls-1" points="140.77 218.92 138.29 220.29 136.36 216.93 138.79 215.48 140.77 218.92"/><polygon class="cls-1" points="135.82 221.67 133.34 223.05 131.49 219.83 133.92 218.38 135.82 221.67"/><polygon class="cls-1" points="130.86 224.42 128.38 225.8 126.62 222.73 129.05 221.28 130.86 224.42"/><polygon class="cls-1" points="125.9 227.18 123.43 228.56 121.74 225.63 124.18 224.18 125.9 227.18"/><polygon class="cls-1" points="120.95 229.93 118.47 231.31 116.87 228.53 119.31 227.08 120.95 229.93"/><polygon class="cls-1" points="115.99 232.69 113.51 234.06 112 231.43 114.44 229.98 115.99 232.69"/><polygon class="cls-1" points="111.04 235.44 108.56 236.82 107.13 234.34 109.56 232.88 111.04 235.44"/><polygon class="cls-1" points="106.08 238.19 103.6 239.57 102.26 237.24 104.69 235.79 106.08 238.19"/><polygon class="cls-1" points="101.12 240.95 98.64 242.32 97.39 240.14 99.82 238.69 101.12 240.95"/><polygon class="cls-1" points="96.17 243.7 93.69 245.08 92.52 243.04 94.95 241.59 96.17 243.7"/><polygon class="cls-1" points="91.21 246.45 88.73 247.83 87.64 245.94 90.08 244.49 91.21 246.45"/><polygon class="cls-1" points="86.25 249.21 83.78 250.58 82.77 248.84 85.21 247.39 86.25 249.21"/><polygon class="cls-1" points="81.3 251.96 78.82 253.34 77.9 251.74 80.34 250.29 81.3 251.96"/><polygon class="cls-1" points="76.34 254.72 73.86 256.09 73.03 254.64 75.47 253.19 76.34 254.72"/><polygon class="cls-1" points="71.39 257.47 68.91 258.85 68.16 257.54 70.59 256.09 71.39 257.47"/><polygon class="cls-1" points="66.43 260.22 63.95 261.6 63.29 260.44 65.72 259 66.43 260.22"/><polygon class="cls-1" points="61.47 262.98 58.99 264.35 58.41 263.35 60.85 261.9 61.47 262.98"/><polygon class="cls-1" points="56.52 265.73 54.04 267.11 53.54 266.25 55.98 264.8 56.52 265.73"/><polygon class="cls-1" points="51.56 268.48 49.08 269.86 48.67 269.15 51.11 267.7 51.56 268.48"/><polygon class="cls-1" points="46.6 271.24 44.13 272.61 43.8 272.05 46.24 270.6 46.6 271.24"/><polygon class="cls-1" points="41.65 273.99 39.17 275.37 38.93 274.95 41.37 273.5 41.65 273.99"/><polygon class="cls-1" points="36.69 276.74 34.21 278.12 34.06 277.85 36.49 276.4 36.69 276.74"/><polygon class="cls-1" points="31.73 279.5 29.26 280.88 29.19 280.75 31.62 279.3 31.73 279.5"/><polygon class="cls-1" points="26.78 282.25 25.17 283.14 26.75 282.2 26.78 282.25"/><polygon class="cls-1" points="187.51 186.47 189.99 185.09 192.77 189.93 190.34 191.38 187.51 186.47"/><polygon class="cls-1" points="192.47 183.71 194.94 182.34 197.64 187.03 195.21 188.48 192.47 183.71"/><polygon class="cls-1" points="197.42 180.96 199.9 179.58 202.52 184.13 200.08 185.58 197.42 180.96"/><polygon class="cls-1" points="202.38 178.21 204.86 176.83 207.39 181.23 204.95 182.68 202.38 178.21"/><polygon class="cls-1" points="207.34 175.45 209.81 174.07 212.26 178.32 209.82 179.78 207.34 175.45"/><polygon class="cls-1" points="212.29 172.7 214.77 171.32 217.13 175.42 214.69 176.88 212.29 172.7"/><polygon class="cls-1" points="217.25 169.94 219.73 168.57 222 172.52 219.57 173.97 217.25 169.94"/><polygon class="cls-1" points="222.2 167.19 224.68 165.81 226.87 169.62 224.44 171.07 222.2 167.19"/><polygon class="cls-1" points="227.16 164.44 229.64 163.06 231.75 166.72 229.31 168.17 227.16 164.44"/><polygon class="cls-1" points="232.12 161.68 234.59 160.31 236.62 163.82 234.18 165.27 232.12 161.68"/><polygon class="cls-1" points="237.07 158.93 239.55 157.55 241.49 160.92 239.05 162.37 237.07 158.93"/><polygon class="cls-1" points="242.03 156.18 244.51 154.8 246.36 158.02 243.92 159.47 242.03 156.18"/><polygon class="cls-1" points="246.99 153.42 249.46 152.05 251.23 155.12 248.79 156.57 246.99 153.42"/><polygon class="cls-1" points="251.94 150.67 254.42 149.29 256.1 152.22 253.67 153.67 251.94 150.67"/><polygon class="cls-1" points="256.9 147.91 259.38 146.54 260.97 149.31 258.54 150.76 256.9 147.91"/><polygon class="cls-1" points="261.86 145.16 264.33 143.78 265.85 146.41 263.41 147.86 261.86 145.16"/><polygon class="cls-1" points="266.81 142.41 269.29 141.03 270.72 143.51 268.28 144.96 266.81 142.41"/><polygon class="cls-1" points="271.77 139.65 274.25 138.28 275.59 140.61 273.15 142.06 271.77 139.65"/><polygon class="cls-1" points="276.72 136.9 279.2 135.52 280.46 137.71 278.02 139.16 276.72 136.9"/><polygon class="cls-1" points="281.68 134.15 284.16 132.77 285.33 134.81 282.9 136.26 281.68 134.15"/><polygon class="cls-1" points="286.64 131.39 289.12 130.02 290.2 131.91 287.77 133.36 286.64 131.39"/><polygon class="cls-1" points="291.59 128.64 294.07 127.26 295.07 129.01 292.64 130.46 291.59 128.64"/><polygon class="cls-1" points="296.55 125.89 299.03 124.51 299.95 126.11 297.51 127.56 296.55 125.89"/><polygon class="cls-1" points="301.51 123.13 303.98 121.75 304.82 123.2 302.38 124.65 301.51 123.13"/><polygon class="cls-1" points="306.46 120.38 308.94 119 309.69 120.3 307.25 121.75 306.46 120.38"/><polygon class="cls-1" points="311.42 117.63 313.9 116.25 314.56 117.4 312.13 118.85 311.42 117.63"/><polygon class="cls-1" points="316.38 114.87 318.85 113.49 319.43 114.5 317 115.95 316.38 114.87"/><polygon class="cls-1" points="321.33 112.12 323.81 110.74 324.3 111.6 321.87 113.05 321.33 112.12"/><polygon class="cls-1" points="326.29 109.36 328.77 107.99 329.18 108.7 326.74 110.15 326.29 109.36"/><polygon class="cls-1" points="331.24 106.61 333.72 105.23 334.05 105.8 331.61 107.25 331.24 106.61"/><polygon class="cls-1" points="336.2 103.86 338.68 102.48 338.92 102.9 336.48 104.35 336.2 103.86"/><polygon class="cls-1" points="341.16 101.1 343.63 99.73 343.79 100 341.35 101.44 341.16 101.1"/><polygon class="cls-1" points="346.11 98.35 348.59 96.97 348.66 97.09 346.23 98.54 346.11 98.35"/><polygon class="cls-1" points="351.07 95.59 352.68 94.7 351.1 95.64 351.07 95.59"/><polygon class="cls-1" points="191.38 190.34 189.92 192.78 185.09 189.98 186.47 187.5 191.38 190.34"/><polygon class="cls-1" points="188.46 195.21 187 197.64 182.32 194.93 183.7 192.45 188.46 195.21"/><polygon class="cls-1" points="185.54 200.07 184.09 202.5 179.55 199.87 180.93 197.4 185.54 200.07"/><polygon class="cls-1" points="182.63 204.93 181.17 207.37 176.78 204.82 178.17 202.35 182.63 204.93"/><polygon class="cls-1" points="179.71 209.8 178.26 212.23 174.01 209.77 175.4 207.29 179.71 209.8"/><polygon class="cls-1" points="176.8 214.66 175.34 217.09 171.25 214.72 172.63 212.24 176.8 214.66"/><polygon class="cls-1" points="173.88 219.52 172.43 221.95 168.48 219.67 169.86 217.19 173.88 219.52"/><polygon class="cls-1" points="170.97 224.38 169.51 226.82 165.71 224.61 167.09 222.14 170.97 224.38"/><polygon class="cls-1" points="168.05 229.25 166.59 231.68 162.94 229.56 164.32 227.09 168.05 229.25"/><polygon class="cls-1" points="165.14 234.11 163.68 236.54 160.17 234.51 161.56 232.04 165.14 234.11"/><polygon class="cls-1" points="162.22 238.97 160.76 241.41 157.4 239.46 158.79 236.98 162.22 238.97"/><polygon class="cls-1" points="159.31 243.84 157.85 246.27 154.63 244.41 156.02 241.93 159.31 243.84"/><polygon class="cls-1" points="156.39 248.7 154.93 251.13 151.87 249.35 153.25 246.88 156.39 248.7"/><polygon class="cls-1" points="153.47 253.56 152.02 255.99 149.1 254.3 150.48 251.83 153.47 253.56"/><polygon class="cls-1" points="150.56 258.43 149.1 260.86 146.33 259.25 147.72 256.78 150.56 258.43"/><polygon class="cls-1" points="147.64 263.29 146.19 265.72 143.56 264.2 144.95 261.73 147.64 263.29"/><polygon class="cls-1" points="144.73 268.15 143.27 270.58 140.79 269.15 142.18 266.67 144.73 268.15"/><polygon class="cls-1" points="141.81 273.01 140.35 275.45 138.03 274.1 139.41 271.62 141.81 273.01"/><polygon class="cls-1" points="138.9 277.88 137.44 280.31 135.26 279.04 136.64 276.57 138.9 277.88"/><polygon class="cls-1" points="135.98 282.74 134.52 285.17 132.49 283.99 133.87 281.52 135.98 282.74"/><polygon class="cls-1" points="133.07 287.6 131.61 290.03 129.72 288.94 131.1 286.47 133.07 287.6"/><polygon class="cls-1" points="130.15 292.47 128.69 294.9 126.95 293.89 128.34 291.42 130.15 292.47"/><polygon class="cls-1" points="127.23 297.33 125.78 299.76 124.18 298.84 125.57 296.36 127.23 297.33"/><polygon class="cls-1" points="124.32 302.19 122.86 304.62 121.42 303.79 122.8 301.31 124.32 302.19"/><polygon class="cls-1" points="121.4 307.06 119.95 309.49 118.65 308.73 120.03 306.26 121.4 307.06"/><polygon class="cls-1" points="118.49 311.92 117.03 314.35 115.88 313.68 117.26 311.21 118.49 311.92"/><polygon class="cls-1" points="115.57 316.78 114.12 319.21 113.11 318.63 114.5 316.16 115.57 316.78"/><polygon class="cls-1" points="112.66 321.64 111.2 324.07 110.34 323.58 111.73 321.1 112.66 321.64"/><polygon class="cls-1" points="109.74 326.51 108.28 328.94 107.58 328.53 108.96 326.05 109.74 326.51"/><polygon class="cls-1" points="106.83 331.37 105.37 333.8 104.81 333.47 106.19 331 106.83 331.37"/><polygon class="cls-1" points="103.91 336.23 102.45 338.66 102.04 338.42 103.42 335.95 103.91 336.23"/><polygon class="cls-1" points="101 341.1 99.54 343.53 99.27 343.37 100.65 340.9 101 341.1"/><polygon class="cls-1" points="98.08 345.96 96.62 348.39 96.5 348.32 97.89 345.85 98.08 345.96"/><polygon class="cls-1" points="95.17 350.82 94.22 352.4 95.12 350.79 95.17 350.82"/><polygon class="cls-1" points="186.47 187.5 187.93 185.07 192.76 187.87 191.38 190.34 186.47 187.5"/><polygon class="cls-1" points="189.39 182.64 190.84 180.21 195.53 182.92 194.15 185.4 189.39 182.64"/><polygon class="cls-1" points="192.3 177.78 193.76 175.34 198.3 177.97 196.91 180.45 192.3 177.78"/><polygon class="cls-1" points="195.22 172.91 196.68 170.48 201.06 173.03 199.68 175.5 195.22 172.91"/><polygon class="cls-1" points="198.13 168.05 199.59 165.62 203.83 168.08 202.45 170.55 198.13 168.05"/><polygon class="cls-1" points="201.05 163.19 202.51 160.76 206.6 163.13 205.22 165.6 201.05 163.19"/><polygon class="cls-1" points="203.96 158.32 205.42 155.89 209.37 158.18 207.99 160.66 203.96 158.32"/><polygon class="cls-1" points="206.88 153.46 208.34 151.03 212.14 153.23 210.75 155.71 206.88 153.46"/><polygon class="cls-1" points="209.79 148.6 211.25 146.17 214.91 148.28 213.52 150.76 209.79 148.6"/><polygon class="cls-1" points="212.71 143.74 214.17 141.31 217.68 143.34 216.29 145.81 212.71 143.74"/><polygon class="cls-1" points="215.63 138.87 217.08 136.44 220.44 138.39 219.06 140.86 215.63 138.87"/><polygon class="cls-1" points="218.54 134.01 220 131.58 223.21 133.44 221.83 135.91 218.54 134.01"/><polygon class="cls-1" points="221.46 129.15 222.91 126.72 225.98 128.49 224.59 130.97 221.46 129.15"/><polygon class="cls-1" points="224.37 124.28 225.83 121.85 228.75 123.54 227.36 126.02 224.37 124.28"/><polygon class="cls-1" points="227.29 119.42 228.75 116.99 231.52 118.59 230.13 121.07 227.29 119.42"/><polygon class="cls-1" points="230.2 114.56 231.66 112.13 234.28 113.65 232.9 116.12 230.2 114.56"/><polygon class="cls-1" points="233.12 109.7 234.58 107.26 237.05 108.7 235.67 111.17 233.12 109.7"/><polygon class="cls-1" points="236.03 104.83 237.49 102.4 239.82 103.75 238.44 106.22 236.03 104.83"/><polygon class="cls-1" points="238.95 99.97 240.41 97.54 242.59 98.8 241.21 101.28 238.95 99.97"/><polygon class="cls-1" points="241.87 95.11 243.32 92.67 245.36 93.85 243.97 96.33 241.87 95.11"/><polygon class="cls-1" points="244.78 90.24 246.24 87.81 248.13 88.91 246.74 91.38 244.78 90.24"/><polygon class="cls-1" points="247.7 85.38 249.15 82.95 250.89 83.96 249.51 86.43 247.7 85.38"/><polygon class="cls-1" points="250.61 80.52 252.07 78.09 253.66 79.01 252.28 81.48 250.61 80.52"/><polygon class="cls-1" points="253.53 75.66 254.98 73.22 256.43 74.06 255.05 76.54 253.53 75.66"/><polygon class="cls-1" points="256.44 70.79 257.9 68.36 259.2 69.11 257.81 71.59 256.44 70.79"/><polygon class="cls-1" points="259.36 65.93 260.81 63.5 261.97 64.17 260.58 66.64 259.36 65.93"/><polygon class="cls-1" points="262.27 61.07 263.73 58.63 264.74 59.22 263.35 61.69 262.27 61.07"/><polygon class="cls-1" points="265.19 56.2 266.65 53.77 267.5 54.27 266.12 56.74 265.19 56.2"/><polygon class="cls-1" points="268.1 51.34 269.56 48.91 270.27 49.32 268.89 51.8 268.1 51.34"/><polygon class="cls-1" points="271.02 46.48 272.48 44.05 273.04 44.37 271.66 46.85 271.02 46.48"/><polygon class="cls-1" points="273.94 41.62 275.39 39.18 275.81 39.42 274.42 41.9 273.94 41.62"/><polygon class="cls-1" points="276.85 36.75 278.31 34.32 278.58 34.48 277.19 36.95 276.85 36.75"/><polygon class="cls-1" points="279.77 31.89 281.22 29.46 281.35 29.53 279.96 32 279.77 31.89"/><polygon class="cls-1" points="282.68 27.03 283.63 25.45 282.73 27.05 282.68 27.03"/><polygon class="cls-1" points="186.18 189.65 185.52 186.9 190.87 185.47 191.66 188.19 186.18 189.65"/><polygon class="cls-1" points="184.86 184.14 184.19 181.38 189.27 180.03 190.07 182.75 184.86 184.14"/><polygon class="cls-1" points="183.53 178.63 182.87 175.87 187.68 174.59 188.48 177.31 183.53 178.63"/><polygon class="cls-1" points="182.21 173.11 181.54 170.35 186.09 169.14 186.88 171.87 182.21 173.11"/><polygon class="cls-1" points="180.88 167.6 180.22 164.84 184.5 163.7 185.29 166.42 180.88 167.6"/><polygon class="cls-1" points="179.56 162.08 178.89 159.33 182.9 158.26 183.7 160.98 179.56 162.08"/><polygon class="cls-1" points="178.23 156.57 177.57 153.81 181.31 152.82 182.11 155.54 178.23 156.57"/><polygon class="cls-1" points="176.9 151.06 176.24 148.3 179.72 147.37 180.51 150.09 176.9 151.06"/><polygon class="cls-1" points="175.58 145.54 174.91 142.78 178.13 141.93 178.92 144.65 175.58 145.54"/><polygon class="cls-1" points="174.25 140.03 173.59 137.27 176.53 136.49 177.33 139.21 174.25 140.03"/><polygon class="cls-1" points="172.93 134.51 172.26 131.76 174.94 131.04 175.74 133.77 172.93 134.51"/><polygon class="cls-1" points="171.6 129 170.94 126.24 173.35 125.6 174.14 128.32 171.6 129"/><polygon class="cls-1" points="170.28 123.49 169.61 120.73 171.75 120.16 172.55 122.88 170.28 123.49"/><polygon class="cls-1" points="168.95 117.97 168.29 115.22 170.16 114.72 170.96 117.44 168.95 117.97"/><polygon class="cls-1" points="167.62 112.46 166.96 109.7 168.57 109.27 169.36 112 167.62 112.46"/><polygon class="cls-1" points="166.3 106.95 165.63 104.19 166.97 103.83 167.77 106.55 166.3 106.95"/><polygon class="cls-1" points="164.97 101.43 164.31 98.67 165.38 98.39 166.18 101.11 164.97 101.43"/><polygon class="cls-1" points="163.65 95.92 162.98 93.16 163.79 92.95 164.59 95.67 163.65 95.92"/><polygon class="cls-1" points="162.32 90.4 161.66 87.65 162.2 87.5 162.99 90.22 162.32 90.4"/><polygon class="cls-1" points="161 84.89 160.33 82.13 160.6 82.06 161.4 84.78 161 84.89"/><polygon class="cls-1" points="159.67 79.38 159.01 76.62 159.01 76.62 159.81 79.34 159.67 79.38"/><polygon class="cls-1" points="191.66 188.19 192.32 190.95 186.98 192.37 186.18 189.65 191.66 188.19"/><polygon class="cls-1" points="192.99 193.71 193.65 196.46 188.57 197.82 187.78 195.1 192.99 193.71"/><polygon class="cls-1" points="194.31 199.22 194.98 201.98 190.17 203.26 189.37 200.54 194.31 199.22"/><polygon class="cls-1" points="195.64 204.74 196.3 207.49 191.76 208.7 190.96 205.98 195.64 204.74"/><polygon class="cls-1" points="196.97 210.25 197.63 213.01 193.35 214.15 192.56 211.42 196.97 210.25"/><polygon class="cls-1" points="198.29 215.76 198.95 218.52 194.94 219.59 194.15 216.87 198.29 215.76"/><polygon class="cls-1" points="199.62 221.28 200.28 224.03 196.54 225.03 195.74 222.31 199.62 221.28"/><polygon class="cls-1" points="200.94 226.79 201.6 229.55 198.13 230.47 197.33 227.75 200.94 226.79"/><polygon class="cls-1" points="202.27 232.3 202.93 235.06 199.72 235.92 198.93 233.19 202.27 232.3"/><polygon class="cls-1" points="203.59 237.82 204.26 240.57 201.31 241.36 200.52 238.64 203.59 237.82"/><polygon class="cls-1" points="204.92 243.33 205.58 246.09 202.91 246.8 202.11 244.08 204.92 243.33"/><polygon class="cls-1" points="206.25 248.85 206.91 251.6 204.5 252.24 203.7 249.52 206.25 248.85"/><polygon class="cls-1" points="207.57 254.36 208.23 257.12 206.09 257.69 205.3 254.97 207.57 254.36"/><polygon class="cls-1" points="208.9 259.87 209.56 262.63 207.69 263.13 206.89 260.41 208.9 259.87"/><polygon class="cls-1" points="210.22 265.39 210.89 268.14 209.28 268.57 208.48 265.85 210.22 265.39"/><polygon class="cls-1" points="211.55 270.9 212.21 273.66 210.87 274.01 210.07 271.29 211.55 270.9"/><polygon class="cls-1" points="212.88 276.42 213.54 279.17 212.46 279.46 211.67 276.74 212.88 276.42"/><polygon class="cls-1" points="214.2 281.93 214.86 284.69 214.06 284.9 213.26 282.18 214.2 281.93"/><polygon class="cls-1" points="215.53 287.44 216.19 290.2 215.65 290.34 214.85 287.62 215.53 287.44"/><polygon class="cls-1" points="216.85 292.96 217.51 295.71 217.24 295.79 216.45 293.06 216.85 292.96"/><polygon class="cls-1" points="218.18 298.47 218.84 301.23 218.84 301.23 218.04 298.51 218.18 298.47"/><polygon class="cls-1" points="186.92 190.93 184.96 188.87 188.88 184.96 190.93 186.92 186.92 190.93"/><polygon class="cls-1" points="183.01 186.81 181.06 184.76 184.78 181.05 186.83 183 183.01 186.81"/><polygon class="cls-1" points="179.11 182.7 177.15 180.64 180.68 177.13 182.73 179.09 179.11 182.7"/><polygon class="cls-1" points="175.2 178.59 173.25 176.53 176.58 173.21 178.63 175.17 175.2 178.59"/><polygon class="cls-1" points="171.3 174.48 169.34 172.42 172.48 169.29 174.53 171.25 171.3 174.48"/><polygon class="cls-1" points="167.39 170.36 165.44 168.31 168.38 165.38 170.43 167.34 167.39 170.36"/><polygon class="cls-1" points="163.49 166.25 161.53 164.19 164.28 161.46 166.33 163.42 163.49 166.25"/><polygon class="cls-1" points="159.58 162.14 157.63 160.08 160.18 157.54 162.23 159.5 159.58 162.14"/><polygon class="cls-1" points="155.68 158.03 153.72 155.97 156.07 153.63 158.13 155.59 155.68 158.03"/><polygon class="cls-1" points="151.77 153.91 149.82 151.86 151.97 149.71 154.02 151.67 151.77 153.91"/><polygon class="cls-1" points="147.87 149.8 145.91 147.75 147.87 145.79 149.92 147.75 147.87 149.8"/><polygon class="cls-1" points="143.96 145.69 142.01 143.63 143.77 141.88 145.82 143.83 143.96 145.69"/><polygon class="cls-1" points="140.06 141.58 138.1 139.52 139.67 137.96 141.72 139.92 140.06 141.58"/><polygon class="cls-1" points="136.15 137.47 134.2 135.41 135.57 134.04 137.62 136 136.15 137.47"/><polygon class="cls-1" points="132.25 133.35 130.29 131.3 131.47 130.12 133.52 132.08 132.25 133.35"/><polygon class="cls-1" points="128.34 129.24 126.39 127.19 127.37 126.21 129.42 128.16 128.34 129.24"/><polygon class="cls-1" points="124.44 125.13 122.48 123.07 123.27 122.29 125.32 124.25 124.44 125.13"/><polygon class="cls-1" points="120.53 121.02 118.58 118.96 119.17 118.37 121.22 120.33 120.53 121.02"/><polygon class="cls-1" points="116.63 116.91 114.67 114.85 115.07 114.45 117.12 116.41 116.63 116.91"/><polygon class="cls-1" points="112.72 112.79 110.77 110.74 110.97 110.54 113.02 112.5 112.72 112.79"/><polygon class="cls-1" points="108.81 108.68 106.86 106.62 106.87 106.62 108.92 108.58 108.81 108.68"/><polygon class="cls-1" points="190.93 186.92 192.88 188.98 188.97 192.88 186.92 190.93 190.93 186.92"/><polygon class="cls-1" points="194.84 191.03 196.79 193.09 193.07 196.8 191.02 194.84 194.84 191.03"/><polygon class="cls-1" points="198.74 195.15 200.69 197.2 197.17 200.72 195.12 198.76 198.74 195.15"/><polygon class="cls-1" points="202.65 199.26 204.6 201.31 201.27 204.63 199.22 202.68 202.65 199.26"/><polygon class="cls-1" points="206.55 203.37 208.5 205.43 205.37 208.55 203.32 206.59 206.55 203.37"/><polygon class="cls-1" points="210.46 207.48 212.41 209.54 209.47 212.47 207.42 210.51 210.46 207.48"/><polygon class="cls-1" points="214.36 211.59 216.31 213.65 213.57 216.39 211.52 214.43 214.36 211.59"/><polygon class="cls-1" points="218.27 215.71 220.22 217.76 217.67 220.3 215.62 218.34 218.27 215.71"/><polygon class="cls-1" points="222.17 219.82 224.12 221.88 221.77 224.22 219.72 222.26 222.17 219.82"/><polygon class="cls-1" points="226.08 223.93 228.03 225.99 225.87 228.14 223.82 226.18 226.08 223.93"/><polygon class="cls-1" points="229.98 228.04 231.93 230.1 229.97 232.06 227.92 230.1 229.98 228.04"/><polygon class="cls-1" points="233.89 232.16 235.84 234.21 234.07 235.97 232.02 234.01 233.89 232.16"/><polygon class="cls-1" points="237.79 236.27 239.74 238.32 238.18 239.89 236.13 237.93 237.79 236.27"/><polygon class="cls-1" points="241.7 240.38 243.65 242.44 242.28 243.81 240.22 241.85 241.7 240.38"/><polygon class="cls-1" points="245.6 244.49 247.55 246.55 246.38 247.72 244.33 245.76 245.6 244.49"/><polygon class="cls-1" points="249.51 248.6 251.46 250.66 250.48 251.64 248.43 249.68 249.51 248.6"/><polygon class="cls-1" points="253.41 252.72 255.36 254.77 254.58 255.56 252.53 253.6 253.41 252.72"/><polygon class="cls-1" points="257.32 256.83 259.27 258.89 258.68 259.48 256.63 257.52 257.32 256.83"/><polygon class="cls-1" points="261.22 260.94 263.17 263 262.78 263.39 260.73 261.43 261.22 260.94"/><polygon class="cls-1" points="265.13 265.05 267.08 267.11 266.88 267.31 264.83 265.35 265.13 265.05"/><polygon class="cls-1" points="269.03 269.17 270.98 271.22 270.98 271.23 268.93 269.27 269.03 269.17"/><polygon class="cls-1" points="188.19 191.66 185.47 190.86 186.91 185.51 189.66 186.19 188.19 191.66"/><polygon class="cls-1" points="182.75 190.05 180.03 189.25 181.4 184.17 184.15 184.84 182.75 190.05"/><polygon class="cls-1" points="177.31 188.44 174.59 187.64 175.89 182.83 178.64 183.5 177.31 188.44"/><polygon class="cls-1" points="171.87 186.83 169.15 186.03 170.38 181.49 173.13 182.16 171.87 186.83"/><polygon class="cls-1" points="166.43 185.22 163.72 184.42 164.87 180.15 167.62 180.82 166.43 185.22"/><polygon class="cls-1" points="161 183.62 158.28 182.81 159.36 178.81 162.11 179.48 161 183.62"/><polygon class="cls-1" points="155.56 182.01 152.84 181.2 153.85 177.46 156.6 178.13 155.56 182.01"/><polygon class="cls-1" points="150.12 180.4 147.4 179.59 148.34 176.12 151.09 176.79 150.12 180.4"/><polygon class="cls-1" points="144.68 178.79 141.96 177.99 142.83 174.78 145.58 175.45 144.68 178.79"/><polygon class="cls-1" points="139.24 177.18 136.53 176.38 137.32 173.44 140.07 174.11 139.24 177.18"/><polygon class="cls-1" points="133.81 175.57 131.09 174.77 131.81 172.09 134.56 172.77 133.81 175.57"/><polygon class="cls-1" points="128.37 173.96 125.65 173.16 126.3 170.75 129.05 171.42 128.37 173.96"/><polygon class="cls-1" points="122.93 172.35 120.21 171.55 120.79 169.41 123.54 170.08 122.93 172.35"/><polygon class="cls-1" points="117.49 170.75 114.77 169.94 115.28 168.07 118.03 168.74 117.49 170.75"/><polygon class="cls-1" points="112.05 169.14 109.33 168.33 109.77 166.73 112.52 167.4 112.05 169.14"/><polygon class="cls-1" points="106.62 167.53 103.9 166.72 104.26 165.38 107.01 166.06 106.62 167.53"/><polygon class="cls-1" points="101.18 165.92 98.46 165.12 98.75 164.04 101.5 164.71 101.18 165.92"/><polygon class="cls-1" points="95.74 164.31 93.02 163.51 93.24 162.7 95.99 163.37 95.74 164.31"/><polygon class="cls-1" points="90.3 162.7 87.58 161.9 87.73 161.36 90.48 162.03 90.3 162.7"/><polygon class="cls-1" points="84.86 161.09 82.14 160.29 82.22 160.02 84.97 160.69 84.86 161.09"/><polygon class="cls-1" points="79.43 159.49 76.71 158.68 76.71 158.68 79.46 159.35 79.43 159.49"/><polygon class="cls-1" points="189.66 186.19 192.38 186.99 190.94 192.33 188.19 191.66 189.66 186.19"/><polygon class="cls-1" points="195.1 187.79 197.82 188.6 196.45 193.67 193.69 193 195.1 187.79"/><polygon class="cls-1" points="200.54 189.4 203.26 190.21 201.96 195.01 199.21 194.34 200.54 189.4"/><polygon class="cls-1" points="205.97 191.01 208.69 191.82 207.47 196.36 204.72 195.69 205.97 191.01"/><polygon class="cls-1" points="211.41 192.62 214.13 193.43 212.98 197.7 210.22 197.03 211.41 192.62"/><polygon class="cls-1" points="216.85 194.23 219.57 195.03 218.49 199.04 215.74 198.37 216.85 194.23"/><polygon class="cls-1" points="222.29 195.84 225.01 196.64 224 200.38 221.25 199.71 222.29 195.84"/><polygon class="cls-1" points="227.73 197.45 230.45 198.25 229.51 201.72 226.75 201.05 227.73 197.45"/><polygon class="cls-1" points="233.16 199.06 235.88 199.86 235.02 203.07 232.26 202.4 233.16 199.06"/><polygon class="cls-1" points="238.6 200.66 241.32 201.47 240.53 204.41 237.78 203.74 238.6 200.66"/><polygon class="cls-1" points="244.04 202.27 246.76 203.08 246.04 205.75 243.28 205.08 244.04 202.27"/><polygon class="cls-1" points="249.48 203.88 252.2 204.69 251.55 207.09 248.79 206.42 249.48 203.88"/><polygon class="cls-1" points="254.92 205.49 257.64 206.3 257.06 208.44 254.3 207.76 254.92 205.49"/><polygon class="cls-1" points="260.36 207.1 263.07 207.91 262.57 209.78 259.81 209.11 260.36 207.1"/><polygon class="cls-1" points="265.79 208.71 268.51 209.51 268.08 211.12 265.32 210.45 265.79 208.71"/><polygon class="cls-1" points="271.23 210.32 273.95 211.12 273.59 212.46 270.83 211.79 271.23 210.32"/><polygon class="cls-1" points="276.67 211.93 279.39 212.73 279.1 213.8 276.34 213.13 276.67 211.93"/><polygon class="cls-1" points="282.11 213.54 284.83 214.34 284.61 215.15 281.85 214.47 282.11 213.54"/><polygon class="cls-1" points="287.55 215.14 290.26 215.95 290.12 216.49 287.36 215.82 287.55 215.14"/><polygon class="cls-1" points="292.98 216.75 295.7 217.56 295.63 217.83 292.87 217.16 292.98 216.75"/><polygon class="cls-1" points="298.42 218.36 301.14 219.17 301.14 219.17 298.38 218.5 298.42 218.36"/><polygon class="cls-1" points="189.65 191.66 186.9 192.32 185.47 186.98 188.19 186.18 189.65 191.66"/><polygon class="cls-1" points="184.14 192.99 181.38 193.65 180.03 188.57 182.75 187.78 184.14 192.99"/><polygon class="cls-1" points="178.63 194.31 175.87 194.98 174.59 190.17 177.31 189.37 178.63 194.31"/><polygon class="cls-1" points="173.11 195.64 170.35 196.3 169.14 191.76 171.87 190.96 173.11 195.64"/><polygon class="cls-1" points="167.6 196.97 164.84 197.63 163.7 193.35 166.42 192.56 167.6 196.97"/><polygon class="cls-1" points="162.08 198.29 159.33 198.95 158.26 194.94 160.98 194.15 162.08 198.29"/><polygon class="cls-1" points="156.57 199.62 153.81 200.28 152.82 196.54 155.54 195.74 156.57 199.62"/><polygon class="cls-1" points="151.06 200.94 148.3 201.61 147.37 198.13 150.09 197.33 151.06 200.94"/><polygon class="cls-1" points="145.54 202.27 142.79 202.93 141.93 199.72 144.65 198.93 145.54 202.27"/><polygon class="cls-1" points="140.03 203.59 137.27 204.26 136.49 201.31 139.21 200.52 140.03 203.59"/><polygon class="cls-1" points="134.51 204.92 131.76 205.58 131.04 202.91 133.77 202.11 134.51 204.92"/><polygon class="cls-1" points="129 206.25 126.24 206.91 125.6 204.5 128.32 203.7 129 206.25"/><polygon class="cls-1" points="123.49 207.57 120.73 208.23 120.16 206.09 122.88 205.3 123.49 207.57"/><polygon class="cls-1" points="117.97 208.9 115.22 209.56 114.72 207.69 117.44 206.89 117.97 208.9"/><polygon class="cls-1" points="112.46 210.22 109.7 210.89 109.27 209.28 112 208.48 112.46 210.22"/><polygon class="cls-1" points="106.94 211.55 104.19 212.21 103.83 210.87 106.55 210.07 106.94 211.55"/><polygon class="cls-1" points="101.43 212.88 98.67 213.54 98.39 212.46 101.11 211.67 101.43 212.88"/><polygon class="cls-1" points="95.92 214.2 93.16 214.86 92.95 214.06 95.67 213.26 95.92 214.2"/><polygon class="cls-1" points="90.4 215.53 87.65 216.19 87.5 215.65 90.22 214.85 90.4 215.53"/><polygon class="cls-1" points="84.89 216.85 82.13 217.51 82.06 217.24 84.78 216.45 84.89 216.85"/><polygon class="cls-1" points="79.38 218.18 76.62 218.84 76.62 218.84 79.34 218.04 79.38 218.18"/><polygon class="cls-1" points="188.19 186.18 190.95 185.52 192.38 190.87 189.65 191.66 188.19 186.18"/><polygon class="cls-1" points="193.71 184.86 196.46 184.2 197.82 189.27 195.1 190.07 193.71 184.86"/><polygon class="cls-1" points="199.22 183.53 201.98 182.87 203.26 187.68 200.54 188.48 199.22 183.53"/><polygon class="cls-1" points="204.74 182.21 207.49 181.54 208.7 186.09 205.98 186.88 204.74 182.21"/><polygon class="cls-1" points="210.25 180.88 213.01 180.22 214.15 184.5 211.42 185.29 210.25 180.88"/><polygon class="cls-1" points="215.76 179.56 218.52 178.89 219.59 182.9 216.87 183.7 215.76 179.56"/><polygon class="cls-1" points="221.28 178.23 224.03 177.57 225.03 181.31 222.31 182.11 221.28 178.23"/><polygon class="cls-1" points="226.79 176.9 229.55 176.24 230.47 179.72 227.75 180.51 226.79 176.9"/><polygon class="cls-1" points="232.3 175.58 235.06 174.91 235.92 178.12 233.19 178.92 232.3 175.58"/><polygon class="cls-1" points="237.82 174.25 240.57 173.59 241.36 176.53 238.64 177.33 237.82 174.25"/><polygon class="cls-1" points="243.33 172.93 246.09 172.26 246.8 174.94 244.08 175.74 243.33 172.93"/><polygon class="cls-1" points="248.85 171.6 251.6 170.94 252.24 173.35 249.52 174.14 248.85 171.6"/><polygon class="cls-1" points="254.36 170.28 257.12 169.61 257.69 171.75 254.97 172.55 254.36 170.28"/><polygon class="cls-1" points="259.87 168.95 262.63 168.29 263.13 170.16 260.41 170.96 259.87 168.95"/><polygon class="cls-1" points="265.39 167.62 268.14 166.96 268.57 168.57 265.85 169.36 265.39 167.62"/><polygon class="cls-1" points="270.9 166.3 273.66 165.63 274.01 166.97 271.29 167.77 270.9 166.3"/><polygon class="cls-1" points="276.42 164.97 279.17 164.31 279.46 165.38 276.74 166.18 276.42 164.97"/><polygon class="cls-1" points="281.93 163.65 284.69 162.98 284.9 163.79 282.18 164.59 281.93 163.65"/><polygon class="cls-1" points="287.44 162.32 290.2 161.66 290.34 162.2 287.62 162.99 287.44 162.32"/><polygon class="cls-1" points="292.96 161 295.71 160.33 295.79 160.6 293.06 161.4 292.96 161"/><polygon class="cls-1" points="298.47 159.67 301.23 159.01 301.23 159.01 298.51 159.81 298.47 159.67"/><polygon class="cls-1" points="190.93 190.93 188.87 192.88 184.96 188.97 186.92 186.92 190.93 190.93"/><polygon class="cls-1" points="186.81 194.84 184.76 196.79 181.05 193.07 183 191.02 186.81 194.84"/><polygon class="cls-1" points="182.7 198.74 180.64 200.69 177.13 197.17 179.09 195.12 182.7 198.74"/><polygon class="cls-1" points="178.59 202.65 176.53 204.6 173.21 201.27 175.17 199.22 178.59 202.65"/><polygon class="cls-1" points="174.48 206.55 172.42 208.5 169.29 205.37 171.25 203.32 174.48 206.55"/><polygon class="cls-1" points="170.36 210.46 168.31 212.41 165.38 209.47 167.34 207.42 170.36 210.46"/><polygon class="cls-1" points="166.25 214.36 164.19 216.31 161.46 213.57 163.42 211.52 166.25 214.36"/><polygon class="cls-1" points="162.14 218.27 160.08 220.22 157.54 217.67 159.5 215.62 162.14 218.27"/><polygon class="cls-1" points="158.03 222.17 155.97 224.12 153.63 221.77 155.58 219.72 158.03 222.17"/><polygon class="cls-1" points="153.91 226.08 151.86 228.03 149.71 225.87 151.67 223.82 153.91 226.08"/><polygon class="cls-1" points="149.8 229.98 147.75 231.93 145.79 229.97 147.75 227.92 149.8 229.98"/><polygon class="cls-1" points="145.69 233.89 143.63 235.84 141.88 234.07 143.83 232.02 145.69 233.89"/><polygon class="cls-1" points="141.58 237.79 139.52 239.74 137.96 238.18 139.92 236.12 141.58 237.79"/><polygon class="cls-1" points="137.47 241.7 135.41 243.65 134.04 242.28 136 240.22 137.47 241.7"/><polygon class="cls-1" points="133.35 245.6 131.3 247.55 130.12 246.38 132.08 244.33 133.35 245.6"/><polygon class="cls-1" points="129.24 249.51 127.19 251.46 126.21 250.48 128.16 248.43 129.24 249.51"/><polygon class="cls-1" points="125.13 253.41 123.07 255.36 122.29 254.58 124.25 252.53 125.13 253.41"/><polygon class="cls-1" points="121.02 257.32 118.96 259.27 118.37 258.68 120.33 256.63 121.02 257.32"/><polygon class="cls-1" points="116.91 261.22 114.85 263.17 114.45 262.78 116.41 260.73 116.91 261.22"/><polygon class="cls-1" points="112.79 265.13 110.74 267.08 110.54 266.88 112.5 264.83 112.79 265.13"/><polygon class="cls-1" points="108.68 269.03 106.62 270.98 106.62 270.98 108.58 268.93 108.68 269.03"/><polygon class="cls-1" points="186.92 186.92 188.98 184.96 192.88 188.88 190.93 190.93 186.92 186.92"/><polygon class="cls-1" points="191.03 183.01 193.09 181.06 196.8 184.78 194.84 186.83 191.03 183.01"/><polygon class="cls-1" points="195.15 179.11 197.2 177.15 200.72 180.68 198.76 182.73 195.15 179.11"/><polygon class="cls-1" points="199.26 175.2 201.31 173.25 204.63 176.58 202.68 178.63 199.26 175.2"/><polygon class="cls-1" points="203.37 171.3 205.43 169.34 208.55 172.48 206.59 174.53 203.37 171.3"/><polygon class="cls-1" points="207.48 167.39 209.54 165.44 212.47 168.38 210.51 170.43 207.48 167.39"/><polygon class="cls-1" points="211.59 163.49 213.65 161.53 216.39 164.28 214.43 166.33 211.59 163.49"/><polygon class="cls-1" points="215.71 159.58 217.76 157.63 220.3 160.18 218.34 162.23 215.71 159.58"/><polygon class="cls-1" points="219.82 155.68 221.88 153.72 224.22 156.07 222.26 158.13 219.82 155.68"/><polygon class="cls-1" points="223.93 151.77 225.99 149.82 228.14 151.97 226.18 154.02 223.93 151.77"/><polygon class="cls-1" points="228.04 147.87 230.1 145.91 232.06 147.87 230.1 149.92 228.04 147.87"/><polygon class="cls-1" points="232.16 143.96 234.21 142.01 235.97 143.77 234.01 145.82 232.16 143.96"/><polygon class="cls-1" points="236.27 140.06 238.32 138.1 239.89 139.67 237.93 141.72 236.27 140.06"/><polygon class="cls-1" points="240.38 136.15 242.44 134.2 243.81 135.57 241.85 137.62 240.38 136.15"/><polygon class="cls-1" points="244.49 132.25 246.55 130.29 247.72 131.47 245.76 133.52 244.49 132.25"/><polygon class="cls-1" points="248.6 128.34 250.66 126.39 251.64 127.37 249.68 129.42 248.6 128.34"/><polygon class="cls-1" points="252.72 124.44 254.77 122.48 255.56 123.27 253.6 125.32 252.72 124.44"/><polygon class="cls-1" points="256.83 120.53 258.89 118.58 259.48 119.17 257.52 121.22 256.83 120.53"/><polygon class="cls-1" points="260.94 116.63 263 114.67 263.39 115.07 261.43 117.12 260.94 116.63"/><polygon class="cls-1" points="265.05 112.72 267.11 110.77 267.31 110.97 265.35 113.02 265.05 112.72"/><polygon class="cls-1" points="269.17 108.81 271.22 106.86 271.23 106.87 269.27 108.92 269.17 108.81"/><polygon class="cls-1" points="191.66 189.66 190.86 192.38 185.51 190.94 186.19 188.19 191.66 189.66"/><polygon class="cls-1" points="190.05 195.1 189.25 197.82 184.17 196.45 184.84 193.7 190.05 195.1"/><polygon class="cls-1" points="188.44 200.54 187.64 203.26 182.83 201.96 183.5 199.21 188.44 200.54"/><polygon class="cls-1" points="186.83 205.97 186.03 208.69 181.49 207.47 182.16 204.72 186.83 205.97"/><polygon class="cls-1" points="185.22 211.41 184.42 214.13 180.15 212.98 180.82 210.22 185.22 211.41"/><polygon class="cls-1" points="183.62 216.85 182.81 219.57 178.81 218.49 179.48 215.74 183.62 216.85"/><polygon class="cls-1" points="182.01 222.29 181.2 225.01 177.46 224 178.13 221.25 182.01 222.29"/><polygon class="cls-1" points="180.4 227.73 179.59 230.45 176.12 229.51 176.79 226.75 180.4 227.73"/><polygon class="cls-1" points="178.79 233.16 177.99 235.88 174.78 235.02 175.45 232.26 178.79 233.16"/><polygon class="cls-1" points="177.18 238.6 176.38 241.32 173.44 240.53 174.11 237.78 177.18 238.6"/><polygon class="cls-1" points="175.57 244.04 174.77 246.76 172.09 246.04 172.77 243.28 175.57 244.04"/><polygon class="cls-1" points="173.96 249.48 173.16 252.2 170.75 251.55 171.42 248.79 173.96 249.48"/><polygon class="cls-1" points="172.35 254.92 171.55 257.64 169.41 257.06 170.08 254.3 172.35 254.92"/><polygon class="cls-1" points="170.75 260.36 169.94 263.07 168.07 262.57 168.74 259.81 170.75 260.36"/><polygon class="cls-1" points="169.14 265.79 168.33 268.51 166.73 268.08 167.4 265.32 169.14 265.79"/><polygon class="cls-1" points="167.53 271.23 166.72 273.95 165.38 273.59 166.06 270.83 167.53 271.23"/><polygon class="cls-1" points="165.92 276.67 165.12 279.39 164.04 279.1 164.71 276.34 165.92 276.67"/><polygon class="cls-1" points="164.31 282.11 163.51 284.83 162.7 284.61 163.37 281.85 164.31 282.11"/><polygon class="cls-1" points="162.7 287.55 161.9 290.26 161.36 290.12 162.03 287.36 162.7 287.55"/><polygon class="cls-1" points="161.09 292.98 160.29 295.7 160.02 295.63 160.69 292.87 161.09 292.98"/><polygon class="cls-1" points="159.49 298.42 158.68 301.14 158.68 301.14 159.35 298.38 159.49 298.42"/><polygon class="cls-1" points="186.19 188.19 186.99 185.47 192.33 186.91 191.66 189.66 186.19 188.19"/><polygon class="cls-1" points="187.79 182.75 188.6 180.03 193.67 181.4 193 184.15 187.79 182.75"/><polygon class="cls-1" points="189.4 177.31 190.21 174.59 195.01 175.89 194.34 178.64 189.4 177.31"/><polygon class="cls-1" points="191.01 171.87 191.82 169.15 196.36 170.38 195.69 173.13 191.01 171.87"/><polygon class="cls-1" points="192.62 166.43 193.43 163.72 197.7 164.87 197.03 167.62 192.62 166.43"/><polygon class="cls-1" points="194.23 161 195.03 158.28 199.04 159.36 198.37 162.11 194.23 161"/><polygon class="cls-1" points="195.84 155.56 196.64 152.84 200.38 153.85 199.71 156.6 195.84 155.56"/><polygon class="cls-1" points="197.45 150.12 198.25 147.4 201.73 148.34 201.05 151.09 197.45 150.12"/><polygon class="cls-1" points="199.06 144.68 199.86 141.96 203.07 142.83 202.4 145.58 199.06 144.68"/><polygon class="cls-1" points="200.67 139.24 201.47 136.53 204.41 137.32 203.74 140.07 200.67 139.24"/><polygon class="cls-1" points="202.27 133.81 203.08 131.09 205.75 131.81 205.08 134.56 202.27 133.81"/><polygon class="cls-1" points="203.88 128.37 204.69 125.65 207.09 126.3 206.42 129.05 203.88 128.37"/><polygon class="cls-1" points="205.49 122.93 206.3 120.21 208.44 120.79 207.76 123.54 205.49 122.93"/><polygon class="cls-1" points="207.1 117.49 207.91 114.77 209.78 115.28 209.11 118.03 207.1 117.49"/><polygon class="cls-1" points="208.71 112.05 209.51 109.33 211.12 109.77 210.45 112.52 208.71 112.05"/><polygon class="cls-1" points="210.32 106.62 211.12 103.9 212.46 104.26 211.79 107.01 210.32 106.62"/><polygon class="cls-1" points="211.93 101.18 212.73 98.46 213.8 98.75 213.13 101.5 211.93 101.18"/><polygon class="cls-1" points="213.54 95.74 214.34 93.02 215.15 93.24 214.47 95.99 213.54 95.74"/><polygon class="cls-1" points="215.14 90.3 215.95 87.58 216.49 87.73 215.82 90.48 215.14 90.3"/><polygon class="cls-1" points="216.75 84.86 217.56 82.14 217.83 82.22 217.16 84.97 216.75 84.86"/><polygon class="cls-1" points="218.36 79.43 219.17 76.71 219.17 76.71 218.5 79.46 218.36 79.43"/><circle class="cls-2" cx="188.92" cy="188.92" r="3.93"/><path class="cls-3" d="M188.91,199.66a10.78,10.78,0,0,1-5-1.24,10.72,10.72,0,1,1,5,1.24Z"/><path class="cls-1" d="M188.93,178.69a10.29,10.29,0,0,1,4.76,1.18,10.23,10.23,0,0,1-4.78,19.29,10.22,10.22,0,0,1-9.76-7.21,10.23,10.23,0,0,1,9.78-13.26m0-1a11.23,11.23,0,1,0,5.23,1.29,11.25,11.25,0,0,0-5.23-1.29Z"/><path class="cls-3" d="M188.88,233.62a44.7,44.7,0,1,1,39.58-23.87,44.68,44.68,0,0,1-39.58,23.87Z"/><path class="cls-1" d="M189,144.72a44.41,44.41,0,0,1,20.56,5.1,44.17,44.17,0,1,1-20.56-5.1m0-1a45.22,45.22,0,1,0,21,5.22,45.18,45.18,0,0,0-21-5.22Z"/></g></g></svg>