<svg xmlns="http://www.w3.org/2000/svg" viewBox="0 0 1111.58 608.99"><defs><style>.cls-1{fill:#231f20;}</style></defs><title>Asset 8</title><g id="Layer_2" data-name="Layer 2"><g id="Layer_1-2" data-name="Layer 1"><polygon class="cls-1" points="475.87 156.16 239.86 100.56 550.98 27.27 544.55 0 166.88 88.97 166.88 112.15 460.55 181.33 475.87 156.16"/><polygon class="cls-1" points="649.77 197.29 649.72 197.2 611.4 188.09 611.46 188.2 550.98 173.85 550.98 173.85 544.57 172.34 534.3 169.92 518.97 195.09 536.16 199.14 877.83 280.17 566.52 353.5 572.95 380.77 950.62 291.81 950.62 268.64 649.77 197.29"/><polygon class="cls-1" points="514.07 175.34 558.86 101.66 601.99 172.61 640.07 181.33 568.18 63.06 568.16 63.06 549.55 63.06 549.53 63.06 535.01 86.95 422.75 271.33 405.03 300.16 433.92 307.19 478.07 234.56 477.92 234.59 513.98 175.35 514.07 175.34"/><polygon class="cls-1" points="679.96 246.92 641.4 237.45 683.79 307.19 712.68 300.16 679.96 246.92"/><path class="cls-1" d="M148.94,605.8v.46H133.23l-16.4-35.53H32.11l-16.4,35.53H0v-.46L72,450.26h5ZM65.82,497.4,38.49,557.07h72.19L83.12,497.4q-5.93-13.66-8.65-20.73Q71.74,483.74,65.82,497.4Z"/><path class="cls-1" d="M303.35,451.39v156h-6.61L200.41,494q-3.42-4.1-11.16-12.75.67,7.06.68,14.8V606.26h-15v-156h6.38l96.1,113,11.39,13c-.31-3.8-.45-9.19-.45-16.17V451.39Z"/><path class="cls-1" d="M478.25,605.8v.46H462.53l-16.39-35.53H361.42L345,606.26H329.31v-.46l72-155.54h5ZM395.12,497.4l-27.33,59.67H440L412.43,497.4q-5.93-13.66-8.65-20.73Q401,483.74,395.12,497.4Z"/><path class="cls-1" d="M568.66,604a78,78,0,0,1-24.14-13.66l7.74-11.85a63.14,63.14,0,0,0,20.61,12.3,71.35,71.35,0,0,0,24.94,4.33q15.26,0,25.73-7.74a24.72,24.72,0,0,0,10.48-21q0-9.1-5-15.26A39.3,39.3,0,0,0,616.14,541,172.17,172.17,0,0,0,596,532.7q-21.65-7.51-34.39-17.65t-12.76-27.67a33.71,33.71,0,0,1,6.49-20.61,41.45,41.45,0,0,1,17.31-13.44,58.89,58.89,0,0,1,23.57-4.67,80.25,80.25,0,0,1,24.6,3.65,75.74,75.74,0,0,1,22.32,11.84l-6.83,11.39a72.55,72.55,0,0,0-18.91-9.8,64.53,64.53,0,0,0-20.49-3.19q-13.44,0-23.12,6.38t-9.68,17.76q0,8.9,5.13,14.81a39.07,39.07,0,0,0,12.52,9.56,183.81,183.81,0,0,0,19.7,8q22.77,8.21,35.19,18.45t12.41,28.24q0,13.21-6.83,23a44,44,0,0,1-18.45,15,62.48,62.48,0,0,1-26,5.24A85.22,85.22,0,0,1,568.66,604Z"/><path class="cls-1" d="M813,605.8v.46H797.3l-16.39-35.53H696.19l-16.4,35.53H664.08v-.46l72-155.54h5ZM729.89,497.4l-27.33,59.67h72.2L747.2,497.4q-5.93-13.66-8.65-20.73Q735.81,483.74,729.89,497.4Z"/><path class="cls-1" d="M967.42,451.39v156h-6.6L864.48,494q-3.4-4.1-11.15-12.75.67,7.06.68,14.8V606.26H839v-156h6.37l96.11,113,11.39,13q-.47-5.7-.46-16.17V451.39Z"/><path class="cls-1" d="M1000.22,601.7l77.43-121.61,2.73-4.55,7.06-10.71q-5.24.23-15.94.23h-67.41V451.39H1109.3V456L1031.42,578.7q-7.51,11.61-9.34,14.12,5.23-.23,14.35-.23h75.15v13.67H1000.22Z"/></g></g></svg>