<svg xmlns="http://www.w3.org/2000/svg" viewBox="0 0 348.69 320.31"><defs><style>.cls-1{fill:#57cbf5;}</style></defs><title>Asset 4</title><g id="Layer_2" data-name="Layer 2"><g id="Layer_1-2" data-name="Layer 1"><path class="cls-1" d="M32,70.16a13.42,13.42,0,0,0-1.19.77c-.57.41-1.11.86-1.11.86l-.27-.38s.62-.37,1.26-.69A13.62,13.62,0,0,1,32,70.16Z"/><polygon class="cls-1" points="27.7 73.69 25.8 75.8 24.92 74.89 27.08 73.05 27.7 73.69"/><polygon class="cls-1" points="24.11 77.97 22.48 80.29 20.94 79.06 22.84 76.95 24.11 77.97"/><polygon class="cls-1" points="21 82.6 19.57 85.05 17.42 83.63 19.11 81.35 21 82.6"/><polygon class="cls-1" points="18.28 87.46 17 89.99 14.29 88.47 15.78 86.06 18.28 87.46"/><polygon class="cls-1" points="15.85 92.47 14.73 95.07 11.49 93.52 12.83 91.02 15.85 92.47"/><polygon class="cls-1" points="13.72 97.61 12.73 100.26 9.02 98.73 10.19 96.15 13.72 97.61"/><polygon class="cls-1" points="11.84 102.84 10.97 105.54 6.86 104.08 7.89 101.44 11.84 102.84"/><polygon class="cls-1" points="10.21 108.15 9.49 110.89 4.98 109.55 5.87 106.86 10.21 108.15"/><polygon class="cls-1" points="8.85 113.53 8.22 116.29 3.42 115.12 4.14 112.38 8.85 113.53"/><polygon class="cls-1" points="7.7 118.95 7.21 121.74 2.15 120.77 2.74 117.99 7.7 118.95"/><polygon class="cls-1" points="6.81 124.42 6.46 127.23 1.15 126.46 1.61 123.67 6.81 124.42"/><polygon class="cls-1" points="6.18 129.91 5.93 132.74 0.48 132.22 0.76 129.4 6.18 129.91"/><polygon class="cls-1" points="5.75 135.43 5.64 138.26 0.1 138 0.25 135.17 5.75 135.43"/><polygon class="cls-1" points="5.59 140.96 5.61 143.79 0 143.79 0.01 140.96 5.59 140.96"/><polygon class="cls-1" points="5.7 146.49 5.84 149.32 0.19 149.59 0.06 146.76 5.7 146.49"/><polygon class="cls-1" points="6.02 152.01 6.27 154.83 0.71 155.37 0.42 152.55 6.02 152.01"/><polygon class="cls-1" points="6.58 157.51 6.97 160.32 1.51 161.11 1.09 158.31 6.58 157.51"/><polygon class="cls-1" points="7.41 162.99 7.93 165.77 2.58 166.81 2.02 164.03 7.41 162.99"/><polygon class="cls-1" points="8.48 168.42 9.1 171.19 3.97 172.44 3.24 169.7 8.48 168.42"/><polygon class="cls-1" points="9.75 173.82 10.49 176.55 5.63 177.98 4.78 175.28 9.75 173.82"/><polygon class="cls-1" points="11.27 179.16 12.14 181.85 7.54 183.43 6.57 180.77 11.27 179.16"/><polygon class="cls-1" points="13.02 184.43 13.98 187.09 9.74 188.77 8.62 186.17 13.02 184.43"/><polygon class="cls-1" points="14.96 189.65 16.04 192.27 12.19 193.99 10.95 191.44 14.96 189.65"/><polygon class="cls-1" points="17.13 194.79 18.31 197.37 14.86 199.09 13.51 196.59 17.13 194.79"/><polygon class="cls-1" points="19.49 199.86 20.75 202.4 17.79 204.03 16.32 201.61 19.49 199.86"/><polygon class="cls-1" points="22.03 204.86 23.4 207.34 20.92 208.85 19.35 206.48 22.03 204.86"/><polygon class="cls-1" points="24.76 209.77 26.19 212.22 24.27 213.49 22.58 211.21 24.76 209.77"/><polygon class="cls-1" points="27.65 214.61 29.16 217.01 27.8 217.98 26.02 215.77 27.65 214.61"/><polygon class="cls-1" points="30.68 219.37 32.27 221.73 31.54 222.29 29.66 220.16 30.68 219.37"/><polygon class="cls-1" points="33.86 224.07 35.49 226.4 35.47 226.42 33.48 224.38 33.86 224.07"/><polygon class="cls-1" points="136.23 134.55 136.15 131.71 136.7 131.74 136.23 134.55"/><polygon class="cls-1" points="136.28 128.81 136.6 125.99 138.08 126.28 137.32 129.01 136.28 128.81"/><polygon class="cls-1" points="137.13 123.09 137.83 120.34 140.01 121.04 138.97 123.68 137.13 123.09"/><path class="cls-1" d="M138.74,117.49l.51-1.33.52-1.32,2.73,1.26-.66,1.25-.68,1.25Z"/><polygon class="cls-1" points="141.07 112.11 142.43 109.62 145.48 111.49 143.87 113.83 141.07 112.11"/><polygon class="cls-1" points="144.06 107.03 145.73 104.73 148.95 107.29 147.09 109.44 144.06 107.03"/><polygon class="cls-1" points="147.76 102.33 149.76 100.32 152.86 103.62 150.73 105.49 147.76 102.33"/><polygon class="cls-1" points="152.21 98.25 154.51 96.6 157.25 100.64 154.85 102.16 152.21 98.25"/><polygon class="cls-1" points="157.25 94.94 159.77 93.65 162.01 98.31 159.43 99.48 157.25 94.94"/><polygon class="cls-1" points="162.73 92.42 165.42 91.52 167.04 96.65 164.33 97.46 162.73 92.42"/><polygon class="cls-1" points="168.54 90.72 171.33 90.23 172.24 95.68 169.43 96.11 168.54 90.72"/><polygon class="cls-1" points="174.58 89.91 177.41 89.86 177.47 95.48 174.63 95.5 174.58 89.91"/><polygon class="cls-1" points="180.73 90.1 183.53 90.55 182.6 96.14 179.81 95.67 180.73 90.1"/><polygon class="cls-1" points="186.82 91.44 189.46 92.46 187.44 97.72 184.79 96.71 186.82 91.44"/><polygon class="cls-1" points="192.55 94.08 194.87 95.7 191.74 100.28 189.39 98.71 192.55 94.08"/><polygon class="cls-1" points="197.49 98.05 199.34 100.2 195.27 103.78 193.38 101.68 197.49 98.05"/><polygon class="cls-1" points="201.18 102.95 202.58 105.42 198.14 108.11 196.64 105.7 201.18 102.95"/><path class="cls-1" d="M204,107.74l.22.35.49.7c.36.5.75.94.75.94l-3.61,3.34s-.58-.59-1.09-1.22c-.25-.31-.49-.63-.66-.87l-.29-.38Z"/><path class="cls-1" d="M207.07,111.27l.31.22c.18.13.43.29.7.45.52.32,1.1.62,1.1.62l-1.94,4.14s-.7-.3-1.42-.67c-.35-.18-.71-.38-1-.54l-.43-.26Z"/><polygon class="cls-1" points="211.7 113.74 214.26 114.97 212.59 118.77 209.94 117.75 211.7 113.74"/><path class="cls-1" d="M217,116.66l.39.3c.23.19.54.46.83.73a15.76,15.76,0,0,1,1.11,1.14l-2.61,2.53s-.46-.42-1-.79c-.25-.19-.5-.36-.7-.49l-.33-.22Z"/><path class="cls-1" d="M221.22,121.39l.24.41c.14.25.32.6.5,1,.34.69.62,1.41.62,1.41l-2.78,1.25s-.3-.58-.64-1.12c-.17-.27-.35-.54-.49-.73l-.24-.33Z"/><path class="cls-1" d="M223.47,127.1s0,.18.09.46.11.65.16,1c.1.75.14,1.5.14,1.5l-2.34.28s-.12-.66-.3-1.3c-.08-.32-.18-.63-.26-.87l-.13-.39Z"/><path class="cls-1" d="M223.8,133.1l-.05.46c0,.28-.08.65-.15,1-.13.74-.33,1.45-.33,1.45l-1.54-.29s.07-.68.09-1.35c0-.34,0-.68,0-.93s0-.43,0-.43Z"/><path class="cls-1" d="M222.26,138.8l-.2.41c-.13.25-.3.57-.48.89-.38.63-.81,1.21-.81,1.21l-.54-.32s.31-.63.55-1.28c.12-.32.23-.65.31-.89l.12-.42Z"/><polygon class="cls-1" points="218.84 143.44 218.55 143.69 218.78 143.39 218.84 143.44"/><polygon class="cls-1" points="195 140.88 197.84 141.11 197.74 141.67 195 140.88"/><polygon class="cls-1" points="200.7 141.56 203.48 142.18 203.02 143.65 200.38 142.59 200.7 141.56"/><polygon class="cls-1" points="206.31 143.04 208.96 144.05 207.97 146.19 205.48 144.82 206.31 143.04"/><path class="cls-1" d="M211.7,145.35l1.23.71,1.23.72-1.69,2.55-1.14-.84-1.14-.86Z"/><polygon class="cls-1" points="216.7 148.59 218.86 150.42 216.34 153.08 214.39 151.03 216.7 148.59"/><polygon class="cls-1" points="221.07 152.75 222.8 155 219.38 157.41 217.85 155.02 221.07 152.75"/><polygon class="cls-1" points="224.51 157.88 225.64 160.49 221.36 162.17 220.41 159.5 224.51 157.88"/><polygon class="cls-1" points="226.56 163.8 226.96 166.61 222.04 167.18 221.79 164.36 226.56 163.8"/><polygon class="cls-1" points="227.03 170.04 226.74 172.87 221.55 172.22 221.96 169.42 227.03 170.04"/><polygon class="cls-1" points="225.95 176.26 224.97 178.93 219.9 176.95 220.97 174.33 225.95 176.26"/><path class="cls-1" d="M223.36,181.93l-.27.42c-.17.25-.41.58-.65.91-.49.66-1,1.27-1,1.27l-4.13-3.73s.41-.44.78-.91l.49-.66.22-.33Z"/><path class="cls-1" d="M219,186.82l-.4.3c-.25.19-.59.43-.94.66-.7.47-1.44.86-1.44.86l-2.63-5s.51-.27,1-.58c.25-.16.48-.33.66-.46l.3-.23Z"/><polygon class="cls-1" points="213.08 189.95 210.36 190.73 208.75 185.31 211.47 184.52 213.08 189.95"/><path class="cls-1" d="M207.72,191.47l-.37.13c-.22.07-.5.17-.76.28a9.82,9.82,0,0,0-1,.48l-2.73-4.91s.78-.43,1.55-.75c.39-.16.77-.31,1.06-.41l.46-.16Z"/><path class="cls-1" d="M203.91,193.57l-.25.26c-.15.14-.33.35-.52.56-.36.44-.7.93-.7.93l-4.55-3.07s.44-.69,1-1.35c.27-.33.55-.66.78-.89l.36-.38Z"/><polygon class="cls-1" points="201.15 197.44 199.85 199.96 195.1 197.59 196.3 195.02 201.15 197.44"/><path class="cls-1" d="M198.51,202.55l-.22.38-.17.31-.13.2-.28.44c-.38.6-.77,1.19-.77,1.19l-4.33-2.63.7-1.23.26-.45.13-.21h0l-.07.12h0v0l0-.05,0-.09.21-.4Z"/><polygon class="cls-1" points="194.86 207.7 192.86 209.71 189.4 206.45 191.28 204.33 194.86 207.7"/><polygon class="cls-1" points="190.29 211.79 187.92 213.34 185.41 209.78 187.67 208.06 190.29 211.79"/><polygon class="cls-1" points="185.05 214.84 182.42 215.9 180.82 212.36 183.35 211.08 185.05 214.84"/><polygon class="cls-1" points="179.38 216.8 176.59 217.34 175.79 214.16 178.5 213.32 179.38 216.8"/><path class="cls-1" d="M173.49,217.68l-1.42,0h-1.42l-.17-2.62,1.4-.2,1.41-.17Z"/><polygon class="cls-1" points="167.59 217.43 164.8 216.9 165.03 215.05 167.86 215.2 167.59 217.43"/><polygon class="cls-1" points="161.92 216.02 159.31 214.89 159.61 214.01 162.37 214.69 161.92 216.02"/><polygon class="cls-1" points="156.79 213.43 155.22 212.28 156.99 213.09 156.79 213.43"/><path class="cls-1" d="M194.28,140.47s.57.44,1.12.9l1.11.91-.64.58-.8-1.19C194.67,141.08,194.28,140.47,194.28,140.47Z"/><path class="cls-1" d="M198.55,144.46s.44.56.86,1.14l.83,1.15-1.91,1.11-.58-1.3c-.3-.65-.57-1.31-.57-1.31Z"/><polygon class="cls-1" points="201.76 149.52 202.78 152.18 199.6 153.09 199.06 150.29 201.76 149.52"/><path class="cls-1" d="M203.45,155.32s0,.19.06.48.07.68.09,1.08c0,.78,0,1.57,0,1.57l-4.11-.36s.1-.62.15-1.25l0-.88c0-.24,0-.41,0-.41Z"/><path class="cls-1" d="M203.24,161.65s-.05.19-.12.49-.18.69-.3,1.07c-.24.78-.56,1.53-.56,1.53l-4.32-2s.3-.54.54-1.09c.12-.28.23-.56.31-.77l.13-.37Z"/><path class="cls-1" d="M200.75,167.61l-.27.41c-.17.25-.4.59-.64.91-.49.65-1,1.25-1,1.25l-3.78-3.6s.43-.42.83-.88c.2-.23.4-.46.54-.64l.24-.31Z"/><path class="cls-1" d="M196.4,172.43l-.4.31-.95.65c-.71.45-1.47.83-1.47.83l-2.4-4.95s.51-.24,1-.53l.68-.43.32-.21Z"/><path class="cls-1" d="M190.3,175.43l-.52.11c-.33.06-.77.13-1.22.17a13.73,13.73,0,0,1-1.83,0l.33-5.64a7.12,7.12,0,0,0,1,0c.26,0,.52-.06.71-.09l.35-.07Z"/><polygon class="cls-1" points="183.32 175.08 180.62 174.19 182.22 168.79 184.92 169.65 183.32 175.08"/><path class="cls-1" d="M178.92,174l-.3,0a5.83,5.83,0,0,0-.62.13,9,9,0,0,0-1,.34l-2.22-5a12.41,12.41,0,0,1,1.66-.64,10.19,10.19,0,0,1,1.28-.31l.46-.07.12,0Z"/><polygon class="cls-1" points="174.73 175.62 172.25 176.99 169.68 172.52 172.07 170.99 174.73 175.62"/><path class="cls-1" d="M169.2,178.25l-.47.14c-.29.09-.68.19-1.07.28-.79.19-1.59.29-1.59.29l-.85-4.59s.6-.15,1.18-.34l.79-.28.37-.15Z"/><path class="cls-1" d="M162.88,179.14l-.49,0-1.08-.09c-.79-.08-1.56-.23-1.56-.23l.5-4s.64,0,1.27,0l.86-.05.4,0Z"/><path class="cls-1" d="M156.73,178l-.45-.17c-.27-.1-.63-.25-1-.41-.71-.33-1.38-.71-1.38-.71l1.3-2.82s.61.21,1.24.38l.86.21.4.08Z"/><path class="cls-1" d="M151.38,175l-.36-.3c-.22-.19-.5-.45-.77-.71-.55-.53-1.05-1.1-1.05-1.1l1.36-1.43s.53.4,1.1.75c.28.18.57.35.79.47l.37.19Z"/><path class="cls-1" d="M147.48,170.39l-.22-.4c-.13-.25-.3-.58-.45-.92a14.41,14.41,0,0,1-.52-1.37l.47-.23s.4.59.84,1.12c.22.27.45.53.62.72l.3.32Z"/><path class="cls-1" d="M173.48,140.68l-1.22-.72-1.22-.74.35-.47,1.05,1Z"/><polygon class="cls-1" points="168.6 137.78 166.13 136.37 167.04 135.05 169.23 136.86 168.6 137.78"/><polygon class="cls-1" points="163.69 135.07 161.13 133.83 162.33 131.72 164.7 133.3 163.69 135.07"/><path class="cls-1" d="M158.65,132.84l-1.34-.47-.49-.17-.23-.08-.1,0-.05,0h-.05s.11,0,.06,0h0L156,132l1.07-2.95.41.17.08,0h0l0,0,.1,0,.22.11.47.22,1.28.61Z"/><polygon class="cls-1" points="153.52 131.35 150.7 130.96 151.42 127.27 154.17 127.96 153.52 131.35"/><polygon class="cls-1" points="148.31 130.89 145.48 131.11 145.33 126.83 148.17 126.86 148.31 130.89"/><path class="cls-1" d="M143.15,131.62l-.38.11L142,132c-.58.21-1.14.48-1.14.48L139,128.15s.75-.29,1.52-.51c.39-.12.77-.22,1.06-.28l.48-.11Z"/><polygon class="cls-1" points="138.82 133.6 136.57 135.33 133.64 131.23 135.98 129.63 138.82 133.6"/><polygon class="cls-1" points="134.73 137.04 132.71 139.01 129.08 135.15 131.2 133.24 134.73 137.04"/><polygon class="cls-1" points="130.82 140.91 128.9 142.99 124.91 139.22 126.89 137.19 130.82 140.91"/><polygon class="cls-1" points="127.42 144.83 125.89 147.2 121.2 144.12 122.78 141.77 127.42 144.83"/><path class="cls-1" d="M125,149.21s-.06.14-.14.36-.16.49-.24.77c-.16.56-.27,1.13-.27,1.13l-5.55-1.07s.16-.82.4-1.62c.11-.4.24-.79.35-1.09l.17-.47Z"/><path class="cls-1" d="M124.1,153.71v.37a7.24,7.24,0,0,0,0,.75,8.75,8.75,0,0,0,.19,1l-5.46,1.37a14.15,14.15,0,0,1-.33-1.74,11.65,11.65,0,0,1-.1-1.19c0-.31,0-.52,0-.52Z"/><path class="cls-1" d="M125.09,157.77l.19.3c.11.18.26.42.44.67.35.51.78,1.07.78,1.07l-4.4,3.39s-.44-.55-.92-1.2c-.24-.32-.48-.67-.65-.94l-.28-.45Z"/><path class="cls-1" d="M128.32,162.41l.26.47a10.69,10.69,0,0,1,.55,1.19,8.92,8.92,0,0,1,.4,1.34c.08.38.11.65.11.65l-5.36.75a3.2,3.2,0,0,0-.22-.73,3.79,3.79,0,0,0-.29-.57l-.17-.3Z"/><path class="cls-1" d="M129.18,170.08s-.08.2-.19.51-.3.71-.49,1.08c-.37.75-.76,1.39-.76,1.39l-4.52-2.52s.31-.59.55-1.12a7.28,7.28,0,0,0,.28-.71c.06-.19.11-.32.11-.32Z"/><path class="cls-1" d="M126.34,175.4l-.2.39s0,.09-.08.14l-.09.17c0,.12-.12.26-.18.39-.24.53-.42,1.08-.42,1.08l-4.68-1.35s.21-.81.51-1.59l.22-.57.12-.26c0-.09.08-.17.11-.25l.19-.4Z"/><path class="cls-1" d="M124.86,179.87l0,.39c0,.22,0,.53-.06.83,0,.61,0,1.23,0,1.23l-4.48.39s-.1-.8-.12-1.61c0-.4,0-.81,0-1.12s0-.49,0-.49Z"/><path class="cls-1" d="M125.06,184.77s0,.16.09.4.12.54.21.84c.17.61.38,1.21.38,1.21L122,188.76s-.33-.71-.61-1.44c-.14-.37-.26-.74-.35-1s-.14-.47-.14-.47Z"/><polygon class="cls-1" points="126.7 189.46 128.18 191.89 125.36 193.84 123.62 191.6 126.7 189.46"/><polygon class="cls-1" points="129.7 193.74 131.77 195.68 129.97 197.83 127.7 196.13 129.7 193.74"/><polygon class="cls-1" points="133.79 197.26 136.21 198.75 135.28 200.52 132.68 199.38 133.79 197.26"/><polygon class="cls-1" points="138.61 199.98 141.23 201.09 140.9 202.1 138.13 201.46 138.61 199.98"/><polygon class="cls-1" points="143.86 202.02 146.3 202.75 143.76 202.54 143.86 202.02"/><polygon class="cls-1" points="165.38 92.13 163.04 90.52 163.25 90.26 165.38 92.13"/><polygon class="cls-1" points="160.7 88.94 158.31 87.41 158.84 86.66 161.06 88.42 160.7 88.94"/><polygon class="cls-1" points="155.91 85.97 153.42 84.61 154.16 83.38 156.52 84.96 155.91 85.97"/><polygon class="cls-1" points="150.94 83.41 148.32 82.32 149.13 80.57 151.66 81.88 150.94 83.41"/><polygon class="cls-1" points="145.78 81.45 143.03 80.76 143.69 78.5 146.38 79.4 145.78 81.45"/><polygon class="cls-1" points="140.47 80.36 137.63 80.21 137.88 77.45 140.7 77.81 140.47 80.36"/><polygon class="cls-1" points="135.12 80.34 132.32 80.79 131.91 77.7 134.74 77.41 135.12 80.34"/><polygon class="cls-1" points="129.91 81.46 127.26 82.48 126.12 79.22 128.82 78.36 129.91 81.46"/><polygon class="cls-1" points="124.99 83.6 122.56 85.06 120.71 81.76 123.23 80.44 124.99 83.6"/><polygon class="cls-1" points="120.46 86.54 118.24 88.3 115.79 85.07 118.08 83.41 120.46 86.54"/><polygon class="cls-1" points="116.31 90.04 114.3 92.04 111.33 88.94 113.42 87.03 116.31 90.04"/><path class="cls-1" d="M112.52,94l-.88,1.06-.9,1.1-3.45-2.94.94-1.06,1-1.08Z"/><polygon class="cls-1" points="109.09 98.32 107.42 100.61 103.63 97.71 105.39 95.49 109.09 98.32"/><polygon class="cls-1" points="105.82 102.85 104.2 105.19 100.2 102.33 101.88 100.04 105.82 102.85"/><polygon class="cls-1" points="102.6 107.52 100.99 109.86 96.86 106.93 98.53 104.63 102.6 107.52"/><polygon class="cls-1" points="99.33 112.23 97.66 114.52 93.48 111.41 95.21 109.15 99.33 112.23"/><polygon class="cls-1" points="95.85 116.89 94.07 119.09 89.95 115.66 91.8 113.5 95.85 116.89"/><polygon class="cls-1" points="92.09 121.35 90.16 123.42 86.19 119.68 88.14 117.63 92.09 121.35"/><polygon class="cls-1" points="88.16 125.49 86.19 127.53 82.25 123.7 84.24 121.67 88.16 125.49"/><polygon class="cls-1" points="84.31 129.52 82.41 131.63 78.31 127.9 80.22 125.81 84.31 129.52"/><polygon class="cls-1" points="80.75 133.61 79.05 135.88 74.59 132.5 76.31 130.25 80.75 133.61"/><polygon class="cls-1" points="77.72 137.91 76.36 140.39 71.41 137.67 72.79 135.2 77.72 137.91"/><path class="cls-1" d="M75.42,142.6l-.15.42,0,0h0c.09-.27,0-.08,0-.14h0v0l0,.11c0,.07,0,.15-.07.23s-.1.32-.15.49l-.43,1.36L69.2,143.5s.21-.68.41-1.36l.15-.5a2,2,0,0,0,.07-.23c0-.12.08-.23.11-.34l.16-.41Z"/><polygon class="cls-1" points="74.08 147.48 73.69 150.29 68.14 149.53 68.51 146.72 74.08 147.48"/><polygon class="cls-1" points="73.49 152.82 73.39 155.66 67.84 155.48 67.92 152.65 73.49 152.82"/><polygon class="cls-1" points="73.37 158.38 73.39 161.21 67.89 161.28 67.85 158.44 73.37 158.38"/><polygon class="cls-1" points="73.44 163.96 73.55 166.79 68.1 167.03 67.97 164.2 73.44 163.96"/><polygon class="cls-1" points="73.73 169.42 74.02 172.24 68.7 172.87 68.34 170.06 73.73 169.42"/><polygon class="cls-1" points="74.41 174.73 75.04 177.49 69.97 178.72 69.27 175.97 74.41 174.73"/><polygon class="cls-1" points="75.76 179.82 76.8 182.45 72.11 184.38 71 181.78 75.76 179.82"/><polygon class="cls-1" points="77.88 184.67 79.3 187.12 75.07 189.65 73.59 187.23 77.88 184.67"/><polygon class="cls-1" points="80.7 189.2 82.44 191.43 78.71 194.41 76.91 192.22 80.7 189.2"/><polygon class="cls-1" points="84.1 193.35 86.09 195.36 82.94 198.62 80.86 196.69 84.1 193.35"/><polygon class="cls-1" points="88 197.09 90.22 198.85 87.62 202.26 85.33 200.59 88 197.09"/><polygon class="cls-1" points="92.34 200.36 94.75 201.86 92.68 205.34 90.21 203.94 92.34 200.36"/><polygon class="cls-1" points="97.04 203.12 99.59 204.36 98.03 207.8 95.42 206.7 97.04 203.12"/><polygon class="cls-1" points="102.03 205.41 104.68 206.4 103.57 209.66 100.86 208.83 102.03 205.41"/><polygon class="cls-1" points="107.24 207.23 109.97 207.98 109.24 211 106.46 210.41 107.24 207.23"/><polygon class="cls-1" points="112.61 208.59 115.39 209.12 114.97 211.84 112.16 211.49 112.61 208.59"/><polygon class="cls-1" points="118.1 209.55 120.92 209.89 120.72 212.21 117.89 212.08 118.1 209.55"/><polygon class="cls-1" points="123.67 210.14 126.51 210.29 126.47 212.19 123.64 212.25 123.67 210.14"/><path class="cls-1" d="M129.3,210.37l1.42,0h.94l.45,0,.1,1.4-.44.06-.45.05-.28,0-.27,0-1.41.12Z"/><path class="cls-1" d="M134.81,210s.68-.13,1.34-.32,1.3-.43,1.3-.43l.36.81s-.65.33-1.34.59-1.38.46-1.38.46Z"/><path class="cls-1" d="M139.87,208l.34-.26a7.93,7.93,0,0,0,.68-.65,5.24,5.24,0,0,0,.77-1.14l.26.12a5.85,5.85,0,0,1-.69,1.29,8.11,8.11,0,0,1-.65.77l-.33.32Z"/><polygon class="cls-1" points="115.5 211.76 115.88 214.58 115.59 214.6 115.5 211.76"/><polygon class="cls-1" points="116.63 217.25 117.73 219.87 116.9 220.17 116.08 217.45 116.63 217.25"/><polygon class="cls-1" points="119.04 222.27 120.62 224.63 119.45 225.34 118.08 222.86 119.04 222.27"/><polygon class="cls-1" points="122.33 226.76 124.23 228.87 122.82 230.05 121.09 227.8 122.33 226.76"/><path class="cls-1" d="M126.19,230.8l.33.3.71.64,1.06.94-1.55,1.63-1-1-.7-.72-.3-.32Z"/><polygon class="cls-1" points="130.41 234.41 132.68 236.11 131.02 238.17 128.88 236.32 130.41 234.41"/><polygon class="cls-1" points="134.93 237.64 137.32 239.16 135.63 241.65 133.33 240 134.93 237.64"/><polygon class="cls-1" points="139.66 240.52 142.17 241.84 140.54 244.73 138.11 243.27 139.66 240.52"/><polygon class="cls-1" points="144.61 242.99 147.21 244.1 145.69 247.41 143.15 246.15 144.61 242.99"/><polygon class="cls-1" points="149.73 245.06 152.41 245.98 151.05 249.67 148.41 248.62 149.73 245.06"/><polygon class="cls-1" points="154.98 246.75 157.73 247.47 156.59 251.47 153.88 250.65 154.98 246.75"/><polygon class="cls-1" points="160.34 248.04 163.14 248.55 162.27 252.85 159.5 252.23 160.34 248.04"/><polygon class="cls-1" points="165.78 248.92 168.6 249.21 168.04 253.79 165.23 253.39 165.78 248.92"/><polygon class="cls-1" points="171.25 249.37 174.09 249.45 173.88 254.26 171.05 254.09 171.25 249.37"/><polygon class="cls-1" points="176.73 249.42 179.57 249.29 179.74 254.24 176.91 254.31 176.73 249.42"/><polygon class="cls-1" points="182.19 249.06 185 248.69 185.59 253.75 182.77 254.04 182.19 249.06"/><polygon class="cls-1" points="187.58 248.25 190.35 247.65 191.39 252.78 188.6 253.31 187.58 248.25"/><polygon class="cls-1" points="192.87 246.99 195.58 246.16 197.09 251.32 194.36 252.08 192.87 246.99"/><polygon class="cls-1" points="198.03 245.3 200.66 244.25 202.66 249.33 200.01 250.35 198.03 245.3"/><polygon class="cls-1" points="202.95 243.21 205.44 241.86 208.04 246.7 205.53 248.03 202.95 243.21"/><path class="cls-1" d="M207.45,240.56l1.13-.86.77-.6.14-.11,0,0h0s-.19.16-.1.09h0l.05,0,.09-.08,3.58,4.24-.1.07-.21.17-.14.11-.78.59-1.13.86Z"/><polygon class="cls-1" points="211.43 237.19 213.36 235.11 217.43 238.94 215.49 241 211.43 237.19"/><polygon class="cls-1" points="215.07 233.09 216.87 230.89 221.21 234.48 219.4 236.66 215.07 233.09"/><polygon class="cls-1" points="218.74 228.63 220.62 226.5 224.84 230.26 222.96 232.39 218.74 228.63"/><polygon class="cls-1" points="222.91 224.22 225.08 222.4 228.7 226.69 226.54 228.53 222.91 224.22"/><path class="cls-1" d="M227.87,220.54l.1-.06.12-.07.31-.17.88-.42,1.27-.62,2.46,5-1.27.63-.88.43h0l.15-.08h0l0,0-.08,0-.12.07-.11.06Z"/><polygon class="cls-1" points="233.61 218.05 236.32 217.23 237.96 222.5 235.25 223.34 233.61 218.05"/><polygon class="cls-1" points="239.16 216.47 241.9 215.75 243.32 221.03 240.59 221.77 239.16 216.47"/><polygon class="cls-1" points="244.42 215.03 247.1 214.09 248.93 219.21 246.25 220.16 244.42 215.03"/><path class="cls-1" d="M249.28,213.11l.34-.19.71-.42a11.34,11.34,0,0,0,.94-.68l3.33,4.12s-.65.54-1.33,1c-.35.23-.69.45-1,.61l-.42.24Z"/><path class="cls-1" d="M252.87,210.27l.22-.28c.12-.17.28-.39.43-.63a6.08,6.08,0,0,0,.38-.67l.17-.33,4.66,2.2-.21.46c-.14.29-.34.67-.56,1s-.46.73-.65,1l-.31.42Z"/><path class="cls-1" d="M254.79,206.25l.08-.38c0-.22.1-.52.14-.82.09-.61.13-1.25.13-1.25l5,.31s0,.78-.13,1.58c0,.4-.1.8-.16,1.11s-.09.49-.09.49Z"/><polygon class="cls-1" points="255.22 201.21 255.14 198.41 260.01 198.17 260.16 201.03 255.22 201.21"/><polygon class="cls-1" points="255.03 195.59 254.92 192.75 259.63 192.5 259.83 195.32 255.03 195.59"/><polygon class="cls-1" points="254.8 189.96 254.66 187.13 259.13 186.81 259.39 189.63 254.8 189.96"/><polygon class="cls-1" points="254.48 184.37 254.25 181.54 258.48 181.11 258.83 183.92 254.48 184.37"/><polygon class="cls-1" points="253.98 178.8 253.63 175.99 257.62 175.42 258.08 178.22 253.98 178.8"/><polygon class="cls-1" points="253.23 173.29 252.75 170.49 256.45 169.76 257.07 172.53 253.23 173.29"/><polygon class="cls-1" points="252.22 167.83 251.57 165.07 254.9 164.18 255.71 166.9 252.22 167.83"/><path class="cls-1" d="M250.85,162.46s-.22-.68-.43-1.35c-.1-.33-.21-.65-.28-.9l-.15-.42,2.94-1.09.17.41c.09.26.22.6.36.94l.5,1.33Z"/><polygon class="cls-1" points="249.05 157.25 247.93 154.64 250.48 153.46 251.74 155.99 249.05 157.25"/><polygon class="cls-1" points="246.76 152.21 245.4 149.72 247.47 148.49 249 150.87 246.76 152.21"/><polygon class="cls-1" points="243.98 147.41 242.36 145.08 243.96 143.88 245.74 146.08 243.98 147.41"/><polygon class="cls-1" points="240.67 142.94 238.8 140.81 239.92 139.74 241.97 141.69 240.67 142.94"/><polygon class="cls-1" points="236.86 138.88 234.71 137.02 235.37 136.19 237.67 137.85 236.86 138.88"/><polygon class="cls-1" points="232.5 135.37 230.11 133.83 230.36 133.39 232.89 134.67 232.5 135.37"/><polygon class="cls-1" points="227.63 132.51 225.75 131.69 227.7 132.32 227.63 132.51"/><polygon class="cls-1" points="139.09 80.61 140.97 78.47 141.21 78.71 139.09 80.61"/><polygon class="cls-1" points="142.86 76.36 144.78 74.26 145.44 74.94 143.31 76.82 142.86 76.36"/><polygon class="cls-1" points="146.75 72.19 148.74 70.17 149.74 71.26 147.57 73.08 146.75 72.19"/><polygon class="cls-1" points="150.81 68.17 152.91 66.27 154.18 67.78 151.93 69.51 150.81 68.17"/><polygon class="cls-1" points="155.14 64.4 157.38 62.65 158.78 64.6 156.42 66.17 155.14 64.4"/><polygon class="cls-1" points="159.77 60.94 162.15 59.4 163.61 61.84 161.12 63.2 159.77 60.94"/><polygon class="cls-1" points="164.77 57.93 167.32 56.68 168.63 59.59 166.01 60.68 164.77 57.93"/><polygon class="cls-1" points="170.13 55.52 172.81 54.61 173.85 57.98 171.12 58.73 170.13 55.52"/><polygon class="cls-1" points="175.79 53.81 178.58 53.27 179.2 57.1 176.39 57.47 175.79 53.81"/><polygon class="cls-1" points="181.71 52.95 184.55 52.88 184.56 57 181.72 56.95 181.71 52.95"/><polygon class="cls-1" points="187.76 53.09 190.56 53.54 189.77 57.84 186.99 57.27 187.76 53.09"/><path class="cls-1" d="M193.65,54.36l.42.14.43.14.59.24,1.32.52-1.79,4.26-1.3-.58-.24-.11-.12,0-.05,0h0l.1,0h0l-.42-.17-.41-.16Z"/><polygon class="cls-1" points="199.28 56.8 201.71 58.26 199.18 62.37 196.79 60.84 199.28 56.8"/><polygon class="cls-1" points="204.26 60 206.53 61.71 203.49 65.65 201.27 63.89 204.26 60"/><polygon class="cls-1" points="208.83 63.54 211.02 65.34 207.71 69.27 205.57 67.41 208.83 63.54"/><polygon class="cls-1" points="213.18 67.11 215.4 68.87 212.06 72.97 209.89 71.15 213.18 67.11"/><polygon class="cls-1" points="217.51 70.44 219.85 72.03 216.77 76.49 214.46 74.85 217.51 70.44"/><polygon class="cls-1" points="221.95 73.28 224.49 74.52 222.07 79.44 219.53 78.17 221.95 73.28"/><path class="cls-1" d="M226.72,75.34l.42.13.44.12h0l-.14,0h0l.06,0,.13,0,.26.06,1.37.32L228,81.37,226.65,81,226.4,81l-.13,0-.26-.07-.44-.13-.42-.13Z"/><polygon class="cls-1" points="231.75 76.37 234.57 76.64 234.01 82.19 231.19 81.89 231.75 76.37"/><polygon class="cls-1" points="237.37 76.83 240.19 77.06 239.7 82.67 236.88 82.42 237.37 76.83"/><path class="cls-1" d="M243.3,77.46l1.39.27.26,0,.13,0,.25.06.44.11.43.11-1.35,5.49-.43-.1-.44-.11h-.12l.13,0h0l-.13,0-.26-.06L242.21,83Z"/><polygon class="cls-1" points="249.34 79.1 251.94 80.23 249.72 85.39 247.11 84.27 249.34 79.1"/><polygon class="cls-1" points="254.87 81.85 257.21 83.44 254.11 88.06 251.75 86.49 254.87 81.85"/><polygon class="cls-1" points="259.76 85.49 261.82 87.43 258.07 91.47 255.99 89.55 259.76 85.49"/><polygon class="cls-1" points="264 89.77 265.79 91.97 261.58 95.45 259.76 93.27 264 89.77"/><polygon class="cls-1" points="267.63 94.5 269.17 96.88 264.66 99.84 263.09 97.48 267.63 94.5"/><polygon class="cls-1" points="270.7 99.56 272 102.08 267.38 104.54 266.01 102.05 270.7 99.56"/><polygon class="cls-1" points="273.28 104.83 274.38 107.45 269.71 109.47 268.55 106.89 273.28 104.83"/><path class="cls-1" d="M275.43,110.24s.24.69.47,1.38.45,1.35.45,1.35l-4.66,1.61-.48-1.33-.49-1.29Z"/><polygon class="cls-1" points="277.22 115.8 277.97 118.53 273.38 119.86 272.56 117.15 277.22 115.8"/><polygon class="cls-1" points="278.65 121.44 279.21 124.22 274.78 125.2 274.11 122.45 278.65 121.44"/><polygon class="cls-1" points="279.7 127.17 280.05 129.98 275.82 130.62 275.34 127.82 279.7 127.17"/><polygon class="cls-1" points="280.32 132.97 280.46 135.81 276.43 136.09 276.17 133.26 280.32 132.97"/><polygon class="cls-1" points="280.48 138.82 280.35 141.65 276.6 141.58 276.57 138.75 280.48 138.82"/><polygon class="cls-1" points="280.07 144.64 279.66 147.45 276.28 147.06 276.51 144.24 280.07 144.64"/><polygon class="cls-1" points="279.08 150.4 278.38 153.15 275.4 152.48 275.93 149.7 279.08 150.4"/><polygon class="cls-1" points="277.47 156.02 276.44 158.66 273.92 157.78 274.75 155.07 277.47 156.02"/><polygon class="cls-1" points="275.2 161.38 273.87 163.88 271.85 162.9 272.99 160.3 275.2 161.38"/><polygon class="cls-1" points="272.32 166.41 270.69 168.73 269.18 167.75 270.63 165.31 272.32 166.41"/><polygon class="cls-1" points="268.82 171.01 266.88 173.09 265.92 172.27 267.66 170.02 268.82 171.01"/><polygon class="cls-1" points="264.75 175.07 262.52 176.84 262.06 176.31 264.09 174.33 264.75 175.07"/><polygon class="cls-1" points="260.13 178.44 257.65 179.82 257.62 179.78 259.92 178.11 260.13 178.44"/><polygon class="cls-1" points="236.67 81.1 235.03 78.78 235.29 78.61 236.67 81.1"/><polygon class="cls-1" points="233.4 76.46 231.76 74.13 232.54 73.65 233.92 76.13 233.4 76.46"/><polygon class="cls-1" points="230.15 71.8 228.54 69.47 229.75 68.71 231.14 71.18 230.15 71.8"/><polygon class="cls-1" points="226.93 67.13 225.32 64.79 226.94 63.78 228.35 66.24 226.93 67.13"/><polygon class="cls-1" points="223.73 62.45 222.12 60.11 224.09 58.86 225.52 61.31 223.73 62.45"/><polygon class="cls-1" points="220.51 57.81 218.85 55.51 221.13 53.99 222.62 56.4 220.51 57.81"/><polygon class="cls-1" points="217.19 53.28 215.46 51.03 217.96 49.21 219.56 51.56 217.19 53.28"/><polygon class="cls-1" points="213.72 48.9 211.87 46.75 214.53 44.59 216.25 46.84 213.72 48.9"/><polygon class="cls-1" points="210.03 44.77 208.03 42.77 210.76 40.18 212.64 42.3 210.03 44.77"/><polygon class="cls-1" points="206.07 40.98 203.89 39.16 206.54 36.12 208.64 38.03 206.07 40.98"/><polygon class="cls-1" points="201.82 37.62 199.44 36.08 201.83 32.55 204.14 34.19 201.82 37.62"/><polygon class="cls-1" points="197.23 34.86 194.65 33.67 196.62 29.62 199.15 30.91 197.23 34.86"/><path class="cls-1" d="M192.27,32.8l-.43-.14-.2-.06-.11,0-.06,0h0l.09,0h0l-.5-.14-1.37-.36L191,27.5l1.35.43.5.15.52.18.41.15Z"/><polygon class="cls-1" points="187.18 31.56 184.37 31.2 185.06 26.35 187.86 26.78 187.18 31.56"/><polygon class="cls-1" points="181.87 31.06 179.03 31.07 179.08 26.03 181.91 26.09 181.87 31.06"/><polygon class="cls-1" points="176.47 31.23 173.66 31.55 173.15 26.39 175.97 26.14 176.47 31.23"/><polygon class="cls-1" points="171.07 31.96 168.28 32.5 167.33 27.25 170.13 26.78 171.07 31.96"/><polygon class="cls-1" points="165.67 33.1 162.92 33.78 161.64 28.49 164.4 27.84 165.67 33.1"/><polygon class="cls-1" points="160.28 34.49 157.56 35.28 156.07 29.99 158.8 29.23 160.28 34.49"/><polygon class="cls-1" points="154.89 36.08 152.19 36.91 150.57 31.61 153.3 30.8 154.89 36.08"/><polygon class="cls-1" points="149.48 37.74 146.77 38.58 145.15 33.24 147.86 32.42 149.48 37.74"/><polygon class="cls-1" points="144.06 39.42 141.36 40.26 139.72 34.87 142.43 34.05 144.06 39.42"/><rect class="cls-1" x="135.05" y="35.98" width="2.83" height="5.66" transform="translate(-5.38 41.51) rotate(-16.97)"/><polygon class="cls-1" points="133.22 42.74 130.51 43.55 128.87 38.19 131.58 37.35 133.22 42.74"/><polygon class="cls-1" points="127.82 44.37 125.11 45.21 123.44 39.9 126.14 39.04 127.82 44.37"/><polygon class="cls-1" points="122.48 46.05 119.8 46.96 118.01 41.75 120.68 40.82 122.48 46.05"/><polygon class="cls-1" points="117.23 47.88 114.58 48.9 112.61 43.8 115.24 42.77 117.23 47.88"/><polygon class="cls-1" points="112.1 49.92 109.51 51.07 107.28 46.15 109.85 44.97 112.1 49.92"/><polygon class="cls-1" points="107.13 52.21 104.63 53.54 102.11 48.92 104.58 47.53 107.13 52.21"/><polygon class="cls-1" points="102.39 54.84 100.03 56.4 97.16 52.16 99.49 50.55 102.39 54.84"/><polygon class="cls-1" points="97.98 57.91 95.81 59.73 92.57 55.97 94.69 54.09 97.98 57.91"/><polygon class="cls-1" points="94.01 61.45 92.11 63.56 88.49 60.38 90.33 58.22 94.01 61.45"/><path class="cls-1" d="M90.58,65.53l-.8,1.17-.15.22-.07.1,0,0v0h0l0-.08h0l0,0c-.08.14-.17.27-.24.38l-.23.38-4-2.37.22-.39c.07-.11.14-.25.22-.39l.33-.52.75-1.2Z"/><polygon class="cls-1" points="87.81 70.03 86.61 72.6 82.61 70.84 83.69 68.22 87.81 70.03"/><polygon class="cls-1" points="85.68 75 84.82 77.69 80.86 76.51 81.61 73.78 85.68 75"/><polygon class="cls-1" points="84.14 80.25 83.53 83.02 79.71 82.26 80.2 79.47 84.14 80.25"/><polygon class="cls-1" points="83.03 85.68 82.58 88.48 79.04 88.02 79.32 85.19 83.03 85.68"/><polygon class="cls-1" points="82.2 91.22 81.86 94.04 78.64 93.74 78.81 90.91 82.2 91.22"/><polygon class="cls-1" points="81.55 96.84 81.25 99.66 78.35 99.43 78.49 96.6 81.55 96.84"/><polygon class="cls-1" points="80.93 102.48 80.61 105.29 78.11 105.1 78.22 102.27 80.93 102.48"/><polygon class="cls-1" points="80.28 108.11 79.95 110.93 77.88 110.77 77.99 107.93 80.28 108.11"/><polygon class="cls-1" points="79.63 113.75 79.29 116.56 77.66 116.44 77.76 113.6 79.63 113.75"/><polygon class="cls-1" points="78.94 119.38 78.59 122.2 77.48 122.11 77.57 119.27 78.94 119.38"/><polygon class="cls-1" points="78.24 125.01 77.86 127.83 77.32 127.78 77.39 124.95 78.24 125.01"/><polygon class="cls-1" points="77.49 130.64 77.2 132.84 77.25 130.62 77.49 130.64"/><polygon class="cls-1" points="77.8 133.44 74.96 133.51 74.96 133.25 77.8 133.44"/><polygon class="cls-1" points="72.16 133.78 69.36 134.25 69.27 133.47 72.1 133.26 72.16 133.78"/><polygon class="cls-1" points="66.66 134.88 63.94 135.69 63.63 134.49 66.41 133.89 66.66 134.88"/><polygon class="cls-1" points="61.37 136.65 58.78 137.81 58.15 136.25 60.82 135.3 61.37 136.65"/><polygon class="cls-1" points="56.37 139.08 53.94 140.54 52.93 138.75 55.45 137.44 56.37 139.08"/><polygon class="cls-1" points="51.72 142.09 49.51 143.86 48.06 141.93 50.38 140.3 51.72 142.09"/><polygon class="cls-1" points="47.54 145.66 45.58 147.71 43.64 145.73 45.72 143.81 47.54 145.66"/><path class="cls-1" d="M43.89,149.74,43,150.88c-.1.15-.21.29-.31.42a2.43,2.43,0,0,1-.14.2l0,0c0-.07,0,0,0,0l-.06.09-.25.36-2.49-1.8.27-.35.16-.21.16-.19.33-.4.9-1.1Z"/><polygon class="cls-1" points="40.85 154.25 39.52 156.75 36.6 155.11 38.05 152.67 40.85 154.25"/><polygon class="cls-1" points="38.47 159.13 37.49 161.79 34.11 160.46 35.22 157.85 38.47 159.13"/><polygon class="cls-1" points="36.77 164.28 36.14 167.05 32.35 166.1 33.1 163.36 36.77 164.28"/><polygon class="cls-1" points="35.73 169.6 35.45 172.42 31.36 171.94 31.74 169.13 35.73 169.6"/><polygon class="cls-1" points="35.37 174.99 35.46 177.82 31.14 177.88 31.16 175.04 35.37 174.99"/><polygon class="cls-1" points="35.71 180.35 36.17 183.15 31.7 183.81 31.34 181 35.71 180.35"/><polygon class="cls-1" points="36.76 185.6 37.6 188.31 33.07 189.63 32.33 186.9 36.76 185.6"/><polygon class="cls-1" points="38.54 190.72 39.66 193.32 35.16 195.18 34.1 192.55 38.54 190.72"/><polygon class="cls-1" points="40.81 196.13 41.72 198.81 36.97 200.34 36.12 197.63 40.81 196.13"/><path class="cls-1" d="M42.4,202.26s0,.71.07,1.41l0,.27v.51c0,.17,0,.32,0,.46s0,.44,0,.44L37.33,205s0-.18,0-.44l0-.45V204h0c0,.52,0,.14,0,.26h0v-.36l0-1.42Z"/><polygon class="cls-1" points="41.8 208.79 40.92 211.48 35.95 209.82 36.9 207.15 41.8 208.79"/><polygon class="cls-1" points="39.76 214.31 38.65 216.92 33.73 214.79 34.9 212.21 39.76 214.31"/><path class="cls-1" d="M37.78,219.24s-.2.68-.39,1.36c0,.17-.09.34-.14.5l-.06.23h0c0-.07,0,.18,0-.17h0v.08l0,.1-.09.44-5.32-1.13s0-.17.09-.43.06-.25.09-.39,0-.15.07-.23.09-.33.14-.5l.4-1.36Z"/><polygon class="cls-1" points="36.84 223.97 36.93 226.81 31.44 226.96 31.37 224.12 36.84 223.97"/><polygon class="cls-1" points="37.28 228.94 38.06 231.66 32.74 233.15 31.98 230.42 37.28 228.94"/><polygon class="cls-1" points="38.92 233.81 40.19 236.35 35.2 238.82 33.95 236.28 38.92 233.81"/><polygon class="cls-1" points="41.44 238.42 43.07 240.74 38.47 243.95 36.86 241.61 41.44 238.42"/><polygon class="cls-1" points="44.65 242.7 46.53 244.82 42.29 248.56 40.42 246.42 44.65 242.7"/><polygon class="cls-1" points="48.32 246.65 50.38 248.6 46.52 252.72 44.44 250.79 48.32 246.65"/><polygon class="cls-1" points="52.33 250.27 54.56 252.02 51.12 256.45 48.88 254.72 52.33 250.27"/><polygon class="cls-1" points="56.67 253.53 59.04 255.07 56.01 259.74 53.63 258.21 56.67 253.53"/><polygon class="cls-1" points="61.28 256.41 63.77 257.76 61.14 262.63 58.64 261.29 61.28 256.41"/><polygon class="cls-1" points="66.13 258.94 68.7 260.12 66.44 265.12 63.85 263.96 66.13 258.94"/><polygon class="cls-1" points="71.16 261.15 73.8 262.17 71.87 267.25 69.22 266.26 71.16 261.15"/><polygon class="cls-1" points="76.33 263.06 79.02 263.95 77.4 269.05 74.69 268.22 76.33 263.06"/><polygon class="cls-1" points="81.61 264.74 84.34 265.5 83 270.55 80.25 269.85 81.61 264.74"/><polygon class="cls-1" points="86.99 266.17 89.75 266.82 88.63 271.81 85.86 271.22 86.99 266.17"/><polygon class="cls-1" points="92.43 267.4 95.21 267.96 94.29 272.85 91.5 272.36 92.43 267.4"/><polygon class="cls-1" points="97.93 268.45 100.72 268.92 99.97 273.72 97.16 273.31 97.93 268.45"/><polygon class="cls-1" points="103.47 269.35 106.27 269.77 105.65 274.43 102.84 274.11 103.47 269.35"/><polygon class="cls-1" points="109.03 270.15 111.84 270.52 111.34 274.99 108.52 274.73 109.03 270.15"/><polygon class="cls-1" points="114.62 270.86 117.44 271.18 117.03 275.45 114.2 275.24 114.62 270.86"/><polygon class="cls-1" points="120.23 271.48 123.06 271.77 122.71 275.85 119.88 275.66 120.23 271.48"/><polygon class="cls-1" points="125.86 272.05 128.68 272.32 128.39 276.19 125.56 276.03 125.86 272.05"/><polygon class="cls-1" points="131.43 272.55 134.26 272.72 134.14 276.32 131.3 276.3 131.43 272.55"/><polygon class="cls-1" points="136.93 272.78 139.77 272.69 139.96 276.01 137.13 276.24 136.93 272.78"/><polygon class="cls-1" points="142.37 272.45 145.16 271.97 145.75 274.95 142.99 275.57 142.37 272.45"/><polygon class="cls-1" points="147.67 271.32 150.35 270.4 151.31 272.95 148.68 274.03 147.67 271.32"/><polygon class="cls-1" points="152.84 269.38 155.41 268.18 156.47 270.29 153.99 271.65 152.84 269.38"/><polygon class="cls-1" points="157.89 266.92 160.4 265.6 161.39 267.34 158.97 268.82 157.89 266.92"/><polygon class="cls-1" points="162.89 264.27 165.4 262.94 166.21 264.33 163.81 265.85 162.89 264.27"/><polygon class="cls-1" points="167.89 261.6 170.39 260.25 170.99 261.26 168.6 262.8 167.89 261.6"/><polygon class="cls-1" points="172.88 258.89 175.37 257.54 175.73 258.14 173.37 259.71 172.88 258.89"/><polygon class="cls-1" points="177.86 256.18 180.34 254.81 180.43 254.96 178.09 256.55 177.86 256.18"/><polygon class="cls-1" points="161.09 268.71 163.8 269.57 163.7 269.83 161.09 268.71"/><polygon class="cls-1" points="166.5 270.42 169.21 271.26 168.92 272.06 166.31 270.95 166.5 270.42"/><polygon class="cls-1" points="171.92 272.1 174.63 272.92 174.2 274.17 171.56 273.13 171.92 272.1"/><polygon class="cls-1" points="177.34 273.71 180.07 274.46 179.53 276.16 176.87 275.19 177.34 273.71"/><polygon class="cls-1" points="182.79 275.18 185.54 275.86 184.95 277.95 182.25 277.09 182.79 275.18"/><polygon class="cls-1" points="188.26 276.46 191.04 277.02 190.45 279.52 187.71 278.77 188.26 276.46"/><polygon class="cls-1" points="193.77 277.5 196.57 277.92 196.05 280.8 193.28 280.21 193.77 277.5"/><polygon class="cls-1" points="199.29 278.25 202.11 278.51 201.73 281.71 198.93 281.31 199.29 278.25"/><path class="cls-1" d="M204.83,278.65l1.42,0h1.39l-.12,3.53-.44,0-.45,0-.56,0-1.41-.11Z"/><polygon class="cls-1" points="210.34 278.63 213.16 278.44 213.33 282.27 210.49 282.31 210.34 278.63"/><polygon class="cls-1" points="215.81 278.15 218.61 277.72 219.15 281.75 216.33 282.07 215.81 278.15"/><polygon class="cls-1" points="221.2 277.19 223.94 276.5 224.91 280.67 222.14 281.26 221.2 277.19"/><polygon class="cls-1" points="226.44 275.73 229.1 274.75 230.57 279.01 227.87 279.88 226.44 275.73"/><polygon class="cls-1" points="231.47 273.73 234.01 272.47 236.04 276.73 233.45 277.9 231.47 273.73"/><polygon class="cls-1" points="236.21 271.2 238.58 269.64 241.21 273.75 238.8 275.25 236.21 271.2"/><polygon class="cls-1" points="240.57 268.14 242.7 266.27 245.96 270.08 243.78 271.89 240.57 268.14"/><polygon class="cls-1" points="244.42 264.52 246.25 262.36 250.14 265.73 248.26 267.84 244.42 264.52"/><polygon class="cls-1" points="247.75 260.29 249.33 257.93 253.67 260.93 252.04 263.25 247.75 260.29"/><polygon class="cls-1" points="251 255.46 252.71 253.19 256.98 256.51 255.22 258.74 251 255.46"/><polygon class="cls-1" points="255.04 250.69 257.21 248.88 260.71 253.07 258.52 254.88 255.04 250.69"/><polygon class="cls-1" points="260 247.01 262.48 245.64 265.14 250.46 262.65 251.81 260 247.01"/><polygon class="cls-1" points="265.26 244.29 267.85 243.15 270.09 248.23 267.48 249.35 265.26 244.29"/><polygon class="cls-1" points="270.48 242.02 273.08 240.89 275.28 246.03 272.67 247.14 270.48 242.02"/><polygon class="cls-1" points="275.64 239.76 278.22 238.6 280.52 243.75 277.92 244.89 275.64 239.76"/><rect class="cls-1" x="281.81" y="236.55" width="2.83" height="5.66" transform="translate(-75.58 145.7) rotate(-25.57)"/><polygon class="cls-1" points="285.71 235 288.22 233.68 290.85 238.63 288.36 239.98 285.71 235"/><polygon class="cls-1" points="290.55 232.37 292.98 230.91 295.87 235.66 293.45 237.15 290.55 232.37"/><polygon class="cls-1" points="295.17 229.47 297.48 227.83 300.7 232.32 298.41 233.98 295.17 229.47"/><polygon class="cls-1" points="299.51 226.25 301.65 224.39 305.26 228.52 303.13 230.39 299.51 226.25"/><polygon class="cls-1" points="303.46 222.64 305.37 220.55 309.4 224.2 307.51 226.31 303.46 222.64"/><polygon class="cls-1" points="306.93 218.63 308.56 216.31 312.95 219.32 311.37 221.68 306.93 218.63"/><path class="cls-1" d="M309.86,214.15s.08-.16.21-.39l.1-.19h0l0,.09h0l0,0,0,0,.06-.11c.07-.15.15-.31.23-.46l.62-1.28,4.68,2.25-.59,1.28c-.08.16-.15.32-.22.47l-.15.31c0,.07-.07.13-.1.19l-.2.39Z"/><polygon class="cls-1" points="312.05 209.42 312.94 206.73 317.76 208.27 316.93 210.98 312.05 209.42"/><polygon class="cls-1" points="313.56 204.33 314.07 201.54 318.92 202.37 318.48 205.16 313.56 204.33"/><polygon class="cls-1" points="314.36 199.03 314.51 196.2 319.3 196.4 319.21 199.23 314.36 199.03"/><polygon class="cls-1" points="314.52 193.63 314.38 190.8 318.95 190.49 319.2 193.31 314.52 193.63"/><polygon class="cls-1" points="314.13 188.19 313.73 185.39 318.03 184.69 318.54 187.48 314.13 188.19"/><polygon class="cls-1" points="313.25 182.76 312.64 179.99 316.66 179.02 317.38 181.76 313.25 182.76"/><polygon class="cls-1" points="311.97 177.37 311.18 174.65 314.92 173.49 315.81 176.18 311.97 177.37"/><polygon class="cls-1" points="310.36 172.04 309.45 169.35 312.85 168.1 313.9 170.73 310.36 172.04"/><polygon class="cls-1" points="308.5 166.76 307.48 164.12 310.54 162.84 311.71 165.42 308.5 166.76"/><polygon class="cls-1" points="306.43 161.54 305.31 158.94 308.05 157.68 309.31 160.22 306.43 161.54"/><polygon class="cls-1" points="304.18 156.38 303.01 153.8 305.4 152.62 306.74 155.12 304.18 156.38"/><polygon class="cls-1" points="301.83 151.27 300.57 148.73 302.58 147.64 304.01 150.09 301.83 151.27"/><polygon class="cls-1" points="299.26 146.33 297.77 143.91 299.35 142.86 301 145.17 299.26 146.33"/><polygon class="cls-1" points="296.23 141.68 294.44 139.47 295.53 138.51 297.49 140.57 296.23 141.68"/><polygon class="cls-1" points="292.56 137.53 290.35 135.75 290.93 134.97 293.28 136.55 292.56 137.53"/><path class="cls-1" d="M288,134.38s-.63-.3-1.29-.53-1.33-.39-1.33-.39l.07-.42a13,13,0,0,1,1.42.27c.71.17,1.39.41,1.39.41Z"/><polygon class="cls-1" points="282.6 133.13 281.15 133.21 282.58 132.99 282.6 133.13"/><polygon class="cls-1" points="164.54 30.02 167.07 28.73 167.18 28.98 164.54 30.02"/><polygon class="cls-1" points="169.6 27.44 172.13 26.15 172.46 26.9 169.82 27.94 169.6 27.44"/><polygon class="cls-1" points="174.66 24.88 177.2 23.61 177.72 24.78 175.09 25.84 174.66 24.88"/><polygon class="cls-1" points="179.74 22.34 182.27 21.07 182.99 22.65 180.35 23.71 179.74 22.34"/><polygon class="cls-1" points="184.81 19.81 187.36 18.56 188.23 20.49 185.61 21.57 184.81 19.81"/><polygon class="cls-1" points="189.91 17.31 192.45 16.06 193.48 18.33 190.85 19.41 189.91 17.31"/><polygon class="cls-1" points="195 14.81 197.54 13.56 198.72 16.17 196.1 17.25 195 14.81"/><polygon class="cls-1" points="200.1 12.33 202.65 11.1 203.95 13.97 201.33 15.07 200.1 12.33"/><polygon class="cls-1" points="205.22 9.86 207.79 8.65 209.17 11.81 206.54 12.88 205.22 9.86"/><polygon class="cls-1" points="210.46 7.46 213.09 6.39 214.41 9.89 211.73 10.83 210.46 7.46"/><polygon class="cls-1" points="215.94 5.38 218.66 4.58 219.7 8.44 216.95 9.13 215.94 5.38"/><polygon class="cls-1" points="221.73 3.92 224.53 3.55 225 7.73 222.19 7.99 221.73 3.92"/><polygon class="cls-1" points="227.81 3.45 230.63 3.67 230.21 8.06 227.4 7.74 227.81 3.45"/><polygon class="cls-1" points="233.91 4.32 236.61 5.17 235.13 9.55 232.47 8.6 233.91 4.32"/><polygon class="cls-1" points="239.64 6.51 242.1 7.91 239.67 12.06 237.25 10.59 239.64 6.51"/><polygon class="cls-1" points="244.74 9.73 246.96 11.5 243.84 15.33 241.66 13.52 244.74 9.73"/><polygon class="cls-1" points="249.25 13.55 251.28 15.52 247.72 19.12 245.73 17.1 249.25 13.55"/><polygon class="cls-1" points="253.34 17.65 255.28 19.73 251.44 23.23 249.55 21.11 253.34 17.65"/><polygon class="cls-1" points="257.21 21.84 259.12 23.94 255.15 27.48 253.28 25.35 257.21 21.84"/><polygon class="cls-1" points="261 25.96 262.96 28.01 259 31.74 257.08 29.66 261 25.96"/><polygon class="cls-1" points="264.84 29.88 266.92 31.8 263.2 35.82 261.13 33.88 264.84 29.88"/><path class="cls-1" d="M268.93,33.47l.1.07.19.14.79.58,1.14.84-3.28,4.44-1.14-.85-.78-.58-.42-.32Z"/><polygon class="cls-1" points="273.29 36.49 275.74 37.92 272.9 42.71 270.47 41.26 273.29 36.49"/><polygon class="cls-1" points="278.07 39.17 280.61 40.44 278.08 45.44 275.56 44.16 278.07 39.17"/><polygon class="cls-1" points="283.09 41.61 285.66 42.79 283.29 47.91 280.72 46.71 283.09 41.61"/><polygon class="cls-1" points="288.25 43.96 290.81 45.16 288.44 50.28 285.86 49.1 288.25 43.96"/><polygon class="cls-1" points="293.45 46.44 295.98 47.72 293.44 52.73 290.91 51.46 293.45 46.44"/><polygon class="cls-1" points="298.64 49.18 301.06 50.65 298.2 55.42 295.77 53.98 298.64 49.18"/><polygon class="cls-1" points="303.67 52.4 305.92 54.12 302.58 58.52 300.31 56.81 303.67 52.4"/><polygon class="cls-1" points="308.35 56.26 310.32 58.29 306.41 62.12 304.42 60.11 308.35 56.26"/><polygon class="cls-1" points="312.41 60.83 314.02 63.16 309.57 66.27 307.94 63.95 312.41 60.83"/><polygon class="cls-1" points="315.65 65.96 316.87 68.52 312.09 70.88 310.81 68.35 315.65 65.96"/><polygon class="cls-1" points="318.05 71.46 318.94 74.15 314.02 75.84 313.07 73.17 318.05 71.46"/><polygon class="cls-1" points="319.76 77.13 320.38 79.89 315.44 81.06 314.76 78.31 319.76 77.13"/><polygon class="cls-1" points="320.93 82.86 321.34 85.67 316.46 86.45 315.98 83.66 320.93 82.86"/><polygon class="cls-1" points="321.7 88.61 321.97 91.43 317.18 91.95 316.85 89.13 321.7 88.61"/><polygon class="cls-1" points="322.19 94.33 322.35 97.16 317.74 97.52 317.47 94.69 322.19 94.33"/><polygon class="cls-1" points="322.49 100.02 322.62 102.86 318.21 103.14 317.98 100.31 322.49 100.02"/><polygon class="cls-1" points="322.74 105.69 322.87 108.52 318.68 108.79 318.45 105.96 322.74 105.69"/><polygon class="cls-1" points="323 111.35 323.13 114.19 319.15 114.44 318.91 111.61 323 111.35"/><polygon class="cls-1" points="323.25 117.02 323.36 119.85 319.63 120.09 319.38 117.27 323.25 117.02"/><polygon class="cls-1" points="323.47 122.69 323.58 125.52 320.14 125.74 319.89 122.91 323.47 122.69"/><polygon class="cls-1" points="323.68 128.35 323.79 131.19 320.65 131.39 320.4 128.56 323.68 128.35"/><polygon class="cls-1" points="323.9 134.02 324 136.85 321.16 137.04 320.9 134.21 323.9 134.02"/><polygon class="cls-1" points="324.07 139.73 324.07 142.57 321.59 142.65 321.4 139.82 324.07 139.73"/><polygon class="cls-1" points="323.98 145.48 323.79 148.31 321.69 148.24 321.69 145.4 323.98 145.48"/><polygon class="cls-1" points="323.47 151.23 323 154.03 321.3 153.8 321.57 150.98 323.47 151.23"/><polygon class="cls-1" points="322.31 156.9 321.42 159.59 320.21 159.25 320.88 156.49 322.31 156.9"/><polygon class="cls-1" points="320.23 162.3 318.79 164.74 318.1 164.37 319.32 161.81 320.23 162.3"/><path class="cls-1" d="M317,167s-.48.53-1,1-1.09.93-1.09.93l-.16-.18s.52-.48,1-1,.89-1.08.89-1.08Z"/><polygon class="cls-1" points="206.88 10.99 204.46 9.49 204.61 9.28 206.88 10.99"/><polygon class="cls-1" points="201.97 8.22 199.35 7.12 199.68 6.42 202.19 7.74 201.97 8.22"/><polygon class="cls-1" points="196.72 6.23 193.99 5.49 194.36 4.31 197.03 5.26 196.72 6.23"/><polygon class="cls-1" points="191.28 4.92 188.48 4.47 188.81 2.83 191.56 3.49 191.28 4.92"/><polygon class="cls-1" points="185.74 4.15 182.91 3.92 183.14 1.89 185.95 2.3 185.74 4.15"/><polygon class="cls-1" points="180.13 3.78 177.3 3.71 177.43 1.31 180.26 1.56 180.13 3.78"/><polygon class="cls-1" points="174.51 3.71 171.68 3.75 171.72 0.99 174.56 1.13 174.51 3.71"/><polygon class="cls-1" points="168.87 3.82 166.04 3.89 166.03 0.83 168.86 0.9 168.87 3.82"/><polygon class="cls-1" points="163.2 3.97 160.37 4.05 160.35 0.71 163.19 0.77 163.2 3.97"/><polygon class="cls-1" points="157.53 4.13 154.7 4.21 154.69 0.59 157.52 0.65 157.53 4.13"/><polygon class="cls-1" points="151.86 4.29 149.03 4.37 149.02 0.48 151.85 0.53 151.86 4.29"/><polygon class="cls-1" points="146.19 4.43 143.36 4.49 143.35 0.4 146.18 0.44 146.19 4.43"/><polygon class="cls-1" points="140.53 4.55 137.69 4.61 137.68 0.31 140.51 0.35 140.53 4.55"/><polygon class="cls-1" points="134.86 4.67 132.02 4.73 132.01 0.23 134.84 0.27 134.86 4.67"/><polygon class="cls-1" points="129.19 4.79 126.35 4.85 126.34 0.15 129.17 0.19 129.19 4.79"/><polygon class="cls-1" points="123.52 4.91 120.69 4.95 120.67 0.09 123.5 0.12 123.52 4.91"/><polygon class="cls-1" points="117.85 4.99 115.02 5.03 115 0.05 117.83 0.07 117.85 4.99"/><polygon class="cls-1" points="112.18 5.07 109.35 5.11 109.33 0.01 112.16 0.03 112.18 5.07"/><polygon class="cls-1" points="106.58 5.16 103.74 5.26 103.59 0.04 106.43 0 106.58 5.16"/><polygon class="cls-1" points="101.2 5.47 98.39 5.88 97.67 0.58 100.48 0.23 101.2 5.47"/><path class="cls-1" d="M96.13,6.42l-1.34.46-.5.16-.11,0-.06,0h0l.15-.06h0l-.2.08-.41.16-2-5L92,2.11l.2-.08.27-.1.11,0,.5-.16,1.34-.44Z"/><polygon class="cls-1" points="91.53 8.35 89.15 9.89 86.2 5.28 88.59 3.75 91.53 8.35"/><polygon class="cls-1" points="87.29 11.37 85.21 13.29 81.49 9.2 83.59 7.3 87.29 11.37"/><polygon class="cls-1" points="83.42 15.13 81.53 17.24 77.41 13.51 79.31 11.41 83.42 15.13"/><polygon class="cls-1" points="79.76 19.32 77.95 21.5 73.66 17.9 75.49 15.73 79.76 19.32"/><polygon class="cls-1" points="76.14 23.68 74.33 25.86 70 22.24 71.83 20.07 76.14 23.68"/><polygon class="cls-1" points="72.52 28.04 70.7 30.21 66.36 26.58 68.18 24.4 72.52 28.04"/><polygon class="cls-1" points="68.87 32.38 67.05 34.54 62.74 30.94 64.55 28.76 68.87 32.38"/><polygon class="cls-1" points="65.22 36.71 63.39 38.88 59.12 35.3 60.93 33.12 65.22 36.71"/><polygon class="cls-1" points="61.56 41.05 59.74 43.21 55.49 39.66 57.3 37.48 61.56 41.05"/><polygon class="cls-1" points="57.91 45.38 56.08 47.55 51.87 44.02 53.68 41.84 57.91 45.38"/><polygon class="cls-1" points="54.26 49.72 52.43 51.88 48.25 48.39 50.06 46.21 54.26 49.72"/><polygon class="cls-1" points="50.6 54.05 48.77 56.21 44.64 52.76 46.44 50.57 50.6 54.05"/><polygon class="cls-1" points="46.93 58.35 45.1 60.52 41.05 57.16 42.83 54.96 46.93 58.35"/><polygon class="cls-1" points="43.35 62.63 41.59 64.86 37.53 61.72 39.23 59.46 43.35 62.63"/><polygon class="cls-1" points="40.01 66.99 38.42 69.33 34.24 66.56 35.78 64.19 40.01 66.99"/><polygon class="cls-1" points="37.09 71.52 35.77 74.02 31.41 71.79 32.68 69.26 37.09 71.52"/><path class="cls-1" d="M34.75,76.33s-.06.17-.16.42-.1.27-.16.42l-.09.24,0,.12v0h0c0,.08,0-.11,0-.09h0v0l0,.07c-.23.67-.45,1.34-.45,1.34l-4.53-1.43.4-1.36.2-.58c.06-.16.11-.31.15-.43l.15-.42Z"/><polygon class="cls-1" points="33.16 81.38 32.59 84.15 28.11 83.3 28.59 80.51 33.16 81.38"/><polygon class="cls-1" points="32.17 86.77 31.82 89.58 27.5 89.12 27.75 86.3 32.17 86.77"/><polygon class="cls-1" points="31.54 92.35 31.27 95.17 27.14 94.84 27.31 92.01 31.54 92.35"/><polygon class="cls-1" points="30.99 97.99 30.72 100.81 26.79 100.5 26.96 97.67 30.99 97.99"/><polygon class="cls-1" points="30.44 103.63 30.15 106.45 26.48 106.17 26.63 103.33 30.44 103.63"/><polygon class="cls-1" points="29.86 109.27 29.57 112.09 26.18 111.83 26.33 109 29.86 109.27"/><polygon class="cls-1" points="29.28 114.91 28.98 117.73 25.88 117.49 26.03 114.66 29.28 114.91"/><polygon class="cls-1" points="28.7 120.53 28.46 123.35 25.63 123.18 25.73 120.35 28.7 120.53"/><polygon class="cls-1" points="28.27 126.11 28.17 128.94 25.7 128.93 25.62 126.09 28.27 126.11"/><polygon class="cls-1" points="28.16 131.69 28.28 134.52 26.17 134.67 25.88 131.85 28.16 131.69"/><polygon class="cls-1" points="28.52 137.24 28.92 140.05 27.2 140.36 26.61 137.58 28.52 137.24"/><polygon class="cls-1" points="29.48 142.71 30.29 145.43 29.05 145.85 28.03 143.2 29.48 142.71"/><polygon class="cls-1" points="31.31 147.93 32.68 150.42 31.93 150.87 30.38 148.5 31.31 147.93"/><path class="cls-1" d="M34.31,152.64s.45.53.95,1,1,1,1,1l-.21.28s-.59-.41-1.14-.88-1.06-1-1.06-1Z"/><polygon class="cls-1" points="38.55 156.29 39.39 156.78 38.51 156.37 38.55 156.29"/><polygon class="cls-1" points="318.44 103.41 319.88 105.86 319.62 105.99 318.44 103.41"/><polygon class="cls-1" points="321.3 108.31 322.7 110.78 321.92 111.17 320.77 108.58 321.3 108.31"/><polygon class="cls-1" points="324.07 113.27 325.43 115.76 324.21 116.36 323.07 113.76 324.07 113.27"/><polygon class="cls-1" points="326.78 118.27 328.1 120.78 326.44 121.57 325.33 118.96 326.78 118.27"/><polygon class="cls-1" points="329.4 123.31 330.68 125.84 328.65 126.78 327.55 124.17 329.4 123.31"/><polygon class="cls-1" points="331.95 128.4 333.2 130.94 330.8 132.02 329.73 129.39 331.95 128.4"/><polygon class="cls-1" points="334.45 133.51 335.65 136.07 332.9 137.27 331.85 134.64 334.45 133.51"/><polygon class="cls-1" points="336.85 138.66 338.02 141.25 334.97 142.53 333.94 139.89 336.85 138.66"/><polygon class="cls-1" points="339.19 143.85 340.34 146.46 336.98 147.82 335.98 145.16 339.19 143.85"/><polygon class="cls-1" points="341.47 149.1 342.54 151.73 338.87 153.12 337.93 150.44 341.47 149.1"/><polygon class="cls-1" points="343.57 154.45 344.52 157.12 340.59 158.44 339.75 155.73 343.57 154.45"/><polygon class="cls-1" points="345.44 159.93 346.25 162.65 342.03 163.8 341.33 161.05 345.44 159.93"/><polygon class="cls-1" points="347 165.54 347.61 168.31 343.09 169.21 342.6 166.42 347 165.54"/><polygon class="cls-1" points="348.13 171.31 348.48 174.13 343.69 174.63 343.44 171.81 348.13 171.31"/><polygon class="cls-1" points="348.67 177.23 348.69 180.06 343.74 180.03 343.79 177.19 348.67 177.23"/><polygon class="cls-1" points="348.49 183.23 348.13 186.04 343.1 185.32 343.53 182.52 348.49 183.23"/><path class="cls-1" d="M347.47,189.19s-.19.68-.39,1.37l-.27.93-.09.31a2,2,0,0,1-.07.21l-4.93-1.7h0l0,.1,0-.09.09-.3c.08-.26.19-.59.29-.93.22-.68.43-1.35.43-1.35Z"/><polygon class="cls-1" points="345.55 194.94 344.36 197.51 339.52 195.22 340.77 192.67 345.55 194.94"/><polygon class="cls-1" points="342.88 200.27 341.39 202.69 336.76 199.82 338.26 197.42 342.88 200.27"/><polygon class="cls-1" points="339.7 205.2 338.05 207.5 333.6 204.29 335.27 202 339.7 205.2"/><polygon class="cls-1" points="336.3 209.84 334.58 212.1 330.19 208.72 331.93 206.48 336.3 209.84"/><polygon class="cls-1" points="332.84 214.35 331.12 216.6 326.7 213.18 328.45 210.94 332.84 214.35"/><polygon class="cls-1" points="329.39 218.84 327.66 221.09 323.21 217.64 324.96 215.41 329.39 218.84"/><polygon class="cls-1" points="325.93 223.34 324.2 225.58 319.73 222.11 321.47 219.88 325.93 223.34"/><polygon class="cls-1" points="322.45 227.82 320.71 230.05 316.27 226.61 318 224.36 322.45 227.82"/><polygon class="cls-1" points="318.96 232.28 317.22 234.52 312.81 231.1 314.54 228.86 318.96 232.28"/><polygon class="cls-1" points="315.47 236.75 313.72 238.99 309.36 235.6 311.09 233.35 315.47 236.75"/><polygon class="cls-1" points="311.96 241.23 310.2 243.45 305.89 240.06 307.63 237.83 311.96 241.23"/><polygon class="cls-1" points="308.4 245.69 306.61 247.89 302.38 244.47 304.16 242.26 308.4 245.69"/><polygon class="cls-1" points="304.75 250.1 302.89 252.25 298.83 248.82 300.63 246.63 304.75 250.1"/><polygon class="cls-1" points="300.97 254.42 299.05 256.51 295.19 253.06 297.05 250.93 300.97 254.42"/><polygon class="cls-1" points="297.05 258.64 295.06 260.66 291.42 257.18 293.35 255.11 297.05 258.64"/><polygon class="cls-1" points="292.96 262.72 290.89 264.66 287.5 261.12 289.52 259.13 292.96 262.72"/><polygon class="cls-1" points="288.68 266.63 286.51 268.45 283.4 264.86 285.52 262.97 288.68 266.63"/><polygon class="cls-1" points="284.17 270.29 281.88 271.97 279.13 268.37 281.35 266.6 284.17 270.29"/><polygon class="cls-1" points="279.41 273.65 277.02 275.17 274.65 271.58 276.98 269.97 279.41 273.65"/><polygon class="cls-1" points="274.42 276.68 271.91 278 269.94 274.44 272.4 273.01 274.42 276.68"/><polygon class="cls-1" points="269.2 279.29 266.58 280.38 265.02 276.89 267.59 275.67 269.2 279.29"/><polygon class="cls-1" points="263.75 281.41 261.05 282.25 259.91 278.92 262.57 277.93 263.75 281.41"/><polygon class="cls-1" points="258.16 283 255.39 283.6 254.62 280.5 257.36 279.75 258.16 283"/><polygon class="cls-1" points="252.48 284.12 249.67 284.51 249.19 281.67 251.98 281.12 252.48 284.12"/><polygon class="cls-1" points="246.76 284.8 243.93 284.98 243.68 282.5 246.49 282.12 246.76 284.8"/><polygon class="cls-1" points="241.03 285.1 238.19 285.13 238.09 283.05 240.92 282.81 241.03 285.1"/><polygon class="cls-1" points="235.32 285.11 232.48 285.02 232.47 283.35 235.3 283.22 235.32 285.11"/><polygon class="cls-1" points="229.62 284.87 226.79 284.68 226.82 283.5 229.66 283.45 229.62 284.87"/><polygon class="cls-1" points="223.95 284.46 221.13 284.19 221.16 283.55 223.99 283.53 223.95 284.46"/><polygon class="cls-1" points="218.3 283.91 215.47 283.61 215.48 283.55 218.31 283.55 218.3 283.91"/><path class="cls-1" d="M248.08,282.43a10.45,10.45,0,0,1,.13,1.42,10,10,0,0,1-.06,1.44l-.39-.07a12.23,12.23,0,0,0,.25-1.38A12.66,12.66,0,0,0,248.08,282.43Z"/><path class="cls-1" d="M247.43,288.11s-.07.16-.17.42-.27.58-.45.9a14.38,14.38,0,0,1-.77,1.25l-.87-.67a13.58,13.58,0,0,0,.84-1.07c.2-.28.39-.57.52-.79l.22-.37Z"/><polygon class="cls-1" points="244.13 292.98 242.04 294.89 240.95 293.57 243.24 291.89 244.13 292.98"/><polygon class="cls-1" points="239.61 296.66 237.19 298.14 236.1 296.17 238.65 294.92 239.61 296.66"/><polygon class="cls-1" points="234.55 299.52 231.98 300.71 230.93 298.15 233.6 297.2 234.55 299.52"/><polygon class="cls-1" points="229.3 301.81 226.67 302.87 225.58 299.87 228.28 299 229.3 301.81"/><polygon class="cls-1" points="224.03 303.93 221.4 304.98 220.18 301.6 222.88 300.74 224.03 303.93"/><polygon class="cls-1" points="218.74 306.03 216.09 307.04 214.79 303.3 217.49 302.44 218.74 306.03"/><polygon class="cls-1" points="213.41 308.04 210.75 309.01 209.39 304.98 212.1 304.14 213.41 308.04"/><polygon class="cls-1" points="208.05 309.98 205.37 310.91 203.99 306.57 206.71 305.78 208.05 309.98"/><polygon class="cls-1" points="202.64 311.83 199.94 312.69 198.56 308.07 201.3 307.32 202.64 311.83"/><polygon class="cls-1" points="197.17 313.53 194.44 314.32 193.13 309.5 195.88 308.79 197.17 313.53"/><polygon class="cls-1" points="191.64 315.09 188.89 315.8 187.67 310.77 190.44 310.15 191.64 315.09"/><polygon class="cls-1" points="186.06 316.49 183.3 317.12 182.2 311.88 184.98 311.34 186.06 316.49"/><polygon class="cls-1" points="180.43 317.71 177.64 318.21 176.71 312.83 179.5 312.36 180.43 317.71"/><polygon class="cls-1" points="174.74 318.68 171.93 319.07 171.2 313.6 174.01 313.24 174.74 318.68"/><polygon class="cls-1" points="169.01 319.42 166.19 319.69 165.67 314.14 168.49 313.89 169.01 319.42"/><polygon class="cls-1" points="163.26 319.92 160.44 320.09 160.12 314.47 162.95 314.32 163.26 319.92"/><polygon class="cls-1" points="157.52 320.23 154.69 320.29 154.54 314.65 157.37 314.56 157.52 320.23"/><polygon class="cls-1" points="151.79 320.31 148.96 320.31 148.94 314.72 151.78 314.7 151.79 320.31"/><polygon class="cls-1" points="146.08 320.27 143.24 320.22 143.32 314.69 146.16 314.72 146.08 320.27"/><polygon class="cls-1" points="140.38 320.15 137.55 320.06 137.68 314.6 140.51 314.65 140.38 320.15"/><path class="cls-1" d="M134.7,320l-1.41-.05-1.43-.07.17-5.36,2.82.05Z"/><path class="cls-1" d="M128.76,319.57l-.49-.08c-.3-.05-.71-.13-1.12-.23a14.58,14.58,0,0,1-1.66-.49l1.74-4.9a9.28,9.28,0,0,0,1.06.28c.28.06.58.11.8.14l.39,0Z"/><path class="cls-1" d="M122.27,317l-.12-.11-.32-.28a11.12,11.12,0,0,1-.87-.91,14.55,14.55,0,0,1-1-1.36l4.11-2.87a9.94,9.94,0,0,0,.71.89,5.3,5.3,0,0,0,.5.48l.23.19Z"/><path class="cls-1" d="M118.4,311.79l-.23-.38-.12-.18h0s-.07-.11.07.1h0l0,0,0-.05-.07-.1c-.09-.14-.2-.28-.3-.43l-.8-1.16,3.93-2.82.84,1.14.31.42.22.3.12.18.24.37Z"/><polygon class="cls-1" points="115.36 307.69 113.37 305.68 116.55 302.38 118.64 304.3 115.36 307.69"/><polygon class="cls-1" points="111.46 304 109.22 302.25 111.77 298.81 114.1 300.44 111.46 304"/><polygon class="cls-1" points="107.03 300.68 104.69 299.09 106.84 295.74 109.27 297.2 107.03 300.68"/><polygon class="cls-1" points="102.34 297.54 99.99 295.95 101.92 292.88 104.37 294.3 102.34 297.54"/><polygon class="cls-1" points="97.6 294.28 95.33 292.58 97.16 289.94 99.55 291.47 97.6 294.28"/><polygon class="cls-1" points="93 290.68 90.93 288.75 92.76 286.63 94.97 288.41 93 290.68"/><polygon class="cls-1" points="88.87 286.46 87.19 284.18 88.96 282.75 90.84 284.88 88.87 286.46"/><path class="cls-1" d="M85.67,281.56l-.07-.14-.13-.29-.4-.9-.57-1.29,1.56-.79s.34.62.69,1.23c.18.31.35.62.48.86s.12.21.15.28,0,.06,0,0l0,0,0,0Z"/><polygon class="cls-1" points="83.47 276.28 82.37 273.65 83.37 273.16 84.75 275.65 83.47 276.28"/><path class="cls-1" d="M81.08,271.22s-.37-.59-.8-1.13a9.74,9.74,0,0,0-.93-1l.26-.32a10.74,10.74,0,0,1,1.11.95,12.33,12.33,0,0,1,1,1.07Z"/><polygon class="cls-1" points="77.05 267.47 76.92 267.41 77.06 267.45 77.05 267.47"/><polygon class="cls-1" points="214.9 47.76 217.57 46.77 217.7 47.25 214.9 47.76"/><polygon class="cls-1" points="220.32 45.91 223.07 45.22 223.31 46.56 220.48 46.85 220.32 45.91"/><polygon class="cls-1" points="225.93 44.65 228.74 44.23 228.92 46.33 226.08 46.41 225.93 44.65"/><polygon class="cls-1" points="231.65 43.94 234.48 43.75 234.5 46.53 231.66 46.38 231.65 43.94"/><polygon class="cls-1" points="237.43 43.71 240.27 43.77 240.04 47.07 237.22 46.75 237.43 43.71"/><polygon class="cls-1" points="243.22 43.94 246.04 44.19 245.53 47.99 242.74 47.48 243.22 43.94"/><polygon class="cls-1" points="248.98 44.58 251.78 45.05 250.95 49.19 248.19 48.54 248.98 44.58"/><polygon class="cls-1" points="254.7 45.63 257.46 46.27 256.28 50.72 253.56 49.9 254.7 45.63"/><polygon class="cls-1" points="260.35 47.04 263.06 47.88 261.51 52.53 258.84 51.58 260.35 47.04"/><polygon class="cls-1" points="265.88 48.85 268.53 49.86 266.61 54.62 264 53.5 265.88 48.85"/><polygon class="cls-1" points="271.31 51.03 273.88 52.21 271.55 57.03 269.02 55.74 271.31 51.03"/><polygon class="cls-1" points="276.6 53.61 279.05 55.02 276.28 59.75 273.84 58.3 276.6 53.61"/><polygon class="cls-1" points="281.68 56.71 283.97 58.38 280.68 62.85 278.4 61.16 281.68 56.71"/><polygon class="cls-1" points="286.49 60.49 288.49 62.51 284.46 66.44 282.48 64.4 286.49 60.49"/><polygon class="cls-1" points="290.62 65.35 291.99 67.83 287.09 70.61 285.69 68.15 290.62 65.35"/><polygon class="cls-1" points="293.33 70.72 294.38 73.36 289.24 75.46 288.15 72.84 293.33 70.72"/><polygon class="cls-1" points="295.4 76.21 296.26 78.91 291.05 80.61 290.15 77.93 295.4 76.21"/><path class="cls-1" d="M297.09,81.76l.36,1.37c.17.68.35,1.37.35,1.37l-5.17,1.42-.4-1.36c-.2-.68-.39-1.36-.39-1.36Z"/><polygon class="cls-1" points="298.46 87.36 299.05 90.13 294.05 91.3 293.35 88.55 298.46 87.36"/><polygon class="cls-1" points="299.61 92.99 300.1 95.78 295.3 96.74 294.69 93.97 299.61 92.99"/><polygon class="cls-1" points="300.57 98.65 300.94 101.46 296.41 102.22 295.85 99.44 300.57 98.65"/><polygon class="cls-1" points="301.29 104.34 301.58 107.17 297.41 107.74 296.93 104.94 301.29 104.34"/><polygon class="cls-1" points="301.84 110.06 302.04 112.89 298.24 113.29 297.84 110.48 301.84 110.06"/><polygon class="cls-1" points="302.17 115.79 302.25 118.63 298.96 118.87 298.62 116.05 302.17 115.79"/><polygon class="cls-1" points="302.27 121.53 302.23 124.36 299.48 124.46 299.25 121.63 302.27 121.53"/><polygon class="cls-1" points="302.09 127.26 301.88 130.1 299.8 130.06 299.68 127.22 302.09 127.26"/><polygon class="cls-1" points="301.56 132.99 301.12 135.79 299.8 135.68 299.85 132.84 301.56 132.99"/><polygon class="cls-1" points="300.52 138.64 299.72 141.37 299.29 141.27 299.63 138.45 300.52 138.64"/></g></g></svg>