<svg xmlns="http://www.w3.org/2000/svg" viewBox="0 0 326.37 326.37"><defs><style>.cls-1{fill:#43b871;}</style></defs><title>Asset 6</title><g id="Layer_2" data-name="Layer 2"><g id="Layer_1-2" data-name="Layer 1"><polygon class="cls-1" points="133.7 133.35 131.97 131.11 132.2 130.95 133.7 133.35"/><polygon class="cls-1" points="130.27 128.82 128.63 126.51 129.34 126.06 130.74 128.52 130.27 128.82"/><polygon class="cls-1" points="127.04 124.13 125.53 121.72 126.67 121.07 127.98 123.59 127.04 124.13"/><polygon class="cls-1" points="124.07 119.24 122.71 116.75 124.3 115.96 125.46 118.55 124.07 119.24"/><polygon class="cls-1" points="121.42 114.14 120.27 111.55 122.27 110.74 123.25 113.4 121.42 114.14"/><polygon class="cls-1" points="119.19 108.82 118.27 106.13 120.7 105.39 121.44 108.14 119.19 108.82"/><polygon class="cls-1" points="117.46 103.25 116.87 100.48 119.73 99.96 120.16 102.77 117.46 103.25"/><polygon class="cls-1" points="116.46 97.46 116.28 94.63 119.48 94.51 119.51 97.35 116.46 97.46"/><polygon class="cls-1" points="116.35 91.51 116.65 88.69 120.13 89.17 119.67 91.97 116.35 91.51"/><path class="cls-1" d="M117.3,85.58l.42-1.35c.1-.34.21-.68.29-.93s.07-.23.09-.31l0,0,0-.12v0l3.55,1.39,0,0h0l0-.08h0v0l0,0a3.05,3.05,0,0,1-.11.3l-.33.92c-.25.66-.49,1.33-.49,1.33Z"/><polygon class="cls-1" points="119.22 80.07 120.31 77.46 124.01 79.09 122.82 81.66 119.22 80.07"/><polygon class="cls-1" points="121.49 74.79 122.69 72.22 126.52 74.1 125.22 76.62 121.49 74.79"/><polygon class="cls-1" points="123.97 69.62 125.24 67.09 129.2 69.18 127.83 71.66 123.97 69.62"/><polygon class="cls-1" points="126.58 64.53 127.91 62.03 132.01 64.32 130.58 66.77 126.58 64.53"/><polygon class="cls-1" points="129.29 59.51 130.68 57.04 134.89 59.48 133.44 61.92 129.29 59.51"/><polygon class="cls-1" points="132.11 54.55 133.53 52.1 137.82 54.66 136.34 57.08 132.11 54.55"/><polygon class="cls-1" points="134.97 49.64 136.41 47.2 140.79 49.85 139.3 52.26 134.97 49.64"/><polygon class="cls-1" points="137.85 44.75 139.3 42.31 143.79 45.04 142.29 47.45 137.85 44.75"/><polygon class="cls-1" points="140.74 39.88 142.18 37.44 146.79 40.23 145.29 42.63 140.74 39.88"/><polygon class="cls-1" points="143.62 35.01 145.06 32.57 149.74 35.37 148.28 37.8 143.62 35.01"/><polygon class="cls-1" points="146.48 30.15 147.91 27.7 152.65 30.47 151.21 32.91 146.48 30.15"/><polygon class="cls-1" points="149.29 25.27 150.68 22.8 155.5 25.52 154.1 27.99 149.29 25.27"/><polygon class="cls-1" points="152.02 20.36 153.35 17.86 158.27 20.51 156.91 23 152.02 20.36"/><path class="cls-1" d="M154.63,15.4l.2-.4.21-.42.17-.31.19-.32a9.72,9.72,0,0,1,1.24-1.62l4,3.93a4.08,4.08,0,0,0-.5.63l-.08.13-.07.15a3.64,3.64,0,0,0-.2.39c-.13.23-.21.39-.21.39Z"/><path class="cls-1" d="M160.11,10.11l.11,0,.46-.14a8.67,8.67,0,0,1,1.37-.28,9.46,9.46,0,0,1,2,0l-.54,5.64a4.08,4.08,0,0,0-.8,0,3.34,3.34,0,0,0-.53.1l-.16.05-.11,0Z"/><path class="cls-1" d="M168,10.93l.1.06s.27.17.4.27a8.88,8.88,0,0,1,1.09.91,9.48,9.48,0,0,1,1.29,1.58l-4.72,3.06a4,4,0,0,0-.5-.61,5.25,5.25,0,0,0-.42-.34l-.13-.08-.1-.07Z"/><polygon class="cls-1" points="172.3 16.47 173.62 18.98 168.69 21.59 167.35 19.09 172.3 16.47"/><polygon class="cls-1" points="174.94 21.42 176.31 23.9 171.48 26.6 170.09 24.13 174.94 21.42"/><polygon class="cls-1" points="177.69 26.32 179.1 28.78 174.35 31.54 172.92 29.09 177.69 26.32"/><polygon class="cls-1" points="180.51 31.2 181.95 33.64 177.27 36.43 175.81 34 180.51 31.2"/><polygon class="cls-1" points="183.39 36.06 184.83 38.51 180.25 41.28 178.75 38.87 183.39 36.06"/><polygon class="cls-1" points="186.27 40.94 187.72 43.38 183.25 46.09 181.75 43.69 186.27 40.94"/><polygon class="cls-1" points="189.16 45.82 190.6 48.27 186.25 50.91 184.75 48.5 189.16 45.82"/><polygon class="cls-1" points="192.04 50.72 193.47 53.17 189.21 55.72 187.73 53.3 192.04 50.72"/><polygon class="cls-1" points="194.9 55.65 196.31 58.11 192.14 60.55 190.68 58.12 194.9 55.65"/><polygon class="cls-1" points="197.71 60.62 199.05 63.12 195.01 65.4 193.57 62.96 197.71 60.62"/><polygon class="cls-1" points="200.4 65.66 201.7 68.19 197.8 70.28 196.41 67.81 200.4 65.66"/><polygon class="cls-1" points="202.99 70.78 204.22 73.34 200.46 75.23 199.13 72.72 202.99 70.78"/><polygon class="cls-1" points="205.43 75.99 206.56 78.59 202.93 80.25 201.7 77.69 205.43 75.99"/><path class="cls-1" d="M207.66,81.3s.24.67.49,1.33l.19.54c0,.16.1.31.15.43s.14.42.14.42l-3.5,1.29L205,84.9c0-.12-.1-.27-.16-.42l-.1-.24-.08-.19-.56-1.3Z"/><polygon class="cls-1" points="209.43 87.05 209.88 89.85 206.51 90.49 205.91 87.72 209.43 87.05"/><polygon class="cls-1" points="210.1 92.98 210.05 95.81 206.93 95.84 206.83 93.01 210.1 92.98"/><polygon class="cls-1" points="209.76 98.86 209.28 101.66 206.49 101.25 206.82 98.44 209.76 98.86"/><polygon class="cls-1" points="208.57 104.57 207.73 107.28 205.38 106.64 206.03 103.89 208.57 104.57"/><polygon class="cls-1" points="206.72 110.05 205.63 112.66 203.71 111.94 204.63 109.25 206.72 110.05"/><polygon class="cls-1" points="204.39 115.3 203.08 117.81 201.61 117.12 202.72 114.51 204.39 115.3"/><polygon class="cls-1" points="201.66 120.33 200.19 122.75 199.17 122.19 200.44 119.65 201.66 120.33"/><polygon class="cls-1" points="198.65 125.16 197.03 127.5 196.47 127.15 197.85 124.67 198.65 125.16"/><polygon class="cls-1" points="195.36 129.81 193.65 132.07 193.56 132.02 195.04 129.59 195.36 129.81"/><polygon class="cls-1" points="106.58 65.11 104.05 63.8 104.36 63.33 106.58 65.11"/><polygon class="cls-1" points="101.56 62.34 99.19 60.76 100.13 59.57 102.22 61.5 101.56 62.34"/><polygon class="cls-1" points="96.84 58.97 94.72 57.08 96.37 55.46 98.22 57.61 96.84 58.97"/><path class="cls-1" d="M92.61,54.82s-.43-.56-.85-1.13l-.85-1.15,2.52-1.65.72,1.22.71,1.24Z"/><path class="cls-1" d="M89.4,49.77l-.19-.44c-.12-.27-.26-.63-.39-1-.26-.74-.46-1.51-.46-1.51l3.53-.73s.09.62.24,1.24c.07.31.16.62.23.85l.12.39Z"/><path class="cls-1" d="M87.86,43.68l-.1-2.88,4.13,0s0,.71-.07,1.42c0,.35,0,.71,0,1s0,.25,0,.32,0,.12,0,0v0Z"/><polygon class="cls-1" points="87.79 37.8 87.93 34.97 92.47 35.34 92.14 38.16 87.79 37.8"/><polygon class="cls-1" points="88.15 32.05 88.42 29.23 93.29 29.84 92.86 32.64 88.15 32.05"/><polygon class="cls-1" points="88.75 26.36 89.1 23.54 94.23 24.3 93.75 27.1 88.75 26.36"/><polygon class="cls-1" points="89.48 20.71 89.86 17.91 95.2 18.73 94.71 21.52 89.48 20.71"/><polygon class="cls-1" points="90.24 15.12 90.62 12.31 96.1 13.11 95.66 15.91 90.24 15.12"/><path class="cls-1" d="M91,9.55l.17-1.4V8.08l0-.33,0-.13.06-.25c0-.16.07-.31.09-.44l.1-.43L97,7.72l-.1.43c0,.13-.06.28-.1.44a2.21,2.21,0,0,1-.05.25l0,.13h0c0,.24,0-.31,0-.26h0v.1l-.19,1.41Z"/><path class="cls-1" d="M93.68,2.7l.09-.09.35-.32a8.61,8.61,0,0,1,1.11-.86A9.48,9.48,0,0,1,97.05.52l2,5.32a3.81,3.81,0,0,0-.71.35,3.2,3.2,0,0,0-.43.32l-.12.11-.08.09Z"/><path class="cls-1" d="M101.12,0h.12l.48.07A8.93,8.93,0,0,1,105,1.29L102,6.1a3.75,3.75,0,0,0-.71-.33,3.06,3.06,0,0,0-.51-.12l-.16,0-.12,0Z"/><polygon class="cls-1" points="107.44 3.17 109.68 4.9 106.34 9.31 104.06 7.63 107.44 3.17"/><polygon class="cls-1" points="111.9 6.59 114.16 8.31 110.97 12.64 108.67 11 111.9 6.59"/><polygon class="cls-1" points="116.42 10.03 118.67 11.75 115.61 15.91 113.29 14.28 116.42 10.03"/><polygon class="cls-1" points="120.94 13.52 123.15 15.29 120.2 19.18 117.9 17.52 120.94 13.52"/><polygon class="cls-1" points="125.4 17.15 127.54 19.02 124.69 22.52 122.43 20.81 125.4 17.15"/><polygon class="cls-1" points="129.73 21.02 131.74 23.03 128.98 26.03 126.81 24.2 129.73 21.02"/><path class="cls-1" d="M133.79,25.27l.3.39c.18.23.42.55.64.88.45.66.82,1.36.82,1.36l-3,1.84s-.36-.53-.76-1c-.2-.24-.41-.47-.57-.64l-.28-.29Z"/><polygon class="cls-1" points="136.85 30.85 137.57 33.6 134.77 34.5 133.76 31.84 136.85 30.85"/><polygon class="cls-1" points="137.97 36.73 138 39.57 135.79 39.75 135.38 36.94 137.97 36.73"/><polygon class="cls-1" points="137.8 42.56 137.37 45.37 135.98 45.27 135.96 42.42 137.8 42.56"/><polygon class="cls-1" points="136.76 48.21 136.01 50.96 135.61 50.89 135.85 48.05 136.76 48.21"/><polygon class="cls-1" points="53.8 133.87 51.09 134.72 50.97 134.18 53.8 133.87"/><polygon class="cls-1" points="48.3 135.45 45.51 136.02 45.33 134.51 48.17 134.4 48.3 135.45"/><polygon class="cls-1" points="42.58 136.41 39.74 136.58 39.76 134.26 42.6 134.47 42.58 136.41"/><path class="cls-1" d="M36.66,136.47l-1.41-.2-1.4-.21.61-2.95,1.37.35,1.37.38Z"/><path class="cls-1" d="M30.81,135.16l-.45-.17c-.27-.11-.62-.26-1-.43-.71-.34-1.39-.74-1.39-.74l2-3s.5.38,1.05.71c.27.17.55.32.76.44l.36.19Z"/><path class="cls-1" d="M25.42,132l-2.11-2,2.94-2.9.95,1,.65.72.22.24s.08.09,0,0l0,0Z"/><polygon class="cls-1" points="21.21 127.84 19.31 125.74 22.78 122.8 24.54 125.02 21.21 127.84"/><polygon class="cls-1" points="17.4 123.52 15.6 121.33 19.47 118.32 21.14 120.61 17.4 123.52"/><polygon class="cls-1" points="13.79 119.07 12.05 116.83 16.22 113.74 17.85 116.06 13.79 119.07"/><polygon class="cls-1" points="10.32 114.57 8.6 112.31 12.96 109.12 14.59 111.44 10.32 114.57"/><polygon class="cls-1" points="6.91 110.07 5.19 107.82 9.63 104.5 11.3 106.8 6.91 110.07"/><path class="cls-1" d="M3.48,105.62l-.88-1.11,0-.05-.19-.27-.07-.11-.14-.22c-.09-.14-.17-.27-.25-.38l-.24-.37,4.75-3,.24.37.24.38.14.22.07.11h0L7,101H7l0,0,0,0,.86,1.12Z"/><path class="cls-1" d="M.56,98.86v-.13c0-.11,0-.28,0-.47a8.92,8.92,0,0,1,.19-1.4,9.53,9.53,0,0,1,.64-1.93L6.54,97.3a3.79,3.79,0,0,0-.25.75,4.42,4.42,0,0,0-.08.54v.28Z"/><path class="cls-1" d="M3.9,91.69l.1-.08.39-.29a9.62,9.62,0,0,1,1.21-.73,9.46,9.46,0,0,1,1.93-.7l1.33,5.47a3.64,3.64,0,0,0-.74.27,3.54,3.54,0,0,0-.45.28l-.12.1-.1.07Z"/><polygon class="cls-1" points="10.62 89.46 13.43 89.1 14.18 94.58 11.38 95 10.62 89.46"/><polygon class="cls-1" points="16.2 88.72 19 88.34 19.82 93.66 17.02 94.13 16.2 88.72"/><polygon class="cls-1" points="21.81 87.96 24.63 87.58 25.4 92.69 22.61 93.17 21.81 87.96"/><polygon class="cls-1" points="27.48 87.23 30.3 86.92 30.96 91.75 28.16 92.21 27.48 87.23"/><polygon class="cls-1" points="33.2 86.65 36.03 86.45 36.5 90.94 33.69 91.33 33.2 86.65"/><polygon class="cls-1" points="39 86.32 41.84 86.32 42.02 90.39 39.19 90.63 39 86.32"/><path class="cls-1" d="M44.88,86.46l.48.05c.3,0,.69.1,1.08.18.78.15,1.54.38,1.54.38l-.83,3.43s-.63-.11-1.25-.17c-.31,0-.62,0-.86,0h-.4Z"/><polygon class="cls-1" points="50.98 88.24 53.44 89.67 52.09 92.29 49.51 91.12 50.98 88.24"/><polygon class="cls-1" points="55.94 91.6 57.97 93.59 56.53 95.27 54.26 93.58 55.94 91.6"/><polygon class="cls-1" points="59.93 95.84 61.62 98.14 60.56 99.05 58.54 97.05 59.93 95.84"/><polygon class="cls-1" points="63.2 100.57 64.61 103.05 64.28 103.28 62.44 101.11 63.2 100.57"/><polygon class="cls-1" points="65.11 219.8 63.8 222.33 63.33 222.02 65.11 219.8"/><polygon class="cls-1" points="62.34 224.81 60.76 227.19 59.57 226.25 61.5 224.16 62.34 224.81"/><polygon class="cls-1" points="58.97 229.54 57.08 231.66 55.46 230.01 57.61 228.15 58.97 229.54"/><path class="cls-1" d="M54.82,233.77l-1.13.85-1.14.84-1.66-2.52,1.22-.71,1.24-.71Z"/><path class="cls-1" d="M49.77,237l-.44.19c-.27.11-.63.26-1,.39-.74.26-1.51.46-1.51.46l-.73-3.53s.62-.09,1.24-.24l.85-.23.39-.12Z"/><path class="cls-1" d="M43.68,238.52l-2.88.1,0-4.13,1.42.07,1,.05h.32s.12,0,0,0h0Z"/><polygon class="cls-1" points="37.8 238.59 34.97 238.45 35.34 233.91 38.16 234.24 37.8 238.59"/><polygon class="cls-1" points="32.05 238.23 29.23 237.96 29.84 233.09 32.64 233.52 32.05 238.23"/><polygon class="cls-1" points="26.36 237.63 23.54 237.28 24.3 232.15 27.1 232.63 26.36 237.63"/><polygon class="cls-1" points="20.72 236.9 17.91 236.52 18.73 231.18 21.52 231.67 20.72 236.9"/><polygon class="cls-1" points="15.12 236.14 12.31 235.76 13.11 230.28 15.91 230.72 15.12 236.14"/><path class="cls-1" d="M9.55,235.42l-1.4-.17H8.08l-.33-.05-.13,0-.25-.06L6.93,235l-.43-.1,1.22-5.49.43.1.44.1.25,0,.13,0H9l-.26,0h.13l1.41.18Z"/><path class="cls-1" d="M2.7,232.7l-.09-.09-.32-.35a8.61,8.61,0,0,1-.86-1.11,9.48,9.48,0,0,1-.91-1.82l5.32-2a3.81,3.81,0,0,0,.35.71,3.2,3.2,0,0,0,.32.43l.11.12.09.08Z"/><path class="cls-1" d="M0,225.26v-.12s0-.31.07-.48a8.93,8.93,0,0,1,1.21-3.23l4.81,2.93a3.75,3.75,0,0,0-.33.71,3.06,3.06,0,0,0-.12.51l0,.16,0,.12Z"/><polygon class="cls-1" points="3.17 218.94 4.9 216.7 9.31 220.04 7.63 222.32 3.17 218.94"/><polygon class="cls-1" points="6.59 214.48 8.31 212.22 12.64 215.41 11 217.71 6.59 214.48"/><polygon class="cls-1" points="10.03 209.96 11.75 207.71 15.91 210.77 14.28 213.09 10.03 209.96"/><polygon class="cls-1" points="13.52 205.44 15.29 203.23 19.18 206.18 17.52 208.48 13.52 205.44"/><polygon class="cls-1" points="17.15 200.98 19.02 198.84 22.52 201.69 20.81 203.95 17.15 200.98"/><polygon class="cls-1" points="21.02 196.65 23.03 194.64 26.03 197.4 24.2 199.57 21.02 196.65"/><path class="cls-1" d="M25.27,192.59l.39-.3c.23-.18.55-.42.88-.64.66-.45,1.36-.82,1.36-.82l1.84,3a10.79,10.79,0,0,0-1,.76c-.24.2-.47.41-.64.57l-.29.28Z"/><polygon class="cls-1" points="30.85 189.53 33.6 188.81 34.5 191.61 31.84 192.62 30.85 189.53"/><polygon class="cls-1" points="36.73 188.41 39.57 188.38 39.74 190.59 36.94 190.99 36.73 188.41"/><polygon class="cls-1" points="42.56 188.58 45.37 189.01 45.27 190.4 42.42 190.41 42.56 188.58"/><polygon class="cls-1" points="48.21 189.61 50.96 190.37 50.89 190.77 48.05 190.53 48.21 189.61"/><polygon class="cls-1" points="133.87 272.57 134.73 275.29 134.18 275.4 133.87 272.57"/><polygon class="cls-1" points="135.45 278.08 136.02 280.87 134.51 281.05 134.4 278.2 135.45 278.08"/><polygon class="cls-1" points="136.41 283.8 136.58 286.63 134.26 286.61 134.47 283.78 136.41 283.8"/><path class="cls-1" d="M136.47,289.72l-.2,1.41c-.1.7-.21,1.4-.21,1.4l-2.95-.61.36-1.37c.18-.69.37-1.38.37-1.38Z"/><path class="cls-1" d="M135.17,295.57,135,296c-.11.27-.26.63-.43,1-.34.71-.74,1.39-.74,1.39l-3-2s.38-.51.71-1.05c.17-.27.33-.55.44-.76l.19-.37Z"/><path class="cls-1" d="M132,301l-2,2.11-2.91-2.94,1-.95.72-.66.24-.21s.09-.08,0,0l0,0Z"/><polygon class="cls-1" points="127.84 305.16 125.74 307.07 122.8 303.6 125.02 301.84 127.84 305.16"/><polygon class="cls-1" points="123.52 308.98 121.33 310.78 118.33 306.91 120.61 305.23 123.52 308.98"/><polygon class="cls-1" points="119.07 312.58 116.84 314.32 113.74 310.16 116.06 308.52 119.07 312.58"/><polygon class="cls-1" points="114.57 316.06 112.31 317.77 109.12 313.42 111.44 311.79 114.57 316.06"/><polygon class="cls-1" points="110.07 319.47 107.82 321.19 104.51 316.75 106.8 315.08 110.07 319.47"/><path class="cls-1" d="M105.63,322.9l-1.12.87-.05,0-.27.2-.11.07-.22.14-.38.24-.37.24-3-4.75.37-.23.39-.25.21-.13.11-.07h0c.19-.14-.27.18-.22.15h0l0,0,0,0,1.13-.87Z"/><path class="cls-1" d="M98.86,325.82h-.6a8.92,8.92,0,0,1-1.4-.19,9.53,9.53,0,0,1-1.93-.64l2.37-5.15a3.69,3.69,0,0,0,.76.26,2.76,2.76,0,0,0,.53.07h.28Z"/><path class="cls-1" d="M91.69,322.47l-.07-.09s-.2-.25-.3-.39a8.59,8.59,0,0,1-.72-1.21,9,9,0,0,1-.7-1.93l5.46-1.33a3.45,3.45,0,0,0,.27.73,4.24,4.24,0,0,0,.28.46l.1.12a.59.59,0,0,1,.07.1Z"/><polygon class="cls-1" points="89.46 315.76 89.1 312.95 94.58 312.2 95 315 89.46 315.76"/><polygon class="cls-1" points="88.73 310.18 88.34 307.37 93.66 306.56 94.13 309.36 88.73 310.18"/><polygon class="cls-1" points="87.96 304.56 87.58 301.75 92.69 300.97 93.17 303.77 87.96 304.56"/><polygon class="cls-1" points="87.24 298.9 86.92 296.08 91.75 295.42 92.22 298.22 87.24 298.9"/><polygon class="cls-1" points="86.65 293.18 86.45 290.34 90.94 289.88 91.33 292.69 86.65 293.18"/><polygon class="cls-1" points="86.33 287.38 86.32 284.54 90.39 284.36 90.63 287.19 86.33 287.38"/><path class="cls-1" d="M86.46,281.5l.06-.48c0-.3.1-.69.17-1.08.15-.78.38-1.54.38-1.54l3.43.83s-.11.62-.17,1.25c0,.31,0,.62,0,.85s0,.4,0,.4Z"/><polygon class="cls-1" points="88.24 275.39 89.67 272.94 92.29 274.29 91.12 276.87 88.24 275.39"/><polygon class="cls-1" points="91.61 270.44 93.59 268.41 95.27 269.85 93.58 272.12 91.61 270.44"/><polygon class="cls-1" points="95.85 266.44 98.14 264.76 99.05 265.81 97.05 267.83 95.85 266.44"/><polygon class="cls-1" points="100.57 263.18 103.05 261.77 103.28 262.1 101.11 263.94 100.57 263.18"/><polygon class="cls-1" points="219.8 261.26 222.33 262.58 222.02 263.05 219.8 261.26"/><polygon class="cls-1" points="224.81 264.04 227.19 265.61 226.25 266.8 224.16 264.87 224.81 264.04"/><polygon class="cls-1" points="229.54 267.4 231.66 269.29 230.01 270.91 228.16 268.76 229.54 267.4"/><path class="cls-1" d="M233.77,271.55l.85,1.14.85,1.14L233,275.48l-.72-1.22-.71-1.23Z"/><path class="cls-1" d="M237,276.61l.19.43c.12.27.26.64.39,1,.26.73.46,1.5.46,1.5l-3.53.74s-.09-.63-.24-1.25c-.07-.31-.16-.61-.23-.84l-.12-.39Z"/><path class="cls-1" d="M238.52,282.69l.1,2.88-4.13,0s0-.71.07-1.42c0-.35,0-.7.05-1v-.32s0-.12,0,0v0Z"/><polygon class="cls-1" points="238.59 288.57 238.45 291.4 233.91 291.03 234.24 288.21 238.59 288.57"/><polygon class="cls-1" points="238.23 294.32 237.96 297.15 233.09 296.54 233.52 293.73 238.23 294.32"/><polygon class="cls-1" points="237.63 300.02 237.28 302.83 232.15 302.07 232.63 299.28 237.63 300.02"/><polygon class="cls-1" points="236.91 305.66 236.53 308.47 231.19 307.64 231.67 304.85 236.91 305.66"/><polygon class="cls-1" points="236.14 311.25 235.76 314.06 230.28 313.26 230.72 310.46 236.14 311.25"/><path class="cls-1" d="M235.42,316.82s-.09.7-.17,1.41v.06l-.05.33,0,.13c0,.09,0,.17,0,.25s-.07.31-.1.44l-.09.44-5.5-1.22.1-.44c0-.13.06-.28.1-.44l.06-.25,0-.13h0c0-.23,0,.32,0,.26h0v-.12l.18-1.4Z"/><path class="cls-1" d="M232.7,323.67l-.08.09-.35.33a9.52,9.52,0,0,1-2.94,1.77l-2-5.32a4.26,4.26,0,0,0,.71-.35,3.41,3.41,0,0,0,.43-.33l.12-.11.09-.08Z"/><path class="cls-1" d="M225.27,326.37h-.12l-.48-.07a8.77,8.77,0,0,1-3.23-1.21l2.92-4.8a3.39,3.39,0,0,0,.71.32,4.38,4.38,0,0,0,.52.13l.15,0h.12Z"/><polygon class="cls-1" points="218.94 323.21 216.7 321.47 220.04 317.06 222.32 318.75 218.94 323.21"/><polygon class="cls-1" points="214.48 319.78 212.22 318.07 215.41 313.73 217.72 315.38 214.48 319.78"/><polygon class="cls-1" points="209.96 316.35 207.71 314.63 210.77 310.46 213.09 312.1 209.96 316.35"/><polygon class="cls-1" points="205.45 312.86 203.23 311.08 206.18 307.2 208.48 308.85 205.45 312.86"/><polygon class="cls-1" points="200.98 309.22 198.84 307.36 201.69 303.86 203.95 305.57 200.98 309.22"/><polygon class="cls-1" points="196.65 305.35 194.64 303.35 197.4 300.35 199.57 302.18 196.65 305.35"/><path class="cls-1" d="M192.59,301.1l-.3-.38c-.18-.24-.42-.56-.64-.89-.44-.66-.82-1.35-.82-1.35l3-1.84s.36.52.76,1c.2.24.41.47.57.64l.28.28Z"/><polygon class="cls-1" points="189.53 295.52 188.81 292.78 191.61 291.88 192.62 294.53 189.53 295.52"/><polygon class="cls-1" points="188.41 289.64 188.38 286.81 190.59 286.63 191 289.44 188.41 289.64"/><polygon class="cls-1" points="188.58 283.82 189.02 281.01 190.4 281.11 190.42 283.95 188.58 283.82"/><polygon class="cls-1" points="189.62 278.17 190.37 275.42 190.77 275.49 190.53 278.33 189.62 278.17"/><polygon class="cls-1" points="272.57 192.5 275.29 191.65 275.4 192.19 272.57 192.5"/><polygon class="cls-1" points="278.08 190.92 280.87 190.35 281.05 191.86 278.2 191.97 278.08 190.92"/><polygon class="cls-1" points="283.8 189.96 286.63 189.79 286.61 192.11 283.78 191.9 283.8 189.96"/><path class="cls-1" d="M289.72,189.9l1.41.2,1.4.21-.61,2.95-1.38-.35-1.37-.37Z"/><path class="cls-1" d="M295.57,191.21l.44.17,1,.43c.71.34,1.39.74,1.39.74l-2,3s-.51-.38-1.05-.71c-.27-.17-.55-.32-.76-.44l-.37-.19Z"/><path class="cls-1" d="M301,194.42l2.11,2-2.94,2.9-.95-1-.66-.72-.21-.24s-.08-.09,0,0l0,0Z"/><polygon class="cls-1" points="305.16 198.53 307.07 200.63 303.59 203.57 301.84 201.35 305.16 198.53"/><polygon class="cls-1" points="308.98 202.85 310.78 205.04 306.91 208.05 305.23 205.76 308.98 202.85"/><polygon class="cls-1" points="312.58 207.3 314.32 209.54 310.16 212.63 308.52 210.31 312.58 207.3"/><polygon class="cls-1" points="316.06 211.8 317.77 214.06 313.42 217.25 311.79 214.93 316.06 211.8"/><polygon class="cls-1" points="319.47 216.3 321.19 218.55 316.75 221.87 315.08 219.57 319.47 216.3"/><path class="cls-1" d="M322.9,220.74l.87,1.12,0,0,.2.27.07.11.14.22.24.38.24.37-4.75,3-.23-.37-.25-.39-.13-.21-.07-.11h0l.15.21h0l0,0,0-.05-.87-1.12Z"/><path class="cls-1" d="M325.82,227.51v.12c0,.12,0,.29,0,.48a8.92,8.92,0,0,1-.19,1.4,9.53,9.53,0,0,1-.64,1.93l-5.15-2.37a3.48,3.48,0,0,0,.26-.75,3,3,0,0,0,.07-.54.81.81,0,0,0,0-.16v-.12Z"/><path class="cls-1" d="M322.47,234.68l-.09.08-.39.29a8.91,8.91,0,0,1-3.14,1.43L317.52,231a3.45,3.45,0,0,0,.73-.27,3.09,3.09,0,0,0,.46-.28l.12-.1.1-.07Z"/><polygon class="cls-1" points="315.76 236.91 312.95 237.27 312.2 231.79 315 231.37 315.76 236.91"/><polygon class="cls-1" points="310.18 237.65 307.38 238.03 306.56 232.71 309.36 232.24 310.18 237.65"/><polygon class="cls-1" points="304.56 238.41 301.75 238.79 300.98 233.68 303.77 233.2 304.56 238.41"/><polygon class="cls-1" points="298.9 239.14 296.08 239.45 295.42 234.62 298.22 234.16 298.9 239.14"/><polygon class="cls-1" points="293.18 239.72 290.34 239.92 289.88 235.43 292.69 235.04 293.18 239.72"/><polygon class="cls-1" points="287.38 240.05 284.54 240.05 284.36 235.98 287.19 235.74 287.38 240.05"/><path class="cls-1" d="M281.5,239.91l-.48,0c-.3,0-.69-.1-1.08-.18-.78-.15-1.54-.37-1.54-.37l.83-3.44s.62.12,1.25.17c.31,0,.62,0,.85.05h.4Z"/><polygon class="cls-1" points="275.39 238.13 272.94 236.7 274.29 234.08 276.87 235.25 275.39 238.13"/><polygon class="cls-1" points="270.44 234.77 268.41 232.78 269.85 231.1 272.12 232.79 270.44 234.77"/><polygon class="cls-1" points="266.44 230.53 264.76 228.24 265.81 227.33 267.83 229.33 266.44 230.53"/><polygon class="cls-1" points="263.18 225.8 261.77 223.32 262.1 223.09 263.94 225.27 263.18 225.8"/><polygon class="cls-1" points="261.26 106.57 262.58 104.04 263.04 104.35 261.26 106.57"/><polygon class="cls-1" points="264.04 101.56 265.61 99.19 266.8 100.12 264.87 102.21 264.04 101.56"/><polygon class="cls-1" points="267.4 96.83 269.29 94.71 270.91 96.36 268.76 98.22 267.4 96.83"/><path class="cls-1" d="M271.55,92.6l1.13-.85,1.15-.84,1.65,2.52-1.22.72-1.24.7Z"/><path class="cls-1" d="M276.6,89.39l.44-.19c.27-.11.63-.26,1-.39.74-.26,1.51-.46,1.51-.46l.73,3.53s-.62.09-1.24.24l-.85.23-.39.13Z"/><path class="cls-1" d="M282.69,87.85l2.88-.1,0,4.13-1.42-.07-1,0h-.32s-.12,0,0,0h0Z"/><polygon class="cls-1" points="288.57 87.78 291.4 87.92 291.02 92.46 288.21 92.13 288.57 87.78"/><polygon class="cls-1" points="294.32 88.14 297.14 88.42 296.53 93.28 293.73 92.85 294.32 88.14"/><polygon class="cls-1" points="300.01 88.74 302.83 89.09 302.07 94.22 299.27 93.74 300.01 88.74"/><polygon class="cls-1" points="305.65 89.47 308.46 89.85 307.64 95.19 304.85 94.7 305.65 89.47"/><polygon class="cls-1" points="311.25 90.23 314.06 90.61 313.26 96.09 310.46 95.65 311.25 90.23"/><path class="cls-1" d="M316.82,91l1.41.17h.06l.33.05.13,0,.25.06.44.09.43.1L318.65,97l-.43-.1-.44-.1-.25,0-.13,0h0l.26,0h-.13l-1.41-.19Z"/><path class="cls-1" d="M323.67,93.67l.09.09.32.35a8.61,8.61,0,0,1,.86,1.11,9.48,9.48,0,0,1,.91,1.82l-5.32,2a3.81,3.81,0,0,0-.35-.71,3.2,3.2,0,0,0-.32-.43l-.11-.12-.09-.09Z"/><path class="cls-1" d="M326.37,101.1v.13s0,.31-.07.48a8.93,8.93,0,0,1-1.21,3.23L320.27,102a3.16,3.16,0,0,0,.33-.71,3.06,3.06,0,0,0,.12-.51l0-.16,0-.12Z"/><polygon class="cls-1" points="323.2 107.43 321.47 109.67 317.06 106.33 318.74 104.05 323.2 107.43"/><polygon class="cls-1" points="319.78 111.89 318.07 114.15 313.73 110.96 315.37 108.66 319.78 111.89"/><polygon class="cls-1" points="316.35 116.41 314.63 118.66 310.46 115.6 312.1 113.28 316.35 116.41"/><polygon class="cls-1" points="312.85 120.93 311.08 123.14 307.2 120.19 308.85 117.89 312.85 120.93"/><polygon class="cls-1" points="309.22 125.39 307.36 127.53 303.85 124.68 305.57 122.42 309.22 125.39"/><polygon class="cls-1" points="305.35 129.72 303.34 131.73 300.34 128.97 302.17 126.8 305.35 129.72"/><path class="cls-1" d="M301.1,133.78l-.38.3c-.24.18-.56.42-.89.64-.66.45-1.35.82-1.35.82l-1.84-3a12.55,12.55,0,0,0,1-.76c.24-.2.47-.41.64-.57l.28-.28Z"/><polygon class="cls-1" points="295.52 136.84 292.78 137.56 291.88 134.76 294.53 133.75 295.52 136.84"/><polygon class="cls-1" points="289.64 137.96 286.8 137.99 286.63 135.78 289.44 135.38 289.64 137.96"/><polygon class="cls-1" points="283.82 137.79 281.01 137.36 281.11 135.97 283.95 135.96 283.82 137.79"/><polygon class="cls-1" points="278.16 136.76 275.42 136 275.49 135.6 278.33 135.84 278.16 136.76"/><polygon class="cls-1" points="192.5 53.8 191.64 51.09 192.19 50.97 192.5 53.8"/><polygon class="cls-1" points="190.92 48.3 190.35 45.51 191.85 45.33 191.97 48.17 190.92 48.3"/><polygon class="cls-1" points="189.96 42.58 189.79 39.74 192.1 39.76 191.89 42.6 189.96 42.58"/><path class="cls-1" d="M189.9,36.66l.2-1.41c.1-.7.21-1.41.21-1.41l2.95.62-.36,1.37-.37,1.37Z"/><path class="cls-1" d="M191.2,30.81l.18-.45c.11-.27.26-.62.43-1,.33-.71.74-1.39.74-1.39l3,2s-.37.5-.71,1.05c-.16.27-.32.55-.43.76l-.19.36Z"/><path class="cls-1" d="M194.41,25.42l2-2.11,2.9,2.93-1.05,1-.72.65-.23.22s-.09.08,0,0l0,0Z"/><polygon class="cls-1" points="198.52 21.21 200.62 19.31 203.57 22.78 201.34 24.54 198.52 21.21"/><polygon class="cls-1" points="202.84 17.39 205.03 15.6 208.04 19.47 205.75 21.14 202.84 17.39"/><polygon class="cls-1" points="207.29 13.79 209.53 12.05 212.62 16.21 210.31 17.85 207.29 13.79"/><polygon class="cls-1" points="211.8 10.32 214.05 8.6 217.25 12.96 214.93 14.59 211.8 10.32"/><polygon class="cls-1" points="216.29 6.9 218.55 5.18 221.86 9.63 219.57 11.29 216.29 6.9"/><path class="cls-1" d="M220.74,3.48l1.11-.88.06,0,.27-.19.11-.07.21-.14.38-.25.38-.24,3,4.75-.38.24-.38.24L225.3,7l-.11.07h0c-.19.13.26-.19.22-.15h0l0,0-.06,0-1.12.87Z"/><path class="cls-1" d="M227.51.55h.12l.48,0a10.21,10.21,0,0,1,1.39.18,9.27,9.27,0,0,1,1.93.64l-2.37,5.15a3.79,3.79,0,0,0-.75-.25,3,3,0,0,0-.53-.08h-.29Z"/><path class="cls-1" d="M234.67,3.9l.08.09s.2.25.29.39a8.17,8.17,0,0,1,.73,1.22,9.48,9.48,0,0,1,.7,1.92L231,8.85a3.82,3.82,0,0,0-.28-.73,2.94,2.94,0,0,0-.28-.45l-.09-.13-.08-.09Z"/><polygon class="cls-1" points="236.91 10.61 237.26 13.42 231.78 14.18 231.36 11.38 236.91 10.61"/><polygon class="cls-1" points="237.64 16.19 238.03 19 232.71 19.81 232.24 17.02 237.64 16.19"/><polygon class="cls-1" points="238.41 21.81 238.78 24.62 233.67 25.4 233.19 22.61 238.41 21.81"/><polygon class="cls-1" points="239.13 27.47 239.44 30.29 234.61 30.96 234.15 28.16 239.13 27.47"/><polygon class="cls-1" points="239.72 33.2 239.91 36.03 235.43 36.49 235.03 33.68 239.72 33.2"/><polygon class="cls-1" points="240.04 39 240.05 41.84 235.98 42.01 235.74 39.18 240.04 39"/><path class="cls-1" d="M239.91,44.87l-.06.49c0,.29-.1.69-.17,1.08-.15.78-.38,1.53-.38,1.53l-3.43-.83s.11-.62.16-1.24c0-.32.05-.63.05-.86s0-.4,0-.4Z"/><polygon class="cls-1" points="238.13 50.98 236.69 53.43 234.08 52.09 235.25 49.5 238.13 50.98"/><polygon class="cls-1" points="234.76 55.93 232.78 57.96 231.09 56.52 232.79 54.25 234.76 55.93"/><polygon class="cls-1" points="230.52 59.93 228.23 61.61 227.32 60.56 229.32 58.54 230.52 59.93"/><polygon class="cls-1" points="225.8 63.2 223.32 64.61 223.09 64.28 225.26 62.43 225.8 63.2"/><polygon class="cls-1" points="134.16 192.7 131.91 194.43 131.75 194.2 134.16 192.7"/><polygon class="cls-1" points="129.62 196.13 127.31 197.77 126.85 197.06 129.32 195.65 129.62 196.13"/><polygon class="cls-1" points="124.92 199.35 122.52 200.86 121.87 199.72 124.39 198.41 124.92 199.35"/><polygon class="cls-1" points="120.03 202.32 117.55 203.68 116.76 202.09 119.35 200.94 120.03 202.32"/><polygon class="cls-1" points="114.94 204.97 112.35 206.12 111.53 204.12 114.2 203.14 114.94 204.97"/><polygon class="cls-1" points="109.61 207.2 106.93 208.12 106.19 205.68 108.93 204.95 109.61 207.2"/><polygon class="cls-1" points="104.05 208.92 101.27 209.51 100.75 206.65 103.56 206.23 104.05 208.92"/><polygon class="cls-1" points="98.25 209.92 95.42 210.1 95.31 206.89 98.14 206.87 98.25 209.92"/><polygon class="cls-1" points="92.3 210.03 89.48 209.72 89.96 206.24 92.76 206.7 92.3 210.03"/><path class="cls-1" d="M86.38,209.07,85,208.65l-.93-.29-.3-.1-.2-.07L85,204.65h.07l-.09,0H85l.3.11.91.34,1.33.49Z"/><polygon class="cls-1" points="80.87 207.15 78.25 206.06 79.88 202.35 82.45 203.54 80.87 207.15"/><polygon class="cls-1" points="75.59 204.87 73.02 203.67 74.9 199.84 77.42 201.14 75.59 204.87"/><polygon class="cls-1" points="70.41 202.4 67.88 201.12 69.98 197.16 72.46 198.54 70.41 202.4"/><polygon class="cls-1" points="65.33 199.79 62.83 198.46 65.11 194.36 67.56 195.78 65.33 199.79"/><polygon class="cls-1" points="60.3 197.08 57.84 195.68 60.28 191.48 62.71 192.93 60.3 197.08"/><polygon class="cls-1" points="55.35 194.26 52.9 192.83 55.45 188.54 57.87 190.02 55.35 194.26"/><polygon class="cls-1" points="50.44 191.39 47.99 189.96 50.64 185.57 53.05 187.06 50.44 191.39"/><polygon class="cls-1" points="45.55 188.51 43.11 187.07 45.84 182.57 48.24 184.08 45.55 188.51"/><polygon class="cls-1" points="40.67 185.62 38.23 184.18 41.02 179.58 43.43 181.07 40.67 185.62"/><polygon class="cls-1" points="35.8 182.75 33.37 181.3 36.17 176.62 38.59 178.08 35.8 182.75"/><polygon class="cls-1" points="30.94 179.88 28.49 178.46 31.27 173.71 33.71 175.15 30.94 179.88"/><polygon class="cls-1" points="26.07 177.07 23.59 175.68 26.32 170.86 28.78 172.26 26.07 177.07"/><polygon class="cls-1" points="21.16 174.34 18.66 173.01 21.31 168.09 23.8 169.45 21.16 174.34"/><path class="cls-1" d="M16.19,171.73l-.39-.2-.42-.21-.32-.17-.32-.19a9.76,9.76,0,0,1-1.61-1.25l3.95-4a3.41,3.41,0,0,0,.62.49l.13.08.14.08.38.2.4.2Z"/><path class="cls-1" d="M10.92,166.23l0-.12c0-.11-.08-.27-.14-.46a10.07,10.07,0,0,1-.27-1.37,9.12,9.12,0,0,1,0-2l5.64.57a3.68,3.68,0,0,0,0,.8,3.34,3.34,0,0,0,.1.53,1.42,1.42,0,0,0,0,.16l0,.11Z"/><path class="cls-1" d="M11.77,158.36l.07-.1s.17-.27.27-.4a8.3,8.3,0,0,1,.92-1.08,9.13,9.13,0,0,1,1.58-1.28l3,4.73a4,4,0,0,0-.61.5,2.82,2.82,0,0,0-.34.41l-.09.13-.06.1Z"/><polygon class="cls-1" points="17.32 154.06 19.83 152.74 22.45 157.67 19.95 159.01 17.32 154.06"/><polygon class="cls-1" points="22.27 151.42 24.75 150.05 27.45 154.88 24.98 156.27 22.27 151.42"/><polygon class="cls-1" points="27.18 148.68 29.63 147.26 32.39 152.01 29.95 153.44 27.18 148.68"/><polygon class="cls-1" points="32.05 145.85 34.5 144.41 37.28 149.09 34.85 150.55 32.05 145.85"/><polygon class="cls-1" points="36.92 142.97 39.36 141.53 42.13 146.11 39.72 147.61 36.92 142.97"/><polygon class="cls-1" points="41.79 140.09 44.23 138.65 46.95 143.11 44.54 144.61 41.79 140.09"/><polygon class="cls-1" points="46.68 137.2 49.12 135.76 51.76 140.12 49.35 141.61 46.68 137.2"/><polygon class="cls-1" points="51.58 134.32 54.02 132.89 56.57 137.15 54.16 138.63 51.58 134.32"/><polygon class="cls-1" points="56.5 131.46 58.97 130.06 61.41 134.22 58.97 135.69 56.5 131.46"/><polygon class="cls-1" points="61.47 128.66 63.97 127.31 66.25 131.35 63.81 132.79 61.47 128.66"/><polygon class="cls-1" points="66.52 125.96 69.04 124.67 71.14 128.56 68.67 129.95 66.52 125.96"/><polygon class="cls-1" points="71.64 123.38 74.2 122.15 76.08 125.91 73.57 127.23 71.64 123.38"/><polygon class="cls-1" points="76.85 120.94 79.45 119.81 81.1 123.44 78.54 124.67 76.85 120.94"/><path class="cls-1" d="M82.16,118.72l1.33-.49.3-.11L84,118l.43-.15.42-.14,1.29,3.5-.41.16-.42.17-.24.09-.19.09-1.3.56Z"/><polygon class="cls-1" points="87.92 116.95 90.72 116.5 91.35 119.87 88.58 120.47 87.92 116.95"/><polygon class="cls-1" points="93.84 116.28 96.67 116.34 96.7 119.46 93.87 119.56 93.84 116.28"/><polygon class="cls-1" points="99.72 116.63 102.52 117.12 102.12 119.9 99.3 119.58 99.72 116.63"/><polygon class="cls-1" points="105.43 117.83 108.14 118.67 107.5 121.01 104.75 120.36 105.43 117.83"/><polygon class="cls-1" points="110.91 119.68 113.52 120.78 112.8 122.69 110.11 121.77 110.91 119.68"/><polygon class="cls-1" points="116.16 122.01 118.67 123.32 117.98 124.79 115.37 123.68 116.16 122.01"/><polygon class="cls-1" points="121.18 124.74 123.61 126.21 123.05 127.23 120.51 125.96 121.18 124.74"/><polygon class="cls-1" points="126.01 127.76 128.35 129.37 128.01 129.93 125.53 128.55 126.01 127.76"/><polygon class="cls-1" points="130.66 131.04 132.93 132.76 132.88 132.83 130.46 131.35 130.66 131.04"/><polygon class="cls-1" points="193.53 192.22 195.26 194.47 195.03 194.63 193.53 192.22"/><polygon class="cls-1" points="196.95 196.75 198.59 199.07 197.89 199.52 196.48 197.06 196.95 196.75"/><polygon class="cls-1" points="200.18 201.45 201.69 203.86 200.55 204.51 199.24 201.99 200.18 201.45"/><polygon class="cls-1" points="203.15 206.34 204.51 208.83 202.92 209.62 201.76 207.03 203.15 206.34"/><polygon class="cls-1" points="205.79 211.44 206.95 214.03 204.95 214.84 203.97 212.18 205.79 211.44"/><polygon class="cls-1" points="208.03 216.76 208.94 219.45 206.51 220.19 205.78 217.45 208.03 216.76"/><polygon class="cls-1" points="209.75 222.33 210.34 225.1 207.47 225.62 207.05 222.82 209.75 222.33"/><polygon class="cls-1" points="210.75 228.13 210.93 230.96 207.72 231.07 207.69 228.23 210.75 228.13"/><polygon class="cls-1" points="210.86 234.07 210.55 236.89 207.07 236.41 207.53 233.62 210.86 234.07"/><path class="cls-1" d="M209.9,240l-.42,1.35c-.11.34-.21.68-.29.93l-.09.31c0,.13-.07.2-.07.2l-3.55-1.39v-.05h0s-.06.16,0,.09h0l0,0c0-.07.07-.18.11-.3l.34-.91c.24-.67.49-1.33.49-1.33Z"/><polygon class="cls-1" points="207.98 245.51 206.89 248.12 203.18 246.49 204.38 243.92 207.98 245.51"/><polygon class="cls-1" points="205.7 250.79 204.5 253.36 200.67 251.48 201.97 248.96 205.7 250.79"/><polygon class="cls-1" points="203.23 255.96 201.95 258.49 197.99 256.4 199.36 253.92 203.23 255.96"/><polygon class="cls-1" points="200.62 261.05 199.28 263.55 195.18 261.26 196.61 258.81 200.62 261.05"/><polygon class="cls-1" points="197.9 266.07 196.5 268.54 192.3 266.1 193.75 263.66 197.9 266.07"/><polygon class="cls-1" points="195.08 271.02 193.66 273.48 189.37 270.92 190.84 268.5 195.08 271.02"/><polygon class="cls-1" points="192.22 275.94 190.78 278.38 186.39 275.73 187.89 273.32 192.22 275.94"/><polygon class="cls-1" points="189.33 280.82 187.89 283.26 183.4 280.53 184.9 278.13 189.33 280.82"/><polygon class="cls-1" points="186.44 285.7 185 288.14 180.4 285.35 181.9 282.94 186.44 285.7"/><polygon class="cls-1" points="183.57 290.57 182.12 293.01 177.44 290.2 178.91 287.78 183.57 290.57"/><polygon class="cls-1" points="180.7 295.43 179.28 297.88 174.53 295.1 175.97 292.66 180.7 295.43"/><polygon class="cls-1" points="177.89 300.31 176.5 302.78 171.68 300.05 173.08 297.59 177.89 300.31"/><polygon class="cls-1" points="175.17 305.21 173.83 307.71 168.91 305.06 170.27 302.57 175.17 305.21"/><path class="cls-1" d="M172.55,310.18l-.2.39-.21.43-.17.31-.19.32a9.76,9.76,0,0,1-1.25,1.61l-4-3.94a3.41,3.41,0,0,0,.49-.62l.08-.14.08-.14.2-.38.2-.4Z"/><path class="cls-1" d="M167.06,315.45l-.11,0-.46.15a10.07,10.07,0,0,1-1.37.27,9.48,9.48,0,0,1-2,0l.56-5.64a4,4,0,0,0,.79,0,3.14,3.14,0,0,0,.53-.1l.16-.05.12,0Z"/><path class="cls-1" d="M159.2,314.62l-.1-.06-.41-.27a9.88,9.88,0,0,1-1.08-.92,9.05,9.05,0,0,1-1.29-1.58l4.73-3.05a4,4,0,0,0,.5.61,3.67,3.67,0,0,0,.41.34.48.48,0,0,1,.13.09l.11.06Z"/><polygon class="cls-1" points="154.89 309.07 153.57 306.57 158.5 303.95 159.83 306.45 154.89 309.07"/><polygon class="cls-1" points="152.25 304.13 150.88 301.65 155.71 298.95 157.1 301.42 152.25 304.13"/><polygon class="cls-1" points="149.5 299.22 148.09 296.76 152.84 294.01 154.27 296.45 149.5 299.22"/><polygon class="cls-1" points="146.68 294.34 145.23 291.9 149.91 289.11 151.37 291.54 146.68 294.34"/><polygon class="cls-1" points="143.79 289.48 142.36 287.04 146.94 284.26 148.44 286.67 143.79 289.48"/><polygon class="cls-1" points="140.92 284.6 139.47 282.16 143.94 279.45 145.44 281.85 140.92 284.6"/><polygon class="cls-1" points="138.03 279.72 136.59 277.28 140.94 274.64 142.44 277.05 138.03 279.72"/><polygon class="cls-1" points="135.15 274.82 133.72 272.37 137.97 269.82 139.46 272.24 135.15 274.82"/><polygon class="cls-1" points="132.29 269.89 130.88 267.43 135.05 264.99 136.51 267.42 132.29 269.89"/><polygon class="cls-1" points="129.49 264.92 128.14 262.43 132.18 260.14 133.62 262.58 129.49 264.92"/><polygon class="cls-1" points="126.79 259.88 125.49 257.35 129.39 255.26 130.78 257.73 126.79 259.88"/><polygon class="cls-1" points="124.2 254.76 122.98 252.2 126.73 250.31 128.06 252.82 124.2 254.76"/><polygon class="cls-1" points="121.76 249.55 120.64 246.95 124.27 245.29 125.49 247.85 121.76 249.55"/><path class="cls-1" d="M119.54,244.24l-.49-1.33-.11-.3-.09-.25-.14-.42-.14-.42,3.5-1.29.16.41.17.42.09.24.08.19c.29.65.57,1.3.57,1.3Z"/><polygon class="cls-1" points="117.77 238.48 117.32 235.68 120.69 235.05 121.29 237.82 117.77 238.48"/><polygon class="cls-1" points="117.1 232.56 117.16 229.73 120.28 229.7 120.38 232.53 117.1 232.56"/><polygon class="cls-1" points="117.45 226.68 117.93 223.88 120.72 224.28 120.39 227.1 117.45 226.68"/><polygon class="cls-1" points="118.64 220.97 119.48 218.26 121.83 218.89 121.17 221.65 118.64 220.97"/><polygon class="cls-1" points="120.49 215.49 121.59 212.88 123.5 213.6 122.58 216.28 120.49 215.49"/><polygon class="cls-1" points="122.82 210.24 124.13 207.72 125.6 208.42 124.49 211.03 122.82 210.24"/><polygon class="cls-1" points="125.55 205.21 127.02 202.79 128.04 203.35 126.77 205.89 125.55 205.21"/><polygon class="cls-1" points="128.57 200.38 130.18 198.04 130.73 198.39 129.35 200.87 128.57 200.38"/><polygon class="cls-1" points="131.85 195.73 133.56 193.47 133.64 193.52 132.16 195.94 131.85 195.73"/><polygon class="cls-1" points="193.02 132.88 195.27 131.14 195.43 131.37 193.02 132.88"/><polygon class="cls-1" points="197.56 129.45 199.87 127.8 200.32 128.51 197.86 129.92 197.56 129.45"/><polygon class="cls-1" points="202.25 126.22 204.66 124.71 205.31 125.85 202.79 127.16 202.25 126.22"/><polygon class="cls-1" points="207.14 123.25 209.63 121.89 210.41 123.48 207.82 124.63 207.14 123.25"/><polygon class="cls-1" points="212.23 120.6 214.82 119.44 215.64 121.44 212.97 122.42 212.23 120.6"/><polygon class="cls-1" points="217.56 118.36 220.25 117.44 220.98 119.88 218.24 120.61 217.56 118.36"/><polygon class="cls-1" points="223.12 116.64 225.9 116.05 226.42 118.91 223.61 119.33 223.12 116.64"/><polygon class="cls-1" points="228.92 115.64 231.75 115.46 231.87 118.66 229.03 118.69 228.92 115.64"/><polygon class="cls-1" points="234.87 115.53 237.69 115.83 237.21 119.31 234.41 118.86 234.87 115.53"/><path class="cls-1" d="M240.79,116.49l1.36.41.93.29.31.1.17,0,0,0-1.39,3.54h0l.09,0h0l0,0-.31-.11-.91-.34-1.33-.49Z"/><polygon class="cls-1" points="246.31 118.4 248.92 119.49 247.29 123.19 244.72 122 246.31 118.4"/><polygon class="cls-1" points="251.59 120.68 254.15 121.88 252.28 125.7 249.76 124.41 251.59 120.68"/><polygon class="cls-1" points="256.76 123.15 259.29 124.42 257.2 128.38 254.72 127.01 256.76 123.15"/><polygon class="cls-1" points="261.85 125.76 264.35 127.09 262.06 131.19 259.61 129.76 261.85 125.76"/><polygon class="cls-1" points="266.87 128.47 269.34 129.87 266.9 134.07 264.46 132.62 266.87 128.47"/><polygon class="cls-1" points="271.82 131.29 274.28 132.71 271.72 137 269.3 135.53 271.82 131.29"/><polygon class="cls-1" points="276.74 134.15 279.18 135.59 276.53 139.98 274.12 138.48 276.74 134.15"/><polygon class="cls-1" points="281.63 137.04 284.06 138.48 281.34 142.97 278.93 141.47 281.63 137.04"/><polygon class="cls-1" points="286.5 139.92 288.94 141.36 286.15 145.97 283.75 144.47 286.5 139.92"/><polygon class="cls-1" points="291.37 142.8 293.81 144.25 291.01 148.93 288.58 147.46 291.37 142.8"/><polygon class="cls-1" points="296.23 145.67 298.68 147.09 295.9 151.84 293.46 150.4 296.23 145.67"/><polygon class="cls-1" points="301.11 148.48 303.58 149.86 300.85 154.69 298.39 153.28 301.11 148.48"/><polygon class="cls-1" points="306.02 151.2 308.52 152.54 305.87 157.45 303.38 156.1 306.02 151.2"/><path class="cls-1" d="M311,153.81l.4.2.42.22.3.16.33.19a9.76,9.76,0,0,1,1.61,1.25l-3.93,4a3.41,3.41,0,0,0-.62-.49l-.14-.08-.14-.08-.39-.2-.39-.2Z"/><path class="cls-1" d="M316.27,159.29l0,.12c0,.11.08.27.14.46a8.22,8.22,0,0,1,.28,1.37,9.48,9.48,0,0,1,0,2l-5.64-.55a4,4,0,0,0,0-.79,3.49,3.49,0,0,0-.1-.54l-.05-.15,0-.12Z"/><path class="cls-1" d="M315.45,167.16l-.06.1-.27.41a9.86,9.86,0,0,1-.91,1.08,9.33,9.33,0,0,1-1.59,1.29l-3.06-4.72a3.5,3.5,0,0,0,.61-.5,2.82,2.82,0,0,0,.34-.41l.09-.13.06-.11Z"/><polygon class="cls-1" points="309.9 171.48 307.4 172.8 304.78 167.87 307.28 166.54 309.9 171.48"/><polygon class="cls-1" points="304.96 174.12 302.48 175.5 299.78 170.66 302.25 169.27 304.96 174.12"/><polygon class="cls-1" points="300.05 176.87 297.59 178.28 294.84 173.53 297.28 172.1 300.05 176.87"/><polygon class="cls-1" points="295.17 179.69 292.73 181.13 289.94 176.46 292.37 175 295.17 179.69"/><polygon class="cls-1" points="290.31 182.57 287.87 184.01 285.1 179.43 287.5 177.93 290.31 182.57"/><polygon class="cls-1" points="285.43 185.45 282.99 186.9 280.28 182.43 282.68 180.93 285.43 185.45"/><polygon class="cls-1" points="280.55 188.34 278.11 189.78 275.47 185.43 277.88 183.93 280.55 188.34"/><polygon class="cls-1" points="275.65 191.22 273.2 192.65 270.65 188.39 273.07 186.91 275.65 191.22"/><polygon class="cls-1" points="270.72 194.08 268.26 195.48 265.82 191.31 268.25 189.85 270.72 194.08"/><polygon class="cls-1" points="265.75 196.88 263.26 198.23 260.97 194.19 263.41 192.75 265.75 196.88"/><polygon class="cls-1" points="260.71 199.58 258.18 200.88 256.09 196.98 258.56 195.59 260.71 199.58"/><polygon class="cls-1" points="255.59 202.17 253.03 203.39 251.14 199.63 253.65 198.31 255.59 202.17"/><polygon class="cls-1" points="250.38 204.6 247.78 205.73 246.13 202.1 248.68 200.88 250.38 204.6"/><path class="cls-1" d="M245.07,206.83l-1.33.49-.3.11-.24.09-.43.14-.42.14-1.29-3.5.41-.16.42-.17.24-.09.19-.09,1.3-.56Z"/><polygon class="cls-1" points="239.31 208.6 236.52 209.05 235.88 205.69 238.65 205.09 239.31 208.6"/><polygon class="cls-1" points="233.39 209.27 230.56 209.22 230.53 206.1 233.36 206 233.39 209.27"/><polygon class="cls-1" points="227.51 208.93 224.71 208.45 225.11 205.66 227.93 205.99 227.51 208.93"/><polygon class="cls-1" points="221.8 207.74 219.09 206.9 219.72 204.55 222.48 205.2 221.8 207.74"/><polygon class="cls-1" points="216.32 205.89 213.71 204.79 214.43 202.88 217.11 203.8 216.32 205.89"/><polygon class="cls-1" points="211.07 203.56 208.55 202.25 209.25 200.78 211.86 201.89 211.07 203.56"/><polygon class="cls-1" points="206.04 200.83 203.62 199.36 204.18 198.34 206.72 199.61 206.04 200.83"/><polygon class="cls-1" points="201.21 197.81 198.87 196.2 199.22 195.65 201.7 197.03 201.21 197.81"/><polygon class="cls-1" points="196.56 194.53 194.3 192.82 194.35 192.74 196.77 194.22 196.56 194.53"/><polygon class="cls-1" points="163.27 120.83 163.63 118.02 163.91 118.06 163.27 120.83"/><polygon class="cls-1" points="164.05 115.2 164.52 112.4 165.34 112.58 164.59 115.32 164.05 115.2"/><polygon class="cls-1" points="165.08 109.6 165.72 106.83 166.98 107.17 166.13 109.88 165.08 109.6"/><polygon class="cls-1" points="166.44 104.04 167.24 101.32 168.92 101.89 167.9 104.54 166.44 104.04"/><polygon class="cls-1" points="168.17 98.56 169.18 95.91 171.17 96.75 169.98 99.33 168.17 98.56"/><polygon class="cls-1" points="170.35 93.22 171.6 90.67 173.85 91.87 172.43 94.33 170.35 93.22"/><polygon class="cls-1" points="173.07 88.06 174.61 85.69 177 87.34 175.32 89.62 173.07 88.06"/><polygon class="cls-1" points="176.46 83.25 178.33 81.13 180.68 83.31 178.69 85.34 176.46 83.25"/><polygon class="cls-1" points="180.58 78.97 182.79 77.19 184.92 79.99 182.62 81.65 180.58 78.97"/><path class="cls-1" d="M185.45,75.46l1.25-.67.86-.45.29-.15,0,0,.12,0,0,0,1.52,3.5h0l.09,0h0l-.05,0-.29.13-.88.41-1.29.6Z"/><polygon class="cls-1" points="190.7 72.91 193.32 71.83 194.79 75.61 192.13 76.58 190.7 72.91"/><polygon class="cls-1" points="196.04 70.79 198.71 69.82 200.09 73.85 197.39 74.72 196.04 70.79"/><polygon class="cls-1" points="201.45 68.88 204.14 67.99 205.46 72.27 202.74 73.05 201.45 68.88"/><polygon class="cls-1" points="206.89 67.13 209.6 66.3 210.88 70.82 208.14 71.54 206.89 67.13"/><polygon class="cls-1" points="212.36 65.5 215.09 64.74 216.34 69.43 213.59 70.13 212.36 65.5"/><polygon class="cls-1" points="217.86 63.99 220.6 63.26 221.83 68.1 219.07 68.76 217.86 63.99"/><polygon class="cls-1" points="223.36 62.53 226.1 61.82 227.33 66.8 224.57 67.44 223.36 62.53"/><polygon class="cls-1" points="228.85 61.12 231.6 60.41 232.85 65.52 230.08 66.16 228.85 61.12"/><polygon class="cls-1" points="234.34 59.71 237.09 59 238.37 64.23 235.61 64.88 234.34 59.71"/><polygon class="cls-1" points="239.82 58.3 242.56 57.6 243.9 62.89 241.14 63.57 239.82 58.3"/><polygon class="cls-1" points="245.28 56.89 248.02 56.16 249.42 61.48 246.67 62.19 245.28 56.89"/><polygon class="cls-1" points="250.72 55.43 253.45 54.66 254.93 60 252.19 60.75 250.72 55.43"/><polygon class="cls-1" points="256.12 53.88 258.83 53.06 260.43 58.41 257.71 59.21 256.12 53.88"/><path class="cls-1" d="M261.47,52.22l.42-.14.46-.15.33-.1.36-.09a9.75,9.75,0,0,1,2-.26l.08,5.63a4.08,4.08,0,0,0-.79.09l-.15,0-.16,0-.42.13-.42.14Z"/><path class="cls-1" d="M269.09,52.36l.11,0,.42.22a9.7,9.7,0,0,1,1.17.77,9.57,9.57,0,0,1,1.45,1.42l-4.37,3.6a3.64,3.64,0,0,0-.57-.55,2.61,2.61,0,0,0-.45-.31l-.14-.08-.11,0Z"/><path class="cls-1" d="M274.07,58.5l0,.11c0,.06.07.32.09.48a9.3,9.3,0,0,1,.13,1.41,9.4,9.4,0,0,1-.21,2l-5.5-1.17a3.71,3.71,0,0,0,.08-.79,3.88,3.88,0,0,0-.06-.53l0-.15,0-.12Z"/><polygon class="cls-1" points="273.21 65.47 272.37 68.18 267.03 66.54 267.85 63.83 273.21 65.47"/><polygon class="cls-1" points="271.58 70.84 270.8 73.56 265.47 72.06 266.23 69.33 271.58 70.84"/><polygon class="cls-1" points="270.05 76.25 269.31 78.99 264 77.58 264.72 74.84 270.05 76.25"/><polygon class="cls-1" points="268.6 81.7 267.89 84.44 262.61 83.11 263.3 80.35 268.6 81.7"/><polygon class="cls-1" points="267.2 87.17 266.49 89.92 261.29 88.64 261.93 85.88 267.2 87.17"/><polygon class="cls-1" points="265.78 92.66 265.08 95.4 260 94.17 260.64 91.4 265.78 92.66"/><polygon class="cls-1" points="264.38 98.15 263.67 100.9 258.72 99.68 259.36 96.92 264.38 98.15"/><polygon class="cls-1" points="262.95 103.66 262.23 106.4 257.42 105.19 258.07 102.43 262.95 103.66"/><polygon class="cls-1" points="261.49 109.16 260.74 111.89 256.06 110.67 256.75 107.92 261.49 109.16"/><polygon class="cls-1" points="259.96 114.66 259.14 117.38 254.67 116.13 255.38 113.39 259.96 114.66"/><polygon class="cls-1" points="258.3 120.13 257.43 122.83 253.19 121.56 253.95 118.83 258.3 120.13"/><polygon class="cls-1" points="256.51 125.58 255.56 128.25 251.57 126.93 252.41 124.22 256.51 125.58"/><polygon class="cls-1" points="254.55 130.99 253.5 133.62 249.77 132.23 250.71 129.55 254.55 130.99"/><path class="cls-1" d="M252.37,136.32l-.59,1.29c-.09.17-.17.35-.25.51l-.2.41-.2.4-3.38-1.57.17-.4c.05-.12.11-.27.18-.42s.07-.15.1-.23l.08-.2.52-1.31Z"/><polygon class="cls-1" points="249.55 141.64 247.89 143.94 245.06 142.01 246.6 139.62 249.55 141.64"/><polygon class="cls-1" points="245.84 146.3 243.8 148.27 241.57 146.08 243.5 144.01 245.84 146.3"/><polygon class="cls-1" points="241.44 150.22 239.12 151.86 237.43 149.6 239.66 147.84 241.44 150.22"/><polygon class="cls-1" points="236.56 153.42 234.05 154.74 232.84 152.63 235.25 151.14 236.56 153.42"/><polygon class="cls-1" points="231.38 155.99 228.76 157.06 227.92 155.19 230.46 153.94 231.38 155.99"/><polygon class="cls-1" points="226.02 158.05 223.32 158.9 222.76 157.37 225.39 156.31 226.02 158.05"/><polygon class="cls-1" points="220.54 159.68 217.78 160.35 217.46 159.23 220.15 158.33 220.54 159.68"/><polygon class="cls-1" points="214.99 160.96 212.19 161.47 212.04 160.83 214.77 160.05 214.99 160.96"/><polygon class="cls-1" points="209.37 161.92 206.56 162.31 206.54 162.22 209.3 161.55 209.37 161.92"/><polygon class="cls-1" points="121.63 163.11 118.81 162.75 118.86 162.47 121.63 163.11"/><polygon class="cls-1" points="116 162.33 113.2 161.85 113.38 161.03 116.12 161.78 116 162.33"/><polygon class="cls-1" points="110.39 161.29 107.63 160.66 107.97 159.39 110.68 160.25 110.39 161.29"/><polygon class="cls-1" points="104.84 159.93 102.11 159.13 102.68 157.45 105.33 158.47 104.84 159.93"/><polygon class="cls-1" points="99.36 158.2 96.71 157.19 97.55 155.2 100.13 156.39 99.36 158.2"/><polygon class="cls-1" points="94.01 156.02 91.47 154.76 92.67 152.52 95.13 153.94 94.01 156.02"/><polygon class="cls-1" points="88.86 153.29 86.48 151.75 88.14 149.36 90.42 151.05 88.86 153.29"/><polygon class="cls-1" points="84.06 149.91 81.93 148.03 84.12 145.68 86.14 147.67 84.06 149.91"/><polygon class="cls-1" points="79.78 145.77 78 143.56 80.8 141.44 82.45 143.74 79.78 145.77"/><path class="cls-1" d="M76.27,140.9l-.66-1.25c-.17-.31-.33-.63-.46-.86L75,138.5l-.09-.19,3.49-1.52v0l0,0h0l0-.08h0v0c0,.07.08.17.14.29L79,138l.59,1.29Z"/><polygon class="cls-1" points="73.73 135.65 72.65 133.03 76.42 131.56 77.4 134.22 73.73 135.65"/><polygon class="cls-1" points="71.6 130.31 70.64 127.64 74.67 126.27 75.53 128.96 71.6 130.31"/><polygon class="cls-1" points="69.69 124.9 68.81 122.21 73.09 120.89 73.87 123.61 69.69 124.9"/><polygon class="cls-1" points="67.94 119.46 67.11 116.75 71.63 115.47 72.35 118.21 67.94 119.46"/><polygon class="cls-1" points="66.31 113.99 65.55 111.26 70.25 110.01 70.94 112.76 66.31 113.99"/><polygon class="cls-1" points="64.8 108.49 64.07 105.75 68.91 104.52 69.58 107.28 64.8 108.49"/><polygon class="cls-1" points="63.35 102.99 62.64 100.25 67.61 99.02 68.26 101.78 63.35 102.99"/><polygon class="cls-1" points="61.93 97.5 61.23 94.75 66.33 93.51 66.97 96.27 61.93 97.5"/><polygon class="cls-1" points="60.52 92.01 59.82 89.26 65.05 87.98 65.69 90.74 60.52 92.01"/><polygon class="cls-1" points="59.12 86.53 58.41 83.78 63.71 82.46 64.39 85.21 59.12 86.53"/><polygon class="cls-1" points="57.71 81.07 56.98 78.33 62.3 76.94 63.01 79.68 57.71 81.07"/><polygon class="cls-1" points="56.24 75.63 55.48 72.9 60.82 71.42 61.57 74.16 56.24 75.63"/><polygon class="cls-1" points="54.7 70.23 53.88 67.52 59.23 65.92 60.03 68.64 54.7 70.23"/><path class="cls-1" d="M53,64.88l-.14-.42q-.06-.21-.15-.45l-.1-.35-.09-.36a9.36,9.36,0,0,1-.25-2l5.63-.05A3.33,3.33,0,0,0,58,62l0,.15,0,.15.13.41.13.42Z"/><path class="cls-1" d="M53.2,57.25l.06-.11.22-.42a9.43,9.43,0,0,1,.78-1.16,9,9,0,0,1,1.42-1.45l3.58,4.39a3.86,3.86,0,0,0-.55.56,3.7,3.7,0,0,0-.31.45l-.08.15,0,.11Z"/><path class="cls-1" d="M59.37,52.3l.12,0,.47-.09a9.4,9.4,0,0,1,1.41-.12,9.78,9.78,0,0,1,2,.22l-1.19,5.49a3.71,3.71,0,0,0-.79-.08l-.53.05-.16,0-.12,0Z"/><polygon class="cls-1" points="66.33 53.18 69.04 54.02 67.4 59.36 64.69 58.54 66.33 53.18"/><polygon class="cls-1" points="71.69 54.81 74.42 55.59 72.92 60.92 70.18 60.16 71.69 54.81"/><polygon class="cls-1" points="77.11 56.34 79.84 57.08 78.44 62.38 75.69 61.67 77.11 56.34"/><polygon class="cls-1" points="82.56 57.79 85.3 58.5 83.96 63.78 81.21 63.09 82.56 57.79"/><polygon class="cls-1" points="88.03 59.19 90.78 59.9 89.49 65.1 86.73 64.45 88.03 59.19"/><polygon class="cls-1" points="93.52 60.6 96.26 61.31 95.02 66.38 92.26 65.75 93.52 60.6"/><polygon class="cls-1" points="99.01 62.01 101.76 62.72 100.54 67.67 97.78 67.02 99.01 62.01"/><polygon class="cls-1" points="104.51 63.44 107.26 64.16 106.05 68.97 103.29 68.31 104.51 63.44"/><polygon class="cls-1" points="110.02 64.9 112.75 65.65 111.53 70.32 108.78 69.64 110.02 64.9"/><polygon class="cls-1" points="115.52 66.44 118.23 67.25 116.99 71.72 114.24 71.01 115.52 66.44"/><polygon class="cls-1" points="120.99 68.1 123.69 68.97 122.42 73.2 119.68 72.44 120.99 68.1"/><polygon class="cls-1" points="126.44 69.89 129.11 70.83 127.79 74.83 125.08 73.98 126.44 69.89"/><polygon class="cls-1" points="131.84 71.85 134.48 72.9 133.08 76.63 130.41 75.69 131.84 71.85"/><path class="cls-1" d="M137.17,74l1.29.59.29.13.23.12.4.2.4.2-1.56,3.38-.41-.18-.42-.17-.23-.11-.2-.07-1.31-.53Z"/><polygon class="cls-1" points="142.49 76.86 144.79 78.52 142.85 81.35 140.47 79.81 142.49 76.86"/><polygon class="cls-1" points="147.15 80.57 149.12 82.62 146.93 84.84 144.85 82.91 147.15 80.57"/><polygon class="cls-1" points="151.06 84.98 152.7 87.3 150.44 88.98 148.69 86.76 151.06 84.98"/><polygon class="cls-1" points="154.25 89.86 155.58 92.37 153.47 93.58 151.98 91.17 154.25 89.86"/><polygon class="cls-1" points="156.82 95.04 157.89 97.67 156.03 98.5 154.78 95.96 156.82 95.04"/><polygon class="cls-1" points="158.88 100.4 159.74 103.11 158.2 103.66 157.14 101.03 158.88 100.4"/><polygon class="cls-1" points="160.51 105.89 161.18 108.64 160.06 108.97 159.17 106.28 160.51 105.89"/><polygon class="cls-1" points="161.79 111.44 162.3 114.23 161.66 114.38 160.88 111.65 161.79 111.44"/><polygon class="cls-1" points="162.75 117.05 163.14 119.86 163.05 119.88 162.38 117.12 162.75 117.05"/><polygon class="cls-1" points="163.94 204.76 163.58 207.57 163.3 207.52 163.94 204.76"/><polygon class="cls-1" points="163.16 210.39 162.69 213.19 161.87 213 162.61 210.27 163.16 210.39"/><polygon class="cls-1" points="162.12 215.99 161.49 218.76 160.22 218.41 161.08 215.71 162.12 215.99"/><polygon class="cls-1" points="160.76 221.54 159.96 224.27 158.28 223.7 159.3 221.05 160.76 221.54"/><polygon class="cls-1" points="159.03 227.02 158.02 229.67 156.03 228.83 157.22 226.25 159.03 227.02"/><polygon class="cls-1" points="156.84 232.37 155.59 234.91 153.35 233.71 154.77 231.26 156.84 232.37"/><polygon class="cls-1" points="154.13 237.52 152.58 239.9 150.19 238.24 151.88 235.96 154.13 237.52"/><polygon class="cls-1" points="150.74 242.32 148.86 244.45 146.51 242.26 148.5 240.24 150.74 242.32"/><polygon class="cls-1" points="146.6 246.6 144.39 248.38 142.27 245.58 144.57 243.93 146.6 246.6"/><path class="cls-1" d="M141.74,250.12l-1.26.66-.86.45-.28.15-.2.1-1.52-3.5h.06l-.08,0h0l.05,0,.29-.13.89-.41,1.28-.59Z"/><polygon class="cls-1" points="136.48 252.66 133.86 253.73 132.4 249.96 135.06 248.99 136.48 252.66"/><polygon class="cls-1" points="131.14 254.78 128.47 255.75 127.1 251.71 129.79 250.85 131.14 254.78"/><polygon class="cls-1" points="125.73 256.69 123.04 257.57 121.72 253.29 124.45 252.51 125.73 256.69"/><polygon class="cls-1" points="120.29 258.44 117.58 259.26 116.3 254.74 119.04 254.03 120.29 258.44"/><polygon class="cls-1" points="114.82 260.07 112.09 260.83 110.84 256.13 113.59 255.43 114.82 260.07"/><polygon class="cls-1" points="109.32 261.58 106.58 262.31 105.35 257.46 108.11 256.8 109.32 261.58"/><polygon class="cls-1" points="103.82 263.03 101.08 263.74 99.85 258.76 102.61 258.12 103.82 263.03"/><polygon class="cls-1" points="98.33 264.44 95.58 265.15 94.33 260.04 97.1 259.4 98.33 264.44"/><polygon class="cls-1" points="92.84 265.85 90.09 266.56 88.81 261.33 91.57 260.68 92.84 265.85"/><polygon class="cls-1" points="87.36 267.26 84.61 267.96 83.28 262.67 86.04 261.99 87.36 267.26"/><polygon class="cls-1" points="81.9 268.67 79.16 269.39 77.76 264.07 80.51 263.37 81.9 268.67"/><polygon class="cls-1" points="76.46 270.13 73.73 270.9 72.25 265.56 74.98 264.81 76.46 270.13"/><polygon class="cls-1" points="71.06 271.67 68.35 272.5 66.75 267.14 69.47 266.34 71.06 271.67"/><path class="cls-1" d="M65.71,273.34l-.42.13-.46.15-.33.1-.37.1a9.36,9.36,0,0,1-2,.25l-.06-5.63a4.08,4.08,0,0,0,.79-.09l.15,0,.16,0,.41-.14L64,268Z"/><path class="cls-1" d="M58.09,273.19l-.11-.06-.42-.22a9.47,9.47,0,0,1-1.17-.78,9.07,9.07,0,0,1-1.45-1.42l4.38-3.59a4,4,0,0,0,.57.56,3.19,3.19,0,0,0,.45.3l.14.08.11.06Z"/><path class="cls-1" d="M53.12,267l0-.11-.09-.48a9.21,9.21,0,0,1,.09-3.44l5.5,1.18a3.41,3.41,0,0,0,0,1.32.56.56,0,0,1,0,.15l0,.12Z"/><polygon class="cls-1" points="53.99 260.06 54.84 257.36 60.17 258.99 59.35 261.71 53.99 260.06"/><polygon class="cls-1" points="55.63 254.7 56.41 251.97 61.73 253.48 60.97 256.21 55.63 254.7"/><polygon class="cls-1" points="57.16 249.29 57.89 246.55 63.2 247.96 62.48 250.7 57.16 249.29"/><polygon class="cls-1" points="58.61 243.84 59.31 241.09 64.59 242.43 63.91 245.18 58.61 243.84"/><polygon class="cls-1" points="60.01 238.36 60.72 235.62 65.92 236.9 65.27 239.66 60.01 238.36"/><polygon class="cls-1" points="61.42 232.88 62.13 230.13 67.2 231.37 66.56 234.13 61.42 232.88"/><polygon class="cls-1" points="62.83 227.38 63.54 224.64 68.48 225.85 67.84 228.62 62.83 227.38"/><polygon class="cls-1" points="64.26 221.88 64.98 219.14 69.79 220.35 69.13 223.11 64.26 221.88"/><polygon class="cls-1" points="65.72 216.38 66.47 213.64 71.14 214.87 70.46 217.62 65.72 216.38"/><polygon class="cls-1" points="67.25 210.88 68.06 208.16 72.54 209.41 71.83 212.15 67.25 210.88"/><polygon class="cls-1" points="68.92 205.41 69.78 202.71 74.02 203.98 73.26 206.71 68.92 205.41"/><polygon class="cls-1" points="70.7 199.96 71.65 197.28 75.64 198.61 74.8 201.32 70.7 199.96"/><polygon class="cls-1" points="72.66 194.55 73.71 191.91 77.44 193.31 76.5 195.99 72.66 194.55"/><path class="cls-1" d="M74.85,189.22l.59-1.29.13-.29.12-.23.2-.4.19-.4,3.39,1.57-.18.4q-.08.19-.18.42a2.29,2.29,0,0,1-.1.23l-.08.2-.52,1.31Z"/><polygon class="cls-1" points="77.67 183.9 79.33 181.61 82.16 183.54 80.62 185.92 77.67 183.9"/><polygon class="cls-1" points="81.38 179.24 83.42 177.28 85.65 179.47 83.72 181.54 81.38 179.24"/><polygon class="cls-1" points="85.79 175.33 88.1 173.69 89.79 175.95 87.57 177.71 85.79 175.33"/><polygon class="cls-1" points="90.67 172.13 93.18 170.81 94.39 172.92 91.97 174.41 90.67 172.13"/><polygon class="cls-1" points="95.85 169.57 98.47 168.49 99.31 170.36 96.76 171.61 95.85 169.57"/><polygon class="cls-1" points="101.2 167.5 103.91 166.65 104.46 168.18 101.83 169.24 101.2 167.5"/><polygon class="cls-1" points="106.69 165.88 109.44 165.2 109.77 166.32 107.08 167.22 106.69 165.88"/><polygon class="cls-1" points="112.24 164.59 115.03 164.08 115.18 164.72 112.45 165.5 112.24 164.59"/><polygon class="cls-1" points="117.85 163.63 120.66 163.24 120.68 163.33 117.92 164 117.85 163.63"/><polygon class="cls-1" points="205.55 162.44 208.37 162.8 208.32 163.08 205.55 162.44"/><polygon class="cls-1" points="211.18 163.22 213.98 163.69 213.8 164.51 211.06 163.76 211.18 163.22"/><polygon class="cls-1" points="216.78 164.26 219.55 164.89 219.21 166.16 216.5 165.3 216.78 164.26"/><polygon class="cls-1" points="222.34 165.61 225.06 166.41 224.5 168.09 221.85 167.07 222.34 165.61"/><polygon class="cls-1" points="227.82 167.34 230.47 168.35 229.63 170.34 227.05 169.16 227.82 167.34"/><polygon class="cls-1" points="233.17 169.52 235.71 170.78 234.51 173.02 232.06 171.6 233.17 169.52"/><polygon class="cls-1" points="238.32 172.24 240.7 173.79 239.04 176.18 236.76 174.49 238.32 172.24"/><polygon class="cls-1" points="243.13 175.63 245.25 177.5 243.07 179.85 241.04 177.87 243.13 175.63"/><polygon class="cls-1" points="247.41 179.76 249.18 181.97 246.39 184.09 244.73 181.79 247.41 179.76"/><path class="cls-1" d="M250.92,184.63l.66,1.25c.17.31.33.63.46.86l.15.29.08.16v0l-3.49,1.52v0h0l0,.08h0v0l0,0-.14-.29-.41-.88c-.29-.65-.59-1.29-.59-1.29Z"/><polygon class="cls-1" points="253.46 189.88 254.54 192.5 250.77 193.97 249.79 191.31 253.46 189.88"/><polygon class="cls-1" points="255.59 195.22 256.56 197.89 252.52 199.27 251.66 196.57 255.59 195.22"/><polygon class="cls-1" points="257.5 200.63 258.39 203.32 254.1 204.64 253.32 201.92 257.5 200.63"/><polygon class="cls-1" points="259.25 206.07 260.08 208.78 255.56 210.06 254.84 207.32 259.25 206.07"/><polygon class="cls-1" points="260.88 211.54 261.64 214.27 256.94 215.52 256.25 212.77 260.88 211.54"/><polygon class="cls-1" points="262.39 217.04 263.12 219.78 258.28 221.01 257.62 218.25 262.39 217.04"/><polygon class="cls-1" points="263.84 222.54 264.55 225.28 259.58 226.51 258.93 223.75 263.84 222.54"/><polygon class="cls-1" points="265.26 228.03 265.96 230.78 260.86 232.02 260.22 229.26 265.26 228.03"/><polygon class="cls-1" points="266.67 233.52 267.38 236.27 262.15 237.55 261.5 234.79 266.67 233.52"/><polygon class="cls-1" points="268.08 239 268.78 241.74 263.49 243.07 262.81 240.32 268.08 239"/><polygon class="cls-1" points="269.49 244.46 270.21 247.2 264.89 248.59 264.19 245.85 269.49 244.46"/><polygon class="cls-1" points="270.95 249.9 271.72 252.63 266.37 254.11 265.63 251.37 270.95 249.9"/><polygon class="cls-1" points="272.49 255.29 273.31 258.01 267.96 259.61 267.16 256.89 272.49 255.29"/><path class="cls-1" d="M274.15,260.65l.14.42.15.46c0,.1.07.21.1.33l.1.36a9.36,9.36,0,0,1,.25,2l-5.62.08a3.81,3.81,0,0,0-.1-.8l0-.15,0-.16-.14-.41-.13-.42Z"/><path class="cls-1" d="M274,268.27l0,.11c-.06.1-.14.24-.23.42A9.3,9.3,0,0,1,273,270a9.57,9.57,0,0,1-1.42,1.45l-3.6-4.37a4,4,0,0,0,.56-.57,3.19,3.19,0,0,0,.3-.45l.08-.14.05-.11Z"/><path class="cls-1" d="M267.88,273.25l-.12,0c-.06,0-.31.07-.48.09a9.17,9.17,0,0,1-1.41.13,9.5,9.5,0,0,1-2-.21l1.17-5.5a3.36,3.36,0,0,0,.79.07,2.65,2.65,0,0,0,.53-.05l.16,0,.11,0Z"/><polygon class="cls-1" points="260.9 272.39 258.19 271.55 259.83 266.21 262.54 267.03 260.9 272.39"/><polygon class="cls-1" points="255.54 270.75 252.81 269.97 254.32 264.65 257.05 265.41 255.54 270.75"/><polygon class="cls-1" points="250.12 269.23 247.39 268.49 248.79 263.18 251.54 263.9 250.12 269.23"/><polygon class="cls-1" points="244.68 267.77 241.93 267.07 243.27 261.79 246.02 262.47 244.68 267.77"/><polygon class="cls-1" points="239.2 266.37 236.46 265.66 237.74 260.46 240.5 261.11 239.2 266.37"/><polygon class="cls-1" points="233.72 264.96 230.97 264.25 232.21 259.18 234.97 259.82 233.72 264.96"/><polygon class="cls-1" points="228.22 263.55 225.48 262.84 226.69 257.89 229.45 258.54 228.22 263.55"/><polygon class="cls-1" points="222.72 262.12 219.98 261.4 221.19 256.59 223.94 257.25 222.72 262.12"/><polygon class="cls-1" points="217.22 260.66 214.48 259.91 215.7 255.24 218.46 255.92 217.22 260.66"/><polygon class="cls-1" points="211.72 259.13 209 258.31 210.24 253.84 212.99 254.55 211.72 259.13"/><polygon class="cls-1" points="206.24 257.46 203.54 256.6 204.82 252.36 207.55 253.12 206.24 257.46"/><polygon class="cls-1" points="200.8 255.68 198.12 254.73 199.44 250.74 202.15 251.58 200.8 255.68"/><polygon class="cls-1" points="195.39 253.72 192.75 252.67 194.15 248.94 196.82 249.88 195.39 253.72"/><path class="cls-1" d="M190.06,251.53l-1.29-.59-.29-.13-.23-.12-.41-.2-.39-.19,1.56-3.39.41.18.42.18.23.1.19.07,1.32.53Z"/><polygon class="cls-1" points="184.74 248.72 182.44 247.06 184.37 244.23 186.75 245.76 184.74 248.72"/><polygon class="cls-1" points="180.08 245 178.11 242.96 180.3 240.74 182.37 242.67 180.08 245"/><polygon class="cls-1" points="176.16 240.6 174.52 238.28 176.78 236.6 178.54 238.82 176.16 240.6"/><polygon class="cls-1" points="172.96 235.72 171.64 233.21 173.75 232 175.24 234.41 172.96 235.72"/><polygon class="cls-1" points="170.4 230.54 169.32 227.92 171.19 227.08 172.44 229.62 170.4 230.54"/><polygon class="cls-1" points="168.33 225.18 167.48 222.48 169.01 221.93 170.07 224.56 168.33 225.18"/><polygon class="cls-1" points="166.7 219.7 166.03 216.94 167.15 216.62 168.04 219.31 166.7 219.7"/><polygon class="cls-1" points="165.42 214.15 164.91 211.35 165.55 211.21 166.33 213.94 165.42 214.15"/><polygon class="cls-1" points="164.46 208.54 164.07 205.72 164.16 205.71 164.83 208.47 164.46 208.54"/></g></g></svg>