<svg xmlns="http://www.w3.org/2000/svg" viewBox="0 0 454.89 309.92"><defs><style>.cls-1{fill:#f9af77;}</style></defs><title>Asset 10</title><g id="Layer_2" data-name="Layer 2"><g id="Layer_1-2" data-name="Layer 1"><polygon class="cls-1" points="21.02 90.06 21.02 89.88 18.19 89.97 21.02 90.06"/><polygon class="cls-1" points="23.86 90.15 26.69 90.23 26.69 89.7 23.86 89.79 23.86 90.15"/><polygon class="cls-1" points="29.53 90.32 32.36 90.41 32.36 89.53 29.53 89.61 29.53 90.32"/><polygon class="cls-1" points="35.2 90.48 38.03 90.56 38.03 89.38 35.2 89.45 35.2 90.48"/><polygon class="cls-1" points="63.54 91.16 66.38 91.22 66.38 88.72 63.54 88.78 63.54 91.16"/><polygon class="cls-1" points="69.21 91.28 72.05 91.34 72.05 88.6 69.21 88.66 69.21 91.28"/><polygon class="cls-1" points="74.88 91.4 77.72 91.44 77.72 88.49 74.88 88.54 74.88 91.4"/><polygon class="cls-1" points="80.55 91.49 83.39 91.54 83.39 88.4 80.55 88.45 80.55 91.49"/><polygon class="cls-1" points="86.22 91.58 89.06 91.63 89.06 88.3 86.22 88.35 86.22 91.58"/><polygon class="cls-1" points="91.89 91.68 94.72 91.73 94.72 88.21 91.89 88.26 91.89 91.68"/><polygon class="cls-1" points="97.56 91.78 100.39 91.82 100.39 88.11 97.56 88.16 97.56 91.78"/><polygon class="cls-1" points="103.23 91.87 106.06 91.92 106.06 88.02 103.23 88.07 103.23 91.87"/><polygon class="cls-1" points="108.9 91.95 111.73 91.98 111.73 87.95 108.9 87.99 108.9 91.95"/><polygon class="cls-1" points="114.57 92.02 117.4 92.05 117.4 87.89 114.57 87.92 114.57 92.02"/><polygon class="cls-1" points="120.24 92.09 123.07 92.12 123.07 87.82 120.24 87.85 120.24 92.09"/><polygon class="cls-1" points="125.91 92.16 128.74 92.19 128.74 87.75 125.91 87.78 125.91 92.16"/><polygon class="cls-1" points="131.57 92.22 134.41 92.26 134.41 87.68 131.57 87.71 131.57 92.22"/><polygon class="cls-1" points="154.25 92.44 157.09 92.46 157.09 87.47 154.25 87.49 154.25 92.44"/><polygon class="cls-1" points="159.92 92.48 162.76 92.5 162.76 87.43 159.92 87.45 159.92 92.48"/><polygon class="cls-1" points="165.59 92.53 168.43 92.55 168.43 87.39 165.59 87.41 165.59 92.53"/><polygon class="cls-1" points="171.26 92.57 174.09 92.59 174.09 87.35 171.26 87.37 171.26 92.57"/><polygon class="cls-1" points="176.93 92.61 179.76 92.63 179.76 87.31 176.93 87.33 176.93 92.61"/><polygon class="cls-1" points="182.6 92.65 185.43 92.67 185.43 87.27 182.6 87.29 182.6 92.65"/><polygon class="cls-1" points="188.27 92.69 191.1 92.69 191.1 87.25 188.27 87.25 188.27 92.69"/><polygon class="cls-1" points="193.94 92.7 196.77 92.7 196.77 87.23 193.94 87.24 193.94 92.7"/><polygon class="cls-1" points="199.61 92.71 202.44 92.72 202.44 87.22 199.61 87.22 199.61 92.71"/><polygon class="cls-1" points="205.28 92.73 208.11 92.73 208.11 87.2 205.28 87.21 205.28 92.73"/><polygon class="cls-1" points="210.95 92.74 213.78 92.75 213.78 87.19 210.95 87.2 210.95 92.74"/><polygon class="cls-1" points="216.62 92.75 219.45 92.76 219.45 87.18 216.62 87.18 216.62 92.75"/><polygon class="cls-1" points="222.28 92.77 225.12 92.77 225.12 87.16 222.28 87.17 222.28 92.77"/><polygon class="cls-1" points="227.95 92.78 230.79 92.79 230.79 87.15 227.95 87.16 227.95 92.78"/><polygon class="cls-1" points="233.62 92.8 236.46 92.8 236.46 87.14 233.62 87.14 233.62 92.8"/><polygon class="cls-1" points="239.29 92.8 242.13 92.79 242.13 87.15 239.29 87.14 239.29 92.8"/><polygon class="cls-1" points="244.96 92.78 247.8 92.78 247.8 87.16 244.96 87.15 244.96 92.78"/><polygon class="cls-1" points="290.32 92.66 293.15 92.64 293.15 87.3 290.32 87.28 290.32 92.66"/><polygon class="cls-1" points="295.99 92.62 298.82 92.6 298.82 87.34 295.99 87.32 295.99 92.62"/><polygon class="cls-1" points="301.65 92.58 304.49 92.56 304.49 87.38 301.65 87.36 301.65 92.58"/><polygon class="cls-1" points="307.32 92.53 310.16 92.51 310.16 87.42 307.32 87.4 307.32 92.53"/><polygon class="cls-1" points="312.99 92.49 315.83 92.47 315.83 87.47 312.99 87.44 312.99 92.49"/><polygon class="cls-1" points="318.66 92.45 321.5 92.43 321.5 87.51 318.66 87.49 318.66 92.45"/><polygon class="cls-1" points="324.33 92.41 327.17 92.39 327.17 87.55 324.33 87.53 324.33 92.41"/><polygon class="cls-1" points="330 92.37 332.83 92.34 332.83 87.6 330 87.57 330 92.37"/><polygon class="cls-1" points="335.67 92.3 338.5 92.27 338.5 87.67 335.67 87.64 335.67 92.3"/><polygon class="cls-1" points="341.34 92.23 344.17 92.2 344.17 87.74 341.34 87.7 341.34 92.23"/><polygon class="cls-1" points="347.01 92.17 349.84 92.13 349.84 87.81 347.01 87.77 347.01 92.17"/><polygon class="cls-1" points="352.68 92.1 355.51 92.06 355.51 87.88 352.68 87.84 352.68 92.1"/><polygon class="cls-1" points="358.35 92.03 361.18 91.99 361.18 87.94 358.35 87.91 358.35 92.03"/><polygon class="cls-1" points="364.02 91.96 366.85 91.92 366.85 88.01 364.02 87.98 364.02 91.96"/><polygon class="cls-1" points="369.69 91.88 372.52 91.83 372.52 88.1 369.69 88.06 369.69 91.88"/><polygon class="cls-1" points="375.36 91.79 378.19 91.74 378.19 88.2 375.36 88.15 375.36 91.79"/><polygon class="cls-1" points="381.02 91.69 383.86 91.64 383.86 88.29 381.02 88.25 381.02 91.69"/><polygon class="cls-1" points="386.69 91.6 389.53 91.55 389.53 88.39 386.69 88.34 386.69 91.6"/><polygon class="cls-1" points="392.36 91.5 395.2 91.45 395.2 88.48 392.36 88.44 392.36 91.5"/><polygon class="cls-1" points="398.03 91.4 400.87 91.35 400.87 88.59 398.03 88.53 398.03 91.4"/><polygon class="cls-1" points="403.7 91.29 406.54 91.23 406.54 88.71 403.7 88.65 403.7 91.29"/><polygon class="cls-1" points="409.37 91.17 412.2 91.1 412.2 88.83 409.37 88.77 409.37 91.17"/><polygon class="cls-1" points="415.04 91.04 417.88 90.98 417.88 88.95 415.04 88.89 415.04 91.04"/><polygon class="cls-1" points="420.71 90.92 423.54 90.86 423.54 89.08 420.71 89.02 420.71 90.92"/><polygon class="cls-1" points="426.38 90.79 429.21 90.71 429.21 89.22 426.38 89.15 426.38 90.79"/><polygon class="cls-1" points="432.05 90.64 434.88 90.56 434.88 89.37 432.05 89.3 432.05 90.64"/><polygon class="cls-1" points="437.72 90.49 440.55 90.42 440.55 89.52 437.72 89.45 437.72 90.49"/><polygon class="cls-1" points="443.39 90.33 446.22 90.24 446.22 89.7 443.39 89.61 443.39 90.33"/><polygon class="cls-1" points="449.06 90.15 451.89 90.06 451.89 89.88 449.06 89.79 449.06 90.15"/><polygon class="cls-1" points="454.73 89.96 454.73 89.97 454.89 89.97 454.73 89.96"/><polygon class="cls-1" points="21.02 137.03 21.02 136.86 18.19 136.94 21.02 137.03"/><polygon class="cls-1" points="23.86 137.12 26.69 137.21 26.69 136.68 23.86 136.77 23.86 137.12"/><polygon class="cls-1" points="29.53 137.3 32.36 137.39 32.36 136.5 29.53 136.59 29.53 137.3"/><polygon class="cls-1" points="35.2 137.46 38.03 137.53 38.03 136.36 35.2 136.43 35.2 137.46"/><polygon class="cls-1" points="40.87 137.61 43.7 137.68 43.7 136.21 40.87 136.28 40.87 137.61"/><polygon class="cls-1" points="46.54 137.75 49.37 137.83 49.37 136.06 46.54 136.14 46.54 137.75"/><polygon class="cls-1" points="52.2 137.89 55.04 137.95 55.04 135.94 52.2 136 52.2 137.89"/><polygon class="cls-1" points="57.88 138.01 60.71 138.07 60.71 135.82 57.88 135.88 57.88 138.01"/><polygon class="cls-1" points="63.54 138.13 66.38 138.19 66.38 135.7 63.54 135.76 63.54 138.13"/><polygon class="cls-1" points="69.21 138.25 72.05 138.31 72.05 135.58 69.21 135.64 69.21 138.25"/><polygon class="cls-1" points="74.88 138.37 77.72 138.42 77.72 135.47 74.88 135.52 74.88 138.37"/><polygon class="cls-1" points="80.55 138.47 83.39 138.51 83.39 135.38 80.55 135.42 80.55 138.47"/><polygon class="cls-1" points="86.22 138.56 89.06 138.61 89.06 135.28 86.22 135.33 86.22 138.56"/><polygon class="cls-1" points="108.9 138.93 111.73 138.96 111.73 134.93 108.9 134.96 108.9 138.93"/><polygon class="cls-1" points="114.57 138.99 117.4 139.03 117.4 134.86 114.57 134.9 114.57 138.99"/><polygon class="cls-1" points="120.24 139.06 123.07 139.1 123.07 134.79 120.24 134.83 120.24 139.06"/><polygon class="cls-1" points="125.91 139.13 128.74 139.16 128.74 134.72 125.91 134.76 125.91 139.13"/><polygon class="cls-1" points="131.57 139.2 134.41 139.23 134.41 134.66 131.57 134.69 131.57 139.2"/><polygon class="cls-1" points="154.25 139.42 157.09 139.44 157.09 134.45 154.25 134.47 154.25 139.42"/><polygon class="cls-1" points="159.92 139.46 162.76 139.48 162.76 134.41 159.92 134.43 159.92 139.46"/><polygon class="cls-1" points="165.59 139.5 168.43 139.52 168.43 134.37 165.59 134.39 165.59 139.5"/><polygon class="cls-1" points="171.26 139.54 174.09 139.56 174.09 134.32 171.26 134.35 171.26 139.54"/><polygon class="cls-1" points="176.93 139.58 179.76 139.6 179.76 134.28 176.93 134.31 176.93 139.58"/><polygon class="cls-1" points="182.6 139.63 185.43 139.65 185.43 134.24 182.6 134.26 182.6 139.63"/><polygon class="cls-1" points="188.27 139.66 191.1 139.67 191.1 134.22 188.27 134.23 188.27 139.66"/><polygon class="cls-1" points="193.94 139.67 196.77 139.68 196.77 134.21 193.94 134.22 193.94 139.67"/><polygon class="cls-1" points="199.61 139.69 202.44 139.69 202.44 134.19 199.61 134.2 199.61 139.69"/><polygon class="cls-1" points="205.28 139.7 208.11 139.71 208.11 134.18 205.28 134.19 205.28 139.7"/><polygon class="cls-1" points="210.95 139.72 213.78 139.72 213.78 134.17 210.95 134.17 210.95 139.72"/><polygon class="cls-1" points="216.62 139.73 219.45 139.74 219.45 134.15 216.62 134.16 216.62 139.73"/><polygon class="cls-1" points="222.28 139.74 225.12 139.75 225.12 134.14 222.28 134.15 222.28 139.74"/><polygon class="cls-1" points="227.95 139.76 230.79 139.76 230.79 134.13 227.95 134.13 227.95 139.76"/><polygon class="cls-1" points="233.62 139.77 236.46 139.78 236.46 134.11 233.62 134.12 233.62 139.77"/><polygon class="cls-1" points="239.29 139.77 242.13 139.77 242.13 134.12 239.29 134.12 239.29 139.77"/><polygon class="cls-1" points="244.96 139.76 247.8 139.75 247.8 134.13 244.96 134.13 244.96 139.76"/><polygon class="cls-1" points="250.63 139.75 253.47 139.74 253.47 134.15 250.63 134.14 250.63 139.75"/><polygon class="cls-1" points="256.3 139.73 259.13 139.73 259.13 134.16 256.3 134.16 256.3 139.73"/><polygon class="cls-1" points="261.97 139.72 264.8 139.71 264.8 134.18 261.97 134.17 261.97 139.72"/><polygon class="cls-1" points="267.64 139.71 270.47 139.7 270.47 134.19 267.64 134.18 267.64 139.71"/><polygon class="cls-1" points="273.31 139.69 276.14 139.68 276.14 134.21 273.31 134.2 273.31 139.69"/><polygon class="cls-1" points="278.98 139.68 281.81 139.67 281.81 134.22 278.98 134.21 278.98 139.68"/><polygon class="cls-1" points="284.65 139.66 287.48 139.66 287.48 134.23 284.65 134.22 284.65 139.66"/><polygon class="cls-1" points="290.32 139.63 293.15 139.61 293.15 134.28 290.32 134.25 290.32 139.63"/><polygon class="cls-1" points="295.99 139.59 298.82 139.57 298.82 134.32 295.99 134.3 295.99 139.59"/><polygon class="cls-1" points="301.65 139.55 304.49 139.53 304.49 134.36 301.65 134.34 301.65 139.55"/><polygon class="cls-1" points="347.01 139.14 349.84 139.11 349.84 134.78 347.01 134.75 347.01 139.14"/><polygon class="cls-1" points="352.68 139.07 355.51 139.04 355.51 134.85 352.68 134.82 352.68 139.07"/><polygon class="cls-1" points="358.35 139 361.18 138.97 361.18 134.92 358.35 134.89 358.35 139"/><polygon class="cls-1" points="364.02 138.93 366.85 138.9 366.85 134.99 364.02 134.96 364.02 138.93"/><polygon class="cls-1" points="369.69 138.86 372.52 138.81 372.52 135.08 369.69 135.03 369.69 138.86"/><polygon class="cls-1" points="392.36 138.48 395.2 138.43 395.2 135.46 392.36 135.41 392.36 138.48"/><polygon class="cls-1" points="398.03 138.38 400.87 138.32 400.87 135.56 398.03 135.51 398.03 138.38"/><polygon class="cls-1" points="420.71 137.9 423.54 137.84 423.54 136.05 420.71 135.99 420.71 137.9"/><polygon class="cls-1" points="426.38 137.76 429.21 137.69 429.21 136.2 426.38 136.13 426.38 137.76"/><polygon class="cls-1" points="432.05 137.61 434.88 137.54 434.88 136.35 432.05 136.27 432.05 137.61"/><polygon class="cls-1" points="437.72 137.47 440.55 137.39 440.55 136.5 437.72 136.42 437.72 137.47"/><polygon class="cls-1" points="443.39 137.31 446.22 137.22 446.22 136.67 443.39 136.58 443.39 137.31"/><polygon class="cls-1" points="449.06 137.13 451.89 137.04 451.89 136.85 449.06 136.76 449.06 137.13"/><polygon class="cls-1" points="454.73 136.95 454.89 136.94 454.73 136.94 454.73 136.95"/><polygon class="cls-1" points="21.02 184.01 21.02 183.83 18.19 183.92 21.02 184.01"/><polygon class="cls-1" points="23.86 184.1 26.69 184.19 26.69 183.66 23.86 183.74 23.86 184.1"/><polygon class="cls-1" points="29.53 184.27 32.36 184.36 32.36 183.48 29.53 183.57 29.53 184.27"/><polygon class="cls-1" points="35.2 184.44 38.03 184.51 38.03 183.33 35.2 183.41 35.2 184.44"/><polygon class="cls-1" points="57.88 184.99 60.71 185.05 60.71 182.79 57.88 182.85 57.88 184.99"/><polygon class="cls-1" points="63.54 185.11 66.38 185.17 66.38 182.67 63.54 182.73 63.54 185.11"/><polygon class="cls-1" points="69.21 185.23 72.05 185.29 72.05 182.55 69.21 182.61 69.21 185.23"/><polygon class="cls-1" points="74.88 185.35 77.72 185.4 77.72 182.45 74.88 182.49 74.88 185.35"/><polygon class="cls-1" points="80.55 185.44 83.39 185.49 83.39 182.35 80.55 182.4 80.55 185.44"/><polygon class="cls-1" points="86.22 185.54 89.06 185.58 89.06 182.26 86.22 182.3 86.22 185.54"/><polygon class="cls-1" points="91.89 185.63 94.72 185.68 94.72 182.16 91.89 182.21 91.89 185.63"/><polygon class="cls-1" points="97.56 185.73 100.39 185.77 100.39 182.06 97.56 182.11 97.56 185.73"/><polygon class="cls-1" points="103.23 185.82 106.06 185.87 106.06 181.97 103.23 182.02 103.23 185.82"/><polygon class="cls-1" points="108.9 185.9 111.73 185.94 111.73 181.91 108.9 181.94 108.9 185.9"/><polygon class="cls-1" points="114.57 185.97 117.4 186 117.4 181.84 114.57 181.87 114.57 185.97"/><polygon class="cls-1" points="120.24 186.04 123.07 186.07 123.07 181.77 120.24 181.8 120.24 186.04"/><polygon class="cls-1" points="125.91 186.11 128.74 186.14 128.74 181.7 125.91 181.73 125.91 186.11"/><polygon class="cls-1" points="131.57 186.17 134.41 186.21 134.41 181.63 131.57 181.67 131.57 186.17"/><polygon class="cls-1" points="137.25 186.24 140.08 186.28 140.08 181.56 137.25 181.6 137.25 186.24"/><polygon class="cls-1" points="199.61 186.66 202.44 186.67 202.44 181.17 199.61 181.18 199.61 186.66"/><polygon class="cls-1" points="205.28 186.68 208.11 186.68 208.11 181.16 205.28 181.16 205.28 186.68"/><polygon class="cls-1" points="210.95 186.69 213.78 186.7 213.78 181.14 210.95 181.15 210.95 186.69"/><polygon class="cls-1" points="216.62 186.71 219.45 186.71 219.45 181.13 216.62 181.13 216.62 186.71"/><polygon class="cls-1" points="222.28 186.72 225.12 186.73 225.12 181.12 222.28 181.12 222.28 186.72"/><polygon class="cls-1" points="227.95 186.73 230.79 186.74 230.79 181.1 227.95 181.11 227.95 186.73"/><polygon class="cls-1" points="233.62 186.75 236.46 186.75 236.46 181.09 233.62 181.09 233.62 186.75"/><polygon class="cls-1" points="239.29 186.75 242.13 186.74 242.13 181.1 239.29 181.09 239.29 186.75"/><polygon class="cls-1" points="244.96 186.74 247.8 186.73 247.8 181.11 244.96 181.1 244.96 186.74"/><polygon class="cls-1" points="250.63 186.72 253.47 186.72 253.47 181.13 250.63 181.12 250.63 186.72"/><polygon class="cls-1" points="256.3 186.71 259.13 186.7 259.13 181.14 256.3 181.13 256.3 186.71"/><polygon class="cls-1" points="261.97 186.69 264.8 186.69 264.8 181.15 261.97 181.15 261.97 186.69"/><polygon class="cls-1" points="267.64 186.68 270.47 186.67 270.47 181.17 267.64 181.16 267.64 186.68"/><polygon class="cls-1" points="273.31 186.67 276.14 186.66 276.14 181.18 273.31 181.17 273.31 186.67"/><polygon class="cls-1" points="278.98 186.65 281.81 186.65 281.81 181.19 278.98 181.19 278.98 186.65"/><polygon class="cls-1" points="284.65 186.64 287.48 186.63 287.48 181.21 284.65 181.2 284.65 186.64"/><polygon class="cls-1" points="290.32 186.61 293.15 186.59 293.15 181.25 290.32 181.23 290.32 186.61"/><polygon class="cls-1" points="295.99 186.57 298.82 186.55 298.82 181.29 295.99 181.27 295.99 186.57"/><polygon class="cls-1" points="301.65 186.53 304.49 186.51 304.49 181.33 301.65 181.31 301.65 186.53"/><polygon class="cls-1" points="307.32 186.49 310.16 186.46 310.16 181.38 307.32 181.35 307.32 186.49"/><polygon class="cls-1" points="312.99 186.44 315.83 186.42 315.83 181.42 312.99 181.4 312.99 186.44"/><polygon class="cls-1" points="318.66 186.4 321.5 186.38 321.5 181.46 318.66 181.44 318.66 186.4"/><polygon class="cls-1" points="324.33 186.36 327.17 186.34 327.17 181.5 324.33 181.48 324.33 186.36"/><polygon class="cls-1" points="330 186.32 332.83 186.29 332.83 181.55 330 181.52 330 186.32"/><polygon class="cls-1" points="335.67 186.25 338.5 186.22 338.5 181.62 335.67 181.59 335.67 186.25"/><polygon class="cls-1" points="341.34 186.19 344.17 186.15 344.17 181.69 341.34 181.66 341.34 186.19"/><polygon class="cls-1" points="347.01 186.12 349.84 186.08 349.84 181.76 347.01 181.72 347.01 186.12"/><polygon class="cls-1" points="352.68 186.05 355.51 186.01 355.51 181.83 352.68 181.79 352.68 186.05"/><polygon class="cls-1" points="358.35 185.98 361.18 185.94 361.18 181.9 358.35 181.86 358.35 185.98"/><polygon class="cls-1" points="364.02 185.91 366.85 185.88 366.85 181.97 364.02 181.93 364.02 185.91"/><polygon class="cls-1" points="369.69 185.83 372.52 185.79 372.52 182.05 369.69 182.01 369.69 185.83"/><polygon class="cls-1" points="375.36 185.74 378.19 185.69 378.19 182.15 375.36 182.1 375.36 185.74"/><polygon class="cls-1" points="381.02 185.64 383.86 185.59 383.86 182.25 381.02 182.2 381.02 185.64"/><polygon class="cls-1" points="386.69 185.55 389.53 185.5 389.53 182.34 386.69 182.29 386.69 185.55"/><polygon class="cls-1" points="392.36 185.45 395.2 185.4 395.2 182.44 392.36 182.39 392.36 185.45"/><polygon class="cls-1" points="426.38 184.74 429.21 184.66 429.21 183.18 426.38 183.1 426.38 184.74"/><polygon class="cls-1" points="432.05 184.59 434.88 184.52 434.88 183.32 432.05 183.25 432.05 184.59"/><polygon class="cls-1" points="437.72 184.44 440.55 184.37 440.55 183.47 437.72 183.4 437.72 184.44"/><polygon class="cls-1" points="443.39 184.28 446.22 184.19 446.22 183.65 443.39 183.56 443.39 184.28"/><polygon class="cls-1" points="449.06 184.1 451.89 184.01 451.89 183.83 449.06 183.74 449.06 184.1"/><polygon class="cls-1" points="454.73 183.93 454.89 183.92 454.73 183.91 454.73 183.93"/><polygon class="cls-1" points="21.02 230.98 21.02 230.81 18.19 230.9 21.02 230.98"/><polygon class="cls-1" points="23.86 231.07 26.69 231.16 26.69 230.63 23.86 230.72 23.86 231.07"/><polygon class="cls-1" points="29.53 231.25 32.36 231.34 32.36 230.45 29.53 230.54 29.53 231.25"/><polygon class="cls-1" points="35.2 231.41 38.03 231.48 38.03 230.31 35.2 230.38 35.2 231.41"/><polygon class="cls-1" points="40.87 231.56 43.7 231.63 43.7 230.16 40.87 230.23 40.87 231.56"/><polygon class="cls-1" points="46.54 231.7 49.37 231.78 49.37 230.01 46.54 230.09 46.54 231.7"/><polygon class="cls-1" points="52.2 231.84 55.04 231.9 55.04 229.89 52.2 229.95 52.2 231.84"/><polygon class="cls-1" points="57.88 231.96 60.71 232.02 60.71 229.77 57.88 229.83 57.88 231.96"/><polygon class="cls-1" points="63.54 232.08 66.38 232.14 66.38 229.65 63.54 229.71 63.54 232.08"/><polygon class="cls-1" points="69.21 232.2 72.05 232.26 72.05 229.53 69.21 229.59 69.21 232.2"/><polygon class="cls-1" points="74.88 232.32 77.72 232.37 77.72 229.42 74.88 229.47 74.88 232.32"/><polygon class="cls-1" points="80.55 232.42 83.39 232.47 83.39 229.33 80.55 229.37 80.55 232.42"/><polygon class="cls-1" points="86.22 232.51 89.06 232.56 89.06 229.23 86.22 229.28 86.22 232.51"/><polygon class="cls-1" points="91.89 232.61 94.72 232.66 94.72 229.14 91.89 229.18 91.89 232.61"/><polygon class="cls-1" points="97.56 232.7 100.39 232.75 100.39 229.04 97.56 229.09 97.56 232.7"/><polygon class="cls-1" points="103.23 232.8 106.06 232.84 106.06 228.95 103.23 228.99 103.23 232.8"/><polygon class="cls-1" points="108.9 232.88 111.73 232.91 111.73 228.88 108.9 228.92 108.9 232.88"/><polygon class="cls-1" points="114.57 232.94 117.4 232.98 117.4 228.81 114.57 228.85 114.57 232.94"/><polygon class="cls-1" points="120.24 233.01 123.07 233.05 123.07 228.74 120.24 228.78 120.24 233.01"/><polygon class="cls-1" points="137.25 233.22 140.08 233.25 140.08 228.54 137.25 228.57 137.25 233.22"/><polygon class="cls-1" points="142.91 233.29 145.75 233.31 145.75 228.48 142.91 228.5 142.91 233.29"/><polygon class="cls-1" points="148.58 233.33 151.42 233.35 151.42 228.44 148.58 228.46 148.58 233.33"/><polygon class="cls-1" points="154.25 233.37 157.09 233.39 157.09 228.4 154.25 228.42 154.25 233.37"/><polygon class="cls-1" points="159.92 233.41 162.76 233.43 162.76 228.36 159.92 228.38 159.92 233.41"/><polygon class="cls-1" points="165.59 233.45 168.43 233.47 168.43 228.32 165.59 228.34 165.59 233.45"/><polygon class="cls-1" points="171.26 233.49 174.09 233.51 174.09 228.28 171.26 228.3 171.26 233.49"/><polygon class="cls-1" points="176.93 233.54 179.76 233.56 179.76 228.24 176.93 228.26 176.93 233.54"/><polygon class="cls-1" points="182.6 233.58 185.43 233.6 185.43 228.19 182.6 228.22 182.6 233.58"/><polygon class="cls-1" points="188.27 233.61 191.1 233.62 191.1 228.17 188.27 228.18 188.27 233.61"/><polygon class="cls-1" points="193.94 233.63 196.77 233.63 196.77 228.16 193.94 228.17 193.94 233.63"/><polygon class="cls-1" points="199.61 233.64 202.44 233.65 202.44 228.15 199.61 228.15 199.61 233.64"/><polygon class="cls-1" points="205.28 233.65 208.11 233.66 208.11 228.13 205.28 228.14 205.28 233.65"/><polygon class="cls-1" points="210.95 233.67 213.78 233.67 213.78 228.12 210.95 228.13 210.95 233.67"/><polygon class="cls-1" points="216.62 233.68 219.45 233.69 219.45 228.1 216.62 228.11 216.62 233.68"/><polygon class="cls-1" points="222.28 233.69 225.12 233.7 225.12 228.09 222.28 228.1 222.28 233.69"/><polygon class="cls-1" points="227.95 233.71 230.79 233.72 230.79 228.08 227.95 228.08 227.95 233.71"/><polygon class="cls-1" points="233.62 233.72 236.46 233.73 236.46 228.06 233.62 228.07 233.62 233.72"/><polygon class="cls-1" points="239.29 233.73 242.13 233.72 242.13 228.07 239.29 228.07 239.29 233.73"/><polygon class="cls-1" points="244.96 233.71 247.8 233.71 247.8 228.09 244.96 228.08 244.96 233.71"/><polygon class="cls-1" points="250.63 233.7 253.47 233.69 253.47 228.1 250.63 228.09 250.63 233.7"/><polygon class="cls-1" points="256.3 233.68 259.13 233.68 259.13 228.12 256.3 228.11 256.3 233.68"/><polygon class="cls-1" points="261.97 233.67 264.8 233.66 264.8 228.13 261.97 228.12 261.97 233.67"/><polygon class="cls-1" points="267.64 233.66 270.47 233.65 270.47 228.14 267.64 228.13 267.64 233.66"/><polygon class="cls-1" points="273.31 233.64 276.14 233.64 276.14 228.16 273.31 228.15 273.31 233.64"/><polygon class="cls-1" points="278.98 233.63 281.81 233.62 281.81 228.17 278.98 228.16 278.98 233.63"/><polygon class="cls-1" points="284.65 233.62 287.48 233.61 287.48 228.19 284.65 228.18 284.65 233.62"/><polygon class="cls-1" points="290.32 233.59 293.15 233.56 293.15 228.23 290.32 228.21 290.32 233.59"/><polygon class="cls-1" points="295.99 233.54 298.82 233.52 298.82 228.27 295.99 228.25 295.99 233.54"/><polygon class="cls-1" points="301.65 233.5 304.49 233.48 304.49 228.31 301.65 228.29 301.65 233.5"/><polygon class="cls-1" points="307.32 233.46 310.16 233.44 310.16 228.35 307.32 228.33 307.32 233.46"/><polygon class="cls-1" points="312.99 233.42 315.83 233.4 315.83 228.39 312.99 228.37 312.99 233.42"/><polygon class="cls-1" points="318.66 233.38 321.5 233.36 321.5 228.44 318.66 228.41 318.66 233.38"/><polygon class="cls-1" points="324.33 233.34 327.17 233.31 327.17 228.48 324.33 228.46 324.33 233.34"/><polygon class="cls-1" points="330 233.29 332.83 233.26 332.83 228.53 330 228.5 330 233.29"/><polygon class="cls-1" points="335.67 233.23 338.5 233.19 338.5 228.6 335.67 228.56 335.67 233.23"/><polygon class="cls-1" points="341.34 233.16 344.17 233.13 344.17 228.66 341.34 228.63 341.34 233.16"/><polygon class="cls-1" points="347.01 233.09 349.84 233.06 349.84 228.73 347.01 228.7 347.01 233.09"/><polygon class="cls-1" points="375.36 232.71 378.19 232.67 378.19 229.13 375.36 229.08 375.36 232.71"/><polygon class="cls-1" points="381.02 232.62 383.86 232.57 383.86 229.22 381.02 229.17 381.02 232.62"/><polygon class="cls-1" points="386.69 232.52 389.53 232.47 389.53 229.32 386.69 229.27 386.69 232.52"/><polygon class="cls-1" points="392.36 232.43 395.2 232.38 395.2 229.41 392.36 229.37 392.36 232.43"/><polygon class="cls-1" points="398.03 232.33 400.87 232.28 400.87 229.52 398.03 229.46 398.03 232.33"/><polygon class="cls-1" points="403.7 232.21 406.54 232.15 406.54 229.64 403.7 229.58 403.7 232.21"/><polygon class="cls-1" points="409.37 232.09 412.2 232.03 412.2 229.76 409.37 229.7 409.37 232.09"/><polygon class="cls-1" points="415.04 231.97 417.88 231.91 417.88 229.88 415.04 229.82 415.04 231.97"/><polygon class="cls-1" points="420.71 231.85 423.54 231.79 423.54 230 420.71 229.94 420.71 231.85"/><polygon class="cls-1" points="426.38 231.71 429.21 231.64 429.21 230.15 426.38 230.08 426.38 231.71"/><polygon class="cls-1" points="432.05 231.57 434.88 231.49 434.88 230.3 432.05 230.23 432.05 231.57"/><polygon class="cls-1" points="437.72 231.42 440.55 231.34 440.55 230.45 437.72 230.37 437.72 231.42"/><polygon class="cls-1" points="443.39 231.26 446.22 231.17 446.22 230.62 443.39 230.53 443.39 231.26"/><polygon class="cls-1" points="449.06 231.08 451.89 230.99 451.89 230.8 449.06 230.71 449.06 231.08"/><polygon class="cls-1" points="454.73 230.9 454.89 230.9 454.73 230.89 454.73 230.9"/><path class="cls-1" d="M189.5,209.18l-1.43-5.49-55.38,14.38V197.16l56.8-14.75-1.42-5.49-61,15.86v74.59a23.06,23.06,0,0,0-17.23-7.68,22.44,22.44,0,1,0,22.9,22.43V223.93Zm-79.71,89.71A16.77,16.77,0,1,1,127,282.12,17,17,0,0,1,109.79,298.89Z"/><path class="cls-1" d="M419.06,209.06l-55.38,14.38V202.53l56.81-14.75-1.43-5.49L358,198.14v74.59a23,23,0,0,0-17.23-7.68,22.44,22.44,0,1,0,22.9,22.44V229.3l56.81-14.75Zm-78.28,95.19A16.77,16.77,0,1,1,358,287.49,17,17,0,0,1,340.78,304.25Z"/><path class="cls-1" d="M341.19,63.86v71.76a20.55,20.55,0,1,0,5.67,14.14,20.81,20.81,0,0,0-.6-4.83h.6V68.25L411,51.68v61.14A20.54,20.54,0,1,0,416.69,127V44.36ZM326.28,164.67a14.91,14.91,0,1,1,14.91-14.91A14.92,14.92,0,0,1,326.28,164.67Zm69.83-22.81A14.9,14.9,0,1,1,411,127,14.92,14.92,0,0,1,396.11,141.86Z"/><path class="cls-1" d="M48.42,62.76v99.9a26.91,26.91,0,1,0,4.85,9.93h.82V67.15L143.72,44v87.53a27,27,0,1,0,5.67,16.54V36.69ZM27,200.57A21.38,21.38,0,1,1,48.42,179.2,21.4,21.4,0,0,1,27,200.57Zm95.3-31.12a21.38,21.38,0,1,1,21.38-21.37A21.4,21.4,0,0,1,122.34,169.45Z"/><path class="cls-1" d="M284.9,33.79V15.64L325.81,5.5,324.45,0,279.23,11.2V65.77a17.47,17.47,0,1,0,5.67,12.85v-39L325.81,29.5,324.45,24ZM267.4,90.45a11.83,11.83,0,1,1,11.83-11.83A11.83,11.83,0,0,1,267.4,90.45Z"/></g></g></svg>