<svg xmlns="http://www.w3.org/2000/svg" viewBox="0 0 277.41 277.41"><defs><style>.cls-1{fill:none;stroke:#99789e;stroke-miterlimit:10;stroke-width:5.67px;stroke-dasharray:2.83;}</style></defs><title>Asset 7</title><g id="Layer_2" data-name="Layer 2"><g id="Layer_1-2" data-name="Layer 1"><rect class="cls-1" x="2.83" y="2.83" width="271.74" height="271.74" rx="10.43"/><path class="cls-1" d="M30.09,27.16a10.17,10.17,0,0,1,11.37-8.81l208.8,11.74a10.17,10.17,0,0,1,8.8,11.37l-11.73,208.8a10.18,10.18,0,0,1-11.38,8.8L27.16,247.33A10.18,10.18,0,0,1,18.35,236Z"/><path class="cls-1" d="M57.34,41.05a10.07,10.07,0,0,1,12.32-7.17L236.37,57.34a10.08,10.08,0,0,1,7.17,12.32L220.08,236.37a10.1,10.1,0,0,1-12.33,7.17L41.05,220.08a10.08,10.08,0,0,1-7.17-12.33Z"/><path class="cls-1" d="M84.59,54.94A10.16,10.16,0,0,1,97.86,49.4L222.48,84.59A10.18,10.18,0,0,1,228,97.86l-35.2,124.62A10.17,10.17,0,0,1,179.55,228L54.94,192.82a10.16,10.16,0,0,1-5.54-13.27Z"/><rect class="cls-1" x="80.81" y="80.81" width="115.79" height="115.79" rx="10.43" transform="translate(86.69 -50.43) rotate(29.62)"/></g></g></svg>