<svg xmlns="http://www.w3.org/2000/svg" viewBox="0 0 377.85 377.85"><defs><style>.cls-1{fill:#ffe65e;}</style></defs><title>Asset 9</title><g id="Layer_2" data-name="Layer 2"><g id="Layer_1-2" data-name="Layer 1"><polygon class="cls-1" points="191.03 135.07 186.98 135.06 186.93 137.9 191.07 137.9 191.03 135.07"/><polygon class="cls-1" points="190.72 112.39 187.35 112.39 187.3 115.22 190.76 115.22 190.72 112.39"/><polygon class="cls-1" points="190.65 106.72 187.44 106.72 187.4 109.55 190.68 109.56 190.65 106.72"/><polygon class="cls-1" points="190.8 118.06 187.26 118.06 187.21 120.89 190.84 120.89 190.8 118.06"/><polygon class="cls-1" points="190.88 123.73 187.16 123.72 187.12 126.56 190.91 126.56 190.88 123.73"/><polygon class="cls-1" points="190.95 129.4 187.07 129.39 187.02 132.23 190.99 132.23 190.95 129.4"/><polygon class="cls-1" points="190.42 89.71 187.72 89.71 187.68 92.54 190.45 92.55 190.42 89.71"/><polygon class="cls-1" points="190.03 61.37 188.19 61.36 188.14 64.2 190.07 64.2 190.03 61.37"/><polygon class="cls-1" points="190.19 72.7 188 72.7 187.96 75.54 190.22 75.54 190.19 72.7"/><polygon class="cls-1" points="190.11 67.03 188.1 67.03 188.05 69.87 190.15 69.87 190.11 67.03"/><polygon class="cls-1" points="190.57 101.05 187.54 101.05 187.49 103.88 190.61 103.89 190.57 101.05"/><polygon class="cls-1" points="189.96 55.7 188.28 55.69 188.24 58.53 189.99 58.53 189.96 55.7"/><polygon class="cls-1" points="191.11 140.74 186.88 140.73 186.84 143.57 191.15 143.57 191.11 140.74"/><polygon class="cls-1" points="190.26 78.37 187.91 78.37 187.86 81.2 190.3 81.21 190.26 78.37"/><polygon class="cls-1" points="190.49 95.38 187.63 95.38 187.58 98.21 190.53 98.22 190.49 95.38"/><polygon class="cls-1" points="190.34 84.04 187.82 84.04 187.77 86.87 190.38 86.88 190.34 84.04"/><polygon class="cls-1" points="123.07 255.36 125.13 253.41 124.25 252.53 122.29 254.58 123.07 255.36"/><polygon class="cls-1" points="103.6 239.57 106.08 238.19 104.69 235.79 102.26 237.24 103.6 239.57"/><polygon class="cls-1" points="106.55 210.07 103.83 210.87 104.19 212.21 106.94 211.55 106.55 210.07"/><polygon class="cls-1" points="189.88 50.03 188.38 50.02 188.33 52.86 189.92 52.86 189.88 50.03"/><polygon class="cls-1" points="103.89 187.24 101.05 187.28 101.05 190.31 103.88 190.36 103.89 187.24"/><polygon class="cls-1" points="124.28 153.47 126.02 150.48 123.54 149.1 121.85 152.02 124.28 153.47"/><polygon class="cls-1" points="138.87 162.22 140.86 158.79 138.39 157.4 136.44 160.76 138.87 162.22"/><polygon class="cls-1" points="125.32 124.25 123.27 122.29 122.48 123.07 124.44 125.13 125.32 124.25"/><polygon class="cls-1" points="124.18 224.18 121.74 225.63 123.43 228.56 125.9 227.18 124.18 224.18"/><polygon class="cls-1" points="143.67 212.58 141.23 214.03 143.25 217.54 145.73 216.16 143.67 212.58"/><polygon class="cls-1" points="143.63 235.84 145.69 233.89 143.83 232.02 141.88 234.07 143.63 235.84"/><polygon class="cls-1" points="237.05 108.7 234.58 107.26 233.12 109.69 235.67 111.17 237.05 108.7"/><polygon class="cls-1" points="216.49 87.73 215.95 87.58 215.14 90.3 215.82 90.48 216.49 87.73"/><polygon class="cls-1" points="189.8 44.36 188.47 44.35 188.42 47.19 189.84 47.19 189.8 44.36"/><polygon class="cls-1" points="221.83 135.91 223.21 133.44 220 131.58 218.54 134.01 221.83 135.91"/><polygon class="cls-1" points="219.17 76.71 219.17 76.71 218.36 79.43 218.5 79.46 219.17 76.71"/><polygon class="cls-1" points="215.15 93.24 214.34 93.02 213.54 95.74 214.47 95.99 215.15 93.24"/><polygon class="cls-1" points="211.12 109.77 209.51 109.33 208.71 112.05 210.45 112.52 211.12 109.77"/><polygon class="cls-1" points="213.8 98.75 212.73 98.46 211.93 101.18 213.13 101.5 213.8 98.75"/><polygon class="cls-1" points="212.46 104.26 211.12 103.9 210.32 106.62 211.79 107.01 212.46 104.26"/><polygon class="cls-1" points="209.78 115.28 207.91 114.77 207.1 117.49 209.11 118.03 209.78 115.28"/><polygon class="cls-1" points="239.82 103.75 237.49 102.4 236.03 104.83 238.44 106.22 239.82 103.75"/><polygon class="cls-1" points="242.59 98.8 240.41 97.54 238.95 99.97 241.21 101.28 242.59 98.8"/><polygon class="cls-1" points="138.1 139.52 140.06 141.58 141.72 139.92 139.67 137.96 138.1 139.52"/><polygon class="cls-1" points="245.36 93.85 243.32 92.67 241.87 95.11 243.97 96.33 245.36 93.85"/><polygon class="cls-1" points="234.28 113.65 231.66 112.13 230.2 114.56 232.9 116.12 234.28 113.65"/><polygon class="cls-1" points="225.98 128.49 222.91 126.72 221.46 129.15 224.59 130.97 225.98 128.49"/><polygon class="cls-1" points="228.75 123.54 225.83 121.85 224.37 124.28 227.36 126.02 228.75 123.54"/><polygon class="cls-1" points="231.52 118.59 228.75 116.99 227.29 119.42 230.13 121.07 231.52 118.59"/><polygon class="cls-1" points="217.83 82.22 217.56 82.14 216.75 84.86 217.16 84.97 217.83 82.22"/><polygon class="cls-1" points="189.42 16.01 188.94 16.01 188.89 18.84 189.46 18.84 189.42 16.01"/><polygon class="cls-1" points="189.5 21.68 188.84 21.68 188.8 24.51 189.53 24.52 189.5 21.68"/><polygon class="cls-1" points="189.34 10.34 189.03 10.34 188.99 13.18 189.38 13.18 189.34 10.34"/><polygon class="cls-1" points="208.44 120.79 206.3 120.21 205.49 122.93 207.76 123.54 208.44 120.79"/><polygon class="cls-1" points="189.57 27.35 188.75 27.35 188.71 30.18 189.61 30.18 189.57 27.35"/><polygon class="cls-1" points="189.72 38.69 188.56 38.69 188.52 41.52 189.76 41.52 189.72 38.69"/><polygon class="cls-1" points="189.65 33.02 188.66 33.02 188.61 35.85 189.69 35.85 189.65 33.02"/><polygon class="cls-1" points="189.2 0 189.17 1.84 189.23 1.84 189.2 0"/><polygon class="cls-1" points="189.26 4.67 189.13 4.67 189.08 7.51 189.3 7.51 189.26 4.67"/><polygon class="cls-1" points="203.07 142.83 199.86 141.96 199.06 144.68 202.4 145.58 203.07 142.83"/><polygon class="cls-1" points="205.75 131.81 203.08 131.09 202.27 133.81 205.08 134.56 205.75 131.81"/><polygon class="cls-1" points="204.41 137.32 201.47 136.52 200.67 139.24 203.74 140.07 204.41 137.32"/><polygon class="cls-1" points="207.09 126.3 204.69 125.65 203.88 128.37 206.42 129.05 207.09 126.3"/><polygon class="cls-1" points="147.75 231.93 149.8 229.98 147.75 227.92 145.79 229.97 147.75 231.93"/><polygon class="cls-1" points="145.82 143.83 143.77 141.88 142.01 143.63 143.96 145.69 145.82 143.83"/><polygon class="cls-1" points="143.74 165.14 145.81 161.56 143.34 160.17 141.31 163.68 143.74 165.14"/><polygon class="cls-1" points="141.58 237.79 139.92 236.13 137.96 238.18 139.52 239.74 141.58 237.79"/><polygon class="cls-1" points="140.77 218.92 138.79 215.48 136.36 216.93 138.29 220.29 140.77 218.92"/><polygon class="cls-1" points="129 206.25 128.32 203.7 125.6 204.5 126.24 206.91 129 206.25"/><polygon class="cls-1" points="137.47 241.7 136 240.22 134.04 242.28 135.41 243.65 137.47 241.7"/><polygon class="cls-1" points="122.88 205.3 120.16 206.09 120.73 208.23 123.49 207.57 122.88 205.3"/><polygon class="cls-1" points="121.02 257.32 120.33 256.63 118.37 258.68 118.96 259.27 121.02 257.32"/><polygon class="cls-1" points="129.24 249.51 128.16 248.43 126.21 250.48 127.19 251.46 129.24 249.51"/><polygon class="cls-1" points="129.05 221.28 126.62 222.73 128.38 225.8 130.86 224.42 129.05 221.28"/><polygon class="cls-1" points="133.92 218.38 131.49 219.83 133.34 223.05 135.82 221.67 133.92 218.38"/><polygon class="cls-1" points="133.35 245.6 132.08 244.33 130.12 246.38 131.3 247.55 133.35 245.6"/><polygon class="cls-1" points="248.13 88.91 246.24 87.81 244.78 90.24 246.74 91.38 248.13 88.91"/><polygon class="cls-1" points="146.17 166.59 148.6 168.05 150.76 164.32 148.28 162.94 146.17 166.59"/><polygon class="cls-1" points="150.69 213.41 148.54 209.68 146.1 211.13 148.21 214.79 150.69 213.41"/><polygon class="cls-1" points="120.95 229.93 119.31 227.08 116.87 228.53 118.47 231.31 120.95 229.93"/><polygon class="cls-1" points="103.9 166.72 106.62 167.53 107.01 166.06 104.26 165.38 103.9 166.72"/><polygon class="cls-1" points="126.39 127.19 128.34 129.24 129.42 128.16 127.37 126.21 126.39 127.19"/><polygon class="cls-1" points="129.4 186.89 129.39 190.78 132.23 190.82 132.23 186.85 129.4 186.89"/><polygon class="cls-1" points="126.72 154.93 129.15 156.39 130.97 153.25 128.49 151.87 126.72 154.93"/><polygon class="cls-1" points="131.81 172.09 131.09 174.77 133.81 175.57 134.56 172.77 131.81 172.09"/><polygon class="cls-1" points="130.29 131.3 132.25 133.35 133.52 132.08 131.47 130.12 130.29 131.3"/><polygon class="cls-1" points="120.21 171.55 122.93 172.35 123.54 170.08 120.79 169.41 120.21 171.55"/><polygon class="cls-1" points="123.72 190.68 126.56 190.73 126.56 186.93 123.73 186.97 123.72 190.68"/><polygon class="cls-1" points="125.65 173.16 128.37 173.96 129.05 171.42 126.3 170.75 125.65 173.16"/><polygon class="cls-1" points="118.06 190.59 120.89 190.64 120.89 187.01 118.06 187.05 118.06 190.59"/><polygon class="cls-1" points="140.03 203.59 139.21 200.52 136.49 201.31 137.27 204.26 140.03 203.59"/><polygon class="cls-1" points="135.07 186.82 135.06 190.87 137.9 190.92 137.9 186.78 135.07 186.82"/><polygon class="cls-1" points="134.51 204.92 133.77 202.11 131.04 202.91 131.76 205.58 134.51 204.92"/><polygon class="cls-1" points="142.79 202.93 145.54 202.27 144.65 198.93 141.93 199.72 142.79 202.93"/><polygon class="cls-1" points="140.73 190.96 143.57 191.01 143.57 186.7 140.74 186.74 140.73 190.96"/><polygon class="cls-1" points="131.58 157.85 134.01 159.31 135.91 156.02 133.44 154.63 131.58 157.85"/><polygon class="cls-1" points="137.32 173.44 136.53 176.38 139.24 177.18 140.07 174.11 137.32 173.44"/><polygon class="cls-1" points="134.2 135.41 136.15 137.47 137.62 136 135.57 134.04 134.2 135.41"/><polygon class="cls-1" points="106.72 190.4 109.55 190.45 109.56 187.16 106.72 187.2 106.72 190.4"/><polygon class="cls-1" points="145.58 175.45 142.83 174.78 141.96 177.99 144.68 178.79 145.58 175.45"/><polygon class="cls-1" points="108.68 269.03 108.58 268.93 106.62 270.98 106.62 270.98 108.68 269.03"/><polygon class="cls-1" points="106.86 106.62 108.81 108.68 108.92 108.58 106.87 106.62 106.86 106.62"/><polygon class="cls-1" points="107.26 143.27 109.7 144.73 111.17 142.18 108.7 140.79 107.26 143.27"/><polygon class="cls-1" points="110.77 110.74 112.72 112.79 113.02 112.5 110.97 110.54 110.77 110.74"/><polygon class="cls-1" points="115.99 232.69 114.44 229.98 112 231.43 113.51 234.06 115.99 232.69"/><polygon class="cls-1" points="119.42 150.56 121.07 147.71 118.59 146.33 116.99 149.1 119.42 150.56"/><polygon class="cls-1" points="112 208.48 109.27 209.28 109.7 210.89 112.46 210.22 112 208.48"/><polygon class="cls-1" points="109.56 232.88 107.13 234.34 108.56 236.82 111.04 235.44 109.56 232.88"/><polygon class="cls-1" points="116.91 261.22 116.41 260.73 114.45 262.78 114.85 263.17 116.91 261.22"/><polygon class="cls-1" points="115.22 187.09 112.39 187.12 112.39 190.5 115.22 190.54 115.22 187.09"/><polygon class="cls-1" points="112.52 167.4 109.77 166.73 109.33 168.33 112.05 169.14 112.52 167.4"/><polygon class="cls-1" points="112.13 146.19 114.56 147.64 116.12 144.95 113.65 143.56 112.13 146.19"/><polygon class="cls-1" points="121.22 120.33 119.17 118.37 118.58 118.96 120.53 121.02 121.22 120.33"/><polygon class="cls-1" points="117.97 208.9 117.44 206.89 114.72 207.69 115.22 209.56 117.97 208.9"/><polygon class="cls-1" points="114.67 114.85 116.63 116.9 117.12 116.41 115.07 114.45 114.67 114.85"/><polygon class="cls-1" points="115.28 168.07 114.77 169.94 117.49 170.75 118.03 168.74 115.28 168.07"/><polygon class="cls-1" points="267.5 54.27 266.65 53.77 265.19 56.2 266.12 56.74 267.5 54.27"/><polygon class="cls-1" points="212.71 143.74 216.29 145.81 217.68 143.34 214.17 141.31 212.71 143.74"/><polygon class="cls-1" points="231.68 211.25 229.25 209.79 227.09 213.52 229.56 214.91 231.68 211.25"/><polygon class="cls-1" points="215.63 138.87 219.06 140.86 220.44 138.39 217.08 136.44 215.63 138.87"/><polygon class="cls-1" points="219.82 155.68 222.26 158.13 224.22 156.07 221.88 153.72 219.82 155.68"/><polygon class="cls-1" points="223.93 151.77 226.18 154.02 228.14 151.97 225.99 149.82 223.93 151.77"/><polygon class="cls-1" points="227.16 164.44 229.31 168.17 231.75 166.72 229.64 163.06 227.16 164.44"/><polygon class="cls-1" points="228.03 225.99 226.08 223.93 223.82 226.18 225.87 228.14 228.03 225.99"/><polygon class="cls-1" points="250.89 83.96 249.15 82.95 247.7 85.38 249.51 86.43 250.89 83.96"/><polygon class="cls-1" points="209.79 148.6 213.52 150.76 214.91 148.28 211.25 146.17 209.79 148.6"/><polygon class="cls-1" points="209.68 229.31 211.13 231.75 214.79 229.64 213.41 227.16 209.68 229.31"/><polygon class="cls-1" points="224.12 221.88 222.17 219.82 219.72 222.26 221.77 224.22 224.12 221.88"/><polygon class="cls-1" points="220.29 239.55 218.92 237.07 215.48 239.05 216.93 241.49 220.29 239.55"/><polygon class="cls-1" points="217.54 234.59 216.16 232.12 212.58 234.18 214.03 236.62 217.54 234.59"/><polygon class="cls-1" points="295.07 129.01 294.07 127.26 291.59 128.64 292.64 130.46 295.07 129.01"/><polygon class="cls-1" points="290.2 131.91 289.12 130.02 286.64 131.39 287.77 133.36 290.2 131.91"/><polygon class="cls-1" points="283.63 25.45 282.68 27.03 282.73 27.05 283.63 25.45"/><polygon class="cls-1" points="299.47 190.26 299.48 187.91 296.64 187.86 296.64 190.3 299.47 190.26"/><polygon class="cls-1" points="284.69 162.98 281.93 163.65 282.18 164.59 284.9 163.79 284.69 162.98"/><polygon class="cls-1" points="282.47 187.63 279.63 187.58 279.63 190.53 282.46 190.49 282.47 187.63"/><polygon class="cls-1" points="299.95 126.1 299.03 124.51 296.55 125.89 297.51 127.56 299.95 126.1"/><polygon class="cls-1" points="284.83 214.34 282.11 213.53 281.85 214.47 284.61 215.15 284.83 214.34"/><polygon class="cls-1" points="285.33 134.81 284.16 132.77 281.68 134.15 282.9 136.26 285.33 134.81"/><polygon class="cls-1" points="343.79 100 343.63 99.73 341.16 101.1 341.35 101.44 343.79 100"/><polygon class="cls-1" points="338.92 102.9 338.68 102.48 336.2 103.86 336.48 104.35 338.92 102.9"/><polygon class="cls-1" points="319.43 114.5 318.85 113.49 316.38 114.87 317 115.95 319.43 114.5"/><polygon class="cls-1" points="348.66 97.09 348.59 96.97 346.11 98.35 346.23 98.54 348.66 97.09"/><polygon class="cls-1" points="313.65 190.07 316.48 190.03 316.48 188.19 313.65 188.14 313.65 190.07"/><polygon class="cls-1" points="309.69 120.3 308.94 119 306.46 120.38 307.25 121.75 309.69 120.3"/><polygon class="cls-1" points="304.82 123.2 303.98 121.75 301.51 123.13 302.38 124.65 304.82 123.2"/><polygon class="cls-1" points="314.56 117.4 313.9 116.25 311.42 117.63 312.13 118.85 314.56 117.4"/><polygon class="cls-1" points="252.53 253.6 254.58 255.56 255.36 254.77 253.41 252.72 252.53 253.6"/><polygon class="cls-1" points="253.56 224.37 251.83 227.36 254.3 228.75 255.99 225.83 253.56 224.37"/><polygon class="cls-1" points="280.46 137.71 279.2 135.52 276.72 136.9 278.02 139.16 280.46 137.71"/><polygon class="cls-1" points="279.46 165.38 279.17 164.31 276.42 164.97 276.74 166.18 279.46 165.38"/><polygon class="cls-1" points="278.58 34.48 278.31 34.32 276.85 36.75 277.19 36.95 278.58 34.48"/><polygon class="cls-1" points="281.35 29.53 281.22 29.46 279.77 31.89 279.96 32 281.35 29.53"/><polygon class="cls-1" points="252.2 204.69 249.48 203.88 248.79 206.42 251.55 207.09 252.2 204.69"/><polygon class="cls-1" points="257.64 206.3 254.92 205.49 254.3 207.76 257.06 208.44 257.64 206.3"/><polygon class="cls-1" points="251.46 250.66 249.51 248.6 248.43 249.68 250.48 251.64 251.46 250.66"/><polygon class="cls-1" points="247.55 246.55 245.6 244.49 244.33 245.76 246.38 247.72 247.55 246.55"/><polygon class="cls-1" points="251.13 222.91 248.7 221.46 246.88 224.59 249.35 225.98 251.13 222.91"/><polygon class="cls-1" points="263.17 263 261.22 260.94 260.73 261.43 262.78 263.39 263.17 263"/><polygon class="cls-1" points="256.63 257.52 258.68 259.48 259.27 258.89 257.32 256.83 256.63 257.52"/><polygon class="cls-1" points="258.43 227.29 256.78 230.13 259.25 231.52 260.86 228.75 258.43 227.29"/><polygon class="cls-1" points="237.12 186.88 234.28 186.84 234.27 191.14 237.11 191.11 237.12 186.88"/><polygon class="cls-1" points="235.06 174.91 232.3 175.58 233.19 178.92 235.92 178.12 235.06 174.91"/><polygon class="cls-1" points="237.07 158.93 239.05 162.37 241.49 160.92 239.55 157.55 237.07 158.93"/><polygon class="cls-1" points="232.26 202.4 235.02 203.07 235.88 199.86 233.16 199.06 232.26 202.4"/><polygon class="cls-1" points="236.27 140.06 237.93 141.72 239.89 139.67 238.32 138.1 236.27 140.06"/><polygon class="cls-1" points="243.65 242.44 241.7 240.38 240.22 241.85 242.28 243.81 243.65 242.44"/><polygon class="cls-1" points="246.27 220 243.84 218.54 241.93 221.83 244.41 223.21 246.27 220"/><polygon class="cls-1" points="239.74 238.32 237.79 236.27 236.13 237.93 238.18 239.89 239.74 238.32"/><polygon class="cls-1" points="238.97 215.63 236.98 219.06 239.46 220.44 241.41 217.08 238.97 215.63"/><polygon class="cls-1" points="265.72 231.66 263.29 230.2 261.73 232.9 264.2 234.28 265.72 231.66"/><polygon class="cls-1" points="267.31 110.97 267.11 110.77 265.05 112.72 265.35 113.02 267.31 110.97"/><polygon class="cls-1" points="261.97 64.17 260.81 63.5 259.36 65.93 260.58 66.64 261.97 64.17"/><polygon class="cls-1" points="270.27 49.32 269.56 48.91 268.1 51.34 268.89 51.79 270.27 49.32"/><polygon class="cls-1" points="267.08 267.11 265.13 265.05 264.83 265.35 266.88 267.31 267.08 267.11"/><polygon class="cls-1" points="264.74 59.22 263.73 58.63 262.27 61.07 263.35 61.69 264.74 59.22"/><polygon class="cls-1" points="253.66 79.01 252.07 78.09 250.61 80.52 252.28 81.48 253.66 79.01"/><polygon class="cls-1" points="256.43 74.06 254.98 73.22 253.53 75.66 255.05 76.54 256.43 74.06"/><polygon class="cls-1" points="259.2 69.11 257.9 68.36 256.44 70.79 257.81 71.59 259.2 69.11"/><polygon class="cls-1" points="273.95 211.12 271.23 210.32 270.83 211.79 273.59 212.46 273.95 211.12"/><polygon class="cls-1" points="273.04 44.37 272.48 44.05 271.02 46.48 271.66 46.85 273.04 44.37"/><polygon class="cls-1" points="270.98 271.22 269.03 269.17 268.93 269.27 270.98 271.23 270.98 271.22"/><polygon class="cls-1" points="270.58 234.58 268.15 233.12 266.67 235.67 269.15 237.05 270.58 234.58"/><polygon class="cls-1" points="273.66 165.63 270.9 166.3 271.29 167.77 274.01 166.97 273.66 165.63"/><polygon class="cls-1" points="275.81 39.42 275.39 39.18 273.94 41.62 274.42 41.9 275.81 39.42"/><polygon class="cls-1" points="276.8 187.54 273.96 187.49 273.96 190.61 276.8 190.57 276.8 187.54"/><polygon class="cls-1" points="274.25 138.28 271.77 139.65 273.15 142.06 275.59 140.61 274.25 138.28"/><polygon class="cls-1" points="240.53 204.41 241.32 201.47 238.6 200.66 237.78 203.74 240.53 204.41"/><polygon class="cls-1" points="271.22 106.86 269.17 108.81 269.27 108.92 271.23 106.87 271.22 106.86"/><polygon class="cls-1" points="263.13 170.16 262.63 168.29 259.87 168.95 260.41 170.96 263.13 170.16"/><polygon class="cls-1" points="265.46 187.35 262.63 187.3 262.62 190.76 265.46 190.72 265.46 187.35"/><polygon class="cls-1" points="262.57 209.78 263.07 207.91 260.36 207.1 259.81 209.11 262.57 209.78"/><polygon class="cls-1" points="260.94 116.63 261.43 117.12 263.39 115.07 263 114.67 260.94 116.63"/><polygon class="cls-1" points="261.86 145.16 263.41 147.86 265.85 146.41 264.33 143.78 261.86 145.16"/><polygon class="cls-1" points="265.85 169.36 268.57 168.57 268.14 166.96 265.39 167.62 265.85 169.36"/><polygon class="cls-1" points="271.13 187.44 268.3 187.4 268.29 190.68 271.13 190.65 271.13 187.44"/><polygon class="cls-1" points="268.51 209.51 265.79 208.71 265.32 210.45 268.08 211.12 268.51 209.51"/><polygon class="cls-1" points="234.18 165.27 236.62 163.82 234.59 160.31 232.12 161.68 234.18 165.27"/><polygon class="cls-1" points="268.28 144.96 270.72 143.51 269.29 141.03 266.81 142.41 268.28 144.96"/><polygon class="cls-1" points="232.02 234.01 234.07 235.97 235.84 234.21 233.89 232.16 232.02 234.01"/><polygon class="cls-1" points="230.1 145.91 228.04 147.87 230.1 149.92 232.06 147.87 230.1 145.91"/><polygon class="cls-1" points="234.11 212.71 232.04 216.29 234.51 217.68 236.54 214.17 234.11 212.71"/><polygon class="cls-1" points="254.77 122.48 252.72 124.44 253.6 125.32 255.56 123.27 254.77 122.48"/><polygon class="cls-1" points="253.67 153.67 256.1 152.22 254.42 149.29 251.94 150.67 253.67 153.67"/><polygon class="cls-1" points="234.21 142.01 232.16 143.96 234.01 145.82 235.97 143.77 234.21 142.01"/><polygon class="cls-1" points="241.36 176.53 240.57 173.59 237.82 174.25 238.64 177.33 241.36 176.53"/><polygon class="cls-1" points="244.49 132.25 245.76 133.52 247.72 131.47 246.55 130.29 244.49 132.25"/><polygon class="cls-1" points="248.45 187.07 245.62 187.02 245.61 190.99 248.45 190.95 248.45 187.07"/><polygon class="cls-1" points="243.92 159.47 246.36 158.02 244.51 154.8 242.03 156.18 243.92 159.47"/><polygon class="cls-1" points="246.8 174.94 246.09 172.26 243.33 172.93 244.08 175.74 246.8 174.94"/><polygon class="cls-1" points="246.04 205.75 246.76 203.08 244.04 202.27 243.28 205.08 246.04 205.75"/><polygon class="cls-1" points="256.9 147.91 258.54 150.76 260.97 149.31 259.38 146.54 256.9 147.91"/><polygon class="cls-1" points="240.38 136.15 241.85 137.62 243.81 135.57 242.44 134.2 240.38 136.15"/><polygon class="cls-1" points="231.93 230.1 229.98 228.04 227.92 230.1 229.97 232.06 231.93 230.1"/><polygon class="cls-1" points="242.78 186.98 239.95 186.93 239.94 191.07 242.78 191.03 242.78 186.98"/><polygon class="cls-1" points="256.83 120.53 257.52 121.22 259.48 119.17 258.89 118.58 256.83 120.53"/><polygon class="cls-1" points="254.97 172.55 257.69 171.75 257.12 169.61 254.36 170.28 254.97 172.55"/><polygon class="cls-1" points="256.95 190.84 259.79 190.8 259.79 187.26 256.96 187.21 256.95 190.84"/><polygon class="cls-1" points="251.28 190.91 254.12 190.88 254.12 187.16 251.29 187.12 251.28 190.91"/><polygon class="cls-1" points="248.79 156.57 251.23 155.12 249.46 152.04 246.99 153.42 248.79 156.57"/><polygon class="cls-1" points="248.6 128.34 249.68 129.42 251.64 127.37 250.66 126.39 248.6 128.34"/><polygon class="cls-1" points="248.85 171.6 249.52 174.14 252.24 173.35 251.6 170.94 248.85 171.6"/><polygon class="cls-1" points="160.31 143.25 161.68 145.73 165.27 143.67 163.82 141.23 160.31 143.25"/><polygon class="cls-1" points="186.82 242.78 190.87 242.78 190.92 239.95 186.78 239.94 186.82 242.78"/><polygon class="cls-1" points="138.03 274.1 140.35 275.44 141.81 273.01 139.41 271.62 138.03 274.1"/><polygon class="cls-1" points="186.97 254.12 190.68 254.12 190.73 251.29 186.93 251.28 186.97 254.12"/><polygon class="cls-1" points="187.05 259.79 190.59 259.79 190.64 256.96 187.01 256.95 187.05 259.79"/><polygon class="cls-1" points="187.12 265.46 190.5 265.46 190.54 262.63 187.09 262.62 187.12 265.46"/><polygon class="cls-1" points="186.74 237.11 190.96 237.12 191.01 234.28 186.7 234.27 186.74 237.11"/><polygon class="cls-1" points="186.89 248.45 190.78 248.45 190.82 245.62 186.86 245.61 186.89 248.45"/><polygon class="cls-1" points="187.51 293.8 190.03 293.81 190.08 290.97 187.47 290.97 187.51 293.8"/><polygon class="cls-1" points="187.58 299.47 189.94 299.48 189.98 296.64 187.55 296.64 187.58 299.47"/><polygon class="cls-1" points="187.66 305.14 189.84 305.14 189.89 302.31 187.62 302.31 187.66 305.14"/><polygon class="cls-1" points="187.74 310.81 189.75 310.81 189.8 307.98 187.7 307.98 187.74 310.81"/><polygon class="cls-1" points="187.43 288.13 190.12 288.14 190.17 285.3 187.39 285.3 187.43 288.13"/><polygon class="cls-1" points="187.28 276.8 190.31 276.8 190.36 273.96 187.24 273.96 187.28 276.8"/><polygon class="cls-1" points="187.35 282.46 190.22 282.47 190.26 279.63 187.32 279.63 187.35 282.46"/><polygon class="cls-1" points="187.81 316.48 189.66 316.48 189.7 313.65 187.78 313.65 187.81 316.48"/><polygon class="cls-1" points="187.2 271.13 190.4 271.13 190.45 268.3 187.16 268.29 187.2 271.13"/><polygon class="cls-1" points="204.92 243.33 202.11 244.08 202.91 246.8 205.58 246.09 204.92 243.33"/><polygon class="cls-1" points="202.27 232.3 198.93 233.19 199.72 235.92 202.93 235.06 202.27 232.3"/><polygon class="cls-1" points="203.59 237.82 200.52 238.64 201.31 241.36 204.26 240.57 203.59 237.82"/><polygon class="cls-1" points="207.57 254.36 205.3 254.97 206.09 257.69 208.23 257.12 207.57 254.36"/><polygon class="cls-1" points="206.25 248.85 203.7 249.52 204.5 252.24 206.91 251.6 206.25 248.85"/><polygon class="cls-1" points="208.9 259.87 206.89 260.41 207.69 263.13 209.56 262.63 208.9 259.87"/><polygon class="cls-1" points="211.55 270.9 210.07 271.29 210.87 274.01 212.21 273.66 211.55 270.9"/><polygon class="cls-1" points="210.22 265.39 208.48 265.85 209.28 268.57 210.89 268.14 210.22 265.39"/><polygon class="cls-1" points="188.5 367.5 188.81 367.51 188.86 364.67 188.47 364.67 188.5 367.5"/><polygon class="cls-1" points="164.04 279.1 165.12 279.39 165.92 276.67 164.71 276.34 164.04 279.1"/><polygon class="cls-1" points="165.38 273.59 166.72 273.95 167.53 271.23 166.06 270.83 165.38 273.59"/><polygon class="cls-1" points="166.73 268.08 168.33 268.51 169.14 265.79 167.4 265.32 166.73 268.08"/><polygon class="cls-1" points="172.09 246.04 174.77 246.76 175.57 244.04 172.77 243.28 172.09 246.04"/><polygon class="cls-1" points="168.07 262.57 169.94 263.07 170.75 260.36 168.74 259.81 168.07 262.57"/><polygon class="cls-1" points="161.36 290.12 161.9 290.26 162.7 287.55 162.03 287.36 161.36 290.12"/><polygon class="cls-1" points="170.75 251.55 173.16 252.2 173.96 249.48 171.42 248.79 170.75 251.55"/><polygon class="cls-1" points="169.41 257.06 171.55 257.64 172.35 254.92 170.08 254.3 169.41 257.06"/><polygon class="cls-1" points="162.7 284.61 163.51 284.83 164.31 282.11 163.37 281.85 162.7 284.61"/><polygon class="cls-1" points="160.02 295.63 160.29 295.7 161.09 292.98 160.69 292.87 160.02 295.63"/><polygon class="cls-1" points="146.33 259.25 149.1 260.86 150.56 258.43 147.72 256.78 146.33 259.25"/><polygon class="cls-1" points="143.56 264.2 146.19 265.72 147.64 263.29 144.95 261.73 143.56 264.2"/><polygon class="cls-1" points="140.79 269.15 143.27 270.58 144.73 268.15 142.18 266.67 140.79 269.15"/><polygon class="cls-1" points="149.1 254.3 152.02 255.99 153.47 253.56 150.48 251.83 149.1 254.3"/><polygon class="cls-1" points="151.87 249.35 154.93 251.13 156.39 248.7 153.25 246.88 151.87 249.35"/><polygon class="cls-1" points="187.89 322.15 189.56 322.15 189.61 319.32 187.85 319.31 187.89 322.15"/><polygon class="cls-1" points="156.02 241.93 154.63 244.41 157.85 246.27 159.31 243.84 156.02 241.93"/><polygon class="cls-1" points="158.68 301.14 158.68 301.14 159.49 298.42 159.35 298.38 158.68 301.14"/><polygon class="cls-1" points="188.35 356.17 189 356.17 189.05 353.33 188.31 353.33 188.35 356.17"/><polygon class="cls-1" points="188.28 350.5 189.09 350.5 189.14 347.66 188.24 347.66 188.28 350.5"/><polygon class="cls-1" points="188.2 344.83 189.19 344.83 189.24 342 188.16 341.99 188.2 344.83"/><polygon class="cls-1" points="188.43 361.84 188.91 361.84 188.96 359 188.39 359 188.43 361.84"/><polygon class="cls-1" points="187.97 327.82 189.47 327.82 189.52 324.99 187.93 324.99 187.97 327.82"/><polygon class="cls-1" points="212.88 276.42 211.67 276.74 212.46 279.46 213.54 279.17 212.88 276.42"/><polygon class="cls-1" points="188.04 333.49 189.38 333.49 189.42 330.66 188.01 330.65 188.04 333.49"/><polygon class="cls-1" points="188.12 339.16 189.28 339.16 189.33 336.33 188.08 336.32 188.12 339.16"/><polygon class="cls-1" points="188.58 373.18 188.72 373.18 188.77 370.34 188.54 370.34 188.58 373.18"/><polygon class="cls-1" points="173.44 240.53 176.38 241.32 177.18 238.6 174.11 237.77 173.44 240.53"/><polygon class="cls-1" points="174.78 235.02 177.99 235.88 178.79 233.16 175.45 232.26 174.78 235.02"/><polygon class="cls-1" points="188.65 377.85 188.68 376.01 188.62 376.01 188.65 377.85"/><polygon class="cls-1" points="306.26 257.81 308.73 259.2 309.49 257.9 307.06 256.44 306.26 257.81"/><polygon class="cls-1" points="322.15 188.28 319.32 188.24 319.31 189.99 322.15 189.96 322.15 188.28"/><polygon class="cls-1" points="316.16 263.35 318.63 264.74 319.21 263.73 316.78 262.27 316.16 263.35"/><polygon class="cls-1" points="307.98 190.15 310.81 190.11 310.81 188.1 307.98 188.05 307.98 190.15"/><polygon class="cls-1" points="326.05 268.89 328.53 270.27 328.94 269.56 326.51 268.1 326.05 268.89"/><polygon class="cls-1" points="327.82 188.38 324.99 188.33 324.99 189.92 327.82 189.88 327.82 188.38"/><polygon class="cls-1" points="321.33 112.12 321.87 113.05 324.3 111.6 323.81 110.74 321.33 112.12"/><polygon class="cls-1" points="321.1 266.12 323.58 267.5 324.07 266.65 321.64 265.19 321.1 266.12"/><polygon class="cls-1" points="311.21 260.58 313.68 261.97 314.35 260.81 311.92 259.36 311.21 260.58"/><polygon class="cls-1" points="296.36 252.28 298.84 253.66 299.76 252.07 297.33 250.61 296.36 252.28"/><polygon class="cls-1" points="302.31 190.22 305.14 190.19 305.15 188 302.31 187.96 302.31 190.22"/><polygon class="cls-1" points="292.96 161 293.06 161.4 295.79 160.6 295.71 160.33 292.96 161"/><polygon class="cls-1" points="291.42 249.51 293.89 250.89 294.9 249.15 292.47 247.7 291.42 249.51"/><polygon class="cls-1" points="292.87 217.16 295.63 217.83 295.7 217.56 292.98 216.75 292.87 217.16"/><polygon class="cls-1" points="301.31 255.05 303.79 256.43 304.62 254.98 302.19 253.53 301.31 255.05"/><polygon class="cls-1" points="298.47 159.67 298.51 159.81 301.23 159.01 301.23 159.01 298.47 159.67"/><polygon class="cls-1" points="298.38 218.5 301.14 219.17 301.14 219.17 298.42 218.36 298.38 218.5"/><polygon class="cls-1" points="293.81 187.82 290.97 187.77 290.97 190.38 293.8 190.34 293.81 187.82"/><polygon class="cls-1" points="359 189.46 361.84 189.42 361.84 188.94 359 188.89 359 189.46"/><polygon class="cls-1" points="351.1 95.64 352.68 94.7 351.07 95.59 351.1 95.64"/><polygon class="cls-1" points="353.33 189.53 356.17 189.5 356.17 188.84 353.33 188.8 353.33 189.53"/><polygon class="cls-1" points="350.79 282.73 352.4 283.63 350.82 282.68 350.79 282.73"/><polygon class="cls-1" points="364.67 189.38 367.5 189.34 367.51 189.03 364.67 188.99 364.67 189.38"/><polygon class="cls-1" points="214.2 281.93 213.26 282.18 214.06 284.9 214.86 284.69 214.2 281.93"/><polygon class="cls-1" points="347.66 189.61 350.5 189.57 350.5 188.75 347.66 188.71 347.66 189.61"/><polygon class="cls-1" points="370.34 189.3 373.18 189.26 373.18 189.13 370.34 189.08 370.34 189.3"/><polygon class="cls-1" points="336.32 189.76 339.16 189.72 339.16 188.56 336.33 188.52 336.32 189.76"/><polygon class="cls-1" points="331 271.66 333.48 273.04 333.8 272.48 331.37 271.02 331 271.66"/><polygon class="cls-1" points="331.24 106.61 331.61 107.25 334.05 105.8 333.72 105.23 331.24 106.61"/><polygon class="cls-1" points="333.49 188.47 330.66 188.42 330.65 189.84 333.49 189.8 333.49 188.47"/><polygon class="cls-1" points="335.95 274.42 338.42 275.81 338.66 275.39 336.23 273.94 335.95 274.42"/><polygon class="cls-1" points="340.9 277.19 343.37 278.58 343.53 278.31 341.1 276.85 340.9 277.19"/><polygon class="cls-1" points="341.99 189.69 344.83 189.65 344.83 188.66 342 188.61 341.99 189.69"/><polygon class="cls-1" points="326.29 109.36 326.74 110.15 329.18 108.7 328.77 107.99 326.29 109.36"/><polygon class="cls-1" points="345.85 279.96 348.32 281.35 348.39 281.22 345.96 279.77 345.85 279.96"/><polygon class="cls-1" points="376.01 189.17 376.01 189.23 377.85 189.2 376.01 189.17"/><polygon class="cls-1" points="243.7 281.68 241.59 282.9 243.04 285.33 245.08 284.16 243.7 281.68"/><polygon class="cls-1" points="240.95 276.72 238.69 278.02 240.14 280.46 242.32 279.2 240.95 276.72"/><polygon class="cls-1" points="246.45 286.64 244.49 287.77 245.94 290.2 247.83 289.12 246.45 286.64"/><polygon class="cls-1" points="238.19 271.77 235.79 273.15 237.24 275.59 239.57 274.25 238.19 271.77"/><polygon class="cls-1" points="249.21 291.59 247.39 292.64 248.84 295.07 250.58 294.07 249.21 291.59"/><polygon class="cls-1" points="253.19 302.38 254.64 304.82 256.09 303.98 254.72 301.5 253.19 302.38"/><polygon class="cls-1" points="251.96 296.55 250.29 297.51 251.74 299.95 253.34 299.03 251.96 296.55"/><polygon class="cls-1" points="235.44 266.81 232.88 268.28 234.34 270.72 236.82 269.29 235.44 266.81"/><polygon class="cls-1" points="232.69 261.86 229.98 263.41 231.43 265.85 234.06 264.33 232.69 261.86"/><polygon class="cls-1" points="256.09 307.25 257.54 309.69 258.85 308.94 257.47 306.46 256.09 307.25"/><polygon class="cls-1" points="216.45 293.06 217.24 295.79 217.51 295.71 216.85 292.96 216.45 293.06"/><polygon class="cls-1" points="214.85 287.62 215.65 290.34 216.19 290.2 215.53 287.44 214.85 287.62"/><polygon class="cls-1" points="221.67 242.03 218.38 243.92 219.83 246.36 223.05 244.51 221.67 242.03"/><polygon class="cls-1" points="218.04 298.51 218.84 301.23 218.84 301.23 218.18 298.47 218.04 298.51"/><polygon class="cls-1" points="224.42 246.99 221.28 248.79 222.73 251.23 225.8 249.46 224.42 246.99"/><polygon class="cls-1" points="229.93 256.9 227.08 258.54 228.53 260.97 231.31 259.38 229.93 256.9"/><polygon class="cls-1" points="227.18 251.94 224.18 253.67 225.63 256.1 228.56 254.42 227.18 251.94"/><polygon class="cls-1" points="259 312.13 260.44 314.56 261.6 313.9 260.22 311.42 259 312.13"/><polygon class="cls-1" points="279.3 346.23 280.75 348.66 280.88 348.59 279.5 346.11 279.3 346.23"/><polygon class="cls-1" points="281.52 243.97 283.99 245.36 285.17 243.32 282.74 241.87 281.52 243.97"/><polygon class="cls-1" points="282.2 351.1 283.14 352.68 282.25 351.07 282.2 351.1"/><polygon class="cls-1" points="277.88 238.95 276.57 241.21 279.04 242.59 280.31 240.41 277.88 238.95"/><polygon class="cls-1" points="287.36 215.82 290.12 216.49 290.26 215.95 287.55 215.14 287.36 215.82"/><polygon class="cls-1" points="276.4 341.35 277.85 343.79 278.12 343.63 276.74 341.16 276.4 341.35"/><polygon class="cls-1" points="286.47 246.74 288.94 248.13 290.03 246.24 287.6 244.78 286.47 246.74"/><polygon class="cls-1" points="288.14 187.72 285.3 187.68 285.3 190.45 288.13 190.42 288.14 187.72"/><polygon class="cls-1" points="279.39 212.73 276.67 211.93 276.34 213.13 279.1 213.8 279.39 212.73"/><polygon class="cls-1" points="264.8 321.87 266.25 324.3 267.11 323.81 265.73 321.33 264.8 321.87"/><polygon class="cls-1" points="267.7 326.74 269.15 329.18 269.86 328.77 268.48 326.29 267.7 326.74"/><polygon class="cls-1" points="261.9 317 263.35 319.43 264.35 318.85 262.98 316.38 261.9 317"/><polygon class="cls-1" points="270.6 331.61 272.05 334.05 272.61 333.72 271.24 331.24 270.6 331.61"/><polygon class="cls-1" points="287.44 162.32 287.62 162.99 290.34 162.2 290.2 161.66 287.44 162.32"/><polygon class="cls-1" points="271.62 238.44 274.1 239.82 275.44 237.49 273.01 236.03 271.62 238.44"/><polygon class="cls-1" points="273.5 336.48 274.95 338.92 275.37 338.68 273.99 336.2 273.5 336.48"/><polygon class="cls-1" points="135.26 279.04 137.44 280.31 138.9 277.88 136.64 276.57 135.26 279.04"/><polygon class="cls-1" points="147.91 120.95 150.76 119.31 149.31 116.87 146.54 118.47 147.91 120.95"/><polygon class="cls-1" points="145.16 115.99 147.86 114.44 146.41 112 143.78 113.51 145.16 115.99"/><polygon class="cls-1" points="136.9 101.12 139.16 99.82 137.71 97.39 135.52 98.64 136.9 101.12"/><polygon class="cls-1" points="142.41 111.03 144.96 109.56 143.51 107.13 141.03 108.56 142.41 111.03"/><polygon class="cls-1" points="134.15 96.17 136.26 94.95 134.81 92.52 132.77 93.69 134.15 96.17"/><polygon class="cls-1" points="128.64 86.25 130.46 85.21 129.01 82.77 127.26 83.78 128.64 86.25"/><polygon class="cls-1" points="131.39 91.21 133.36 90.08 131.91 87.64 130.02 88.73 131.39 91.21"/><polygon class="cls-1" points="164.97 101.43 166.18 101.11 165.38 98.39 164.31 98.67 164.97 101.43"/><polygon class="cls-1" points="166.3 106.94 167.77 106.55 166.97 103.83 165.63 104.19 166.3 106.94"/><polygon class="cls-1" points="163.65 95.92 164.59 95.67 163.79 92.95 162.98 93.16 163.65 95.92"/><polygon class="cls-1" points="162.99 90.22 162.2 87.5 161.66 87.65 162.32 90.4 162.99 90.22"/><polygon class="cls-1" points="150.67 125.9 153.67 124.18 152.22 121.74 149.29 123.43 150.67 125.9"/><polygon class="cls-1" points="125.89 81.3 127.56 80.34 126.11 77.9 124.51 78.82 125.89 81.3"/><polygon class="cls-1" points="153.42 130.86 156.57 129.05 155.12 126.62 152.04 128.38 153.42 130.86"/><polygon class="cls-1" points="156.18 135.82 159.47 133.92 158.02 131.49 154.8 133.34 156.18 135.82"/><polygon class="cls-1" points="159.81 79.34 159.01 76.62 159.01 76.62 159.67 79.38 159.81 79.34"/><polygon class="cls-1" points="161.4 84.78 160.6 82.06 160.33 82.13 161 84.89 161.4 84.78"/><polygon class="cls-1" points="98.46 165.12 101.18 165.92 101.5 164.71 98.75 164.04 98.46 165.12"/><polygon class="cls-1" points="93.16 214.86 95.92 214.2 95.67 213.26 92.95 214.06 93.16 214.86"/><polygon class="cls-1" points="124.65 75.47 123.2 73.03 121.75 73.86 123.13 76.34 124.65 75.47"/><polygon class="cls-1" points="101.44 36.49 100 34.06 99.73 34.21 101.1 36.69 101.44 36.49"/><polygon class="cls-1" points="99.97 138.9 101.28 136.64 98.8 135.26 97.54 137.44 99.97 138.9"/><polygon class="cls-1" points="95.64 26.75 94.7 25.17 95.59 26.78 95.64 26.75"/><polygon class="cls-1" points="95.99 163.37 93.24 162.7 93.02 163.51 95.74 164.31 95.99 163.37"/><polygon class="cls-1" points="98.54 31.62 97.09 29.19 96.97 29.26 98.35 31.73 98.54 31.62"/><polygon class="cls-1" points="98.22 187.32 95.38 187.35 95.38 190.22 98.21 190.26 98.22 187.32"/><polygon class="cls-1" points="118.85 65.72 117.4 63.29 116.25 63.95 117.63 66.43 118.85 65.72"/><polygon class="cls-1" points="113.05 55.98 111.6 53.54 110.74 54.04 112.12 56.52 113.05 55.98"/><polygon class="cls-1" points="115.95 60.85 114.5 58.41 113.49 58.99 114.87 61.47 115.95 60.85"/><polygon class="cls-1" points="121.75 70.59 120.3 68.16 119 68.91 120.38 71.39 121.75 70.59"/><polygon class="cls-1" points="110.15 51.11 108.7 48.67 107.99 49.08 109.36 51.56 110.15 51.11"/><polygon class="cls-1" points="104.35 41.36 102.9 38.93 102.48 39.17 103.86 41.65 104.35 41.36"/><polygon class="cls-1" points="107.25 46.24 105.8 43.8 105.23 44.13 106.61 46.6 107.25 46.24"/><polygon class="cls-1" points="106.22 139.41 103.75 138.03 102.4 140.35 104.83 141.81 106.22 139.41"/><polygon class="cls-1" points="175.58 145.54 178.92 144.65 178.13 141.93 174.91 142.78 175.58 145.54"/><polygon class="cls-1" points="145.91 147.75 147.87 149.8 149.92 147.75 147.87 145.79 145.91 147.75"/><polygon class="cls-1" points="153.72 155.97 155.68 158.03 158.13 155.58 156.07 153.63 153.72 155.97"/><polygon class="cls-1" points="167.62 112.46 169.36 112 168.57 109.27 166.96 109.7 167.62 112.46"/><polygon class="cls-1" points="149.82 151.86 151.77 153.91 154.02 151.67 151.97 149.71 149.82 151.86"/><polygon class="cls-1" points="168.05 229.25 164.32 227.09 162.94 229.56 166.59 231.68 168.05 229.25"/><polygon class="cls-1" points="162.22 238.97 158.79 236.98 157.4 239.46 160.76 241.41 162.22 238.97"/><polygon class="cls-1" points="165.14 234.11 161.56 232.04 160.17 234.51 163.68 236.54 165.14 234.11"/><polygon class="cls-1" points="153.91 226.08 151.67 223.82 149.71 225.87 151.86 228.03 153.91 226.08"/><polygon class="cls-1" points="157.55 138.29 158.93 140.77 162.37 138.79 160.92 136.36 157.55 138.29"/><polygon class="cls-1" points="168.17 148.54 166.72 146.1 163.06 148.21 164.44 150.69 168.17 148.54"/><polygon class="cls-1" points="158.03 222.17 155.58 219.72 153.63 221.77 155.97 224.12 158.03 222.17"/><polygon class="cls-1" points="172.93 134.51 175.74 133.77 174.94 131.04 172.26 131.76 172.93 134.51"/><polygon class="cls-1" points="96.33 133.87 93.85 132.49 92.67 134.52 95.11 135.98 96.33 133.87"/><polygon class="cls-1" points="174.25 140.03 177.33 139.21 176.53 136.49 173.59 137.27 174.25 140.03"/><polygon class="cls-1" points="168.95 117.97 170.96 117.44 170.16 114.72 168.29 115.22 168.95 117.97"/><polygon class="cls-1" points="170.28 123.49 172.55 122.88 171.75 120.16 169.61 120.73 170.28 123.49"/><polygon class="cls-1" points="171.6 129 174.14 128.32 173.35 125.6 170.94 126.24 171.6 129"/><polygon class="cls-1" points="139.65 106.08 142.06 104.69 140.61 102.26 138.28 103.6 139.65 106.08"/><polygon class="cls-1" points="84.78 216.45 82.06 217.24 82.13 217.51 84.89 216.85 84.78 216.45"/><polygon class="cls-1" points="92.52 243.04 93.69 245.08 96.17 243.7 94.95 241.59 92.52 243.04"/><polygon class="cls-1" points="82.77 248.84 83.78 250.58 86.25 249.21 85.21 247.39 82.77 248.84"/><polygon class="cls-1" points="78.09 125.78 80.52 127.23 81.48 125.57 79.01 124.18 78.09 125.78"/><polygon class="cls-1" points="87.64 245.94 88.73 247.83 91.21 246.45 90.08 244.49 87.64 245.94"/><polygon class="cls-1" points="94.22 352.4 95.17 350.82 95.12 350.79 94.22 352.4"/><polygon class="cls-1" points="90.4 215.53 90.22 214.85 87.5 215.65 87.65 216.19 90.4 215.53"/><polygon class="cls-1" points="77.9 251.74 78.82 253.34 81.3 251.96 80.34 250.29 77.9 251.74"/><polygon class="cls-1" points="84.04 190.03 86.88 190.08 86.88 187.47 84.04 187.51 84.04 190.03"/><polygon class="cls-1" points="79.34 218.04 76.62 218.84 76.62 218.84 79.38 218.18 79.34 218.04"/><polygon class="cls-1" points="68.36 119.95 70.79 121.4 71.59 120.03 69.11 118.65 68.36 119.95"/><polygon class="cls-1" points="68.16 257.54 68.91 258.85 71.39 257.47 70.59 256.09 68.16 257.54"/><polygon class="cls-1" points="63.5 117.03 65.93 118.49 66.64 117.26 64.17 115.88 63.5 117.03"/><polygon class="cls-1" points="69.87 187.7 67.03 187.74 67.03 189.75 69.87 189.8 69.87 187.7"/><polygon class="cls-1" points="73.22 122.86 75.66 124.32 76.54 122.8 74.06 121.42 73.22 122.86"/><polygon class="cls-1" points="63.29 260.44 63.95 261.6 66.43 260.22 65.72 259 63.29 260.44"/><polygon class="cls-1" points="73.03 254.64 73.86 256.09 76.34 254.72 75.47 253.19 73.03 254.64"/><polygon class="cls-1" points="75.54 187.62 72.7 187.66 72.7 189.84 75.54 189.89 75.54 187.62"/><polygon class="cls-1" points="96.5 348.32 96.62 348.39 98.08 345.96 97.89 345.85 96.5 348.32"/><polygon class="cls-1" points="121.42 303.79 122.86 304.62 124.32 302.19 122.8 301.31 121.42 303.79"/><polygon class="cls-1" points="118.65 308.73 119.95 309.49 121.4 307.05 120.03 306.26 118.65 308.73"/><polygon class="cls-1" points="115.88 313.68 117.03 314.35 118.49 311.92 117.26 311.21 115.88 313.68"/><polygon class="cls-1" points="129.72 288.94 131.61 290.03 133.07 287.6 131.1 286.47 129.72 288.94"/><polygon class="cls-1" points="126.95 293.89 128.69 294.9 130.15 292.47 128.34 291.42 126.95 293.89"/><polygon class="cls-1" points="132.49 283.99 134.52 285.17 135.98 282.74 133.87 281.52 132.49 283.99"/><polygon class="cls-1" points="113.11 318.63 114.12 319.21 115.57 316.78 114.5 316.16 113.11 318.63"/><polygon class="cls-1" points="124.18 298.84 125.78 299.76 127.23 297.33 125.57 296.36 124.18 298.84"/><polygon class="cls-1" points="97.39 240.14 98.64 242.32 101.12 240.95 99.82 238.69 97.39 240.14"/><polygon class="cls-1" points="98.39 212.46 98.67 213.54 101.43 212.88 101.11 211.67 98.39 212.46"/><polygon class="cls-1" points="99.27 343.37 99.54 343.53 101 341.1 100.65 340.9 99.27 343.37"/><polygon class="cls-1" points="102.04 338.42 102.45 338.66 103.91 336.23 103.42 335.95 102.04 338.42"/><polygon class="cls-1" points="110.34 323.58 111.2 324.07 112.66 321.64 111.73 321.1 110.34 323.58"/><polygon class="cls-1" points="104.81 333.47 105.37 333.8 106.83 331.37 106.19 331 104.81 333.47"/><polygon class="cls-1" points="110.54 266.88 110.74 267.08 112.79 265.13 112.5 264.83 110.54 266.88"/><polygon class="cls-1" points="107.58 328.53 108.28 328.94 109.74 326.51 108.96 326.05 107.58 328.53"/><polygon class="cls-1" points="55.69 189.56 58.53 189.61 58.53 187.85 55.7 187.89 55.69 189.56"/><polygon class="cls-1" points="1.84 188.68 1.84 188.62 0 188.65 1.84 188.68"/><polygon class="cls-1" points="51.79 108.96 49.32 107.58 48.91 108.28 51.34 109.74 51.79 108.96"/><polygon class="cls-1" points="46.85 106.19 44.37 104.81 44.05 105.37 46.48 106.83 46.85 106.19"/><polygon class="cls-1" points="91.38 131.1 88.91 129.72 87.81 131.61 90.24 133.07 91.38 131.1"/><polygon class="cls-1" points="4.67 188.72 7.51 188.77 7.51 188.54 4.67 188.58 4.67 188.72"/><polygon class="cls-1" points="56.74 111.73 54.27 110.34 53.77 111.2 56.2 112.66 56.74 111.73"/><polygon class="cls-1" points="21.68 189 24.51 189.05 24.52 188.31 21.68 188.35 21.68 189"/><polygon class="cls-1" points="10.34 188.81 13.18 188.86 13.18 188.47 10.34 188.5 10.34 188.81"/><polygon class="cls-1" points="16.01 188.91 18.84 188.96 18.84 188.39 16.01 188.43 16.01 188.91"/><polygon class="cls-1" points="86.43 128.34 83.96 126.95 82.95 128.69 85.38 130.15 86.43 128.34"/><polygon class="cls-1" points="90.48 162.03 87.73 161.36 87.58 161.9 90.3 162.7 90.48 162.03"/><polygon class="cls-1" points="89.71 190.12 92.54 190.17 92.55 187.39 89.71 187.43 89.71 190.12"/><polygon class="cls-1" points="84.97 160.69 82.22 160.02 82.14 160.29 84.86 161.09 84.97 160.69"/><polygon class="cls-1" points="61.69 114.5 59.22 113.11 58.63 114.12 61.07 115.57 61.69 114.5"/><polygon class="cls-1" points="64.2 189.7 64.2 187.78 61.37 187.81 61.36 189.66 64.2 189.7"/><polygon class="cls-1" points="79.46 159.35 76.71 158.68 76.71 158.68 79.43 159.49 79.46 159.35"/><polygon class="cls-1" points="78.37 189.94 81.2 189.98 81.21 187.55 78.37 187.58 78.37 189.94"/><polygon class="cls-1" points="29.46 96.62 31.89 98.08 32 97.89 29.53 96.5 29.46 96.62"/><polygon class="cls-1" points="39.18 102.45 41.62 103.91 41.9 103.42 39.42 102.04 39.18 102.45"/><polygon class="cls-1" points="43.8 272.05 44.13 272.61 46.6 271.24 46.24 270.6 43.8 272.05"/><polygon class="cls-1" points="25.17 283.14 26.78 282.25 26.75 282.2 25.17 283.14"/><polygon class="cls-1" points="41.52 188.08 38.69 188.12 38.69 189.28 41.52 189.33 41.52 188.08"/><polygon class="cls-1" points="38.93 274.95 39.17 275.37 41.65 273.99 41.37 273.5 38.93 274.95"/><polygon class="cls-1" points="48.67 269.15 49.08 269.86 51.56 268.48 51.11 267.7 48.67 269.15"/><polygon class="cls-1" points="53.54 266.25 54.04 267.11 56.52 265.73 55.98 264.8 53.54 266.25"/><polygon class="cls-1" points="50.02 189.47 52.86 189.52 52.86 187.93 50.03 187.97 50.02 189.47"/><polygon class="cls-1" points="44.35 189.38 47.19 189.42 47.19 188.01 44.36 188.04 44.35 189.38"/><polygon class="cls-1" points="30.18 188.24 27.35 188.27 27.35 189.09 30.18 189.14 30.18 188.24"/><polygon class="cls-1" points="34.32 99.54 36.75 101 36.95 100.65 34.48 99.27 34.32 99.54"/><polygon class="cls-1" points="29.19 280.75 29.26 280.88 31.73 279.5 31.62 279.3 29.19 280.75"/><polygon class="cls-1" points="27.03 95.17 27.05 95.12 25.45 94.22 27.03 95.17"/><polygon class="cls-1" points="34.06 277.85 34.21 278.12 36.69 276.74 36.49 276.4 34.06 277.85"/><polygon class="cls-1" points="35.85 188.16 33.02 188.2 33.02 189.19 35.85 189.24 35.85 188.16"/><polygon class="cls-1" points="58.41 263.35 58.99 264.35 61.47 262.98 60.85 261.9 58.41 263.35"/><path class="cls-1" d="M189,144.72a44.41,44.41,0,0,1,20.56,5.1,44.17,44.17,0,1,1-20.56-5.1m0-1a45.22,45.22,0,1,0,21,5.22,45.18,45.18,0,0,0-21-5.22Z"/></g></g></svg>