<svg xmlns="http://www.w3.org/2000/svg" viewBox="0 0 135.94 135.94"><defs><style>.cls-1{fill:none;stroke:#1d1d1b;stroke-linecap:square;stroke-miterlimit:10;stroke-width:5px;stroke-dasharray:0 13;}.cls-2{fill:#1d1d1b;}</style></defs><title>Asset 16</title><g id="Layer_2" data-name="Layer 2"><g id="Layer_3" data-name="Layer 3"><circle class="cls-1" cx="67.97" cy="67.97" r="65.45"/><path class="cls-2" d="M106.44,45.43a6.77,6.77,0,0,0-6.76-6.77H36.26a6.78,6.78,0,0,0-6.77,6.77V90.51a6.78,6.78,0,0,0,6.77,6.77H99.68a6.77,6.77,0,0,0,6.76-6.77ZM34,46.34,55.72,67.87,34,89.58ZM68.11,73.81,37.21,43.17H98.75ZM58.92,71l7.61,7.55a2.25,2.25,0,0,0,3.18,0l7.43-7.42L98.75,92.77H37.19ZM80.33,68l21.61-21.61V89.58Z"/></g></g></svg>