<svg xmlns="http://www.w3.org/2000/svg" xmlns:xlink="http://www.w3.org/1999/xlink" viewBox="0 0 135.94 135.94"><defs><style>.cls-1,.cls-2{fill:none;}.cls-2{stroke:#1d1d1b;stroke-linecap:square;stroke-miterlimit:10;stroke-width:5px;stroke-dasharray:0 13;}.cls-3{clip-path:url(#clip-path);}</style><clipPath id="clip-path"><rect class="cls-1" x="26.38" y="34.83" width="83.18" height="66.29"/></clipPath></defs><title>Asset 15</title><g id="Layer_2" data-name="Layer 2"><g id="Layer_3" data-name="Layer 3"><circle class="cls-2" cx="67.97" cy="67.97" r="65.45"/><g class="cls-3"><path d="M30,87.79c7,13.43,24.33,13.13,39,13.29,12.69,0,22.56-.81,29.45-4.78,13.56-7.82,14.44-31.63,5.16-43.52a20.62,20.62,0,0,0-1.71-16.52,2.59,2.59,0,0,0-2.31-1.41c-7.64,0-12.68,1.48-18.11,5.4a65.36,65.36,0,0,0-26.28.13c-5.56-4-10.64-5.53-18.27-5.53a2.59,2.59,0,0,0-2.32,1.43,20.54,20.54,0,0,0-1.71,16.58C24.53,63.37,25,78.2,30,87.79Zm7.72-32.64a2.6,2.6,0,0,0,.51-2.54c-2-5.83-1.19-9.31.27-12.53a22.39,22.39,0,0,1,14.48,5.16,2.63,2.63,0,0,0,2.17.47,59.88,59.88,0,0,1,26.3-.14,2.56,2.56,0,0,0,2.17-.46c4.53-3.48,8.3-4.84,14.32-5,1.41,3.12,2.21,6.66.27,12.44a2.63,2.63,0,0,0,.5,2.54c3.78,4.35,5.7,9.89,5.7,16.44,0,20.71-9.28,24.39-35.45,24.39-12.15,0-28.75.28-34.34-10.47C30.26,77,29.94,64,37.67,55.15Zm0,0"/></g><path d="M72.05,93c6.69,0,27.06,0,27.06-18.7,0-9.11-6.11-15.72-14.54-15.72a50.68,50.68,0,0,0-7.54.71c-14.69,2.11-16.24-.71-25.31-.71-14.86,0-18.76,19.24-9.87,28,8,8,23.25,5.94,30.2,6.38ZM51.72,63.79c9,0,10.19,2.94,26.05.66a47.24,47.24,0,0,1,6.8-.66c6.42,0,9.34,5.46,9.34,10.53,0,9.34-6.74,13.5-21.69,13.5-5.76-.38-20.34,1.43-26.71-4.88-5.65-5.59-3.84-19.15,6.21-19.15Zm0,0"/><path d="M83.1,84.71c3.58,0,6.93-3.12,6.93-8.66,0-11.51-13.87-11.5-13.87,0,0,5.68,3.49,8.66,6.94,8.66Zm0-12.11c.84,0,1.74,1.21,1.74,3.45,0,4.59-3.47,4.52-3.47,0,0-1.33.48-3.45,1.73-3.45Zm0,0"/><path d="M53.25,84.71c9.25,0,9.25-17.3,0-17.3s-9.25,17.3,0,17.3ZM55,76.05c0,4.58-3.46,4.52-3.46,0s3.46-4.62,3.46,0Zm0,0"/></g></g></svg>