<svg xmlns="http://www.w3.org/2000/svg" viewBox="0 0 174.17 229.59"><defs><style>.cls-1,.cls-2,.cls-3{fill:none;stroke:#f48167;stroke-width:2.83px;}.cls-1,.cls-2{stroke-linecap:round;}.cls-1,.cls-3{stroke-miterlimit:10;}.cls-2{stroke-linejoin:round;}.cls-3{stroke-dasharray:2.83;}</style></defs><title>Asset 6</title><g id="Layer_2" data-name="Layer 2"><g id="Layer_2-2" data-name="Layer 2"><line class="cls-1" x1="5.41" y1="224.25" x2="168.75" y2="224.25"/><line class="cls-1" x1="1.42" y1="228.17" x2="172.75" y2="228.17"/><path class="cls-1" d="M83.19,72.11,61,81.83l-3.27,1.44-4.69,2-5.33,2.34,2.36,1.55A14.36,14.36,0,0,0,58,91.55H87.08"/><rect class="cls-1" x="83.19" y="63.41" width="7.78" height="8.69"/><rect class="cls-1" x="85.48" y="22.01" width="3.2" height="41.87"/><circle class="cls-1" cx="87.08" cy="19.25" r="2.75"/><circle class="cls-1" cx="87.08" cy="8.51" r="2.75"/><line class="cls-1" x1="87.08" y1="16.5" x2="87.08" y2="11.26"/><line class="cls-1" x1="87.08" y1="5.76" x2="87.08" y2="1.42"/><line class="cls-1" x1="64.44" y1="91.55" x2="64.44" y2="103.91"/><line class="cls-1" x1="86.97" y1="103.91" x2="55.28" y2="103.91"/><line class="cls-1" x1="55.28" y1="103.91" x2="55.28" y2="109.17"/><path class="cls-1" d="M87,115.4H55.28A15.27,15.27,0,0,1,46,111.29c4.29-.35,7.49,0,9.32-2.12H87"/><path class="cls-2" d="M60.4,82.11c-1.85.81-8.09,1.53-8.78,0V86"/><path class="cls-2" d="M52.8,110.64c-1.85.81-4.88-.49-5.56-2v2.47"/><line class="cls-1" x1="62.55" y1="115.4" x2="62.55" y2="127.76"/><line class="cls-1" x1="86.96" y1="127.76" x2="52.63" y2="127.76"/><line class="cls-1" x1="52.63" y1="127.76" x2="52.63" y2="133.02"/><path class="cls-1" d="M87,139.25H52.63c-6.75-.68-10.1-4.12-10.1-4.12,4.65-.34,8.12,0,10.1-2.11H87"/><path class="cls-2" d="M49.94,134.49c-2,.81-5.29-.49-6-2v2.47"/><line class="cls-1" x1="59.02" y1="139.25" x2="59.02" y2="151.61"/><line class="cls-1" x1="86.94" y1="151.61" x2="47.68" y2="151.61"/><line class="cls-1" x1="47.68" y1="151.61" x2="47.68" y2="156.87"/><path class="cls-1" d="M86.94,163.1H47.68C40,162.42,36.13,159,36.13,159c5.31-.34,9.28,0,11.55-2.11H86.94"/><path class="cls-2" d="M44.6,158.34c-2.3.81-6.05-.49-6.9-2v2.48"/><line class="cls-1" x1="55.87" y1="163.1" x2="55.87" y2="175.46"/><line class="cls-1" x1="55.87" y1="186.95" x2="55.87" y2="218.98"/><line class="cls-1" x1="86.93" y1="175.46" x2="43.25" y2="175.46"/><line class="cls-1" x1="43.25" y1="175.46" x2="43.25" y2="180.72"/><path class="cls-1" d="M86.93,187H43.25c-8.59-.68-12.84-4.12-12.84-4.12,5.91-.34,10.32,0,12.84-2.11H86.93"/><path class="cls-2" d="M39.83,181.5c-2.55.81-6.72-.49-7.67-2V182"/><line class="cls-1" x1="86.93" y1="206.85" x2="69.8" y2="206.85"/><line class="cls-1" x1="73.05" y1="201.82" x2="73.05" y2="218.98"/><path class="cls-1" d="M91,72.11l22.17,9.72,3.27,1.44,4.69,2,5.33,2.34-2.36,1.55a14.36,14.36,0,0,1-7.87,2.34H87.08"/><line class="cls-1" x1="109.73" y1="91.55" x2="109.73" y2="103.91"/><line class="cls-1" x1="87.2" y1="103.91" x2="118.88" y2="103.91"/><line class="cls-1" x1="118.88" y1="103.91" x2="118.88" y2="109.17"/><path class="cls-1" d="M87.2,115.4h31.68a15.27,15.27,0,0,0,9.33-4.11c-4.29-.35-7.5,0-9.33-2.12H87.2"/><polyline class="cls-3" points="109.73 99.33 87.08 99.33 64.44 99.33"/><polyline class="cls-3" points="125.21 88.47 87.2 88.47 86.97 88.47 48.96 88.47"/><polyline class="cls-3" points="125.21 112.29 87.2 112.29 86.97 112.29 48.96 112.29"/><polyline class="cls-3" points="125.21 136.13 87.2 136.13 86.97 136.13 48.96 136.13"/><polyline class="cls-3" points="134.04 159.99 87.22 159.99 86.94 159.99 40.13 159.99"/><polyline class="cls-3" points="136.47 183.83 87.23 183.83 86.94 183.83 37.7 183.83"/><path class="cls-2" d="M113.77,82.11c1.85.81,8.09,1.53,8.77,0V86"/><path class="cls-2" d="M121.37,110.64c1.85.81,4.88-.49,5.56-2v2.47"/><line class="cls-1" x1="111.62" y1="115.4" x2="111.62" y2="127.76"/><line class="cls-1" x1="87.21" y1="127.76" x2="121.54" y2="127.76"/><line class="cls-1" x1="121.54" y1="127.76" x2="121.54" y2="133.02"/><path class="cls-1" d="M87.21,139.25h34.33c6.75-.68,10.1-4.12,10.1-4.12-4.65-.34-8.12,0-10.1-2.11H87.21"/><polyline class="cls-3" points="111.62 123.18 87.08 123.18 62.55 123.18"/><path class="cls-2" d="M124.23,134.49c2,.81,5.28-.49,6-2v2.47"/><line class="cls-1" x1="115.15" y1="139.25" x2="115.15" y2="151.61"/><line class="cls-1" x1="87.23" y1="151.61" x2="126.49" y2="151.61"/><line class="cls-1" x1="126.49" y1="151.61" x2="126.49" y2="156.87"/><path class="cls-1" d="M87.23,163.1h39.26C134.22,162.42,138,159,138,159c-5.31-.34-9.28,0-11.55-2.11H87.23"/><polyline class="cls-3" points="115.15 147.03 87.08 147.03 59.02 147.03"/><path class="cls-2" d="M129.57,158.34c2.3.81,6.05-.49,6.9-2v2.48"/><line class="cls-1" x1="118.3" y1="163.1" x2="118.3" y2="175.46"/><line class="cls-1" x1="118.3" y1="186.95" x2="118.3" y2="218.98"/><line class="cls-1" x1="87.24" y1="175.46" x2="130.91" y2="175.46"/><line class="cls-1" x1="130.91" y1="175.46" x2="130.91" y2="180.72"/><path class="cls-1" d="M87.24,187h43.67c8.6-.68,12.85-4.12,12.85-4.12-5.91-.34-10.32,0-12.85-2.11H87.24"/><polyline class="cls-3" points="118.3 170.88 87.08 170.88 55.87 170.88"/><polyline class="cls-3" points="87.24 186.95 87.24 192.01 87.24 197.07"/><polyline class="cls-3" points="82.16 186.95 82.16 192.01 82.16 197.07"/><polyline class="cls-3" points="77.08 186.95 77.08 192.01 77.08 197.07"/><polyline class="cls-3" points="72.01 186.95 72.01 192.01 72.01 197.07"/><polyline class="cls-3" points="66.93 186.95 66.93 192.01 66.93 197.07"/><polyline class="cls-3" points="61.85 186.95 61.85 192.01 61.85 197.07"/><polyline class="cls-3" points="92.32 186.95 92.32 192.01 92.32 197.07"/><polyline class="cls-3" points="97.4 186.95 97.4 192.01 97.4 197.07"/><polyline class="cls-3" points="102.48 186.95 102.48 192.01 102.48 197.07"/><polyline class="cls-3" points="107.56 186.95 107.56 192.01 107.56 197.07"/><polyline class="cls-3" points="112.63 186.95 112.63 192.01 112.63 197.07"/><path class="cls-2" d="M134.34,182.19c2.55.81,6.72-.49,7.67-2v2.48"/><polyline class="cls-1" points="121.54 196.79 87.22 196.79 86.94 196.79 52.63 196.79"/><line class="cls-1" x1="87.24" y1="206.85" x2="104.37" y2="206.85"/><line class="cls-1" x1="101.12" y1="201.82" x2="101.12" y2="218.98"/><line class="cls-1" x1="41.6" y1="219.67" x2="132.57" y2="219.67"/></g></g></svg>