<svg xmlns="http://www.w3.org/2000/svg" viewBox="0 0 135.94 135.94"><defs><style>.cls-1{fill:none;stroke:#1d1d1b;stroke-linecap:square;stroke-miterlimit:10;stroke-width:5px;stroke-dasharray:0 13;}</style></defs><title>Asset 14</title><g id="Layer_2" data-name="Layer 2"><g id="Layer_3" data-name="Layer 3"><circle class="cls-1" cx="67.97" cy="67.97" r="65.45"/><path d="M87,102.76h13.51a2.18,2.18,0,0,0,2.17-2.18c-1-22.78,5.34-46.82-18.37-46.82A17.22,17.22,0,0,0,73.5,57.38c0-4.24-4.58-1.89-15.15-2.52A2.18,2.18,0,0,0,56.17,57c.88,41.07-2,45.73,2.18,45.73H71.86c3.92,0,1.43-5.53,2.17-23.74,0-7.52,2.18-9,5.94-9,4.16,0,4.85,2.89,4.85,9.36.75,17.88-1.73,23.38,2.18,23.38ZM80,65.67C67,65.67,69.69,80,69.69,98.41H60.52V59.21h8.63V63a2.31,2.31,0,0,0,4.29,1c1.42-2.7,5.13-5.87,10.87-5.87,10.22,0,14,5,14,18.55V98.41H89.17c0-20.71,2.19-32.74-9.2-32.74Z"/><path d="M36.35,54.86c-4.12,0-1.3,4.6-2.17,45.73a2.17,2.17,0,0,0,2.17,2.17H49.88c4.11,0,1.3-4.59,2.17-45.73,0-3.75-5.45-1.53-15.7-2.17ZM47.7,98.41H38.53V59.21H47.7Z"/><path d="M43.11,33.18c-13.27,0-13.19,20.09,0,20.09s13.28-20.09,0-20.09Zm0,15.74c-7.45,0-7.52-11.4,0-11.4s7.43,11.4,0,11.4Z"/></g></g></svg>