<svg xmlns="http://www.w3.org/2000/svg" viewBox="0 0 271.88 230"><defs><style>.cls-1,.cls-2,.cls-4{fill:none;stroke:#57cbf5;stroke-miterlimit:10;stroke-width:2.83px;}.cls-1{stroke-linecap:round;}.cls-2{stroke-dasharray:2.83;}.cls-3{fill:#57cbf5;}</style></defs><title>Asset 5</title><g id="Layer_2" data-name="Layer 2"><g id="Layer_2-2" data-name="Layer 2"><line class="cls-1" x1="7.69" y1="224.66" x2="264.19" y2="224.66"/><line class="cls-1" x1="1.42" y1="228.59" x2="270.46" y2="228.59"/><line class="cls-2" x1="91.9" y1="173.42" x2="34.4" y2="173.42"/><line class="cls-2" x1="94.65" y1="186.92" x2="36.15" y2="186.92"/><line class="cls-1" x1="174.9" y1="186.92" x2="134.58" y2="186.92"/><line class="cls-2" x1="176.85" y1="191.75" x2="134.02" y2="191.75"/><line class="cls-2" x1="174.65" y1="173.42" x2="109.9" y2="173.42"/><line class="cls-2" x1="237.98" y1="173.42" x2="189.9" y2="173.42"/><line class="cls-1" x1="248.4" y1="70.67" x2="116.4" y2="70.67"/><line class="cls-2" x1="248.4" y1="75.92" x2="116.4" y2="75.92"/><line class="cls-1" x1="174.9" y1="32.17" x2="144.9" y2="32.17"/><line class="cls-1" x1="174.9" y1="32.17" x2="174.9" y2="18.92"/><line class="cls-1" x1="190.15" y1="32.17" x2="190.15" y2="18.92"/><line class="cls-1" x1="129.65" y1="32.17" x2="129.65" y2="18.92"/><line class="cls-1" x1="144.9" y1="32.17" x2="144.9" y2="18.92"/><path class="cls-1" d="M137.32,10.58c-5.46,1.5-7.95,8.34-7.95,8.34h-4.05"/><path class="cls-1" d="M137.32,10.58c5.45,1.5,8,8.34,8,8.34h4"/><line class="cls-1" x1="137.32" y1="10.58" x2="137.32" y2="1.42"/><path class="cls-1" d="M182.4,10.58c-5.45,1.5-8,8.34-8,8.34h-4"/><path class="cls-1" d="M182.4,10.58c5.46,1.5,7.95,8.34,7.95,8.34h4.05"/><line class="cls-1" x1="182.4" y1="10.58" x2="182.4" y2="1.42"/><line class="cls-1" x1="132.82" y1="6" x2="141.82" y2="6"/><line class="cls-1" x1="94.65" y1="186.92" x2="94.65" y2="160.17"/><line class="cls-1" x1="109.9" y1="186.92" x2="109.9" y2="160.17"/><path class="cls-1" d="M90.32,160.17h4.05s1.34-6.88,4.2-11.15"/><path class="cls-1" d="M106.07,149c2.86,4.27,4.2,11.15,4.2,11.15h4"/><line class="cls-1" x1="102.32" y1="140.42" x2="102.32" y2="131.25"/><line class="cls-1" x1="97.82" y1="135.83" x2="106.82" y2="135.83"/><line class="cls-1" x1="177.9" y1="6" x2="186.9" y2="6"/><path class="cls-1" d="M106.07,149a4.86,4.86,0,0,0,1.17-3.18,4.92,4.92,0,1,0-9.84,0A4.86,4.86,0,0,0,98.57,149"/><line class="cls-1" x1="19.48" y1="186.92" x2="19.48" y2="160.17"/><polyline class="cls-1" points="117.82 70.67 117.82 89.42 122.86 94.46 122.86 112.75 117.5 118.11 117.5 146.42 122.52 151.43 122.52 168.36"/><line class="cls-1" x1="34.73" y1="186.92" x2="34.73" y2="160.17"/><path class="cls-1" d="M15.15,160.17h4s1.34-6.88,4.2-11.15"/><path class="cls-1" d="M30.9,149c2.86,4.27,4.2,11.15,4.2,11.15h4"/><line class="cls-1" x1="27.15" y1="140.42" x2="27.15" y2="131.25"/><line class="cls-1" x1="22.65" y1="135.83" x2="31.65" y2="135.83"/><path class="cls-1" d="M30.9,149a4.86,4.86,0,0,0,1.17-3.18,4.92,4.92,0,1,0-9.84,0A4.86,4.86,0,0,0,23.4,149"/><line class="cls-1" x1="19.48" y1="186.92" x2="27.15" y2="205.92"/><line class="cls-1" x1="129.65" y1="32.17" x2="129.65" y2="46.92"/><line class="cls-1" x1="131.32" y1="47.67" x2="131.32" y2="70.67"/><path class="cls-1" d="M153.9,57.54h0a15.1,15.1,0,0,1,3.5,9.5v.88h-7V67a15.1,15.1,0,0,1,3.5-9.5h0"/><path class="cls-1" d="M149.32,152.8h0a15.16,15.16,0,0,1,3.5,9.5v.88h-7v-.88a15.1,15.1,0,0,1,3.5-9.5h0"/><path class="cls-1" d="M102.32,163.18h0a15.12,15.12,0,0,1,3.5,9.5v.87h-7v-.87a15.06,15.06,0,0,1,3.5-9.5h0"/><path class="cls-1" d="M126.36,195.13h0a35.5,35.5,0,0,1,8.22,22.32v2.05H118.14v-2.05a35.5,35.5,0,0,1,8.22-22.32h0"/><path class="cls-3" d="M146.57,92a8.31,8.31,0,0,1,1.56,4.81v9.37H145V96.8A8.25,8.25,0,0,1,146.57,92m0-4.89-2.31,3.25a11.05,11.05,0,0,0-2.09,6.45V109H151V96.8a11.05,11.05,0,0,0-2.09-6.45l-2.31-3.25Z"/><path class="cls-3" d="M152.07,92a8.31,8.31,0,0,1,1.56,4.81v9.37H150.5V96.8A8.25,8.25,0,0,1,152.07,92m0-4.89-2.31,3.25a11.05,11.05,0,0,0-2.09,6.45V109h8.8V96.8a11.05,11.05,0,0,0-2.09-6.45l-2.31-3.25Z"/><path class="cls-3" d="M146.57,119.49a8.31,8.31,0,0,1,1.56,4.81v9.37H145V124.3a8.25,8.25,0,0,1,1.57-4.81m0-4.89-2.31,3.25a11.05,11.05,0,0,0-2.09,6.45v12.2H151V124.3a11.05,11.05,0,0,0-2.09-6.45l-2.31-3.25Z"/><path class="cls-3" d="M152.07,119.49a8.31,8.31,0,0,1,1.56,4.81v9.37H150.5V124.3a8.25,8.25,0,0,1,1.57-4.81m0-4.89-2.31,3.25a11.05,11.05,0,0,0-2.09,6.45v12.2h8.8V124.3a11.05,11.05,0,0,0-2.09-6.45l-2.31-3.25Z"/><path class="cls-1" d="M215.65,152.8h0a15.1,15.1,0,0,0-3.5,9.5v.88h7v-.88a15.1,15.1,0,0,0-3.5-9.5h0"/><path class="cls-3" d="M218.4,92A8.32,8.32,0,0,1,220,96.8v9.37h-3.14V96.8A8.32,8.32,0,0,1,218.4,92m0-4.89-2.31,3.25A11.05,11.05,0,0,0,214,96.8V109h8.8V96.8a11.05,11.05,0,0,0-2.09-6.45L218.4,87.1Z"/><path class="cls-3" d="M212.9,92a8.32,8.32,0,0,1,1.57,4.81v9.37h-3.14V96.8A8.32,8.32,0,0,1,212.9,92m0-4.89-2.31,3.25a11.05,11.05,0,0,0-2.09,6.45V109h8.8V96.8a11.05,11.05,0,0,0-2.09-6.45L212.9,87.1Z"/><path class="cls-3" d="M218.4,119.49A8.32,8.32,0,0,1,220,124.3v9.37h-3.14V124.3a8.32,8.32,0,0,1,1.57-4.81m0-4.89-2.31,3.25A11.05,11.05,0,0,0,214,124.3v12.2h8.8V124.3a11.05,11.05,0,0,0-2.09-6.45l-2.31-3.25Z"/><path class="cls-3" d="M212.9,119.49a8.32,8.32,0,0,1,1.57,4.81v9.37h-3.14V124.3a8.32,8.32,0,0,1,1.57-4.81m0-4.89-2.31,3.25a11.05,11.05,0,0,0-2.09,6.45v12.2h8.8V124.3a11.05,11.05,0,0,0-2.09-6.45l-2.31-3.25Z"/><line class="cls-1" x1="189.9" y1="32.17" x2="219.9" y2="32.17"/><polyline class="cls-2" points="237.98 37.42 182.4 37.42 126.82 37.42"/><line class="cls-1" x1="189.9" y1="32.17" x2="189.9" y2="18.92"/><line class="cls-1" x1="174.65" y1="32.17" x2="174.65" y2="18.92"/><line class="cls-1" x1="235.15" y1="32.17" x2="235.15" y2="18.92"/><line class="cls-1" x1="219.9" y1="32.17" x2="219.9" y2="18.92"/><path class="cls-1" d="M227.48,10.58c5.46,1.5,8,8.34,8,8.34h4"/><path class="cls-1" d="M227.48,10.58c-5.45,1.5-7.94,8.34-7.94,8.34h-4.06"/><line class="cls-1" x1="227.48" y1="10.58" x2="227.48" y2="1.42"/><path class="cls-1" d="M182.4,10.58c5.46,1.5,7.95,8.34,7.95,8.34h4.05"/><path class="cls-1" d="M182.4,10.58c-5.45,1.5-8,8.34-8,8.34h-4"/><line class="cls-1" x1="182.4" y1="10.58" x2="182.4" y2="1.42"/><line class="cls-1" x1="231.98" y1="6" x2="222.98" y2="6"/><line class="cls-1" x1="186.9" y1="6" x2="177.9" y2="6"/><line class="cls-1" x1="244.9" y1="205.92" x2="244.9" y2="221.27"/><polyline class="cls-1" points="246.98 70.67 246.98 89.42 244.94 94.46 244.94 104.42 247.98 104.42 247.98 121.92 244.9 121.92 244.9 126.42"/><line class="cls-1" x1="235.15" y1="32.17" x2="235.15" y2="46.92"/><line class="cls-1" x1="233.48" y1="47.67" x2="233.48" y2="70.67"/><path class="cls-1" d="M210.9,57.54h0a15.1,15.1,0,0,0-3.5,9.5v.88h7V67a15.1,15.1,0,0,0-3.5-9.5h0"/><polyline class="cls-1" points="109.98 186.92 102.32 205.92 94.65 186.92"/><line class="cls-1" x1="174.9" y1="186.92" x2="174.9" y2="160.17"/><line class="cls-1" x1="190.15" y1="186.92" x2="190.15" y2="160.17"/><path class="cls-1" d="M170.57,160.17h4.05s1.34-6.88,4.2-11.15"/><path class="cls-1" d="M186.32,149c2.86,4.27,4.2,11.15,4.2,11.15h4"/><line class="cls-1" x1="182.57" y1="140.42" x2="182.57" y2="131.25"/><line class="cls-1" x1="178.07" y1="135.83" x2="187.07" y2="135.83"/><path class="cls-1" d="M186.32,149a4.86,4.86,0,0,0,1.17-3.18,4.92,4.92,0,1,0-9.84,0,4.86,4.86,0,0,0,1.17,3.18"/><path class="cls-1" d="M182.57,163.18h0a15.12,15.12,0,0,1,3.5,9.5v.87h-7v-.87a15.06,15.06,0,0,1,3.5-9.5h0"/><polyline class="cls-1" points="190.23 186.92 182.57 205.92 174.9 186.92"/><line class="cls-1" x1="237.23" y1="186.92" x2="237.23" y2="160.17"/><line class="cls-1" x1="252.48" y1="186.92" x2="252.48" y2="160.17"/><path class="cls-1" d="M232.9,160.17h4s1.34-6.88,4.2-11.15"/><path class="cls-1" d="M248.65,149c2.86,4.27,4.2,11.15,4.2,11.15h4"/><line class="cls-1" x1="244.9" y1="140.42" x2="244.9" y2="131.25"/><line class="cls-1" x1="240.4" y1="135.83" x2="249.4" y2="135.83"/><path class="cls-1" d="M248.65,149a4.86,4.86,0,0,0,1.17-3.18,4.92,4.92,0,1,0-9.84,0,4.86,4.86,0,0,0,1.17,3.18"/><polyline class="cls-1" points="252.57 186.92 244.9 205.92 237.23 186.92"/><line class="cls-1" x1="27.15" y1="205.92" x2="34.73" y2="186.92"/><line class="cls-1" x1="27.15" y1="205.92" x2="27.15" y2="221.27"/><rect class="cls-1" x="36.15" y="201.75" width="5.1" height="9"/><rect class="cls-1" x="49.21" y="201.75" width="5.1" height="9"/><rect class="cls-1" x="62.27" y="201.75" width="5.1" height="9"/><rect class="cls-1" x="75.33" y="201.75" width="5.1" height="9"/><rect class="cls-1" x="88.39" y="201.75" width="5.1" height="9"/><line class="cls-4" x1="27.15" y1="221.27" x2="244.9" y2="221.27"/><line class="cls-1" x1="35.02" y1="168.36" x2="94.65" y2="168.36"/><line class="cls-1" x1="109.9" y1="168.36" x2="122.52" y2="168.36"/><line class="cls-1" x1="134.58" y1="217.45" x2="134.58" y2="186.92"/><line class="cls-1" x1="146.27" y1="219.5" x2="146.27" y2="186.49"/></g></g></svg>