<svg xmlns="http://www.w3.org/2000/svg" viewBox="0 0 291.17 122.17"><defs><style>.cls-1,.cls-2,.cls-3{fill:none;stroke:#43b871;stroke-miterlimit:10;stroke-width:2.83px;}.cls-1{stroke-linecap:round;}.cls-2{stroke-dasharray:2.83;}</style></defs><title>Asset 7</title><g id="Layer_2" data-name="Layer 2"><g id="Layer_2-2" data-name="Layer 2"><line class="cls-1" x1="122.41" y1="116.83" x2="285.75" y2="116.83"/><line class="cls-1" x1="118.42" y1="120.75" x2="289.75" y2="120.75"/><line class="cls-1" x1="5.41" y1="116.83" x2="285.75" y2="116.83"/><line class="cls-1" x1="1.42" y1="120.75" x2="289.75" y2="120.75"/><line class="cls-1" x1="20.75" y1="1.42" x2="20.75" y2="16.75"/><line class="cls-1" x1="244.75" y1="1.42" x2="20.75" y2="1.42"/><line class="cls-1" x1="244.75" y1="1.42" x2="244.75" y2="111.92"/><line class="cls-1" x1="240.25" y1="1.42" x2="240.25" y2="111.92"/><line class="cls-1" x1="268.75" y1="1.42" x2="268.75" y2="111.92"/><line class="cls-1" x1="224.75" y1="18.14" x2="224.75" y2="111.92"/><line class="cls-1" x1="38.15" y1="72.58" x2="38.15" y2="111.92"/><line class="cls-1" x1="34.24" y1="72.58" x2="34.24" y2="111.92"/><line class="cls-1" x1="20.75" y1="72.25" x2="20.75" y2="111.92"/><line class="cls-1" x1="65.25" y1="72.58" x2="65.25" y2="111.92"/><line class="cls-1" x1="61.34" y1="72.58" x2="61.34" y2="111.92"/><line class="cls-1" x1="47.85" y1="72.25" x2="47.85" y2="111.92"/><line class="cls-1" x1="254.42" y1="18.14" x2="254.42" y2="111.92"/><rect class="cls-1" x="14.75" y="16.75" width="200" height="55.5"/><line class="cls-1" x1="273.42" y1="1.42" x2="273.42" y2="111.92"/><line class="cls-1" x1="241" y1="1.42" x2="273.42" y2="1.42"/><line class="cls-1" x1="254.42" y1="18.14" x2="244.75" y2="18.14"/><line class="cls-1" x1="214.75" y1="72.25" x2="224.75" y2="72.25"/><line class="cls-1" x1="244.75" y1="72.25" x2="254.42" y2="72.25"/><line class="cls-1" x1="214.75" y1="16.75" x2="224.75" y2="16.75"/><line class="cls-1" x1="14.75" y1="25.25" x2="214.75" y2="25.25"/><line class="cls-1" x1="14.75" y1="48.58" x2="214.75" y2="48.58"/><line class="cls-1" x1="214.75" y1="48.58" x2="224.75" y2="48.58"/><line class="cls-1" x1="244.58" y1="48.58" x2="254.58" y2="48.58"/><line class="cls-2" x1="209.42" y1="25.25" x2="209.42" y2="72.25"/><line class="cls-2" x1="202.43" y1="25.25" x2="202.43" y2="72.25"/><line class="cls-2" x1="195.44" y1="25.25" x2="195.44" y2="72.25"/><line class="cls-2" x1="188.45" y1="25.25" x2="188.45" y2="72.25"/><line class="cls-2" x1="181.47" y1="25.25" x2="181.47" y2="72.25"/><line class="cls-2" x1="174.48" y1="25.25" x2="174.48" y2="72.25"/><line class="cls-2" x1="167.49" y1="25.25" x2="167.49" y2="72.25"/><line class="cls-2" x1="160.5" y1="25.25" x2="160.5" y2="72.25"/><line class="cls-2" x1="153.52" y1="25.25" x2="153.52" y2="72.25"/><line class="cls-2" x1="146.53" y1="25.25" x2="146.53" y2="72.25"/><line class="cls-2" x1="139.54" y1="25.25" x2="139.54" y2="72.25"/><line class="cls-2" x1="132.55" y1="25.25" x2="132.55" y2="72.25"/><line class="cls-2" x1="125.57" y1="25.25" x2="125.57" y2="72.25"/><line class="cls-2" x1="118.58" y1="25.25" x2="118.58" y2="72.25"/><line class="cls-2" x1="111.59" y1="25.25" x2="111.59" y2="72.25"/><line class="cls-2" x1="104.6" y1="25.25" x2="104.6" y2="72.25"/><line class="cls-2" x1="97.61" y1="25.25" x2="97.61" y2="72.25"/><line class="cls-2" x1="90.63" y1="25.25" x2="90.63" y2="72.25"/><line class="cls-2" x1="83.64" y1="25.25" x2="83.64" y2="72.25"/><line class="cls-2" x1="76.65" y1="25.25" x2="76.65" y2="72.25"/><line class="cls-2" x1="69.66" y1="25.25" x2="69.66" y2="72.25"/><line class="cls-2" x1="62.68" y1="25.25" x2="62.68" y2="72.25"/><line class="cls-2" x1="55.69" y1="25.25" x2="55.69" y2="72.25"/><line class="cls-2" x1="48.7" y1="25.25" x2="48.7" y2="72.25"/><line class="cls-2" x1="41.71" y1="25.25" x2="41.71" y2="72.25"/><line class="cls-2" x1="34.73" y1="25.25" x2="34.73" y2="72.25"/><line class="cls-2" x1="27.74" y1="25.25" x2="27.74" y2="72.25"/><line class="cls-2" x1="20.75" y1="25.25" x2="20.75" y2="72.25"/><line class="cls-1" x1="214.75" y1="25.25" x2="224.75" y2="25.25"/><line class="cls-1" x1="244.75" y1="25.25" x2="254.42" y2="25.25"/><line class="cls-2" x1="219.75" y1="24.83" x2="219.75" y2="72.58"/><line class="cls-2" x1="249.58" y1="24.83" x2="249.58" y2="72.58"/><line class="cls-3" x1="20.75" y1="111.92" x2="38.15" y2="111.92"/><line class="cls-3" x1="47.85" y1="111.92" x2="65.25" y2="111.92"/><line class="cls-3" x1="224.75" y1="111.92" x2="244.75" y2="111.92"/><line class="cls-3" x1="254.42" y1="111.92" x2="273.42" y2="111.92"/></g></g></svg>