<svg xmlns="http://www.w3.org/2000/svg" viewBox="0 0 271.88 297.51"><defs><style>.cls-1,.cls-2{fill:none;stroke:#99789e;stroke-miterlimit:10;stroke-width:2.83px;}.cls-1{stroke-dasharray:2.83;}.cls-2{stroke-linecap:round;}</style></defs><title>Asset 4</title><g id="Layer_2" data-name="Layer 2"><g id="Layer_2-2" data-name="Layer 2"><line class="cls-1" x1="120.51" y1="47.05" x2="124.44" y2="112.8"/><line class="cls-1" x1="116.2" y1="47.05" x2="117.38" y2="112.8"/><line class="cls-1" x1="113.45" y1="49.66" x2="111.1" y2="121.82"/><line class="cls-1" x1="124.44" y1="47.05" x2="129.14" y2="112.8"/><line class="cls-1" x1="95.81" y1="70.84" x2="97.77" y2="129.27"/><line class="cls-1" x1="99.6" y1="72.8" x2="103.13" y2="131.23"/><line class="cls-1" x1="91.88" y1="72.8" x2="90.32" y2="133.98"/><line class="cls-1" x1="89.14" y1="76.01" x2="84.82" y2="137.9"/><line class="cls-2" x1="124.44" y1="117.77" x2="124.44" y2="143.65"/><line class="cls-2" x1="129.14" y1="120.91" x2="129.14" y2="146.79"/><line class="cls-2" x1="117.38" y1="120.91" x2="117.38" y2="146.79"/><line class="cls-2" x1="111.89" y1="127.18" x2="111.89" y2="153.07"/><line class="cls-2" x1="124.44" y1="151.5" x2="124.44" y2="220"/><line class="cls-2" x1="129.14" y1="158.31" x2="129.14" y2="204.32"/><line class="cls-2" x1="117.38" y1="158.31" x2="117.38" y2="288.77"/><line class="cls-2" x1="111.89" y1="171.94" x2="111.89" y2="218.26"/><line class="cls-2" x1="90.32" y1="177.91" x2="90.32" y2="234.11"/><line class="cls-2" x1="95.81" y1="177.91" x2="95.81" y2="206.8"/><line class="cls-2" x1="106.79" y1="146.79" x2="106.79" y2="198.35"/><line class="cls-2" x1="182.95" y1="146.79" x2="182.95" y2="198.35"/><line class="cls-2" x1="101.56" y1="135.03" x2="101.56" y2="160.91"/><line class="cls-2" x1="96.2" y1="135.03" x2="96.2" y2="160.91"/><line class="cls-2" x1="90.32" y1="140.12" x2="90.32" y2="166.01"/><line class="cls-2" x1="84.82" y1="144.83" x2="84.82" y2="170.72"/><line class="cls-2" x1="84.82" y1="166.32" x2="84.82" y2="262.71"/><line class="cls-1" x1="47.85" y1="168.37" x2="47.85" y2="207.19"/><line class="cls-1" x1="61.16" y1="158.5" x2="61.16" y2="200.04"/><line class="cls-1" x1="72.54" y1="154.53" x2="72.54" y2="190.6"/><circle class="cls-2" cx="145.22" cy="97.31" r="3.86"/><circle class="cls-2" cx="145.22" cy="112.34" r="8.3"/><path class="cls-2" d="M145.22,125.61S128.49,225.23,117.38,238"/><path class="cls-2" d="M117.38,238c-6-18.56-15.82-64.32-15.82-64.32C97.9,191.24,87.44,264.45,82,271l-8.5-11.25L67.18,271l-6.67-11.25L53.84,271l-7.06-11.25L40.11,271l-7.06-11.25L26.39,271l-5.1-11.25L15,269.29v19.48"/><path class="cls-2" d="M111.1,45.34c3.79-16,3-18.82,3.27-20.13s.26-8.63.26-8.63h2.16V12.4S111,8.74,111.1,7.69s3.79-6.27,6.28-6.27"/><path class="cls-2" d="M125.87,45.34c-3.79-16-5.22-18.82-5.49-20.13s-.26-8.63-.26-8.63H118V12.4s5.81-3.66,5.68-4.71-3.79-6.27-6.27-6.27"/><path class="cls-2" d="M87.57,67.31c3.79-16,3-18.83,3.27-20.14s.26-8.62.26-8.62h2.16V34.36s-5.82-3.66-5.69-4.7,3.79-6.28,6.28-6.28"/><path class="cls-2" d="M102.34,67.31c-3.79-16-5.22-18.83-5.49-20.14s-.26-8.62-.26-8.62H94.44V34.36s5.81-3.66,5.68-4.7-3.79-6.28-6.27-6.28"/><line class="cls-1" x1="168.36" y1="47.05" x2="166.01" y2="108.03"/><line class="cls-1" x1="172.68" y1="47.05" x2="171.5" y2="112.96"/><line class="cls-1" x1="176.21" y1="49.66" x2="177.78" y2="118.68"/><line class="cls-1" x1="165.22" y1="47.05" x2="161.39" y2="108.49"/><line class="cls-1" x1="193.07" y1="70.84" x2="191.11" y2="119.86"/><line class="cls-1" x1="189.28" y1="72.8" x2="185.75" y2="121.82"/><line class="cls-1" x1="196.99" y1="72.8" x2="198.56" y2="119.86"/><line class="cls-1" x1="199.74" y1="76.01" x2="204.05" y2="128.49"/><line class="cls-2" x1="165.44" y1="117.77" x2="165.44" y2="143.65"/><line class="cls-2" x1="160.73" y1="120.91" x2="160.73" y2="146.79"/><line class="cls-2" x1="172.5" y1="120.91" x2="172.5" y2="146.79"/><line class="cls-2" x1="177.99" y1="127.18" x2="177.99" y2="153.07"/><line class="cls-2" x1="165.44" y1="151.5" x2="165.44" y2="218.26"/><line class="cls-2" x1="160.73" y1="158.31" x2="160.73" y2="198.35"/><line class="cls-2" x1="172.5" y1="158.31" x2="172.5" y2="288.77"/><line class="cls-2" x1="177.99" y1="171.94" x2="177.99" y2="218.26"/><line class="cls-2" x1="200.13" y1="177.91" x2="200.13" y2="236.16"/><line class="cls-2" x1="187.32" y1="135.03" x2="187.32" y2="160.91"/><line class="cls-2" x1="192.68" y1="135.03" x2="192.68" y2="160.91"/><line class="cls-2" x1="194.25" y1="169.6" x2="194.25" y2="201.83"/><line class="cls-2" x1="198.56" y1="140.12" x2="198.56" y2="166.01"/><line class="cls-2" x1="204.05" y1="144.83" x2="204.05" y2="170.72"/><circle class="cls-2" cx="145.22" cy="97.31" r="3.86"/><circle class="cls-2" cx="145.22" cy="112.34" r="8.3"/><path class="cls-2" d="M145.22,125.61S162,225.23,173.07,238"/><path class="cls-2" d="M173.07,238c6-18.56,15.82-64.32,15.82-64.32C192.55,191.24,203,264.45,208.5,271"/><path class="cls-2" d="M177.78,45.34c-3.8-16-3-18.82-3.27-20.13s-.26-8.63-.26-8.63h-2.16V12.4s5.82-3.66,5.69-4.71S174,1.42,171.5,1.42"/><path class="cls-2" d="M163,45.34c3.79-16,5.23-18.82,5.49-20.13s.26-8.63.26-8.63h2.16V12.4s-5.82-3.66-5.69-4.71,3.8-6.27,6.28-6.27"/><path class="cls-2" d="M201.3,67.31c-3.79-16-3-18.83-3.26-20.14s-.26-8.62-.26-8.62h-2.16V34.36s5.82-3.66,5.68-4.7-3.79-6.28-6.27-6.28"/><path class="cls-2" d="M186.53,67.31c3.79-16,5.23-18.83,5.49-20.14s.26-8.62.26-8.62h2.16V34.36s-5.82-3.66-5.69-4.7,3.8-6.28,6.28-6.28"/><path class="cls-2" d="M103.13,250c-7.1,2.39-6.4,12.82-6.4,12.82v26"/><path class="cls-2" d="M103.13,250c7.1,2.39,6.41,12.82,6.41,12.82v26"/><path class="cls-2" d="M72.54,234.11c-6.09,2.38-5.5,12.81-5.5,12.81v22.33"/><path class="cls-2" d="M72.54,234.11c6.1,2.38,5.51,12.81,5.51,12.81v18.75"/><path class="cls-2" d="M56.05,234.11c-6.09,2.38-5.5,12.81-5.5,12.81v19.36"/><path class="cls-2" d="M56.05,234.11c6.1,2.38,5.5,12.81,5.5,12.81v14.41"/><path class="cls-2" d="M40.34,234.11c-6.09,2.38-5.5,12.81-5.5,12.81v15.79"/><path class="cls-2" d="M40.34,234.11c6.1,2.38,5.51,12.81,5.51,12.81V261.4"/><path class="cls-2" d="M25.62,234.11c-4.58,2.38-4.14,12.81-4.14,12.81v11.81"/><path class="cls-2" d="M25.62,234.11c4.58,2.38,4.13,12.81,4.13,12.81v18.85"/><path class="cls-2" d="M187.32,250c7.09,2.39,6.4,12.82,6.4,12.82v26"/><path class="cls-2" d="M187.32,250c-7.1,2.39-6.41,12.82-6.41,12.82v26"/><path class="cls-2" d="M145.22,223.66c-10.72,5-9.67,26.67-9.67,26.67v38.44"/><path class="cls-2" d="M145.22,223.66c10.72,5,9.68,26.67,9.68,26.67v38.44"/><path class="cls-2" d="M145.22,184.7c-14.81,7.59-13.37,40.75-13.37,40.75v63.32"/><path class="cls-2" d="M145.22,184.7c14.82,7.59,13.37,40.75,13.37,40.75v63.32"/><polyline class="cls-2" points="223.1 270.99 215.8 259.74 208.5 270.99"/><line class="cls-2" x1="223.1" y1="270.99" x2="230.41" y2="259.74"/><line class="cls-2" x1="237.71" y1="270.99" x2="230.41" y2="259.74"/><line class="cls-2" x1="237.71" y1="270.99" x2="245.01" y2="259.74"/><polyline class="cls-2" points="245.01 259.74 252.32 270.99 252.32 288.77"/><polyline class="cls-2" points="210.67 167.61 216.56 192.81 220.59 164.31 226.27 196.21 230.46 173.72 234.64 203.26 240.75 254.78 245.4 260.33"/><polyline class="cls-2" points="80.12 160.91 75.8 160.91 73.06 151.5 67.57 185.75 60.9 154.77 52.66 185.75 47.96 166.01 43.64 187.71"/><path class="cls-2" d="M84.82,208.14,75,181.31S66,215.56,65.61,214s-9.42-28.24-9.42-28.24-8.23,32.16-8.62,31-3.93-32-3.93-32-10.59,35.43-11,35.3-5.1-29.54-5.1-29.54l-7.84,31.89L17,265.77"/><path class="cls-2" d="M208.5,271c-.2-.2,2.46-32.16,2.46-32.16l3.29-21.51,5.1,20.72,3.75,33"/><line class="cls-2" x1="32.66" y1="220" x2="31.96" y2="261.31"/><line class="cls-2" x1="47.85" y1="216.73" x2="47.15" y2="261.31"/><line class="cls-2" x1="65.57" y1="213.99" x2="64.86" y2="266.54"/><line class="cls-2" x1="102.34" y1="67.31" x2="106.79" y2="133.98"/><line class="cls-2" x1="106.79" y1="133.98" x2="111.1" y2="45.34"/><line class="cls-2" x1="125.87" y1="45.34" x2="137" y2="169.6"/><line class="cls-2" x1="163.01" y1="45.34" x2="154" y2="172.29"/><line class="cls-2" x1="177.78" y1="45.34" x2="182.87" y2="125.61"/><line class="cls-2" x1="182.87" y1="125.61" x2="186.53" y2="67.31"/><line class="cls-2" x1="201.3" y1="67.31" x2="209.53" y2="129.27"/><line class="cls-2" x1="209.53" y1="129.27" x2="210.9" y2="175.3"/><line class="cls-2" x1="87.57" y1="67.31" x2="80.12" y2="135.03"/><line class="cls-2" x1="80.12" y1="135.03" x2="80.12" y2="160.91"/><line class="cls-2" x1="109.9" y1="70.04" x2="103.13" y2="74.17"/><line class="cls-2" x1="109.36" y1="81.03" x2="104.57" y2="83.78"/><line class="cls-2" x1="179.39" y1="70.84" x2="186.19" y2="72.8"/><line class="cls-2" x1="180.32" y1="79.93" x2="185.58" y2="82.41"/><polyline class="cls-2" points="160.71 84.5 145.87 73.67 144.57 73.67 129.74 84.5"/><polyline class="cls-2" points="159.82 94.39 145.87 84.5 144.57 84.5 130.63 94.39"/><line class="cls-1" x1="22.35" y1="239.02" x2="23.55" y2="222.35"/><line class="cls-1" x1="23.55" y1="222.35" x2="27.69" y2="201.83"/><line class="cls-1" x1="37.58" y1="236.16" x2="37.58" y2="220"/><line class="cls-1" x1="37.58" y1="220" x2="44.99" y2="196.27"/><line class="cls-1" x1="53.3" y1="234.11" x2="53.3" y2="217.32"/><line class="cls-1" x1="53.3" y1="217.32" x2="59.74" y2="196.27"/><line class="cls-1" x1="72.08" y1="234.11" x2="72.08" y2="217.32"/><line class="cls-1" x1="72.08" y1="217.32" x2="78.53" y2="196.27"/><line class="cls-2" x1="80.12" y1="160.91" x2="80.12" y2="192.81"/><polyline class="cls-1" points="211.09 171.94 205.62 199.4 205.62 262.71"/><polyline class="cls-1" points="224.41 185.75 220.59 206.01 220.59 245.36"/><polyline class="cls-1" points="233.79 197.26 231.25 212.81 231.25 258.73"/><line class="cls-2" x1="15.01" y1="288.77" x2="256.87" y2="288.77"/><line class="cls-2" x1="7.69" y1="292.17" x2="264.19" y2="292.17"/><line class="cls-2" x1="1.42" y1="296.09" x2="270.46" y2="296.09"/><polyline class="cls-2" points="20.69 267.59 23.23 273.48 23.23 279.88 18.15 279.88 18.15 273.48 20.69 267.59"/><polyline class="cls-2" points="33.15 267.59 35.68 273.48 35.68 279.88 30.61 279.88 30.61 273.48 33.15 267.59"/><polyline class="cls-2" points="47.17 267.59 49.71 273.48 49.71 279.88 44.64 279.88 44.64 273.48 47.17 267.59"/><polyline class="cls-2" points="60.42 267.59 62.95 273.48 62.95 279.88 57.88 279.88 57.88 273.48 60.42 267.59"/><polyline class="cls-2" points="73.66 267.59 76.2 273.48 76.2 279.88 71.12 279.88 71.12 273.48 73.66 267.59"/><polyline class="cls-2" points="216.06 267.59 219.24 273.48 219.24 279.88 212.89 279.88 212.89 273.48 216.06 267.59"/><polyline class="cls-2" points="230.41 267.59 233.59 273.48 233.59 279.88 227.23 279.88 227.23 273.48 230.41 267.59"/><polyline class="cls-2" points="245.01 267.59 248.19 273.48 248.19 279.88 241.83 279.88 241.83 273.48 245.01 267.59"/></g></g></svg>